<?xml version="1.0" encoding="UTF-8"?><svg id="Layer_2" xmlns="http://www.w3.org/2000/svg" viewBox="0 0 364.85 395.09"><defs><style>.cls-1{fill:#51a1cd;}.cls-1,.cls-2,.cls-3,.cls-4{stroke-width:0px;}.cls-2{fill:#f25d5d;}.cls-3{fill:#e8c16f;}.cls-4{fill:#34363c;}</style></defs><g id="Layer_1-2"><path class="cls-1" d="m314.4,154.24c6.99,0,13.99,0,20.98,0-.06,1.84-.18,3.69-.18,5.53,0,33.95,0,67.89,0,101.84,0,19.26-.02,38.52-.04,57.78-7.25,1.26-11.66,5.37-12.77,12.77h-21.15v62.39c-10.08,0-19.92,0-29.75,0-.02-3.04-.05-6.08-.06-9.13-.03-18.41-.05-36.83-.07-55.24.11-2.4.32-4.8.33-7.2.04-18.53.05-37.07.07-55.6,4.92-.48,9.88-.69,14.74-1.51,4.6-.77,6.36-3.98,5.78-8.62-.25-1.98.05-4.06.34-6.06.12-.85.83-1.61,1.28-2.41.99-1.3,2.41-2.48,2.88-3.95.6-1.89.43-4.02.59-6.05-.08-1.07-.04-2.15-.25-3.2-.52-2.69.31-4.06,2.91-4.8,1.38-.39,2.79-.8,4.04-1.46,2.93-1.54,3.71-4.1,2.22-7.08-.53-1.07-1.26-2.04-1.94-3.03-1.82-2.63-3.7-5.23-5.48-7.88-3.25-4.84-4.25-10.04-2.72-15.78,1.2-4.51,1.65-9.13.78-13.8-1.3-6.99-3.66-13.56-7.61-19.51.13-2.94-.27-5.82-2.21-8.11-1.89-2.23-3.82-4.64-6.23-6.17-4.26-2.71-8.9-4.82-13.38-7.19-.23-.39-.36-.91-.7-1.14-10.05-6.94-21.25-10.68-33.38-11.45-8.23-.52-16.3.77-24.04,3.55-11.6,4.17-21.42,10.96-29.39,20.47-9.89,11.8-15.01,25.42-15.45,40.68-.17,5.86.88,11.76,1.38,17.64-.75,7.33-1.52,14.66-2.23,21.99-.44,4.45-.79,8.92-1.18,13.38-.28-.14-.61-.23-.84-.43-11.91-10.41-20.25-23.13-24.75-38.33,2.81,0,5.63,0,8.44,0,.03-.17.05-.35.08-.52-3.46-1.35-6.92-2.69-10.38-4.04-.05-1.01.06-2.05-.16-3.02-2.72-12.07-2.87-24.18-.29-36.25,2.73-12.79,7.72-24.59,16.24-34.7,1.19-.61,2.39-1.18,3.56-1.82,3.34-1.84,4.82-5.07,6.2-8.37.49-.42.96-.85,1.46-1.25,26.76-21.66,56.35-26.08,87.96-13.02,22.03,9.1,36.67,25.94,44.81,48.34.47,1.3,1.03,1.78,2.38,1.72,2.64-.11,5.29-.08,7.94-.11,2.4,0,4.8.01,7.21.02.11.11.25.17.41.18.03.64.07,1.28.07,1.92,0,40.84,0,81.67.02,122.51,0,1.04.11,2.08.17,3.11-4.71,1.46-6.33,5.51-3.52,8.92,1.28,1.56,2.81,2.45,5.03,1.86,2.59-.7,4.09-2.39,4.35-4.85.22-2.06-.83-3.87-2.76-4.95-.62-.34-1.26-.63-1.9-.95.06-.96.16-1.92.16-2.88,0-26.01-.03-52.01-.02-78.02,0-15.57.05-31.14.07-46.71Z"/><path class="cls-3" d="m136.89,207.13c4.51,15.19,12.85,27.91,24.75,38.33.23.2.56.29.84.43-.18,5.44-.48,10.88-.51,16.32-.1,16.29-.15,32.57-.13,48.86.03,27.84.13,55.68.2,83.52-1.34.17-2.68.48-4.02.48-24.16.03-48.32.03-72.48,0-2.31,0-4.62-.29-6.92-.44,0-36.45-.02-72.89-.02-109.34,0-2.49-.1-4.98.05-7.46.11-1.86-.61-2.28-2.35-2.27-14.37.06-28.73.03-43.1.03-10.27,0-20.55-.06-30.82.05-2.04.02-2.35-.76-2.35-2.53C.06,250.62.07,228.15,0,205.68c0-1.96.62-2.42,2.47-2.41,11.48.07,22.95.02,34.43.01.01.77.02,1.54.03,2.31,0,.56,0,1.12,0,1.68,0,1.21,0,2.42.01,3.62-.12.98-.24,1.96-.35,2.95h-17.4v40.45h70.38v-6.65c6.89-.02,13.79-.05,20.68-.07,2.41,0,4.81.04,7.22-.06,1.79-.07,2.89-1.22,2.9-2.92.01-1.68-1.05-2.83-2.8-3.08-.71-.1-1.44-.02-2.16-.03-8.66-.03-17.31-.07-25.97-.1.04-3.07.08-6.15.11-9.22l.65.03c.43.16.85.47,1.28.47,8.18.03,16.36.03,24.54-.01.52,0,1.04-.48,1.56-.74,1.52-.75,2.44-1.92,1.96-3.66-.52-1.86-2.02-2.22-3.78-2.22-8.72.01-17.44-.03-26.16-.05v-12.13h-50.93v-6.77c.93-.04,1.71-.11,2.5-.11,30.39,0,60.78-.01,91.17,0,1.52,0,3.04.11,4.56.17Zm-83.92,57.6c-1.5.85-2.64,1.91-2.01,3.83.66,2.03,2.38,2.1,4.12,2.1,25.11,0,50.21.02,75.32.05,1.72,0,3.29-.22,3.94-2.03.66-1.85-.41-3.03-1.85-3.97-.7-.23-1.4-.66-2.1-.66-25.01-.04-50.03-.04-75.04,0-.79,0-1.58.44-2.38.68Zm56.33,44.49c0-6.06.02-11.92-.02-17.78,0-.69-.32-1.38-.49-2.07-.27.05-.54.09-.81.14v19.68h-8.28c0-1.99,0-3.83,0-5.67q0-4.3-1.26-5.36v11.08c-1.77.11-3.23.21-4.69.3,0,.3,0,.6.01.9h4.55v10.17c-1.62.13-3.16.26-4.7.39.01.26.02.51.03.77h4.59v10.35h-4.44c-.01.22-.02.44-.03.66h4.5v9.45c-1.62.13-3.14.25-4.66.37l.03.83c1.53.07,3.05.13,5,.22v9.11c.28,0,.56,0,.84,0v-9.08h8.57v21.51c.25.06.5.12.76.18.18-.62.5-1.24.5-1.87.03-4.09-.01-8.19-.02-12.28,0-2.53,0-5.06,0-7.6h8.52v25.95h.9v-25.9h8.33v18.01c.28.01.56.02.83.03.67-6.01-.13-12.12.37-18.03h7.92v6.31c.24,0,.47,0,.71,0v-6.23c1.48-.25,2.61-.45,3.75-.64-.01-.22-.02-.44-.03-.66-1.18-.13-2.36-.26-3.37-.38v-9.03c1.19-.14,2.19-.25,3.19-.37l-.02-.63c-1.03-.15-2.06-.3-3.14-.45v-9.65c1.19-.11,2.22-.2,3.26-.29,0-.21.01-.43.02-.64-1.03-.14-2.07-.27-3.27-.43v-10.02c1.16-.12,2.22-.23,3.28-.34.01-.21.02-.42.03-.64-1.18-.15-2.37-.3-3.84-.49v-9.86c-.24,0-.48,0-.71,0v9.96h-7.86c0-2.05,0-3.97,0-5.88q.02-4.32-1.34-5.16v11.01h-7.96c0-1.91,0-3.68,0-5.44,0-1.77.04-3.53,0-5.3-.04-1.56-.17-3.12-.26-4.68l-.94.1v15.36h-8.37Z"/><path class="cls-4" d="m162.04,394.58c-.07-27.84-.17-55.68-.2-83.52-.02-16.29.03-32.57.13-48.86.03-5.44.33-10.88.51-16.32.39-4.46.74-8.92,1.18-13.37.72-7.33,1.49-14.66,2.23-21.99.12-.37.29-.74.35-1.13,1.4-9.87,3.68-19.51,7.24-28.84,10.69-28.05,35-44.79,64.97-44.67,9.94.04,19.6,1.79,29.03,4.88,4.48,2.36,9.12,4.48,13.38,7.19,2.42,1.54,4.34,3.94,6.23,6.17,1.94,2.29,2.34,5.17,2.21,8.11-.69,3.63-2.67,6.46-5.45,8.8-4.7,3.97-10.25,6.2-16.12,7.62-4.33,1.05-8.75,1.7-13.2,2.53.97,13.34-7.5,18.56-18.73,21.28,0,.53,0,.93,0,1.32-.16,11.94,0,23.89-.59,35.81-.35,7-1.87,13.95-2.87,20.92-.13.29-.32.57-.39.87-3.62,16.33-10.06,31.3-21.07,44.1-.49.41-1.02.77-1.46,1.22-23.75,24.49-36.83,53.52-37.33,87.88-3.35,0-6.7-.01-10.05-.02Zm55.36-144.73v-49.63c-.14,0-.28,0-.41,0v49.69c-3.48.88-6.24,2.65-6.54,6.13-.4,4.51-.1,9.09-.1,13.7h13.89c0-3.72-.21-7.33.05-10.9.36-4.9-2.34-7.94-6.89-8.99Z"/><path class="cls-2" d="m78.59,285.28c0,36.45.02,72.89.02,109.34-19.51.01-39.02.02-58.52.02-.22,0-.45-.09-.79-.17v-109.19h59.29Zm-10.38,51.05c4.49.02,8.11-3.69,8.12-8.33.01-4.45-3.57-8.05-8.06-8.09-4.54-.04-8.24,3.6-8.31,8.18-.07,4.47,3.69,8.22,8.25,8.24Zm-8.02,19.68c0,4.8,3.39,8.23,8.13,8.23,4.48,0,8.11-3.72,8.17-8.36.05-4.26-3.62-7.93-7.98-7.98-4.65-.06-8.32,3.52-8.31,8.11Z"/><path class="cls-3" d="m172.08,394.6c.5-34.37,13.58-63.39,37.33-87.88.44-.45.97-.82,1.46-1.22,4.58,3.18,9.49,5.98,13.66,9.63,7.55,6.61,15.96,9.99,26.01,8.96-.94,3.86-1.7,7.78-2.86,11.57-2.41,7.94-5.99,15.23-11.04,21.96-2.18,2.9-2.76,7.09-3.78,10.77-2.23,8.02-3.27,16.25-3.97,24.53-.06.7-.86,1.57-1.54,1.91-.73.36-1.72.25-2.59.25-15.1.01-30.19.03-45.29-.01-2.47,0-4.94-.3-7.41-.46Z"/><path class="cls-4" d="m312.99,281.82c-.06-1.04-.17-2.08-.17-3.11-.01-40.84-.01-81.67-.02-122.51,0-.64-.05-1.28-.07-1.92,0-.21,0-.41,0-.62.03-.48.08-.96.08-1.44,0-31.94,0-63.89,0-95.83,0-.43,0-.87,0-1.3-1.47,1.73-2.51,3.58-3.63,5.38-1.51,2.43-3.08,4.83-4.63,7.24-3.61.02-7.22.07-10.82.07-29.99-.03-59.97-.06-89.96-.1-.28-.38-.56-.75-.85-1.13,6.93-2.18,13.87-4.32,20.78-6.56,34.84-11.27,69.68-22.57,104.52-33.85.28-.09.59-.11,1.23-.21-3.64,6.28-6.86,12.45-10.66,18.23-3.33,5.08-4.65,10.26-4.6,16.39.27,29.87.11,59.75.11,89.62,0,1.36.07,2.72.11,4.09-.02,15.57-.07,31.14-.07,46.71,0,26.01.02,52.01.02,78.02,0,.96-.11,1.92-.16,2.88-.4-.01-.8-.02-1.2-.03Z"/><path class="cls-2" d="m202.61,22.03c.02,3.77.04,7.54.07,11.3,0,0-.1.08-.1.08,0,0,.09.09.09.09.03,9.42.06,18.84.08,28.25,0,.22-.16.44-.24.66-10.94-.83-21.45.34-31.07,6.23-2.52,1.54-5.24,2.8-7.99,3.89-4.66,1.86-9.54,2.55-14.53,2.04v-19.24c8.09.26,15-2.95,21.81-6.43,4.75-2.43,9.69-4.34,15.03-4.81,4.71-.42,9.45-.51,14.17-.75.8-.04,1.6-.08,2.4-.12,0-.25-.02-.51-.03-.76-2.34,0-4.67.01-7.01,0-9.4-.07-18.29,1.87-26.63,6.32-2.82,1.51-5.78,2.8-8.8,3.87-3.52,1.25-7.18,1.99-10.95,1.73v-16.91c1.84-.09,3.54.01,5.17-.3,5.74-1.1,11.47-2.24,17.17-3.55,9.41-2.17,18.95-2.11,28.5-2.04.87,0,1.73-.11,2.6-.17-.02-.24-.03-.49-.05-.73-.83,0-1.66.03-2.49,0-13.25-.51-26.24.92-39.04,4.5-3.77,1.05-7.83,1.1-11.84,1.61v-16.24c17.43-.04,34.87-.09,52.3-.06.47,0,.93.77,1.39,1.17-.07.12-.07.24,0,.36Z"/><path class="cls-2" d="m250.55,324.09c-10.05,1.03-18.46-2.35-26.01-8.96-4.17-3.65-9.08-6.45-13.66-9.63,11.01-12.79,17.45-27.77,21.07-44.09.07-.3.26-.58.39-.87,5.32,3.13,10.94,5.43,17.06,6.47.86.15,1.63.86,2.44,1.32,0,3.24.02,6.48.02,9.72,0,.77,0,1.55.01,2.32,0,1.32,0,2.63,0,3.95,0,2.05.01,4.1.02,6.16-.02,5.81-.03,11.61-.05,17.42,0,.15.01.31.02.46,0,.66,0,1.33,0,1.99-.1,4.48-.19,8.95-.29,13.43-.34.11-.69.22-1.03.33Z"/><path class="cls-4" d="m37.07,129.11c-.11-1.02-.23-2.04-.36-3.18H9.67v-3.6c.33-.61.94-1.23.94-1.84.06-8.89.06-17.79,0-26.68,0-.61-.62-1.22-.95-1.84.26-.41.51-1.18.77-1.18,13.74,0,27.49.05,41.23.11-.01,2.19-.04,4.39-.04,6.58-.02,9.46-.04,18.92-.07,28.39h-12.89c-.08,1.32-.13,2.27-.18,3.22-.47.01-.93.02-1.4.03Z"/><path class="cls-4" d="m271.36,330.18c.02,18.41.04,36.83.07,55.24,0,3.04.04,6.08.06,9.13-6.33,0-12.65,0-19.23,0,0-.87,0-1.74,0-2.6.03-22.24.07-44.47.1-66.71,0-.48-.07-.95-.11-1.43.12-4.18.23-8.36.35-12.54.48.4,1,.76,1.44,1.21,5.78,5.89,11.56,11.8,17.33,17.7Z"/><path class="cls-4" d="m37.07,129.11c.47-.01.93-.02,1.4-.03.03.88.09,1.76.09,2.64,0,19.17,0,38.33-.01,57.5,0,5.53,0,11.05,0,16.74,2.21-.78,4.25-1.44,6.25-2.21,7.28-2.83,14.54-5.7,21.8-8.56,2.03-.72,4.14-1.28,6.07-2.2,2.98-1.4,6.03-1.86,9.3-1.79,6.73.14,13.48,0,20.21.08,1.48.02,3.02.31,4.42.8,5.14,1.79,10.22,3.71,15.33,5.58,4.36,1.64,8.72,3.28,13.09,4.92,3.46,1.35,6.92,2.69,10.38,4.04-.03.17-.05.35-.08.52-2.81,0-5.63,0-8.44,0-1.52-.06-3.04-.17-4.56-.17-30.39,0-60.78,0-91.17,0-.78,0-1.57.07-2.5.11,0,2.34,0,4.55,0,6.77-.01,6.77-.03,13.53-.04,20.3-1.65.43-1.59-.64-1.6-1.75-.03-4.36-.09-8.72-.15-13.07.02-1.83.03-3.65.05-5.48l.02-2.94c0-1.21,0-2.42-.01-3.62,0-.56,0-1.12,0-1.69-.01-.77-.02-1.54-.03-2.31.02-22,.03-44,.05-66,0-2.72.07-5.45.11-8.17Z"/><path class="cls-2" d="m202.91,66.53c.28.38.56.75.85,1.13-.32.7-.9,1.39-.91,2.09-.07,6.09-.03,12.19-.03,18.29,0,.76-.07,1.52-.11,2.41-2.05,0-3.82,0-5.58,0-13.23,0-26.47.01-39.7,0-2.72,0-5.45-.09-8.17-.14-.23-4.85-.46-9.69-.69-14.49,2.73,0,4.91.34,6.94-.06,5.75-1.15,11.18-3.21,16.28-6.19,6.01-3.51,12.35-6.14,19.46-6.27,3.77-.07,7.53-.09,11.3-.13.12,1.13.24,2.25.36,3.38Z"/><path class="cls-2" d="m66.42,56.87c-7.9-1.31-12.86-6.75-13.02-14.28-.15-7.2,4.62-13.02,11.88-14.51,8.27-1.69,16.1,4.46,16.87,13.27.04.36.08.73.11,1.09-.24,8.46-7.2,14.65-14.95,14.44-.07.1-.16.16-.28.17l-.62-.18Z"/><path class="cls-4" d="m82.27,42.44c-.04-.36-.08-.73-.11-1.09,7.19.01,14.38.09,21.58.02,6.48-.06,12.9.14,19.08,2.42,4.37,2.49,8.62,5.23,13.15,7.37,3.39,1.61,7.15,2.44,11.05,3.72v-17.77c-6.98-.69-12.72-3.85-18.06-7.99-1.88-1.46-3.97-2.65-5.96-3.96-4.74-4.26-10.48-6-16.66-6.31-5.28-.26-10.58-.14-15.87-.06-.67,0-1.28.9-2,1.2-1.22.52-2.62,1.45-3.7,1.19-.95-.23-2.14-1.84-2.15-2.86-.02-1.02,1.09-2.36,2.07-3.02,1.44-.97,2.63.07,3.73,1.16.61.61,1.58,1.19,2.4,1.21,4.57.11,9.14-.05,13.71.06,6.63.15,12.87,1.67,18.29,5.75,7.47,5.27,14.2,11.97,24.28,12.63V8.76c-3.16-1.51-4.07-2.83-3.59-5.17.41-2.03,2.23-3.68,4.24-3.58,2.11.1,3.61,1.2,4.22,3.3.68,2.33-.18,3.84-3.04,5.46,0,3.95,0,7.87,0,11.79,0,5.2,0,10.4,0,16.24,4.01-.52,8.07-.56,11.84-1.61,12.8-3.58,25.79-5.01,39.04-4.5.83.03,1.66,0,2.49,0,.02.24.03.49.05.73-.87.06-1.73.18-2.6.17-9.55-.07-19.1-.13-28.5,2.04-5.69,1.31-11.43,2.45-17.17,3.55-1.62.31-3.33.21-5.17.3v16.91c3.77.26,7.43-.49,10.95-1.73,3.01-1.07,5.98-2.36,8.8-3.87,8.34-4.46,17.24-6.39,26.63-6.32,2.34.02,4.67,0,7.01,0,0,.25.02.51.03.76-.8.04-1.6.08-2.4.12-4.73.24-9.46.32-14.17.75-5.34.48-10.28,2.38-15.03,4.81-6.81,3.48-13.71,6.69-21.81,6.43v19.24c5,.51,9.87-.18,14.53-2.04,2.75-1.1,5.47-2.35,7.99-3.89,9.62-5.89,20.13-7.06,31.07-6.23.01.25.03.5.04.74-3.77.04-7.53.06-11.3.13-7.11.13-13.45,2.76-19.46,6.27-5.1,2.98-10.53,5.04-16.28,6.19-2.03.41-4.22.06-6.94.06.23,4.8.46,9.64.69,14.49-.12,3.75-.23,7.51-.35,11.26-.63-.04-1.25-.08-1.88-.13,0-3.69.01-7.37.02-11.06.04-4.55.12-9.11.05-13.66,0-.52-.79-1.4-1.31-1.48-6.11-.99-11.25-3.9-16.02-7.7-2.16-1.72-4.51-3.19-6.78-4.78-.03-.49-.06-.98-.09-1.46,2.49,1.87,5.03,3.68,7.47,5.62,4.9,3.9,10.22,6.79,16.7,7.6v-19.36c-7.45-.22-13.47-3.91-19.48-7.66-1.47-.92-3.15-1.52-4.73-2.26-.3-.14-.59-.29-.89-.43-2.6-.67-5.19-1.85-7.81-1.93-10.63-.32-21.27-.31-31.9-.42Z"/><path class="cls-1" d="m348.27,106.02c-5.48-1.79-9.04-5.3-10.04-11.15-1.1-6.46,2.53-12.79,8.63-14.95,6.23-2.21,12.91.28,16.17,6.01,3.26,5.73,2.04,12.86-2.92,17.03-2.97,2.5-6.39,3.6-10.26,3.31-.53-.08-1.05-.17-1.58-.25Z"/><path class="cls-2" d="m322.38,332.16c1.12-7.4,5.52-11.51,12.77-12.77.58.01,1.15.03,1.73.04,5.14,1.01,9.1,3.58,11.03,8.62,2.72,7.11-1.34,15.27-8.52,17.34-7.42,2.13-14.85-2.32-16.49-9.9-.24-1.09-.34-2.22-.51-3.33Z"/><path class="cls-4" d="m53.02,90.89c4.03,0,8.06,0,12.08-.01.44.36.89.73,1.33,1.09-.01,2.42-.02,4.84-.03,7.26,0,.3,0,.6,0,.9,0,6.28,0,12.55,0,18.83-.12,2.23-.24,4.45-.35,6.68l-.06.22c-4.25.06-8.51.12-12.76.17.03-1.01.14-2.03.08-3.04-.1-1.85-.43-3.7-.43-5.55,0-4.04.24-8.08.22-12.13-.02-2.95-.38-5.89-.43-8.84-.03-1.86.23-3.72.36-5.58Z"/><path class="cls-2" d="m122.99,25.17c1.99,1.31,4.08,2.5,5.96,3.96,5.34,4.14,11.08,7.29,18.06,7.99v17.77c-3.9-1.28-7.66-2.11-11.05-3.72-4.53-2.15-8.78-4.89-13.15-7.37.06-6.21.12-12.42.18-18.63Z"/><path class="cls-4" d="m336.88,319.43c-.58-.01-1.15-.03-1.73-.04.01-19.26.03-38.52.04-57.78,0-33.95,0-67.89,0-101.84,0-1.84.12-3.69.18-5.53.5.35,1.13.61,1.47,1.08.23.32.05.93.05,1.41,0,54.23,0,108.46-.01,162.69Z"/><path class="cls-4" d="m348.27,106.02c.53.08,1.05.17,1.58.25,0,47.08.01,94.16.02,141.24,0,.48-.04.96-.06,1.44-.52,0-1.03-.01-1.55-.02-.04-22.94-.1-45.87-.1-68.81,0-24.7.07-49.4.11-74.11Z"/><path class="cls-2" d="m147.08,20.27v15.85c-10.07-.66-16.81-7.35-24.28-12.63.05-.88.09-1.76.15-2.64,0-.06.1-.12.47-.58h23.65Z"/><path class="cls-4" d="m53.02,90.89c-.13,1.86-.39,3.72-.36,5.58.05,2.95.41,5.89.43,8.84.02,4.04-.21,8.08-.22,12.13,0,1.85.33,3.7.43,5.55.06,1.01-.05,2.03-.08,3.04v16.91c.34.15.78.34,1.21.54,2.31,1.08,3.53,3.25,2.96,5.66-.5,2.13-1.84,3.5-4.14,3.7-2.27.19-4.22-1.02-4.9-3.03-.79-2.32.07-4.58,2.1-6.1.57-.42,1.09-1.31,1.1-1.99.07-5.28.01-10.56,0-15.85.02-9.46.04-18.92.07-28.39,0-2.19.03-4.39.04-6.58.45,0,.91,0,1.36,0Z"/><path class="cls-2" d="m348.26,248.94c.52,0,1.03.01,1.55.02,3,1.32,4.29,3.21,3.98,5.82-.26,2.18-2.04,4.1-4.11,4.45-3.04.51-5.56-1.16-6.08-4.02-.59-3.26,1.08-5.51,4.66-6.27Z"/><path class="cls-4" d="m66.42,56.87c.21.06.41.12.62.18.1.39.2.77.3,1.16.06,3.38.13,6.76.19,10.14-.05,1.35-.12,2.7-.14,4.05-.06,6.04-.11,12.09-.16,18.13,0,0,.05-.02.05-.02-.25,0-.49,0-.74,0l.02.03c-.06-8.02-.13-16.03-.17-24.05-.02-3.21.01-6.41.02-9.62Z"/><path class="cls-4" d="m9.66,91.97c.33.61.95,1.22.95,1.84.06,8.89.06,17.79,0,26.68,0,.62-.61,1.23-.94,1.84,0-10.12,0-20.24,0-30.36Z"/><path class="cls-3" d="m252.59,311.28c-.12,4.18-.23,8.36-.35,12.54-.22-.02-.44-.04-.65-.06.1-4.48.19-8.95.29-13.43.24.32.48.63.72.95Z"/><path class="cls-4" d="m66.43,91.97c-.44-.36-.89-.73-1.33-1.09.49-.11.98-.23,1.47-.34,0,0-.02-.03-.02-.03-.04.49-.08.97-.12,1.46Z"/><polygon class="cls-1" points="202.67 33.5 202.58 33.41 202.67 33.33 202.67 33.5"/><path class="cls-1" d="m202.61,22.03c-.06-.12-.06-.25,0-.36.13.13.12.25,0,.36Z"/><path class="cls-3" d="m148.91,101.56c.12-3.75.23-7.51.35-11.26,2.72.05,5.44.14,8.17.14,13.23.01,26.47,0,39.7,0,1.76,0,3.52,0,5.58,0,.04-.88.11-1.64.11-2.41,0-6.1-.03-12.19.03-18.29,0-.7.59-1.39.91-2.09,29.99.03,59.97.07,89.96.1,3.61,0,7.22-.04,10.82-.07.18,1.17.53,2.34.53,3.51.04,27.62.04,55.25.05,82.87-2.65.03-5.3,0-7.94.11-1.35.06-1.91-.42-2.38-1.72-8.14-22.4-22.78-39.24-44.81-48.34-31.61-13.06-61.21-8.64-87.96,13.02-.5.4-.97.83-1.46,1.25,0-1.43.06-2.86,0-4.29-.27-6.22-5.44-11.77-11.65-12.56Zm104.36-11.2h37.93v-11.43h-37.93v11.43Z"/><path class="cls-3" d="m251.84,268.31c-.81-.45-1.57-1.17-2.44-1.32-6.12-1.04-11.74-3.34-17.06-6.47,1-6.97,2.52-13.92,2.87-20.92.59-11.92.44-23.87.59-35.81,0-.4,0-.79,0-1.32,11.23-2.72,19.7-7.94,18.73-21.28,4.45-.84,8.88-1.48,13.2-2.53,5.87-1.43,11.42-3.65,16.12-7.62,2.77-2.35,4.75-5.17,5.45-8.8,3.95,5.95,6.31,12.52,7.61,19.51.87,4.67.42,9.29-.78,13.8-1.53,5.75-.53,10.94,2.72,15.78,1.78,2.66,3.66,5.25,5.48,7.88.68.99,1.41,1.96,1.94,3.03,1.49,2.98.72,5.54-2.22,7.08-1.26.66-2.67,1.07-4.04,1.46-2.6.74-3.42,2.12-2.91,4.8.2,1.04.17,2.13.25,3.2-4.73,1.47-9.13,4.11-15,3.45,3.47,3.9,7.25,5.65,11.53,6.55-.44.8-1.16,1.56-1.28,2.41-.28,2-.59,4.08-.34,6.06.58,4.63-1.17,7.84-5.78,8.62-4.86.82-9.82,1.03-14.74,1.51-.56,0-1.12.02-1.68.02-5.25,0-10.5-.04-15.75.05-.83.01-1.66.57-2.49.88Zm12.14-78.77c.02.28.05.56.07.84.85-.16,1.7-.28,2.54-.47,4.86-1.13,9.75-2.11,14.74-1.03,2.57.55,5.04,1.54,7.6,2.14.68.16,1.53-.37,2.31-.58-.23-.84-.32-1.77-.75-2.5-.28-.48-1.03-.86-1.61-.94-3.45-.49-7.01-1.59-10.35-1.15-4.92.64-9.7,2.41-14.53,3.69Z"/><path class="cls-3" d="m67.23,90.53c.05-6.04.09-12.09.16-18.13.01-1.35.09-2.7.14-4.05,6.01,0,12.02,0,18.02,0q4.62,0,4.62-4.5c0-5.21.09-10.42-.05-15.62-.05-2,.56-2.58,2.56-2.56,8.97.1,17.94.07,26.92,0,.8,0,1.59-.57,2.38-.87.3.14.59.29.89.43.01,5.35.02,10.71.04,16.06.03.49.06.98.09,1.46-.07,8.32-.15,16.63-.22,24.95,0,.85,0,1.7,0,2.67h24.27c0,3.69-.01,7.37-.02,11.06-6.82.2-12.36,5.14-13.07,11.66-.8,7.24,3.43,13.76,10.19,15.28,2.13.48,4.44.17,6.67.22-8.53,10.11-13.51,21.91-16.24,34.7-2.58,12.07-2.43,24.19.29,36.25.22.97.12,2.01.16,3.02-4.36-1.64-8.72-3.28-13.09-4.92.12-.77.36-1.54.36-2.31.03-33.99.04-67.98.06-101.96,0-.86,0-1.72,0-2.84-1.31.07-2.32.13-3.32.18-.49,0-.98-.02-1.47-.02-16.28-.02-32.55-.03-48.83-.05h0c-.5-.04-1-.08-1.5-.11Z"/><path class="cls-2" d="m267.48,140.76c-9.43-3.09-19.09-4.84-29.03-4.88-29.97-.12-54.28,16.62-64.97,44.67-3.56,9.33-5.84,18.97-7.24,28.84-.05.38-.23.75-.35,1.13-.5-5.88-1.55-11.78-1.38-17.64.44-15.26,5.57-28.87,15.45-40.68,7.97-9.52,17.79-16.3,29.39-20.47,7.74-2.79,15.81-4.08,24.04-3.55,12.14.77,23.33,4.51,33.38,11.45.33.23.47.75.7,1.14Z"/><path class="cls-2" d="m150.81,128.59c-2.23-.05-4.53.25-6.67-.22-6.77-1.52-10.99-8.04-10.19-15.28.72-6.52,6.25-11.46,13.07-11.66.63.04,1.25.08,1.88.13,6.22.79,11.38,6.34,11.65,12.56.06,1.43,0,2.86,0,4.29-1.38,3.3-2.86,6.53-6.2,8.37-1.17.64-2.37,1.22-3.56,1.82Z"/><path class="cls-2" d="m312.99,281.82c.4,0,.8.02,1.2.03.63.32,1.28.6,1.9.95,1.93,1.08,2.98,2.89,2.76,4.95-.26,2.46-1.76,4.15-4.35,4.85-2.22.6-3.75-.3-5.03-1.86-2.81-3.41-1.18-7.46,3.52-8.92Z"/><path class="cls-2" d="m293.89,248.77c-4.27-.89-8.06-2.65-11.53-6.55,5.87.66,10.27-1.98,15-3.45-.16,2.03,0,4.16-.59,6.05-.47,1.47-1.88,2.64-2.88,3.95Z"/><path class="cls-3" d="m312.33,154.09c.14-.15.27-.29.41-.44,0,.21,0,.41,0,.62-.16-.01-.29-.07-.41-.18Z"/><path class="cls-1" d="m38.62,234.15c.01-6.77.03-13.53.04-20.3,16.79,0,33.58,0,50.93,0,0,4.19,0,8.16,0,12.13-9.07.03-18.13.06-27.2.11-3.74.02-5.04.8-5.05,2.96-.01,2.17,1.41,2.99,5.01,3.01,9.06.03,18.13.07,27.19.11-.04,3.07-.08,6.15-.12,9.22-11.22.04-22.43.09-33.65.14-.8,0-1.82-.24-2.35.15-.97.72-2.28,1.82-2.29,2.78-.02.96,1.23,2.14,2.2,2.85.59.43,1.7.19,2.58.19,11.22.05,22.43.1,33.65.15v6.65H19.19v-40.45c5.76,0,11.58,0,17.4,0,0,0,.17.03.17.03l.17-.03c-.02,1.83-.03,3.65-.05,5.48-.07,4.16-.2,8.32-.18,12.48,0,1.43-.29,2.29-1.71,2.98-3.94,1.92-4.93,5.41-2.8,9.17,1.21,2.14,3.07,3.25,5.53,3.16,2.94-.11,4.94-1.7,6.11-4.33,1.04-2.32.49-4.52-1.18-6.2-1.07-1.08-2.67-1.64-4.03-2.44Z"/><path class="cls-4" d="m109.31,309.23h8.37v-15.36l.94-.1c.09,1.56.23,3.12.26,4.68.04,1.77,0,3.53,0,5.3,0,1.76,0,3.53,0,5.44h7.96v-11.01q1.36.84,1.34,5.16c0,1.91,0,3.83,0,5.88h7.86v-9.96c.24,0,.48,0,.71,0v9.86c1.48.19,2.66.34,3.84.49-.01.21-.02.42-.03.64-1.06.11-2.12.22-3.28.34v10.02c1.2.16,2.23.29,3.27.43,0,.21-.01.43-.02.64-1.03.09-2.07.19-3.26.29v9.65c1.08.16,2.11.3,3.14.45l.02.63c-1,.12-2.01.23-3.19.37v9.03c1.01.11,2.19.24,3.37.38.01.22.02.44.03.66-1.14.19-2.27.39-3.75.64v6.23c-.24,0-.47,0-.71,0v-6.31h-7.92c-.51,5.91.3,12.02-.37,18.03-.28-.01-.56-.02-.83-.03v-18.01h-8.33v25.91h-.9v-25.97h-8.52c0,2.53,0,5.07,0,7.6.01,4.09.05,8.19.02,12.28,0,.62-.33,1.25-.5,1.87-.25-.06-.5-.12-.76-.18v-21.51h-8.57v9.08c-.28,0-.56,0-.84,0v-9.11c-1.94-.09-3.47-.15-5-.22l-.03-.83c1.52-.12,3.04-.24,4.66-.37v-9.45h-4.5c.01-.22.02-.44.03-.66h4.44v-10.35h-4.59c-.01-.26-.02-.51-.03-.77,1.54-.13,3.08-.25,4.7-.39v-10.17h-4.55c0-.3,0-.6-.01-.9,1.46-.09,2.92-.19,4.69-.3v-11.08q1.26,1.06,1.26,5.36c0,1.84,0,3.68,0,5.67h8.28v-19.68c.27-.05.54-.09.81-.14.17.69.48,1.38.49,2.07.04,5.86.02,11.71.02,17.78Zm.18,1.25v10.17h8.01v-10.17h-8.01Zm-1.59,10.18v-10.12h-8.05v10.12h8.05Zm-7.96,1.31v9.8h7.92v-9.8h-7.92Zm17.56.06h-8.06v9.68h8.06v-9.68Zm1.58-11.52v10.1h7.57v-10.1h-7.57Zm16.69,21.24v-9.75h-7.52v9.75h7.52Zm-16.82-.06h7.78v-9.68h-7.78v9.68Zm-19.12,10.47h8.04v-9.14h-8.04v9.14Zm9.56-.06h8.05v-9.03h-8.05v9.03Zm26.42-21.48v-9.98h-7.56v9.98h7.56Zm-9.04,12.46h-7.76v9.06h7.76v-9.06Zm9,9.07v-9.11h-7.54v9.11h7.54Z"/><path class="cls-4" d="m132.48,264.72c1.45.94,2.52,2.12,1.85,3.97-.65,1.81-2.22,2.04-3.94,2.03-25.11-.03-50.21-.04-75.32-.05-1.74,0-3.46-.07-4.12-2.1-.62-1.92.52-2.99,2.01-3.83,1.04-.05,2.08-.14,3.12-.14,22.5,0,45.01,0,67.51.01,2.96,0,5.92.07,8.88.11Z"/><path class="cls-4" d="m89.56,247.63c-11.22-.05-22.43-.09-33.65-.15-.88,0-1.99.24-2.58-.19-.97-.71-2.22-1.89-2.2-2.85.02-.96,1.32-2.06,2.29-2.78.53-.39,1.55-.15,2.35-.15,11.22-.05,22.43-.09,33.65-.14,8.66.03,17.32.07,25.97.1.72,0,1.45-.07,2.16.03,1.75.25,2.81,1.4,2.8,3.08-.01,1.7-1.1,2.85-2.9,2.92-2.4.09-4.81.05-7.22.06-6.89.03-13.79.05-20.68.07Z"/><path class="cls-4" d="m89.54,232.16c-9.06-.04-18.13-.08-27.19-.11-3.61-.01-5.02-.84-5.01-3.01.01-2.16,1.32-2.94,5.05-2.96,9.07-.05,18.13-.07,27.2-.11,8.72.02,17.44.07,26.16.05,1.75,0,3.26.36,3.78,2.22.49,1.74-.43,2.9-1.96,3.66-1.6.03-3.2.08-4.81.09-7.53.07-15.05.13-22.58.19l-.65-.03Z"/><path class="cls-2" d="m36.92,213.84l-.17.03s-.17-.03-.17-.03c.12-.98.24-1.97.36-2.95,0,.99-.02,1.97-.02,2.95Z"/><path class="cls-2" d="m36.94,205.59c0,.57,0,1.13,0,1.69,0-.57,0-1.13,0-1.69Z"/><path class="cls-2" d="m217.39,249.86c4.55,1.05,7.25,4.09,6.89,8.99-.27,3.57-.05,7.18-.05,10.9h-13.89c0-4.61-.3-9.19.1-13.7.31-3.49,3.06-5.26,6.54-6.13v-49.69c.14,0,.28,0,.41,0v49.63Z"/><path class="cls-4" d="m68.21,336.33c-4.56-.02-8.31-3.77-8.25-8.24.07-4.58,3.77-8.22,8.31-8.18,4.49.04,8.07,3.64,8.06,8.09-.01,4.64-3.63,8.34-8.12,8.33Z"/><path class="cls-4" d="m60.19,356.01c0-4.59,3.67-8.17,8.31-8.11,4.37.06,8.04,3.72,7.98,7.98-.06,4.64-3.69,8.36-8.17,8.36-4.74,0-8.12-3.43-8.13-8.23Z"/><path class="cls-3" d="m251.87,284.3c0,2.05.01,4.1.02,6.16,0-2.05-.01-4.1-.02-6.16Z"/><path class="cls-3" d="m251.86,278.03c0,.77,0,1.55.01,2.32,0-.77,0-1.55-.01-2.32Z"/><path class="cls-3" d="m251.85,307.88c.05.11.11.21.13.32,0,.04-.07.09-.11.14,0-.15-.01-.31-.02-.46Z"/><path class="cls-1" d="m66.6,195.18c-.04-2.24-.12-4.47-.12-6.71-.02-14.57-.03-29.14-.04-43.71,0-.72.07-1.44.1-2.15.25-.67.69-1.34.72-2.02.09-2.32.03-4.65.03-6.98,0-2.53,0-5.06,0-7.76h51.59v-34.8c.09-.1.14-.21.15-.34,1.01-.06,2.02-.11,3.32-.18,0,1.12,0,1.98,0,2.84-.01,33.99-.03,67.98-.06,101.96,0,.77-.23,1.54-.36,2.31-5.11-1.87-10.19-3.79-15.33-5.58-1.4-.49-2.94-.78-4.42-.8-6.74-.08-13.48.06-20.21-.08-3.28-.07-6.32.39-9.3,1.79-1.94.91-4.04,1.48-6.07,2.2Zm36.94-18.88c4.49,0,8.98-.05,13.47.03,1.56.03,2.12-.46,2.08-2.05-.09-3.61-.08-7.22.01-10.82.04-1.51-.36-2.13-2-2.12-8.9.07-17.8.05-26.7.01-1.53,0-2.17.54-2.14,2.11.06,3.61.08,7.22-.01,10.82-.04,1.6.52,2.08,2.08,2.05,4.41-.08,8.82-.03,13.23-.03Z"/><path class="cls-2" d="m38.62,234.15c1.36.79,2.95,1.36,4.03,2.44,1.67,1.69,2.22,3.89,1.18,6.2-1.18,2.63-3.17,4.21-6.11,4.33-2.46.09-4.32-1.02-5.53-3.16-2.13-3.76-1.14-7.25,2.8-9.17,1.42-.69,1.72-1.55,1.71-2.98-.02-4.16.11-8.32.18-12.48.05,4.36.12,8.72.15,13.07,0,1.11-.05,2.19,1.6,1.75Z"/><path class="cls-4" d="m67.32,56.88c0,.44.01.89.02,1.33-.1-.39-.2-.77-.3-1.16.12-.01.22-.07.28-.17Z"/><path class="cls-2" d="m147.05,90.37h-24.27c0-.97,0-1.82,0-2.67.07-8.32.15-16.63.22-24.95,2.26,1.58,4.62,3.06,6.78,4.78,4.76,3.8,9.9,6.71,16.02,7.7.52.08,1.3.96,1.31,1.48.07,4.55-.01,9.11-.05,13.66Z"/><path class="cls-2" d="m122.9,61.29c-.01-5.35-.02-10.71-.04-16.06,1.58.74,3.25,1.34,4.73,2.26,6.01,3.75,12.03,7.44,19.48,7.66v19.36c-6.48-.81-11.81-3.69-16.7-7.6-2.44-1.94-4.98-3.75-7.47-5.62Z"/><path class="cls-4" d="m118.88,91.06v34.8h-51.59c0,2.7,0,5.23,0,7.76,0,2.33.06,4.65-.03,6.98-.03.68-.47,1.34-.72,2.02-.06-.62-.12-1.25-.18-1.87,0,0,.1-.09.1-.09l-.1-.09c0-3.35-.01-6.7-.02-10.05,0-.95,0-1.92.01-2.88-.1-.59-.2-1.18-.31-1.76,0,0,0-.23,0-.23.12-2.23.24-4.45.35-6.68v6.52c.22,0,.45,0,.67,0,0-1.74-.01-3.48,0-5.23.07-9.91.14-19.82.21-29.73,0,0-.05.02-.05.02.5.04,1,.08,1.5.11,16.28.02,32.55.03,48.82.05.44.12.88.24,1.32.37Z"/><path class="cls-2" d="m67.28,90.51c-.07,9.91-.14,19.82-.21,29.73-.01,1.74,0,3.48,0,5.23-.22,0-.45,0-.67,0,0-2.17,0-4.34,0-6.52,0-6.28,0-12.55,0-18.83,0-.3,0-.6,0-.9.01-2.42.02-4.84.03-7.26.04-.49.08-.97.12-1.46.25,0,.49,0,.74,0Z"/><path class="cls-4" d="m66.4,99.23c0,.3,0,.6,0,.9,0-.3,0-.6,0-.9Z"/><polygon class="cls-2" points="66.05 125.64 66.05 125.86 65.99 125.95 65.98 125.85 66.05 125.64"/><path class="cls-4" d="m253.27,90.36v-11.43h37.93v11.43h-37.93Z"/><path class="cls-4" d="m263.97,189.54c4.84-1.29,9.61-3.05,14.53-3.69,3.35-.44,6.9.66,10.35,1.15.59.08,1.33.47,1.61.94.43.73.52,1.65.75,2.5-.77.21-1.62.74-2.31.58-2.56-.6-5.03-1.59-7.6-2.14-4.99-1.08-9.88-.1-14.74,1.03-.84.19-1.69.32-2.54.47-.02-.28-.05-.56-.07-.84Z"/><path class="cls-2" d="m118.88,91.06c-.44-.12-.89-.24-1.32-.37.5,0,.99.02,1.48.02-.01.13-.06.25-.15.34Z"/><path class="cls-3" d="m109.48,310.47h8.01v10.17h-8.01v-10.17Z"/><path class="cls-3" d="m107.89,320.65h-8.05v-10.12h8.05v10.12Z"/><path class="cls-3" d="m99.93,321.96h7.92v9.8h-7.92v-9.8Z"/><path class="cls-3" d="m117.5,322.03v9.68h-8.06v-9.68h8.06Z"/><path class="cls-3" d="m119.08,310.5h7.57v10.1h-7.57v-10.1Z"/><path class="cls-3" d="m135.77,331.74h-7.52v-9.75h7.52v9.75Z"/><path class="cls-3" d="m118.95,331.69v-9.68h7.78v9.68h-7.78Z"/><path class="cls-3" d="m99.83,342.15v-9.14h8.04v9.14h-8.04Z"/><path class="cls-3" d="m109.39,342.09v-9.03h8.05v9.03h-8.05Z"/><path class="cls-3" d="m135.81,320.62h-7.56v-9.98h7.56v9.98Z"/><path class="cls-3" d="m126.77,333.08v9.06h-7.76v-9.06h7.76Z"/><path class="cls-3" d="m135.78,342.15h-7.54v-9.11h7.54v9.11Z"/><path class="cls-2" d="m66.35,127.63c0,.96,0,1.92-.01,2.88,0-.96,0-1.92.01-2.88Z"/><path class="cls-2" d="m66.36,140.56l.1.09s-.1.09-.1.09c-.04,0-.08,0-.13,0,.04-.06.08-.13.13-.19Z"/><path class="cls-2" d="m103.54,176.3c-4.41,0-8.82-.06-13.23.03-1.56.03-2.12-.45-2.08-2.05.1-3.61.08-7.22.01-10.82-.03-1.57.61-2.11,2.14-2.11,8.9.04,17.8.05,26.7-.01,1.64-.01,2.04.61,2,2.12-.09,3.61-.1,7.22-.01,10.82.04,1.59-.51,2.08-2.08,2.05-4.49-.08-8.98-.03-13.47-.03Z"/></g></svg>