<?xml version="1.0" encoding="UTF-8"?><svg id="Layer_2" xmlns="http://www.w3.org/2000/svg" viewBox="0 0 465.81 493.74"><defs><style>.cls-1{fill:#f2bf5d;}.cls-1,.cls-2,.cls-3,.cls-4{stroke-width:0px;}.cls-2{fill:#51a1cd;}.cls-3{fill:#f25d5d;}.cls-4{fill:#34363c;}</style></defs><g id="Layer_1-2"><path class="cls-3" d="m446.48,421.92c.02-20.02.05-40.04.07-60.06,0,0,.04-.23.04-.23l-.19-.14h-11.99v131.96c-6.03,0-11.86,0-17.69,0,0-41.09.02-82.17.01-123.26,0-12.95-.05-25.91-.08-38.86,21.71-4.05,31.72-27.52,19.08-44.83-4.66-6.39-11.17-9.94-18.77-11.64.06-2.53.13-5.05.19-7.58,0,0-.04.02-.04.02h26.53c.09-.67.18-1.04.18-1.41.01-23.48,0-46.96.06-70.44,0-1.82-.63-2.3-2.38-2.25-4.05.11-8.1.01-12.15,0-4.11,0-8.21,0-12.4,0,0,.84,0,1.22,0,1.59-.03,10.81-.06,21.63-.09,32.44l-15.42-.15c2.76-11.43,5.49-22.87,8.28-34.3,5.1-20.9,10.23-41.78,15.34-62.68.36-1.46.71-2.9-1.4-3.41-2.1-.51-2.52.98-2.87,2.39-2.77,11.23-5.45,22.48-8.24,33.71-5.32,21.41-10.7,42.82-16.05,64.22-7.59,0-15.18,0-23.23,0v40.4h-6.61c0-1.08,0-2.12,0-3.15,0-20.95,0-41.91-.01-62.86,0-.96-.07-1.92-.1-2.89.05-2.03.15-4.05.15-6.08,0-33.02,0-66.04,0-99.06,1.16-.04,2.31-.13,3.47-.13,24.92-.03,49.84-.05,74.76-.07.34.08.67.16,1,.24,1.93,0,3.86-.01,5.79-.02,4.22,0,8.45,0,12.67,0,.39.62.79,1.23,1.18,1.85.02,4.77.03,9.54.05,14.3-.07.86-.2,1.72-.2,2.58,0,43.71,0,87.43.02,131.14,0,.76.13,1.52.2,2.28,0,9.62,0,19.24,0,28.85-.07,1.05-.21,2.1-.21,3.16,0,62.98,0,125.95,0,188.93,0,1.05.14,2.1.22,3.15-.01,6.71-.02,13.42-.04,20.13,0,.49-.01.98-.02,1.48-.04.74-.09,1.49-.14,2.33h-18.71c-.12-.24-.34-.49-.34-.74.02-21.83.05-43.66.08-65.48,0-1.81,0-3.62,0-5.43Z"/><path class="cls-1" d="m158.8,350.31c0,6.28-.03,12.57-.03,18.85,0,40.32-.03,80.64.06,120.97,0,2.7-.6,3.64-3.45,3.61-13.54-.14-27.07-.06-40.61-.08-.96,0-1.91-.16-2.87-.25,0-11.51,0-23.03,0-35.03-22.84,24.14-54.07,22.12-73.3,5.91-19.63-16.55-24.92-46.28-9.87-68.92,9.4-14.14,22.8-21.98,39.83-23.14,17.01-1.15,31.1,5.4,43.24,17.59v-58.69s-.06.06-.06.06c15.33,0,30.65-.02,45.98-.02.25,0,.5.19,1.07.42v18.71Zm-86.36,34.19c-22.57-.02-40.03,17.49-39.98,40.1.05,21.81,17.71,39.54,39.42,39.57,21.89.04,39.75-17.82,39.64-39.64-.12-22.53-17.18-40.01-39.08-40.03Z"/><path class="cls-2" d="m444.91,93.18c-24.92.02-49.84.04-74.76.07-1.16,0-2.31.08-3.47.13-8.17.01-16.34.03-24.5.04h-50.22V24.09c16.8,0,33.49,0,50.17,0,8.29.03,16.58.05,24.87.08,24.46,0,48.93-.02,73.39-.03,1.35,0,2.7,0,4.51,0v69.04Z"/><path class="cls-4" d="m111.81,331.13v58.69c-12.14-12.19-26.24-18.74-43.24-17.59-17.03,1.15-30.43,9-39.83,23.14-15.05,22.64-9.77,52.37,9.87,68.92,19.23,16.21,50.46,18.23,73.3-5.91,0,12,0,23.51,0,35.03-.67.07-1.33.2-2,.21-36.08.01-72.15.02-108.23.02-.37,0-.75,0-1.32,0-.06-.55-.16-.99-.16-1.44,0-53.29,0-106.58,0-159.88,0-.39.05-.77.08-1.16.38-.01.77-.04,1.16-.04,16.51-.04,33.03-.08,49.54-.11,19.22,0,38.45,0,57.67.02,1.06,0,2.12.06,3.18.1Z"/><path class="cls-3" d="m200.73,331.08c-.21-.31-.36-.76-.65-.9-10.24-4.76-14.11-13.79-15.73-24.06-1.78-11.23,3.23-20.46,9.64-29.04,2.06-2.76,4.9-4.92,7.12-7.57,1.43-1.71,2.78-3.67,3.5-5.75,1.71-4.98,3.02-10.1,4.49-15.17,10.25.05,20.5.11,30.75.13,6.53.01,6.53-.02,8.75,6.12-1.91,5.14-5.58,7.96-10.96,9.21-5.57,1.3-8.13,5.8-9.76,10.89-.7,2.17-.07,3.5,2.13,4.57,14.57,7.1,29.1,14.29,43.6,21.54,15.71,7.86,31.38,15.8,47.07,23.71.42.21.88.35,1.32.52.11.66.32,1.32.32,1.97-.02,7.93-.06,15.85-.11,23.78-.02,3.16-.07,6.33-.1,9.49-1.39,5.18-2.9,10.34-4.14,15.55-3.78,15.84-7.5,31.69-11.11,47.56-.55,2.41-1.55,3.18-4.01,3.22-6.17.11-12.34.57-18.51.9-.78-2.92-1.57-5.83-2.35-8.75,1.16-10.37,2.31-20.74,3.47-31.12-2.62,2.83-4.64,5.85-6.79,8.76-.64.86-1.67,1.43-2.52,2.13-1.98-7.18-3.95-14.36-5.93-21.53,5.84-13.49,11.61-27.02,22.17-38.01-3.15-.48-6.26-.96-9.37-1.44-6.21-1.38-12.4-2.81-18.62-4.11-3.1-.65-6.25-1.44-9.39-1.47-13.32-.13-26.64.11-39.96,0-4.77-.04-9.54-.74-14.32-1.13Z"/><path class="cls-4" d="m281.98,419c.78,2.92,1.57,5.83,2.35,8.75,6,20.93,12,41.85,18,62.78.26.92.48,1.84.74,2.83-.4.13-.64.28-.89.28-4.59.08-4.64.09-5.94-4.37-7.69-26.45-15.35-52.91-23.02-79.36-.29-1.01-.6-2.01-.98-3.26h-14.46c2.04,2.18,3.89,4.37,5.98,6.31,1.14,1.06,2.69,1.68,4.05,2.5,1.92.86,2.36,2.06,1.92,4.29-2.1,10.7-3.9,21.45-5.89,32.17-.13.69-.87,1.27-1.33,1.91l-.93-.21c-1.16-5.63-2.28-11.28-3.51-16.9-.86-3.96-1.62-7.96-2.9-11.79-.9-2.68-2.31-5.31-4.01-7.58-1.67-2.23-1.58-3.98.12-5.91,1.28-1.45,2.58-2.88,4.13-4.61h-26.88c-3.3,15.54-6.63,31.16-10,47.02,5.44-.48,10.43.54,14.78,3.77,9.46,7.03,10.89,19.87,3.22,28.56-7.27,8.25-20.49,8.69-28.2.93-8.34-8.39-7.85-21.4,1.27-28.89,1.85-1.52,2.79-3.11,3.28-5.38,5.91-27.71,11.91-55.41,17.89-83.11,1.38-6.39,2.77-12.78,4.21-19.42h-76.22c0-6.26,0-12.53,0-18.71-.56-.23-.82-.42-1.07-.42-15.33,0-30.65,0-45.98.02.09-6.96.13-13.92.3-20.87.03-1.18.32-2.51.94-3.49,14.78-23.27,29.63-46.5,44.47-69.73.24-.37.53-.72,1.11-1.51v95.49c14.17,0,28.17,0,42.16,0,4.77.4,9.54,1.09,14.32,1.13,13.32.12,26.64-.12,39.96,0,3.13.03,6.29.82,9.39,1.47,6.22,1.3,12.42,2.73,18.62,4.11,0,4.12,0,8.25,0,12.51h-20.8c.61,2.11,1.16,4.04,1.73,5.96,2.08,6.99,4.17,13.98,6.26,20.98,1.98,7.18,3.95,14.36,5.93,21.53,1.95,6.74,3.89,13.48,5.84,20.22Zm-12.38-21.28c-.9-3.42-1.81-6.84-2.71-10.26-1.4-5.1-2.75-10.22-4.2-15.3-2.08-7.29-4.24-14.57-6.33-21.72h-15.61c-3.64,17.02-7.26,33.89-10.88,50.83h40.63c-.33-1.32-.62-2.43-.9-3.54Z"/><path class="cls-4" d="m416.65,331.33c.03,12.95.08,25.91.08,38.86,0,41.09,0,82.18-.01,123.26-14.42.02-28.83.03-43.25.05,0-13.22.02-26.44,0-39.67,0-2.58-.16-5.17-.24-7.75-.02-39.37-.15-78.75.07-118.12.02-4.09,1.99-8.18,3.16-12.24,2.67-9.34,5.4-18.66,8.13-27.98.26-.9.73-1.74,1.1-2.61,1.44.27,2.89.54,4.33.81-4.55,7.41-6.6,15.25-4.46,23.94,2.68,10.84,13.52,23.18,31.09,21.43Z"/><path class="cls-4" d="m322.1,360.52c.03-3.16.08-6.33.1-9.49.05-7.93.09-15.85.11-23.78,0-.66-.21-1.31-.32-1.97,0-9.94,0-19.89,0-30.09h-20.63v-27.36c3.72,0,7.37,0,11.01,0,6.76-.01,13.53-.1,20.29,0,1.73.02,2.39-.56,2.63-2.17.9-5.9,1.89-11.78,2.92-18.19-2.41,1.46-4.49,2.79-6.65,4.01-6.1,3.47-12.19,6.94-18.34,10.3-2.14,1.17-3.12-.46-4.14-2.33,2.26-1.45,4.49-2.89,6.73-4.31,3.5-2.22,6.93-4.56,10.54-6.58,1.24-.69,2.94-.86,4.4-.79,2.52.13,7.87-3.55,8.32-6.1.98-5.48,1.9-10.98,2.88-16.7-1.31.26-2.23.44-3.15.62-2.95.5-5.9,1.01-9.29,1.59,2.6-1.47,4.77-2.71,6.95-3.94,5.05-.7,10.11-1.39,15.16-2.09.57-.08,1.18-.36,1.7-.23.54.13.98.63,1.47.96-.42.42-.78,1.11-1.25,1.2-2.45.48-4.94.81-7.57,1.21-.96,5.41-1.91,10.75-2.93,16.48.78-.29,1.32-.69,1.75-.6.92.21,1.79.69,2.68,1.06-.49.69-.85,1.79-1.5,2.01-3.16,1.06-4.28,3.24-4.72,6.43-.84,6.01-2.1,11.96-3.19,17.93.25.07.5.15.75.22,1.71,0,3.44-.1,5.14.06.58.06,1.08.8,1.62,1.22-.1.55-.29,1.11-.3,1.66-.03,18.33-.05,36.66-.06,54.99,0,.47.16.94.24,1.4-.02,39.27-.05,78.54-.07,117.8-.08.76-.17,1.52-.25,2.28l.05-.06h-23.08v-86.67Z"/><path class="cls-2" d="m62.43,247.62c.22-1.36.62-2.73.62-4.09.05-44.52.06-89.04.08-133.57,0-.96.09-1.92.14-2.88,16.38-.04,32.76-.08,49.14-.12,0,0-.07.19-.07.19-.18,3.93-.36,7.87-.54,11.8-.57-.11-1.13-.24-1.7-.33-16.16-2.65-31.66,6.03-37.29,20.86-5.9,15.56-.19,32.81,13.78,41.54,7.86,4.91,16.38,5.92,25.35,4.27-.02,14.98-.02,29.97-.06,44.95-.01,6.18-.08,12.37-.12,18.55-9.46.04-18.93.11-28.39.11-6.95,0-13.9-.07-20.86-.12-.03-.39-.06-.77-.1-1.16Z"/><path class="cls-4" d="m111.78,248.79c.04-6.18.11-12.37.12-18.55.03-14.98.04-29.97.05-44.95.12-.11.18-.25.18-.4.29-.02.6,0,.86-.08,12.24-4,20.59-11.91,23.77-24.54,3.18-12.64-.3-23.67-9.42-32.82-4.18-4.19-9.11-7.38-15.24-8.12-.09-.13-.2-.26-.31-.38.18-3.93.36-7.87.53-11.8h46.29c0,1.28,0,2.49,0,3.71.02,21.28.06,42.56,0,63.84,0,1.34-.54,2.84-1.26,3.98-14.57,22.94-29.2,45.84-43.85,68.73-.38.59-1.16.93-1.75,1.38Z"/><path class="cls-2" d="m50.95,331.01c-16.51.04-33.03.07-49.54.11-.39,0-.77.02-1.16.04-.09-3.47-.25-6.93-.25-10.4,0-19.23.02-38.46.04-57.68,0-.86,0-1.72,0-2.81h50.76c0,1.24,0,2.37,0,3.5,0,21.06-.01,42.13,0,63.19,0,1.35.1,2.7.16,4.05Z"/><path class="cls-1" d="m112.42,106.96c-16.38.04-32.76.08-49.14.12-.03-3.28-.09-6.57-.09-9.85,0-18.77.03-37.53.04-56.3,0-1.04,0-2.08,0-3.31h48.97c0,1.12,0,2.15,0,3.19.02,20.7.03,41.4.05,62.1,0,1.35.11,2.7.16,4.05Z"/><path class="cls-4" d="m248.59,254.84c-2.22-6.14-2.22-6.11-8.75-6.12-10.25-.02-20.5-.08-30.75-.13,6.37-15.65,13.4-30.97,22.96-44.99,1.41-2.07,3-4.03,4.65-5.92,2.8-3.23,4.71-3.78,8.26-1.38,4.55,3.07,8.74,6.67,13,10.15.67.55.93,1.65,1.28,2.53,4.97,12.67,7.17,25.99,9.27,39.34.28,1.78.56,3.57.89,5.74,6.29-3.32,12.3-6.49,18.67-9.84,1.5,4.13,3.01,8.13,4.34,12.18.18.54-.35,1.64-.89,2.03-7.04,5.24-14.09,10.47-21.26,15.53-1.85,1.31-4.07,2.21-6.25,2.92-3.57,1.17-5.51.43-7.11-3.01-2.93-6.28-5.57-12.68-8.33-19.04Z"/><path class="cls-1" d="m342.18,93.42c8.17-.01,16.34-.03,24.5-.04,0,33.02,0,66.04,0,99.06,0,2.02-.1,4.05-.15,6.08-7.99,0-15.98,0-24.25,0,0-1.33,0-2.37,0-3.4,0-32.55,0-65.09,0-97.64,0-1.35-.07-2.7-.1-4.05Z"/><path class="cls-4" d="m111.96,303.91c0-16.46-.03-32.29.05-48.12,0-1.15.57-2.43,1.21-3.43,14.27-22.46,28.59-44.88,42.9-67.32.72-1.13,1.43-2.28,2.52-4.03,0,1.79,0,2.95,0,4.11.01,14.22-.03,28.45.1,42.67.02,2.48-.8,4.37-2.09,6.39-14.47,22.56-28.85,45.17-43.26,67.77-.31.48-.67.93-1.43,1.96Z"/><path class="cls-4" d="m252.22,182.65c-.85-.4-1.71-.81-2-.95-2.2,1.39-3.9,2.97-5.9,3.63-3.54,1.17-6.85-.39-8.68-3.49-1.92-3.25-1.4-7.72,1.24-10.77,2.35-2.71,6.19-3.91,9.11-2.21,2.49,1.44,3.64.44,4.88-1.43,2.29-3.45,4.35-7.09,6.99-10.26,6.6-7.91,15.18-10.92,25.13-8.21,10.31,2.81,16.37,10.1,18.72,20.38,1.04,4.55-.19,6.31-4.53,7.88-3.05-.37-6.14-.53-9.14-1.17-4.89-1.03-9.69-3.9-14.76.52,0-1.7.26-2.83-.07-3.76-.41-1.16-1.09-2.68-2.06-3.08-.97-.41-2.64.06-3.62.71-.8.53-1.38,1.9-1.44,2.93-.27,4.8-3.31,7.27-7.34,8.63-2.03.68-4.36.46-6.55.65Z"/><path class="cls-3" d="m373.22,446.09c.08,2.58.24,5.17.24,7.75.02,13.22,0,26.44,0,39.67-9.35,0-18.71,0-28.29,0,0-15.46,0-30.89,0-46.32,0,0-.05.06-.05.06.52-.12,1.03-.24,1.55-.36,8.46-.02,16.92-.04,25.38-.06,0,0,.04.12.04.12l.04-.11c.36-.25.73-.5,1.09-.75Z"/><path class="cls-2" d="m252.22,182.65c2.19-.19,4.52.03,6.55-.65,4.03-1.35,7.07-3.83,7.34-8.63.06-1.03.65-2.39,1.44-2.93.98-.66,2.65-1.12,3.62-.71.96.4,1.64,1.92,2.06,3.08.33.92.07,2.05.07,3.76,5.07-4.42,9.87-1.55,14.76-.52,2.99.63,6.09.79,9.14,1.17-1.02,1.95-2.24,3.82-3,5.86-.59,1.6-.98,3.45-.79,5.12.32,2.81-.01,3.36-2.87,3.37-.64,0-1.38.65-1.89,1.17-1.61,1.64-3.14,3.35-4.69,5.05-.32.35-.62.72-.89,1.11-2.26,3.31-3.15,3.45-6.41.93-1.6-1.24-3.09-2.64-4.76-3.78-3.06-2.11-4.94-2.04-7.41.66-2.31,2.53-4.27,5.38-6.13,7.75-4.54-3.56-9.28-7.28-14-10.99,2.38-3.27,5.12-7.04,7.86-10.82Z"/><path class="cls-4" d="m401.44,227.09c5.14.05,10.28.1,15.42.15.04,2.98.09,5.96.1,8.94.06,10.38.1,20.75.15,31.13,0,0,.04-.02.04-.02-1.15.05-2.3.13-3.44.14-7.67.1-15.33.18-23,.27,3.58-13.53,7.15-27.07,10.73-40.6Z"/><path class="cls-4" d="m373.27,267.41v-40.4c8.05,0,15.64,0,23.23,0-3.52,13.5-7.05,26.99-10.57,40.49-4.23,0-8.45-.01-12.68-.02l.02-.07Z"/><path class="cls-3" d="m367,24.17c-8.29-.03-16.58-.05-24.87-.08,0-2.46.02-4.93.03-7.39,0-2.23,0-4.46,0-6.7V0h24.84v24.17Z"/><path class="cls-2" d="m336.47,223.24c-2.17,1.23-4.35,2.47-6.95,3.94,3.4-.58,6.35-1.09,9.29-1.59-.21,6.19-4.14,9.41-9.46,10.95-7.14,2.06-14.3,3.9-20.58,8.86-2.28-3.23-4.3-6.1-6.52-9.25,5.27-3.62,10.42-6.83,16.4-8.63,5.13-1.55,10.14-3.49,15.26-5.09.7-.22,1.7.52,2.57.81Z"/><path class="cls-3" d="m79.86,319.57c-5.75.04-10.33-4.51-10.28-10.23.05-5.38,4.61-9.95,9.99-10.01,5.62-.06,10.47,4.67,10.45,10.18-.02,5.6-4.47,10.01-10.16,10.05Z"/><path class="cls-2" d="m390.71,267.69c7.67-.09,15.33-.17,23-.27,1.15-.01,2.3-.09,3.44-.14-.06,2.53-.13,5.05-.19,7.58-10.79-.7-20.04,2.35-26.94,11.1-1.44-.27-2.89-.54-4.33-.81,1.68-5.82,3.35-11.64,5.03-17.45Z"/><path class="cls-1" d="m342.17,10.01c0,2.23,0,4.46,0,6.7-15.53,0-31.07,0-46.73,0v-6.7h46.73Z"/><path class="cls-4" d="m19.03,106.16c1.84,2.26,1.8,125.18,0,127.22v-127.22Z"/><path class="cls-4" d="m11.75,152.75c.05-14.11.1-28.22.15-42.33,0-1.24,0-2.48,0-3.72.25-.08.49-.17.74-.25.28.57.79,1.12.81,1.7.08,2.99.03,5.99.03,8.99.05,37.61.11,75.22.14,112.82,0,1.07-.29,2.15-.44,3.22-.44-.05-.89-.1-1.33-.14,0-2.08,0-4.17,0-6.25-.12-3.72-.25-7.44-.37-11.16.13-3.64.25-7.27.38-10.9,0-3.94,0-7.88,0-11.82-.17-3.47-.34-6.94-.51-10.42.07-.41.2-.81.22-1.22.11-3.45.19-6.9.29-10.35-.02-3.59-.03-7.19-.05-10.78-.02-2.46-.04-4.93-.05-7.39Z"/><path class="cls-2" d="m373.25,267.48c4.23,0,8.45.01,12.68.02-1.81,5.94-3.63,11.89-5.44,17.83-2.33,0-4.65-.01-6.98-.02-.14-3.73-.32-7.46-.4-11.19-.04-2.21.09-4.43.14-6.65Z"/><path class="cls-1" d="m465.64,469.64c-.07-1.05-.21-2.1-.22-3.15-.01-62.98-.01-125.95,0-188.93,0-1.05.14-2.11.21-3.16.06.87.16,1.73.16,2.59.01,63.35.02,126.71.02,190.06,0,.86-.11,1.72-.17,2.59Z"/><path class="cls-1" d="m11.86,192.9c0,3.94,0,7.88,0,11.82-2.96,1.16-5.74,1.12-7.86-1.6-1.78-2.28-1.92-4.84-.52-7.34,1.54-2.74,4.54-3.69,8.38-2.88Z"/><path class="cls-1" d="m11.47,215.63c.12,3.72.25,7.44.37,11.16-2.74,1.82-5.34,1.57-7.48-.71-2.21-2.35-2.41-6.34-.44-8.78,2-2.47,5.1-3.16,7.55-1.66Z"/><path class="cls-4" d="m373.51,285.32c2.33,0,4.65.01,6.98.02-2.12,7.72-4.24,15.44-6.35,23.17-.28-.04-.56-.08-.85-.11.07-7.69.15-15.38.22-23.07Z"/><path class="cls-1" d="m11.85,170.92c-.09,3.45-.18,6.9-.29,10.35-.01.41-.14.82-.22,1.22-2.02-.26-4.32,0-5.99-.89-2.76-1.48-3.37-5.19-1.9-7.86,1.59-2.89,5.17-4.1,8.39-2.83Z"/><path class="cls-1" d="m465.63,245.56c-.07-.76-.2-1.52-.2-2.28-.02-43.71-.02-87.43-.02-131.14,0-.86.13-1.72.2-2.58.06.77.17,1.53.17,2.3.02,43.8.03,87.61.03,131.41,0,.76-.12,1.53-.18,2.29Z"/><path class="cls-4" d="m62.43,247.62c.03.39.06.77.1,1.16-15.27.04-30.53.07-45.8.12-4.64.01-9.28.05-13.92.04-.85,0-1.7-.14-2.55-.22-.01-.24-.03-.48-.04-.72.44-.17.89-.48,1.33-.48,20.29.02,40.59.06,60.88.1Z"/><path class="cls-2" d="m345.45,327.16c-.08-.47-.24-.94-.24-1.4,0-18.33.02-36.66.06-54.99,0-.55.19-1.11.3-1.66.13.74.37,1.47.37,2.2.02,17.81.03,35.62,0,53.44,0,.81-.31,1.61-.48,2.42Z"/><path class="cls-2" d="m267.81,415.46c-1.36-.82-2.91-1.44-4.05-2.5-2.09-1.94-3.95-4.13-5.98-6.31h10.18c-.05,2.94-.1,5.87-.15,8.81Z"/><path class="cls-1" d="m11.75,152.75c.02,2.47.04,4.93.05,7.39-1.86.69-3.9.82-4.8-1.1-.64-1.37-.78-3.47-.17-4.8.84-1.83,2.81-2.52,4.91-1.49Z"/><path class="cls-1" d="m451.71,93.41c-1.93,0-3.87.01-5.79.02,1.93,0,3.86-.01,5.79-.02Z"/><path class="cls-1" d="m446.48,421.92c0,1.81,0,3.62,0,5.43,0-1.81,0-3.62,0-5.43Z"/><path class="cls-1" d="m465.56,95.26c-.39-.62-.79-1.23-1.18-1.85,1.83-.3,1.45.81,1.18,1.85Z"/><path class="cls-2" d="m346.67,446.89c-.52.12-1.03.24-1.55.36.08-.76.17-1.52.25-2.28.43.64.86,1.29,1.3,1.93Z"/><path class="cls-2" d="m373.28,308.39c.28.04.56.07.85.11-.21.65-.43,1.29-.64,1.94-.18-.04-.36-.09-.54-.13.11-.64.22-1.28.33-1.92Z"/><path class="cls-1" d="m465.58,491.25c0-.49.01-.99.02-1.48,0,.49-.01.98-.02,1.48Z"/><path class="cls-2" d="m338.8,267.82c-.25-.07-.5-.15-.75-.22.25.07.5.15.75.22Z"/><path class="cls-1" d="m446.4,361.5l.19.14s-.04.23-.04.23c-.16-.07-.21-.19-.15-.37Z"/><polygon class="cls-2" points="372.13 446.84 372.1 446.95 372.06 446.83 372.13 446.84"/><path class="cls-2" d="m417.12,267.3c-.05-10.38-.09-20.75-.15-31.13-.02-2.98-.07-5.96-.1-8.94.03-10.82.06-21.63.09-32.45,0-.37,0-.75,0-1.59,4.19,0,8.29,0,12.4,0,4.05,0,8.11.11,12.15,0,1.76-.05,2.39.44,2.38,2.25-.05,23.48-.04,46.96-.06,70.44,0,.37-.09.75-.18,1.41h-26.53Z"/><path class="cls-4" d="m72.44,384.5c21.89.02,38.96,17.5,39.08,40.03.11,21.82-17.74,39.68-39.64,39.64-21.71-.04-39.37-17.77-39.42-39.57-.05-22.6,17.41-40.12,39.98-40.1Z"/><path class="cls-3" d="m269.6,397.72c-1.43-.51-2.83-1.12-4.28-1.52-1.47-.4-1.84-1.18-1.24-2.52.94-2.08,1.87-4.15,2.81-6.23.9,3.42,1.81,6.84,2.71,10.26Z"/><path class="cls-1" d="m112.14,184.9c0,.15-.06.28-.18.4-8.97,1.65-17.49.64-25.35-4.27-13.96-8.73-19.68-25.99-13.78-41.54,5.63-14.83,21.13-23.51,37.29-20.86.57.09,1.13.22,1.7.33.11.12.21.25.31.38,0,21.85,0,43.71.01,65.56Z"/></g></svg>