<?xml version="1.0" encoding="UTF-8"?><svg id="Layer_2" xmlns="http://www.w3.org/2000/svg" viewBox="0 0 522.5 522.5"><defs><style>.cls-1{letter-spacing:.4em;}.cls-2{fill:#fff;}.cls-3{letter-spacing:.41em;}.cls-4{letter-spacing:.45em;}.cls-5{fill:#1d1d1b;font-family:Bahnschrift-Bold, Bahnschrift;font-size:14px;font-variation-settings:'wght' 700, 'wdth' 100;font-weight:700;}.cls-6{letter-spacing:.4em;}.cls-7{letter-spacing:.43em;}.cls-8{letter-spacing:.41em;}.cls-9{letter-spacing:.44em;}.cls-10{letter-spacing:.4em;}.cls-11{letter-spacing:.4em;}.cls-12{letter-spacing:.4em;}.cls-13{letter-spacing:.42em;}</style></defs><g id="Layer_1-2"><path d="m0,522.5V0h522.5v522.5H0Zm83.54-265.9c2.79,0,5.24,0,7.69,0,44.65,0,89.29.06,133.94-.05,3.81,0,6.83,2.77,6.85,6.57.02,3.36-3.03,6.07-6.79,6.18-.76.02-1.53.02-2.3.02-33.08,0-66.16,0-99.24.01-21.43,0-42.86.05-64.29,0-2.09,0-3.81.56-4.65,2.41-.64,1.41-.97,3.09-.98,4.65-.04,10.63.08,21.26.08,31.89-.02,37.76-.07,75.51-.08,113.27,0,5.76,1.51,7.2,7.24,7.2,33.68,0,67.35,0,101.03,0,1.28,0,2.56-.07,3.82.06,3.76.38,6.32,3.16,6.11,6.53-.21,3.43-2.71,5.5-6.65,5.49-20.66-.02-41.33-.04-61.99-.05-14.8,0-29.59-.03-44.39.11-1.43.01-3.34.67-4.16,1.71-1.73,2.2-1.55,4.97-.47,7.5.98,2.28,3.11,2.34,5.22,2.26.85-.03,1.7-.02,2.55-.02,105.87,0,211.75-.02,317.62-.03,25.51,0,51.02,0,76.53-.05,3.89,0,5.1-1.5,5.08-5.89-.01-4.05-1.35-5.5-5.19-5.53-6.38-.04-12.76-.05-19.13-.05-25.85,0-51.7.03-77.56.03-3.66,0-6-2.02-6.28-5.31-.29-3.35,1.85-6.06,5.36-6.58,1.42-.21,2.88-.18,4.32-.18,30.61-.04,61.23-.05,91.84-.09,4.74,0,6.56-1.85,6.56-6.63-.01-47.96-.03-95.92-.06-143.89,0-1.27-.02-2.56-.23-3.81-.54-3.1-2.68-4.87-5.79-4.93-2.13-.04-4.25-.06-6.38-.06-55.35,0-110.71,0-166.06,0-1.61,0-3.25.05-4.84-.18-3.28-.48-5.74-3.94-5.49-7.49.23-3.24,2.33-4.97,6.11-5.03,1.02-.01,2.04-.02,3.06-.02,51.45-.02,102.9-.04,154.34-.06,1.25,0,2.5,0,3.64,0,.15-.51.25-.68.23-.83-1.46-9.66-3.85-19.08-7.4-28.18-.26-.67-1.44-1.37-2.22-1.4-3.82-.15-7.65-.08-11.48-.09s-7.65.04-11.48-.05c-2.68-.06-3.92-1.79-2.59-3.7.54-.77,1.92-1.32,2.93-1.34,6.8-.11,13.61-.03,20.41-.06,2.33,0,2.75-.68,1.69-2.78-2.06-4.09-4.26-8.11-6.28-12.21-.91-1.84-2.16-2.42-4.22-2.41-29.68.09-59.36.1-89.04.12-1.28,0-2.67.3-3.79-.11-1.07-.39-2.31-1.38-2.68-2.39-.53-1.45.22-2.89,1.95-3.29,1.06-.24,2.18-.29,3.27-.29,28.49,0,56.98.03,85.46.05,1.14,0,2.29,0,3.43,0,.18-.27.36-.54.55-.8-4.64-6.12-9.25-12.27-13.99-18.31-.49-.62-1.79-.86-2.72-.86-37.84-.04-75.68-.03-113.53-.02-4.51,0-9.01,0-13.52-.01-3.93-.02-6.44-2.33-6.49-5.93-.05-3.53,2.31-5.79,6.21-5.88,2.12-.05,4.25-.06,6.38-.06,36.31,0,72.62,0,108.93-.03,1.27,0,2.53-.25,4.3-.45-1.1-1.43-1.67-2.39-2.44-3.14-4.39-4.26-8.78-8.53-13.31-12.65-.75-.68-2.14-.94-3.23-.94-31.72-.11-63.44-.15-95.16-.22-1.02,0-2.21.23-3.01-.22-.95-.53-2.01-1.58-2.22-2.58-.47-2.19.75-3.2,3.61-3.2,27.38-.03,54.76-.01,82.14-.08,1.62,0,3.92.93,4.66-1.38.73-2.29-1.68-2.9-2.99-3.82-17.32-12.17-36.33-20.54-56.96-25.31-1.98-.46-2.94.33-4.08,1.56-11.1,11.98-22.58,23.53-36.55,32.28-2.76,1.73-4.12,4.26-4.11,7.68.06,24.32.03,48.64.02,72.96,0,.9,0,1.81,0,3.38,1.6-.83,2.74-1.28,3.73-1.96,4.61-3.17,9.12-6.5,13.79-9.59,10.45-6.92,20.97-13.74,31.49-20.57.79-.52,1.76-.77,2.64-1.15-.71,1.67-1.61,3-2.67,4.18-7.25,8.09-14.05,16.66-21.96,24.05-6.89,6.45-14.97,11.64-22.67,17.2-2.83,2.04-4.51,4.16-4.4,7.91.25,8.67.07,17.35.08,26.02,0,3.91.86,4.78,4.81,4.78,18.45,0,36.91-.02,55.36-.02,40.73,0,81.47.01,122.2.04,5.13,0,6.39,1.33,6.39,6.52,0,41.16,0,82.32,0,123.48,0,4.91-1.45,6.35-6.34,6.35-65.39,0-130.79.02-196.18.02-58.76,0-117.52-.03-176.28-.05-4.55,0-5.94-1.36-5.95-5.87-.06-37.76-.11-75.51-.16-113.27,0-4.25,0-8.5.09-12.75.07-3.29,1.06-4.24,4.28-4.34,1.61-.05,3.23-.04,4.85-.04,55.44-.02,110.89-.03,166.33-.05,3.79,0,4.17-.48,4.17-4.31-.02-21.34-.14-42.69.05-64.03.04-4.53-1.81-7.07-5.57-9-10.55-5.39-21.04-10.9-31.53-16.4-1.11-.58-2.2-1.31-3.12-2.17-6.03-5.63-12-11.31-17.98-16.99-.44-.41-.77-.93-1.55-1.88,1.25.37,1.9.5,2.5.75,8.1,3.44,16.28,6.73,24.27,10.4,9.77,4.5,19.37,9.36,29.07,14,2.93,1.4,3.83.85,3.82-2.13-.05-34.27-.1-68.54-.16-102.81,0-1.7-.03-3.41-.24-5.09-.32-2.65-3.45-6.78-4.84-6.59-1.87.26-3.29,3.51-3.26,7.14.09,9.01.13,18.03.18,27.04,0,.57-.12,1.14-.2,1.83-14.05,1.6-27.62,4.76-40.61,10.17-12.95,5.4-25.38,11.67-36.05,21.16,1.17.57,2.2.78,3.24.78,15.65.01,31.29,0,46.94,0,7.57,0,15.14.02,22.71-.02,2.14-.01,3.12,1.07,3.26,3.05.16,2.14-.88,3.4-3,3.66-1.01.12-2.04.05-3.06.05-25.85,0-51.7.03-77.56-.02-1.98,0-3.6.38-5.06,1.8-6.22,6.03-12.52,11.98-18.75,18-.61.59-.93,1.47-1.6,2.57,1.32.08,2.14.17,2.96.17,12.16-.02,24.32-.06,36.48-.09.68,0,1.5-.21,2.01.09.7.42,1.64,1.26,1.61,1.87-.04.78-.79,1.8-1.52,2.21-.73.41-1.82.23-2.75.24-13.52.05-27.04.04-40.56.2-1.24.01-2.9.7-3.63,1.65-3.7,4.75-7.18,9.67-10.66,14.58-.88,1.25-1.48,2.69-2.36,4.32,1.18.08,1.76.15,2.35.15,19.47.01,38.95.01,58.42.02,3.06,0,6.13-.09,9.18.13,1,.07,2.3.77,2.82,1.59,1.52,2.37-.13,4.83-3.2,4.86-6.89.07-13.78.06-20.66.06-16.84,0-33.68-.02-50.51-.02-1.68,0-3.34-.17-4.24,1.91-3.46,7.99-7.04,15.93-10.54,23.91-.21.48-.15,1.07-.21,1.53,2.06,0,3.92,0,5.78,0,46.18-.02,92.35-.05,138.53-.07.59,0,1.2-.02,1.78.08,1.93.34,2.95,2.12,2.36,3.99-.63,2-2.2,2-3.9,2-24.66-.03-49.32-.03-73.98-.03-23.22,0-46.43.05-69.65-.05-2.34,0-3.33.81-3.87,2.91-.91,3.52-2.03,6.98-2.95,10.5-.52,2.02-.81,4.11-1.27,6.48Zm228.96-164.62c-.22-.24-.44-.47-.66-.71-1.04.52-2.11.99-3.13,1.56-10.65,5.91-21.32,11.8-31.92,17.79-2.89,1.63-5.8,1.14-8.91.99,0-1.21,0-2.14,0-3.06,0-9.35.09-18.69-.07-28.03-.03-1.64-.81-3.44-1.71-4.86-1.15-1.81-3.13-1.75-4.1.12-.9,1.74-1.66,3.79-1.68,5.7-.14,15.38-.1,30.75-.05,46.13,0,1.6.45,3.19.68,4.79,1.49-.69,3.15-1.15,4.43-2.12,9.96-7.49,19.98-14.9,29.7-22.7,6.07-4.87,11.63-10.37,17.42-15.59Z"/><path class="cls-2" d="m83.54,256.6c.46-2.37.74-4.46,1.27-6.48.91-3.52,2.04-6.98,2.95-10.5.54-2.1,1.54-2.92,3.87-2.91,23.22.1,46.43.05,69.65.05,24.66,0,49.32,0,73.98.03,1.69,0,3.27,0,3.9-2,.59-1.87-.43-3.65-2.36-3.99-.58-.1-1.19-.08-1.78-.08-46.18.02-92.35.04-138.53.07-1.86,0-3.72,0-5.78,0,.06-.46,0-1.06.21-1.53,3.5-7.97,7.08-15.91,10.54-23.91.9-2.08,2.56-1.91,4.24-1.91,16.84,0,33.68.02,50.51.02,6.89,0,13.78.01,20.66-.06,3.08-.03,4.72-2.49,3.2-4.86-.52-.82-1.83-1.52-2.82-1.59-3.05-.22-6.12-.13-9.18-.13-19.47-.01-38.95-.01-58.42-.02-.58,0-1.16-.07-2.35-.15.88-1.63,1.48-3.08,2.36-4.32,3.48-4.91,6.97-9.83,10.66-14.58.73-.94,2.39-1.63,3.63-1.65,13.52-.15,27.04-.15,40.56-.2.93,0,2.01.17,2.75-.24.73-.41,1.48-1.42,1.52-2.21.03-.62-.91-1.45-1.61-1.87-.51-.3-1.33-.09-2.01-.09-12.16.03-24.32.07-36.48.09-.82,0-1.64-.09-2.96-.17.67-1.1,1-1.99,1.6-2.57,6.23-6.02,12.53-11.97,18.75-18,1.46-1.42,3.08-1.8,5.06-1.8,25.85.04,51.7.02,77.56.02,1.02,0,2.05.08,3.06-.05,2.12-.26,3.16-1.53,3-3.66-.15-1.98-1.13-3.06-3.26-3.05-7.57.04-15.14.02-22.71.02-15.65,0-31.29.02-46.94,0-1.03,0-2.07-.21-3.24-.78,10.66-9.49,23.1-15.77,36.05-21.16,12.99-5.41,26.56-8.57,40.61-10.17.08-.69.21-1.26.2-1.83-.05-9.01-.09-18.03-.18-27.04-.04-3.63,1.39-6.88,3.26-7.14,1.39-.19,4.52,3.94,4.84,6.59.21,1.68.23,3.39.24,5.09.06,34.27.12,68.54.16,102.81,0,2.98-.89,3.53-3.82,2.13-9.7-4.64-19.3-9.51-29.07-14-7.99-3.68-16.17-6.96-24.27-10.4-.6-.25-1.25-.38-2.5-.75.77.95,1.11,1.47,1.55,1.88,5.98,5.68,11.96,11.36,17.98,16.99.92.86,2,1.59,3.12,2.17,10.49,5.5,20.98,11.01,31.53,16.4,3.77,1.92,5.62,4.47,5.57,9-.2,21.34-.08,42.69-.05,64.03,0,3.83-.38,4.31-4.17,4.31-55.44.02-110.89.03-166.33.05-1.62,0-3.23,0-4.85.04-3.22.09-4.21,1.05-4.28,4.34-.09,4.25-.09,8.5-.09,12.75.04,37.76.09,75.51.16,113.27,0,4.51,1.4,5.87,5.95,5.87,58.76.02,117.52.04,176.28.05,65.39,0,130.79-.01,196.18-.02,4.88,0,6.34-1.44,6.34-6.35,0-41.16,0-82.32,0-123.48,0-5.19-1.26-6.52-6.39-6.52-40.73-.02-81.47-.03-122.2-.04-18.45,0-36.91.02-55.36.02-3.95,0-4.81-.87-4.81-4.78,0-8.67.16-17.35-.08-26.02-.11-3.76,1.57-5.87,4.4-7.91,7.7-5.55,15.78-10.75,22.67-17.2,7.9-7.39,14.7-15.97,21.96-24.05,1.06-1.18,1.96-2.51,2.67-4.18-.88.38-1.85.63-2.64,1.15-10.51,6.83-21.03,13.65-31.49,20.57-4.67,3.09-9.17,6.42-13.79,9.59-.99.68-2.14,1.13-3.73,1.96,0-1.57,0-2.48,0-3.38,0-24.32.04-48.64-.02-72.96,0-3.42,1.35-5.95,4.11-7.68,13.96-8.75,25.45-20.29,36.55-32.28,1.14-1.23,2.1-2.02,4.08-1.56,20.63,4.77,39.64,13.14,56.96,25.31,1.31.92,3.72,1.53,2.99,3.82-.73,2.31-3.04,1.37-4.66,1.38-27.38.07-54.76.05-82.14.08-2.86,0-4.08,1.01-3.61,3.2.21,1,1.27,2.04,2.22,2.58.79.45,1.99.22,3.01.22,31.72.06,63.44.11,95.16.22,1.09,0,2.48.26,3.23.94,4.52,4.12,8.91,8.39,13.31,12.65.77.75,1.34,1.71,2.44,3.14-1.77.19-3.03.44-4.3.45-36.31.03-72.62.02-108.93.03-2.13,0-4.25,0-6.38.06-3.9.1-6.25,2.35-6.21,5.88.05,3.6,2.56,5.91,6.49,5.93,4.51.02,9.01.01,13.52.01,37.84,0,75.68-.02,113.53.02.93,0,2.23.23,2.72.86,4.74,6.04,9.34,12.19,13.99,18.31-.18.27-.36.54-.55.8-1.14,0-2.29,0-3.43,0-28.49-.02-56.98-.04-85.46-.05-1.09,0-2.22.05-3.27.29-1.72.4-2.47,1.84-1.95,3.29.37,1.01,1.61,2,2.68,2.39,1.13.41,2.52.11,3.79.11,29.68-.02,59.36-.02,89.04-.12,2.06,0,3.31.57,4.22,2.41,2.03,4.1,4.22,8.12,6.28,12.21,1.06,2.1.64,2.77-1.69,2.78-6.8.03-13.61-.05-20.41.06-1.01.02-2.39.57-2.93,1.34-1.33,1.9-.09,3.63,2.59,3.7,3.82.09,7.65.04,11.48.05s7.66-.06,11.48.09c.78.03,1.96.73,2.22,1.4,3.55,9.1,5.95,18.52,7.4,28.18.02.15-.08.32-.23.83-1.15,0-2.39,0-3.64,0-51.45.02-102.9.04-154.34.06-1.02,0-2.04,0-3.06.02-3.78.05-5.88,1.78-6.11,5.03-.25,3.55,2.21,7.01,5.49,7.49,1.59.23,3.22.18,4.84.18,55.35,0,110.71,0,166.06,0,2.13,0,4.25.02,6.38.06,3.11.06,5.25,1.83,5.79,4.93.22,1.25.23,2.54.23,3.81.03,47.96.05,95.92.06,143.89,0,4.79-1.82,6.63-6.56,6.63-30.61.03-61.23.05-91.84.09-1.44,0-2.9-.03-4.32.18-3.51.52-5.65,3.23-5.36,6.58.28,3.29,2.62,5.31,6.28,5.31,25.85,0,51.7-.02,77.56-.03,6.38,0,12.76.01,19.13.05,3.84.02,5.18,1.48,5.19,5.53.01,4.4-1.19,5.89-5.08,5.89-25.51.04-51.02.05-76.53.05-105.87.01-211.75.02-317.62.03-.85,0-1.7,0-2.55.02-2.11.08-4.24.02-5.22-2.26-1.09-2.53-1.26-5.3.47-7.5.82-1.04,2.73-1.7,4.16-1.71,14.8-.13,29.59-.11,44.39-.11,20.66,0,41.33.03,61.99.05,3.94,0,6.44-2.06,6.65-5.49.21-3.37-2.35-6.15-6.11-6.53-1.26-.13-2.55-.06-3.82-.06-33.68,0-67.35,0-101.03,0-5.73,0-7.24-1.44-7.24-7.2.01-37.76.07-75.51.08-113.27,0-10.63-.12-21.26-.08-31.89,0-1.56.33-3.24.98-4.65.84-1.85,2.57-2.41,4.65-2.41,21.43.04,42.86,0,64.29,0,33.08,0,66.16,0,99.24-.01.77,0,1.53,0,2.3-.02,3.76-.1,6.81-2.81,6.79-6.18-.03-3.8-3.04-6.58-6.85-6.57-44.64.11-89.29.06-133.94.05-2.45,0-4.9,0-7.69,0Zm261.91-28.28h0c-7.39,0-14.78-.02-22.18,0-8.67.02-17.33.01-26,.19-1.13.02-2.7.78-3.26,1.69-1.61,2.66.32,5.03,3.95,5.03,31.27.05,62.53.09,93.8.13,3.87,0,5.91-1.18,5.65-3.47-.28-2.44-1.02-3.61-5.58-3.59-15.46.09-30.93.03-46.39.03Zm-139.11-20.51s0-.07,0-.1c3.57,0,7.13,0,10.7,0,3.23,0,6.46.12,9.67-.14.83-.07,1.57-1.33,2.35-2.04-.74-.67-1.43-1.41-2.24-1.96-.36-.24-.99-.1-1.5-.1-12.65-.06-25.3-.1-37.95-.2-1.84-.01-3.41.44-3.46,2.45-.05,2.14,1.75,2.09,3.33,2.09,6.37-.01,12.74,0,19.1,0Zm73.68-8.12c0,.07,0,.13,0,.2-2.88,0-5.77.01-8.65,0-1.49,0-2.85.25-2.82,2.09.03,1.79,1.3,2.14,2.84,2.05,5.92-.34,11.86-.6,17.77-1.04.9-.07,2.42-.89,2.47-1.47.15-1.72-1.45-1.78-2.71-1.81-2.97-.06-5.94-.02-8.91-.02Zm-102.91,23.09c0,.07.01.13.02.2,1.59-.16,3.21-.17,4.73-.58.56-.15,1.23-1.24,1.2-1.87-.03-.64-.85-1.75-1.36-1.77-2.95-.1-5.91-.05-8.85.22-.52.05-1.22,1.33-1.26,2.07-.02.45,1.03,1.19,1.71,1.36,1.22.3,2.52.26,3.79.36Zm-18.73-4.06s0-.06,0-.09c-1.52.08-3.08,0-4.56.3-.65.13-1.45.93-1.61,1.57-.13.5.57,1.74.97,1.77,3.01.26,6.05.44,9.07.3.56-.03,1.24-1.58,1.45-2.52.06-.28-1.25-1.11-2.02-1.27-1.05-.22-2.19-.06-3.3-.06Zm68.47-86.52s0-.05,0-.07c1.52,0,3.08.18,4.55-.08.67-.12,1.4-1.03,1.66-1.75.13-.37-.71-1.56-1.14-1.58-3.21-.13-6.43-.14-9.63.05-.51.03-1.23,1.25-1.32,1.98-.05.41.95,1.28,1.56,1.37,1.41.21,2.87.07,4.31.07Zm5.27,35.56c1.05-.1,2.63-.03,4.04-.5.71-.24,1.19-1.41,1.53-2.26.08-.21-.78-1.15-1.23-1.16-2.7-.1-5.41-.16-8.09.08-.66.06-1.46,1.22-1.69,2.02-.1.34,1,1.33,1.7,1.54,1.02.31,2.17.19,3.74.28Zm69.95-36.65c.95-.12,2.29-.05,3.42-.51.66-.27,1.16-1.33,1.37-2.12.09-.35-.68-1.34-1.08-1.35-2.86-.07-5.74-.06-8.59.16-.52.04-1.31,1.2-1.3,1.83,0,.52.94,1.32,1.59,1.48,1.38.34,2.84.34,4.59.51Zm-108.1,91.34s0,.02,0,.03c1.1,0,2.32.3,3.26-.09.84-.34,1.53-1.37,1.96-2.25.13-.27-.77-1.53-1.23-1.54-2.52-.08-5.05-.01-7.56.25-.56.06-1.5,1.23-1.39,1.69.16.72.97,1.61,1.68,1.83,1,.31,2.18.08,3.28.08Zm34.63-4.03s0-.06,0-.09c-1.35.11-2.76,0-4.02.4-.65.21-1.36,1.27-1.41,1.99-.03.53.93,1.54,1.52,1.61,2.01.22,4.12.42,6.07.02,1.04-.21,1.82-1.67,2.72-2.57-.95-.45-1.87-1.01-2.86-1.32-.62-.2-1.35-.04-2.02-.04Zm-88.2.11c0-.07,0-.14-.01-.21-1.33.16-2.71.19-3.99.56-.52.15-1.08,1.03-1.15,1.62-.05.45.64,1.39,1.05,1.41,2.58.16,5.18.23,7.75.05.52-.04,1.28-1.26,1.3-1.96.02-.47-1.01-1.25-1.67-1.4-1.04-.24-2.18-.06-3.28-.06Zm-20.41,3.98c1.4-.06,2.37.14,3.07-.2.78-.39,1.32-1.28,1.96-1.95-.68-.6-1.33-1.65-2.06-1.72-1.83-.17-3.72-.01-5.55.26-.52.08-1.27.96-1.28,1.49,0,.56.63,1.41,1.18,1.63.99.39,2.13.41,2.68.5Zm91.1.02c1.08-.24,2.39-.34,3.5-.87.59-.28,1.09-1.3,1.11-2,0-.42-.98-1.16-1.58-1.22-1.67-.16-3.4-.21-5.05.03-.7.1-1.69.98-1.79,1.62-.09.56.78,1.45,1.43,1.89.58.39,1.45.35,2.38.54Z"/><path class="cls-2" d="m312.5,91.98c-5.79,5.22-11.35,10.72-17.42,15.59-9.71,7.8-19.74,15.21-29.7,22.7-1.28.96-2.94,1.43-4.43,2.12-.24-1.6-.68-3.19-.68-4.79-.05-15.38-.08-30.75.05-46.13.02-1.92.78-3.96,1.68-5.7.97-1.88,2.95-1.93,4.1-.12.91,1.42,1.69,3.22,1.71,4.86.16,9.34.07,18.69.07,28.03,0,.93,0,1.86,0,3.06,3.11.15,6.02.65,8.91-.99,10.61-5.99,21.27-11.88,31.92-17.79,1.02-.56,2.08-1.04,3.13-1.56.22.24.44.47.66.71Z"/><path d="m345.45,228.32c15.46,0,30.93.05,46.39-.03,4.56-.03,5.3,1.15,5.58,3.59.26,2.3-1.78,3.48-5.65,3.47-31.27-.03-62.53-.07-93.8-.13-3.64,0-5.56-2.37-3.95-5.03.55-.91,2.13-1.66,3.26-1.69,8.66-.18,17.33-.17,26-.19,7.39-.02,14.78,0,22.18,0h0Z"/><path d="m206.33,207.82c-6.37,0-12.74,0-19.1,0-1.58,0-3.38.05-3.33-2.09.05-2.01,1.62-2.46,3.46-2.45,12.65.09,25.3.13,37.95.2.51,0,1.14-.14,1.5.1.82.55,1.5,1.29,2.24,1.96-.78.71-1.52,1.97-2.35,2.04-3.21.25-6.45.13-9.67.14-3.57,0-7.13,0-10.7,0,0,.03,0,.07,0,.1Z"/><path d="m280.01,199.7c2.97,0,5.94-.04,8.91.02,1.26.02,2.86.09,2.71,1.81-.05.58-1.57,1.4-2.47,1.47-5.92.44-11.85.7-17.77,1.04-1.54.09-2.82-.25-2.84-2.05-.03-1.84,1.33-2.1,2.82-2.09,2.88.02,5.77,0,8.65,0,0-.07,0-.13,0-.2Z"/><path d="m177.1,222.79c-1.27-.1-2.57-.06-3.79-.36-.68-.17-1.73-.91-1.71-1.36.03-.74.74-2.03,1.26-2.07,2.93-.27,5.9-.32,8.85-.22.51.02,1.33,1.13,1.36,1.77.03.63-.64,1.73-1.2,1.87-1.52.4-3.15.41-4.73.58,0-.07-.01-.13-.02-.2Z"/><path d="m158.37,218.73c1.1,0,2.24-.17,3.3.06.77.16,2.08.99,2.02,1.27-.2.94-.89,2.49-1.45,2.52-3.01.14-6.05-.04-9.07-.3-.41-.04-1.1-1.27-.97-1.77.17-.64.97-1.44,1.61-1.57,1.48-.29,3.04-.22,4.56-.3,0,.03,0,.06,0,.09Z"/><path d="m226.85,132.2c-1.44,0-2.9.14-4.31-.07-.61-.09-1.61-.96-1.56-1.37.08-.73.8-1.95,1.32-1.98,3.2-.19,6.42-.18,9.63-.05.43.02,1.27,1.21,1.14,1.58-.26.72-.99,1.63-1.66,1.75-1.48.26-3.03.08-4.55.08,0,.02,0,.05,0,.07Z"/><path d="m232.12,167.76c-1.57-.09-2.72.03-3.74-.28-.7-.21-1.8-1.2-1.7-1.54.23-.8,1.03-1.96,1.69-2.02,2.68-.24,5.4-.18,8.09-.08.45.02,1.31.95,1.23,1.16-.34.85-.83,2.02-1.53,2.26-1.4.47-2.99.4-4.04.5Z"/><path d="m302.07,131.11c-1.75-.17-3.21-.18-4.59-.51-.65-.16-1.58-.96-1.59-1.48,0-.64.78-1.79,1.3-1.83,2.85-.22,5.72-.23,8.59-.16.4.01,1.18,1,1.08,1.35-.22.8-.71,1.86-1.37,2.12-1.13.46-2.47.39-3.42.51Z"/><path d="m193.97,222.45c-1.1,0-2.27.23-3.28-.08-.72-.22-1.52-1.1-1.68-1.83-.1-.46.84-1.63,1.39-1.69,2.5-.26,5.04-.33,7.56-.25.46.01,1.36,1.27,1.23,1.54-.43.88-1.11,1.91-1.96,2.25-.94.39-2.16.09-3.26.09,0-.01,0-.02,0-.03Z"/><path d="m228.6,218.42c.68,0,1.41-.16,2.02.04.99.32,1.91.87,2.86,1.32-.9.9-1.68,2.36-2.72,2.57-1.95.4-4.06.2-6.07-.02-.6-.07-1.56-1.08-1.52-1.61.04-.72.76-1.78,1.41-1.99,1.26-.4,2.67-.3,4.02-.4,0,.03,0,.06,0,.09Z"/><path d="m140.41,218.54c1.1,0,2.23-.18,3.28.06.67.15,1.69.93,1.67,1.4-.02.7-.79,1.92-1.3,1.96-2.57.18-5.17.1-7.75-.05-.4-.02-1.1-.96-1.05-1.41.06-.6.63-1.47,1.15-1.62,1.27-.37,2.65-.39,3.99-.56,0,.07,0,.14.01.21Z"/><path d="m120,222.52c-.55-.09-1.69-.1-2.68-.5-.55-.22-1.19-1.07-1.18-1.63,0-.53.76-1.41,1.28-1.49,1.83-.27,3.72-.43,5.55-.26.74.07,1.38,1.12,2.06,1.72-.64.67-1.18,1.56-1.96,1.95-.69.35-1.66.14-3.07.2Z"/><path d="m211.09,222.54c-.94-.19-1.8-.15-2.38-.54-.65-.43-1.52-1.33-1.43-1.89.1-.64,1.09-1.52,1.79-1.62,1.66-.24,3.38-.2,5.05-.03.59.06,1.58.8,1.58,1.22-.01.7-.52,1.72-1.11,2-1.11.53-2.42.62-3.5.87Z"/><path class="cls-2" d="m74.48,357.33v-63.19h11.91v63.19h-11.91Zm5.52-25.6v-11.47h36.81v11.47h-36.81Zm29.07,25.6v-63.19h11.91v63.19h-11.91Z"/><path class="cls-2" d="m207.78,357.99c-4.64,0-8.68-.96-12.15-2.89-3.46-1.93-6.15-4.64-8.06-8.15-1.91-3.5-2.87-7.59-2.87-12.25v-17.9c0-4.69.96-8.79,2.87-12.28,1.91-3.49,4.6-6.2,8.06-8.13,3.46-1.93,7.51-2.89,12.15-2.89s8.68.96,12.15,2.89,6.15,4.64,8.06,8.13c1.91,3.49,2.87,7.58,2.87,12.28v17.9c0,4.66-.96,8.75-2.87,12.25-1.91,3.51-4.6,6.22-8.06,8.15-3.46,1.93-7.51,2.89-12.15,2.89Zm0-11.91c3.24,0,5.85-1.01,7.8-3.04,1.96-2.03,2.93-4.71,2.93-8.04v-18.51c0-3.36-.98-6.05-2.93-8.06-1.96-2.01-4.56-3.02-7.8-3.02s-5.85,1.01-7.8,3.02c-1.96,2.01-2.93,4.7-2.93,8.06v18.51c0,3.33.98,6.01,2.93,8.04,1.96,2.03,4.56,3.04,7.8,3.04Z"/><path class="cls-2" d="m294.53,357.33v-63.19h11.91v63.19h-11.91Zm5.3,0v-11.47h37.03v11.47h-37.03Z"/><path class="cls-2" d="m437.15,294.15v10.69l-25.99,41.02h26.86v11.47h-41.02v-10.69l25.99-41.02h-25.21v-11.47h39.37Z"/><path class="cls-2" d="m74.48,403.75v-30.68h5.78v30.68h-5.78Zm2.68-12.43v-5.57h17.87v5.57h-17.87Zm14.11,12.43v-30.68h5.78v30.68h-5.78Z"/><path class="cls-2" d="m129.24,403.75l11.73-30.68h3.67l11.73,30.68h-6.22l-7.34-20.95-7.34,20.95h-6.22Zm5.63-4.92v-5.57h16.14v5.57h-16.14Z"/><path class="cls-2" d="m202.02,393.75l5.84-20.68h7.62v30.68h-5.25v-23.82l.21,1.35-5.87,19.05h-5.11l-5.87-18.63.21-1.77v23.82h-5.25v-30.68h7.62l5.84,20.68Z"/><path class="cls-2" d="m249.66,403.75v-30.68h5.78v30.68h-5.78Zm2.53,0v-5.57h9.79c1.32,0,2.35-.32,3.07-.96.72-.64,1.09-1.54,1.09-2.69v-.06c0-1.17-.36-2.07-1.09-2.71-.72-.64-1.75-.96-3.07-.96h-9.79v-5.57h9.79c1.2,0,2.12-.3,2.77-.91.65-.6.98-1.46.98-2.55,0-1-.33-1.77-.98-2.31-.65-.54-1.58-.81-2.77-.81h-9.79v-5.57h9.98c2.98,0,5.29.72,6.93,2.17,1.64,1.45,2.46,3.5,2.46,6.14,0,1.79-.52,3.26-1.57,4.42s-2.53,1.9-4.44,2.23c2.04.28,3.62,1.06,4.74,2.33,1.12,1.27,1.68,2.93,1.68,4.97v.06c0,2.66-.82,4.72-2.47,6.17s-3.97,2.18-6.96,2.18h-10.34Z"/><path class="cls-2" d="m315.95,404.06c-3.56,0-6.31-.99-8.26-2.99-1.95-1.99-2.92-4.8-2.92-8.43v-19.58h5.78v19.73c0,1.76.47,3.12,1.41,4.09.94.97,2.27,1.46,3.99,1.46s3.07-.49,4.02-1.46,1.42-2.33,1.42-4.09v-19.73h5.78v19.58c0,3.63-.98,6.44-2.93,8.43-1.96,1.99-4.72,2.99-8.29,2.99Z"/><path class="cls-2" d="m361.08,403.75v-30.7h5.78v30.7h-5.78Zm2.3-12.34v-5.57h10.68c.9,0,1.62-.33,2.16-.99.54-.66.82-1.53.83-2.62,0-1.08-.27-1.95-.81-2.62-.54-.66-1.27-.99-2.18-.99h-10.68v-5.57h11.14c1.7,0,3.19.38,4.46,1.14s2.26,1.83,2.96,3.21c.7,1.38,1.05,2.99,1.05,4.83s-.35,3.45-1.07,4.83c-.71,1.38-1.7,2.45-2.96,3.21s-2.75,1.14-4.45,1.14h-11.14Zm13.9,12.34l-7.45-13.29,6.18-.97,8.27,14.26h-7Z"/><path class="cls-2" d="m427.86,386.59h10.63v5.99c0,2.31-.46,4.32-1.39,6.04-.93,1.72-2.23,3.06-3.89,4.01s-3.62,1.42-5.88,1.42-4.24-.45-5.94-1.34c-1.69-.89-3.01-2.15-3.95-3.78s-1.4-3.52-1.4-5.69v-9.05c0-2.31.46-4.32,1.39-6.03.93-1.72,2.23-3.05,3.89-4s3.62-1.42,5.88-1.42c1.86,0,3.55.38,5.07,1.14s2.81,1.82,3.85,3.19c1.04,1.36,1.74,2.96,2.11,4.79h-6.24c-.31-1-.92-1.77-1.85-2.31-.92-.54-1.9-.81-2.94-.81-1.56,0-2.81.5-3.76,1.5-.94,1-1.41,2.32-1.41,3.97v9.05c0,1.45.49,2.61,1.46,3.49.97.88,2.25,1.32,3.84,1.32s2.81-.47,3.76-1.42,1.41-2.27,1.41-3.98v-.51h-4.64v-5.57Z"/><text class="cls-5" transform="translate(186.22 439.33)"><tspan class="cls-1" x="0" y="0">D</tspan><tspan class="cls-8" x="14.76" y="0">E</tspan><tspan class="cls-9" x="28.81" y="0">U</tspan><tspan class="cls-7" x="44.12" y="0">T</tspan><tspan class="cls-3" x="56.88" y="0">S</tspan><tspan class="cls-6" x="71.22" y="0">C</tspan><tspan class="cls-11" x="85.5" y="0">H</tspan><tspan class="cls-4" x="100.56" y="0">L</tspan><tspan class="cls-13" x="114.86" y="0">A</tspan><tspan class="cls-12" x="129.79" y="0">N</tspan><tspan class="cls-10" x="145.15" y="0">D</tspan></text></g></svg>