<?xml version="1.0" encoding="UTF-8"?><svg id="Layer_2" xmlns="http://www.w3.org/2000/svg" viewBox="0 0 448.78 452.9"><defs><style>.cls-1{fill:#f2bf5d;}.cls-1,.cls-2,.cls-3,.cls-4{stroke-width:0px;}.cls-2{fill:#51a1cd;}.cls-3{fill:#f25d5d;}.cls-4{fill:#34363c;}</style></defs><g id="Layer_1-2"><path class="cls-4" d="m134.71,95.83c.16,4.78.44,9.57.45,14.35.06,30.45.07,60.91.09,91.36,0,1.07,0,2.14,0,3.29.85.06,1.48.14,2.1.14,16.86.06,33.72.11,50.57.16.53,0,1.07-.11,1.6-.17.98.06,1.95.15,2.93.17,5.01.08,10.02.14,15.03.2.06,1.26.16,2.53.16,3.79,0,23.43,0,46.87,0,70.3,0,3.25.1,6.51.15,9.76,0,17.05,0,34.1.01,51.15-.04,1.81-.13,3.61-.13,5.42-.02,35.66-.03,71.32-.04,106.98-7.61.05-15.23.15-22.84.16-60.31.01-120.62,0-180.93.01-1.17,0-2.34,0-3.64,0-.08-.61-.21-1.13-.21-1.64-.01-23.13-.02-46.25-.01-69.38,0-.81.14-1.61.22-2.41,12.71,0,25.42,0,38.13,0v33.19h96.19v-29.89c.04-52.51.09-105.02.13-157.52,0-.62-.08-1.23-.11-1.63-6.18-.66-12.25-.96-18.19-2.01-26.24-4.65-47.35-26.56-51.15-52.79-4.95-34.21,18.14-66.1,52.15-71.75,5.41-.9,10.99-.84,16.49-1.22.28,0,.57,0,.86,0Zm30.06,203.96c0,3.3,2.39,5.73,5.55,5.66,3.33-.08,5.69-2.59,5.61-5.97-.06-2.97-2.4-5.35-5.3-5.4-3.32-.06-5.87,2.42-5.86,5.71Zm7.71,61.64c-.01-3.01-2.11-5.23-5-5.3-2.93-.07-5.42,2.32-5.45,5.22-.04,2.91,2.4,5.49,5.22,5.54,2.81.04,5.25-2.5,5.23-5.46Zm-1.68-116.34c-2.07.03-3.75,1.76-3.73,3.84.02,2.04,1.84,3.86,3.83,3.7,2.21-.18,3.42-1.54,3.58-3.68.15-2.03-1.72-3.89-3.68-3.86Z"/><path class="cls-3" d="m207.64,452.73c.01-35.66.02-71.32.04-106.98,0-1.81.08-3.61.13-5.42,27.72.02,55.45.03,83.17.05,0,36.5.02,73-.03,109.49,0,.93-.63,1.87-.97,2.8-24.19.04-48.38.08-72.57.11-3.26,0-6.51-.04-9.77-.06Z"/><path class="cls-4" d="m348.27,144.1h20.82v-30.74c-12.68-.59-23.91-4.74-33.17-13.49-9.2-8.7-14.21-19.43-15.03-32.32h-53.63c1.98-6.1,3.32-11.93,5.7-17.31,11.58-26.14,31.75-42.02,59.45-48.3,5.63-1.28,11.55-1.55,17.36-1.79,7.15-.29,14.32-.07,21.81-.07v16.7c28.54.99,48.54,24.65,48.14,49.33-.32,20.22-16.46,45.32-47.86,47.46v30.57h76.91v2.87c-.58,0-1.11,0-1.63,0-31.93-.04-63.85-.08-95.78-.11-1.08,0-2.16.14-3.24.21-.99-.05-1.98-.14-2.98-.14-23.29,0-46.57,0-69.86-.01-1.15,0-2.3,0-3.53,0v-2.94c.82-.05,1.44-.13,2.07-.13,20.66,0,41.32,0,61.98.03,4.15,0,8.31.11,12.46.17Zm20.82-127.23V1.81c-8.18,0-16.16-.16-24.12.07-3.68.11-7.4.74-11.01,1.52-28.3,6.13-48.56,22.24-60.05,48.96-1.68,3.92-2.67,8.13-4.03,12.36h51c.61-25.23,20.29-46.59,48.22-47.86Z"/><path class="cls-1" d="m65.8,412.65h-27.45c0-11.2,0-22.19,0-33.18.02-13,.05-25.99.07-38.99.04-7.89.1-15.78.11-23.67.02-28.57.07-57.13-.04-85.7-.01-2.85.83-3.46,3.52-3.42,10.7.14,21.41-.15,32.1.07,10.76.22,20.85,2.85,29.1,10.26,2.32,2.08,4.14,4.73,6.18,7.11-5.8,5.97-11.61,11.95-17.41,17.92-4.72,3.81-9.49,7.55-14.15,11.43-11.64,9.69-11.22,26.18-2.63,35.95,4.48,5.09,10.22,8.05,16.66,9.71,1.91.49,2.38,1.38,2.73,3.27,1.11,6.03,2.61,11.99,3.99,17.97.24,1.05.67,2.05,1.02,3.07-.33.3-.62.67-.99.91-12.31,7.92-20.07,19.36-25.43,32.69-4.47,11.12-6.43,22.75-7.37,34.61Z"/><path class="cls-1" d="m289.98,452.68c.34-.93.97-1.87.97-2.8.05-36.5.03-73,.03-109.49,7.24-.05,14.47-.12,21.71-.13,14.84-.02,29.68,0,44.52,0,.89,0,1.78,0,3.21,0,0,9.95,0,19.67,0,29.4.02,14.39.04,28.78.06,43.17-.07,8.43-.15,16.86-.2,25.29-.03,4.7,0,9.39,0,14.31-2.75.14-5.25.36-7.76.37-20.4.04-40.8.04-61.2.04-.44,0-.89-.1-1.33-.15Z"/><path class="cls-2" d="m395.49,205.36c1.04.15,2.08.41,3.12.42,15.5.03,31.01.03,46.51.03,1.08,0,2.16,0,3.4,0v82.67c-.61.07-1.21.19-1.81.19-28.11.02-56.21.04-84.32.05-.36,0-.72-.05-1.09-.07-.21-5.97-.43-11.94-.64-17.91,0-21.75,0-43.51,0-65.26,1.09-.03,2.17-.09,3.26-.09,10.52-.01,21.05-.02,31.57-.02Z"/><path class="cls-1" d="m207.8,289.19c-.05-3.25-.15-6.51-.15-9.76-.01-23.43,0-46.87,0-70.3,0-1.26-.1-2.53-.16-3.79.09-.01.19-.02.28-.03,20.09.01,40.18.02,60.27.05,1.26,0,2.52.14,3.78.21-.05,1.9-.14,3.81-.14,5.71,0,25.94,0,51.88.01,77.81-.72.08-1.44.22-2.15.22-20.03,0-40.07,0-60.1-.01-.54,0-1.08-.07-1.63-.11Z"/><path class="cls-3" d="m348.18,163.67c1.26.07,2.52.2,3.79.2,24.94.02,49.87.02,74.81.02.72,0,1.43,0,2.36,0v32.72c-11.21,0-22.41,0-33.61,0-3.17-.01-6.34-.03-9.51-.03-30.72,0-61.44,0-92.16,0-.07-10.9-.15-21.81-.22-32.71,1.35-.05,2.71-.14,4.06-.14,16.83-.03,33.66-.05,50.49-.07Z"/><path class="cls-2" d="m360.48,412.83c-.02-14.39-.04-28.78-.06-43.17,29.33,0,58.66,0,88.15,0v43.17h-88.08Z"/><path class="cls-2" d="m348.18,163.67c-16.83.02-33.66.04-50.49.07-1.35,0-2.71.09-4.06.14-6.81-.01-13.61-.02-20.42-.03-.06-.79-.12-1.58-.21-2.7h-23.74c.11-1.07.3-2.14.31-3.21.02-11.23.01-22.46.01-33.89h98.7c0,6.68,0,13.37,0,20.05-4.16-.06-8.31-.17-12.46-.17-20.66-.03-41.32-.03-61.98-.03-.62,0-1.24.07-2.07.13v2.94c1.23,0,2.38,0,3.53,0,23.29,0,46.57,0,69.86.01.99,0,1.98.09,2.98.14.02,5.52.03,11.04.05,16.57Z"/><path class="cls-3" d="m65.8,412.65c.93-11.86,2.9-23.49,7.37-34.61,5.36-13.34,13.12-24.78,25.43-32.69.37-.24.66-.6.99-.91,3.98,6.44,7.58,13.15,12.03,19.24,5.77,7.9,13.51,13.79,21.9,18.78.29.18.68.2,1.02.29,0,9.86,0,19.72,0,29.89h-68.74Z"/><path class="cls-1" d="m189.54,96.95c-1.41-7.27-2.97-14.52-4.19-21.82-2.05-12.22,1.56-22.25,12.22-29.14,10.07-6.5,23.72-6.12,33.64.72,10.81,7.45,15.66,21.19,12.43,35.21-2.72,11.81-12.84,20.92-25.65,22.69-3.35.46-6.82.04-10.23.03,0-2.86,0-5.72,0-8.76-5.9,0-11.24-.03-16.59.05-.55,0-1.09.67-1.64,1.02Z"/><path class="cls-4" d="m271.68,289.09c0-25.94-.02-51.88-.01-77.81,0-1.9.09-3.81.14-5.71,6.38,0,12.77,0,19.35,0v66.49c1.72-3.36,2.97-6.33,4.67-9.01,7.75-12.15,18.72-18.93,33.32-17.85,13.74,1.02,23.54,8.4,29.39,20.91.72,1.53,1.41,3.08,2.12,4.62.21,5.97.43,11.94.64,17.91,0,7.7,0,15.4,0,23.34h-70.73v-22.89h-18.9Zm87.58-.02c1.61-15.6-1.78-29.14-16.16-37.51-12.07-7.03-24.33-6.4-35.66,1.73-12.16,8.73-16.67,21.02-14.95,35.78h66.78Zm.09,9.18h-66.94v4.87h66.94v-4.87Zm.13,7.27h-67.15v4.65h66.91c.08-1.5.16-2.99.25-4.65Zm-.1-14.15h-67v4.65h67v-4.65Z"/><path class="cls-2" d="m134.63,95.24c.04-.9.12-1.8.12-2.7,0-29.11,0-58.23-.01-87.34,0-.99,0-1.98,0-3.13h19.69v93.56c-5.42,0-10.73.03-16.04-.02-1.28-.01-2.56-.26-3.83-.4,0,0,.07.03.07.03Z"/><path class="cls-2" d="m38.42,340.48c-.02,13-.05,25.99-.07,38.99-12.71,0-25.42,0-38.13,0,0-12.93,0-25.86,0-38.99h38.2Z"/><path class="cls-3" d="m189.54,96.95c.55-.36,1.09-1.01,1.64-1.02,5.34-.08,10.69-.05,16.59-.05,0,3.04,0,5.9,0,8.76-.05,5.16-.14,10.31-.14,15.47,0,13.67.03,27.34.04,41-6.01-.05-12.02-.1-18.04-.14-.03-19.62-.07-39.24-.1-58.86,0-1.72,0-3.44,0-5.15Z"/><path class="cls-4" d="m293.84,196.59c30.72,0,61.44,0,92.16,0,3.17,0,6.34.02,9.51.03,0,2.91-.02,5.83-.02,8.74-10.52,0-21.05.01-31.57.02-1.09,0-2.17.06-3.26.09-1.35-.05-2.71-.14-4.06-.14-19.91-.01-39.82-.01-59.72-.02-1.05,0-2.1,0-3.03,0v-8.72Z"/><path class="cls-3" d="m15.33,143.77c-7.84-.05-14.35-6.59-14.35-14.41,0-7.84,6.83-14.47,14.74-14.31,8,.15,14.4,6.75,14.32,14.75-.08,7.76-6.68,14.03-14.71,13.97Z"/><path class="cls-1" d="m29.85,90.77c-.03,7.87-6.47,14.23-14.43,14.27-7.91.04-14.5-6.58-14.49-14.53,0-7.81,6.56-14.26,14.43-14.23,8.04.04,14.52,6.52,14.49,14.49Z"/><path class="cls-1" d="m15.03,30.13c-8.17-.07-14.25-6.36-14.16-14.65C.96,7.59,7.21,1.54,15.22,1.61c8.28.07,14.69,6.49,14.61,14.65-.07,7.63-6.8,13.94-14.79,13.88Z"/><path class="cls-3" d="m15.74,182.5c-8.09.01-14.6-6.42-14.56-14.39.04-7.78,6.58-14.06,14.63-14.04,7.91.02,14.33,6.25,14.39,13.96.07,8.03-6.35,14.45-14.45,14.47Z"/><path class="cls-1" d="m15.31,67.08c-7.31-.01-13.16-5.77-13.2-13.01-.04-6.99,6.18-13.14,13.26-13.09,7.24.05,13.35,6.17,13.33,13.34-.03,7.17-5.9,12.78-13.38,12.76Z"/><path class="cls-2" d="m54.55,99.19c-6.55.04-12.05-5.08-12.18-11.35-.13-6.42,5.21-11.99,11.52-12,6.48-.01,12.02,5.36,12.17,11.8.14,6.36-4.98,11.5-11.51,11.54Z"/><path class="cls-2" d="m53.24,30c-6.41.04-11.71-5.1-11.77-11.41-.05-6.52,5.13-11.88,11.57-11.95,6.44-.07,11.92,5.24,11.97,11.59.05,6.38-5.3,11.72-11.78,11.76Z"/><path class="cls-3" d="m207.48,205.34c-5.01-.07-10.02-.13-15.03-.2-.98-.02-1.95-.11-2.93-.17.02-6.7.03-13.4.05-20.1,6.04-.01,12.07-.03,18.11-.05.03,6.83.06,13.66.08,20.49-.09,0-.19.02-.28.03Z"/><path class="cls-3" d="m189.42,181.74c.03-5.9.06-11.8.09-17.69,6.03.02,12.07.03,18.1.05.01,5.91.03,11.82.04,17.72-6.07-.03-12.15-.05-18.22-.08Z"/><path class="cls-4" d="m189.42,181.74c6.07.03,12.15.05,18.22.08,21.81,0,43.61,0,65.37,0v2.92c-1.21,0-2.28,0-3.35,0-20.66.03-41.32.05-61.98.08-6.04.02-12.07.03-18.11.04-6.68,0-13.37,0-20.23,0v-3.12h20.08Z"/><path class="cls-4" d="m207.6,164.1c-6.03-.02-12.07-.03-18.1-.05-6.67,0-13.33,0-20.15,0-.1-.97-.18-1.74-.32-3.08,6.96,0,13.79,0,20.61,0,6.01.05,12.02.1,18.03.14,13.86.01,27.72.02,41.58.04,7.87,0,15.73,0,23.75,0,.09,1.12.15,1.91.21,2.71-7.5.04-15,.1-22.5.12-14.37.05-28.73.08-43.1.12Z"/><path class="cls-4" d="m448.78,324.13v2.4h-90.04c-.07-.68-.14-1.44-.23-2.4h90.27Z"/><path class="cls-4" d="m91.97,263.05c5.8-5.97,11.61-11.95,17.41-17.92,4.31,5.12,5.73,11.25,6.43,17.92h-23.85Z"/><path class="cls-4" d="m429.79,346.26h2.89v15.54h-2.89v-15.54Z"/><path class="cls-4" d="m391.32,346.14v15.58h-2.88v-15.36c.78-.06,1.64-.12,2.88-.22Z"/><path class="cls-4" d="m368.54,346.21h2.84v15.53c-.8.04-1.73.08-2.84.14v-15.66Z"/><path class="cls-4" d="m412.32,361.69h-2.95v-15.46c.87-.05,1.81-.1,2.95-.17v15.63Z"/><path class="cls-4" d="m94.14,278.58c4.75-3.18,9.33-6.25,14.5-9.71-.92,1.17-1.44,1.94-2.07,2.6-1.4,1.48-3.38,2.36-2.58,5.26.53,1.91-2.45,3.54-4.22,2.24-1.79-1.33-3.16-1.15-4.84-.22-.21.11-.6-.12-.79-.16Z"/><path class="cls-3" d="m108.48,299.26c1.5-1.01,2.5-2,3.69-2.37,1-.31,2.98-.23,3.19.25.44,1.02.34,2.6-.19,3.6-.38.71-2,1.36-2.77,1.12-1.35-.43-2.46-1.58-3.92-2.59Z"/><path class="cls-2" d="m134.71,95.83c-.29,0-.57,0-.86,0,.27-.19.53-.38.79-.58,0,0-.07-.03-.07-.03.04.2.09.41.14.62Z"/><path class="cls-1" d="m172.48,361.43c.01,2.96-2.43,5.51-5.23,5.46-2.82-.04-5.25-2.63-5.22-5.54.04-2.91,2.52-5.29,5.45-5.22,2.89.07,4.99,2.29,5,5.3Z"/></g></svg>