<?xml version="1.0" encoding="UTF-8"?><svg id="Layer_2" xmlns="http://www.w3.org/2000/svg" viewBox="0 0 277.95 271.24"><defs><style>.cls-1{letter-spacing:.25em;}.cls-2{fill:#1d1d1b;font-family:Helvetica-Black, 'Helvetica Black';font-size:75.6px;font-weight:800;}.cls-3{fill:#db8a37;}.cls-4{letter-spacing:-.08em;}.cls-5{fill:#f8e5cb;}.cls-6{fill:#cd5630;}.cls-7{fill:#efaf2e;}.cls-8{fill:#9b999a;}.cls-9{fill:#1b1519;}.cls-10{fill:#585455;}.cls-11{fill:#e9e9e8;}.cls-12{fill:#efeeee;}.cls-13{fill:#2b282a;}</style></defs><g id="Layer_1-2"><path class="cls-9" d="m95.32,251.14c-3.85.64-7.7,1.23-11.53,1.94-7.22,1.34-14.43,2.72-21.63,4.14-4.86.96-9.72,1.99-14.57,3.02-6.93,1.47-13.84,2.98-20.77,4.45-6.1,1.3-12.21,2.56-18.32,3.84-.17.05-.33.1-.5.15-.26-.03-.51-.05-.77-.08-3.57-.29-5-1.85-5.27-5.74,1.07-3.61,4.31-3.64,7.11-4.18,11.85-2.28,23.73-4.41,35.58-6.7,8.17-1.58,16.3-3.35,24.45-5.01,1.35-.27,2.71-.46,4.07-.69,1.25-.31,2.51-.61,3.76-.92.32,0,.63-.01.95-.02,3.46-.75,6.93-1.5,10.39-2.25.46-.04.92-.07,1.38-.11,2.05-.43,4.09-.86,6.14-1.29.94-.17,1.87-.35,2.81-.52.63-.04,1.26-.07,1.89-.11.94.36,1.87.72,2.81,1.08.29,1.67.58,3.34.88,5.01-.3.67-.59,1.34-.89,2.01l-7.99,1.98Z"/><path class="cls-12" d="m20.78,265.61c.23.03.46.05.7.07-.23-.03-.47-.05-.7-.07Z"/><path class="cls-9" d="m169.75,48.47l-.73.17c-.16.1-.32.19-.48.29h.02c-4.46,1.57-8.92,3.14-13.38,4.72-5.79,2.06-11.59,4.09-17.36,6.18-8.66,3.14-17.18,6.74-25.98,9.41-10.2,3.1-20.65,5.4-30.99,8.05-.11-.25-.22-.49-.32-.74l-.04-.13c.17-.12.35-.24.52-.35.26-.02.52-.05.78-.07,1.74-.55,3.49-1.1,5.23-1.65,2.98-1.03,5.97-2.05,8.95-3.08l3.49-1.23c6.87-2.86,13.5-6.17,19.68-10.34,1.78-1.2,3.49-2.52,5.23-3.79.6-.47,1.21-.94,1.81-1.42.25-.25.51-.49.76-.74.71-.59,1.42-1.19,2.13-1.78,8.2-7.14,14.77-15.61,20.35-24.9.65-1.17,1.3-2.34,1.95-3.51,1.17-1.91,2.59-3.72,3.47-5.75,2.52-5.79,4.82-11.68,7.2-17.53.17.05.33.1.5.14,1.14,1.03,2.29,2.07,3.43,3.1.59.54,1.17,1.08,1.76,1.63.84.73,1.69,1.47,2.53,2.2,0,0-.02-.02-.02-.02.16.15.32.3.48.45,1.59,1.39,3.18,2.77,4.77,4.16.42.34.84.67,1.27,1.01,1.41,1.26,2.82,2.52,4.23,3.78.73.59,1.45,1.18,2.18,1.77,0,0-.02-.02-.02-.02.15.15.31.29.46.44,0,0-.02-.02-.02-.02.85.73,1.71,1.47,2.56,2.2,0,0-.02-.02-.02-.02.16.14.33.29.49.43,5.81,4.91,11.62,9.83,17.63,14.92-5.3,1.77-10.45,3.43-15.56,5.22-6.33,2.22-12.63,4.54-18.94,6.81Z"/><path class="cls-6" d="m49.42,57.55c6.02-3.26,12.02-6.56,18.06-9.78,6.9-3.69,13.84-7.33,20.76-10.98.24.05.54.22.72.14,4.89-2.36,10.27-3.61,14.81-6.74.27-.19.63-.33.95-.33,1.32-.03,2.63.01,3.95-.01.15,0,.29-.28.45-.41,1.6-1.3,3.09-2.76,4.83-3.83,1.89-1.16,2.38-.86,2.14,1.42-.32,2.98-.98,5.93-1.55,8.88-.66,3.46-1.64,6.88-1.98,10.37-.2,2.05-.67,3.26-2.72,3.76-.92.22-1.76.77-2.63,1.17,0,0-.04,0-.04,0-3.29.68-6.59,1.37-9.88,2.05-6.81,1.15-13.62,2.3-20.43,3.47-4.82.83-9.63,1.68-14.44,2.52-.15.03-.3.07-.46.1-3.26.45-6.52.89-9.78,1.34-.51.08-1.01.17-1.52.25-.75-.09-1.57-.41-2.24-.22-2.18.62-1.98-.49-1.55-1.89,0,0,.03-.02.03-.02.26-.12.52-.23.78-.35,0,0,.14-.13.14-.13.28-.1.56-.2.84-.3,0,0,.04-.02.04-.02.23-.14.47-.28.7-.42Z"/><path class="cls-9" d="m149.95,237.97c1.03.29,2.2,1.03,3.06.77,1.91-.58,1.21.68,1.26,1.42.04.74-.02,1.49-.04,2.24.43.41.86.82,1.28,1.23.27.72.55,1.44.82,2.16-.02.67.17,1.83-.1,1.95-3.65,1.62-2.02,4.89-2.3,7.47-.06.54,1.34,1.21,2.01,1.87.72.71,1.59,1.37-.09,2.16-.75.35-1.22,1.33-1.81,2.02-.14.04-.22.13-.26.27-.16.62-.31,1.24-.47,1.86-.99-.07-1.77.11-1.67,1.36-.46.12-.92.23-1.38.35-.64-.08-1.29-.16-1.93-.25-.3-1.02-.83-1.52-1.91-.91-.7.4-1.42.76-2.13,1.14-1.53.39-2.78.88-1.54,2.84.39.61.46,1.42.68,2.14-1.01.2-2.14.8-3,.52-1.31-.42-2.25-.41-3.24.55-.2.2-.83.08-1.21-.05-1.19-.41-2.86-.59-3.38-1.45-.47-.77.41-2.3.54-3.52.03-.32-.45-.79-.81-1.05-.98-.7-2.04-1.29-3.03-1.96-.87-.59-1.62-.81-2.3.26-.7,1.08-1.49,1.15-2.44.21-.32-.32-.9-.57-1.34-.55-1.6.06-1.01-.66-.72-1.51.25-.74.56-1.86.21-2.33-1.96-2.58-2.03-2.53.64-4.35.08-.17.17-.35.25-.52,0-.25,0-.5,0-.76-.03-1.78-.05-3.56-.08-5.34-.78-.54-1.57-1.09-2.35-1.63l-.64-.9c.24-.38.48-.77.72-1.15.26-.28.53-.56.79-.84.13-.31.27-.62.4-.93.08-.42.17-.84.25-1.26.16-.78-2.25-2.49.84-2.28.5.03,1.01-.75,1.58-.94.49-.17,1.43-.26,1.58-.01,1.14,1.83,2.31,1.24,3.62.27.68-.5,1.43-.91,2.17-1.33,1.05-.6,1.61-1.28.74-2.48-.4-.56-.65-1.23-.97-1.85.05-.12.08-.25.09-.38.73-.26,1.46-.51,2.18-.77.41-.04.82-.08,1.23-.13.71.17,1.44.54,2.12.47.61-.07,1.17-.63,1.76-.97.12.07.25.1.38.08.65,1.12,1.61,1.51,2.87,1.21.48.3.96.61,1.44.91q-1.97,3.25,1.11,5.14c.18.11.37.22.54.34,1.31.89,2.36.71,3.09-.76.29-.02.59-.03.88-.05Zm-4.73,3.5c-1.32-.43-2.64-.88-3.98-1.27-.19-.06-.47.18-.71.28.13.22.21.53.4.63,1.81.98,3.64,1.93,5.46,2.89.08-.41.16-.82.25-1.23-.33-.33-.67-.66-1-.99-.14-.1-.29-.2-.43-.31Zm-8.83,20.03c-.28-.44-.35-.66-.5-.78-1.48-1.23-2.97-2.45-4.47-3.65-.06-.05-.34.03-.37.11-.34.88-1.57,1.77-.19,2.68,1.22.81,2.52,1.54,3.86,2.13.38.17,1.03-.29,1.66-.49Zm-1.43-21.85c-1.56,1.01-3.03,1.9-4.39,2.92-.23.17-.02.94-.02,1.43.38-.12.79-.17,1.13-.36,1.21-.66,2.4-1.35,3.57-2.07.35-.22.62-.57.93-.86-.3-.26-.6-.52-1.22-1.07Zm16.01,12.63c-.07-1.34-.02-2.03-.17-2.68-.08-.33-.52-.57-.79-.85-.16.33-.4.64-.47.99-.29,1.44-.55,2.9-.77,4.35-.05.36.12.75.18,1.13.37-.15.96-.2,1.08-.47.47-.99.78-2.04.94-2.46Zm-21.6.07c-.68-1.29-1.27-2.42-1.86-3.56-.27.8-.84,1.64-.73,2.38.16.99.85,1.89,1.32,2.82.36-.47.73-.94,1.27-1.64Zm17.35,7.02c-1.07,0-1.56-.13-1.95.02-1.1.45-2.18.99-3.22,1.56-.32.17-.52.57-.77.86.39.2.86.66,1.16.57,1.13-.36,2.24-.85,3.3-1.39.39-.2.65-.68,1.49-1.61Z"/><path class="cls-3" d="m107.22,51.18c.87-.4,1.71-.94,2.63-1.17,2.05-.5,2.52-1.71,2.72-3.76.34-3.49,1.32-6.91,1.98-10.37.57-2.95,1.24-5.9,1.55-8.88.24-2.28-.25-2.58-2.14-1.42-1.74,1.07-3.23,2.54-4.83,3.83-.16.13-.3.41-.45.41-1.32.03-2.64-.02-3.95.01-.32,0-.68.15-.95.33-4.54,3.13-9.92,4.38-14.81,6.74-.18.09-.48-.08-.72-.14,1.87-.99,3.73-1.97,5.6-2.96.85-.4,1.69-.8,2.54-1.21.3-.15.59-.31.89-.46,3.02-1.45,6.05-2.86,9.05-4.37,7.01-3.52,14.01-7.08,21.01-10.63.14-.04.28-.08.42-.13.71-.32,1.42-.62,2.12-.95,4.73-2.25,9.45-4.5,14.17-6.75.58.2,1.16.39,1.74.61.4.15,1.12.38,1.11.53-.3,3.59,1.05,7.27-.54,10.81-.37.83-.53,1.76-.67,2.67-.04.25.28.79.48.82,1.1.12,2.21.13,3.32.17-1.54,1.67-3.08,3.34-4.61,5.01l.07.11s-.08-.11-.08-.11c-.53.47-1.05.95-1.58,1.42,0,0-.02.01-.02.01-.15.13-.29.27-.44.4-1.16,1.07-2.31,2.14-3.47,3.22-.12.08-.24.16-.36.24,0,0-.04,0-.04,0-.18.11-.37.23-.56.34-.12.02-.23.09-.3.19-.13.11-.25.22-.38.33,0,0-.03.03-.03.03-.86.7-1.73,1.4-2.59,2.1,0,0-.01.01-.01.01-.39.3-.79.6-1.18.9,0,0-.07.04-.07.04-.56.41-1.12.83-1.69,1.24,0,0-.05.03-.05.03-.15.12-.3.24-.45.36,0,0,0,0,0,0-.25.16-.49.32-.74.48,0,0-.09.05-.09.05-.15.11-.29.22-.44.33,0,0-.01.01-.01.01-.17.12-.34.24-.5.36,0,0,0-.02,0-.02-.71.45-1.41.89-2.12,1.34,0,0,0,0,0,0-.45.27-.9.53-1.35.8,0,0,0,0,0,0-1.96,1.04-3.92,2.08-5.88,3.13,0,0-.04.02-.04.02-1.33.54-2.66,1.07-4,1.61-.12,0-.24.03-.33.1-.76.24-1.52.49-2.28.73-.12-.01-.22.02-.3.1-.44.12-.88.24-1.33.36,0,0,0-.01,0-.01-1.68.34-3.35.67-5.03,1.01Z"/><path class="cls-3" d="m170.33,255.54c.13-.15.25-.3.38-.45.15-.14.3-.28.45-.43,0,0,0,0,0,0,.94-.31,1.87-.74,2.84-.92,13.32-2.59,26.64-5.14,39.96-7.7,5.09-.98,10.19-1.96,15.28-2.94,5.56-1.03,11.13-2.05,16.69-3.08.5-.09,1-.17,1.5-.26.08.09.16.09.23,0,1.02-.18,2.03-.36,3.05-.54.14.02.26-.01.37-.1.57-.13,1.14-.26,1.71-.39.28-.02.57-.04.85-.07,1.06-.12,2.12-.24,3.19-.36l.07.3c-1.39.6-2.79,1.2-4.18,1.79,0,0-.05-.05-.05-.05-6.69,2.32-13.39,4.64-20.09,6.96,0,0-.03.02-.03.02-7.34,2.27-14.68,4.53-22.02,6.8-.12-.02-.22.01-.3.09-.91.25-1.81.5-2.72.76-.12-.02-.22,0-.3.09-.45.13-.89.26-1.34.39-.13-.02-.25,0-.36.07-.56.08-1.12.13-1.67.25-10.32,2.32-20.64,4.65-30.96,6.98,0,0-.16-.05-.16-.05,0,0-.17.01-.17.01-.75-.55-1.51-1.09-2.26-1.64,0,0,0,0,0,0-.18-.57-.37-1.13-.55-1.7,0-.72-.01-1.44-.02-2.17.05-.28.11-.57.16-.85.08-.06.1-.13.08-.22.13-.2.26-.4.38-.61Z"/><path class="cls-3" d="m190.08,59.86c-.29.09-.57.17-.86.26-2.14.3-4.29.59-6.43.89.5-.39.95-.94,1.52-1.13,1.6-.55,3.51-.87.92-2.78-.13-.09-.12-.39-.16-.59-.43-2.56-1.86-3.56-4.36-3.2-1.02.15-2.07.06-3.1.08,6.03-1.17,12.06-2.33,18.09-3.5.27-.04.54-.09.82-.13,5.38-.96,10.76-1.86,16.12-2.9,2.12-.41,4.18-1.13,6.27-1.71.28-.05.56-.1.83-.15.99-.13,1.99-.26,2.98-.39.15,0,.29-.01.44-.02.3-.09.6-.18.91-.26,2.83-.55,5.66-1.1,8.5-1.65-.51.37-.97.91-1.54,1.08-1.76.51-3.58.84-5.35,1.33-.26.07-.6.67-.55.97.29,1.8.63,3.6,1.1,5.36.13.49.77.85,1.18,1.27-.7.19-1.41.38-2.11.57-.64.1-1.27.19-1.91.29l-.13-.05s-.11.08-.11.08c-5.44,1.03-10.89,2.07-16.33,3.1,0,0,.01,0,.01,0-1.57.3-3.14.59-4.71.89-.15.02-.29.05-.44.07-.6.24-1.19.48-1.79.72-1.97.19-3.94.38-5.9.57-1.3.32-2.59.64-3.89.96Z"/><path class="cls-7" d="m172.02,247.29c-.08-.08-.17-.11-.28-.09-.19-.1-.39-.21-.58-.31-.06-.09-.14-.13-.25-.14-.52-1.09-1.04-2.17-1.55-3.26.03-.43.06-.86.08-1.29.32-.54.65-1.08.97-1.62.39-.34.78-.68,1.17-1.02.17-.1.34-.19.5-.29.13,0,.25-.03.36-.11.2-.08.39-.16.59-.24.23-.07.46-.14.69-.21.43-.11.86-.23,1.29-.34.28-.04.57-.08.85-.12,4.16-.83,8.32-1.65,12.48-2.48.14.02.27,0,.39-.07,2.59-.53,5.17-1.06,7.76-1.6.28-.04.56-.08.85-.12.34-.07.69-.15,1.03-.22.23-.05.46-.1.69-.15,3-.51,6.01-1.02,9.01-1.53.56.07,1.25-.03,1.63.27.4.31,3.85-1.77,1.14,1.29-.18.2.38,1.1.66,1.64q1.5,2.88-.9,4.76c-.07.06-.15.07-.23.02-2.2.52-4.39,1.03-6.59,1.55-9.03,1.76-18.06,3.52-27.08,5.27-.45.1-.9.2-1.34.3,0,0-.03.02-.03.02-.97.05-1.94.11-2.92.16-.12-.1-.25-.12-.39-.07Z"/><path class="cls-3" d="m210.61,240.04q2.41-1.88.9-4.76c-.28-.54-.84-1.44-.66-1.64,2.71-3.06-.74-.98-1.14-1.29-.38-.3-1.07-.19-1.63-.27,3.6-.76,7.2-1.52,10.8-2.28,0,0-.01.01-.01.01.71-.08,1.42-.12,2.12-.26,6.31-1.25-2.39-4.51,3.91-5.78,1.27.1,2.88-.25,3.72.4,1.09.84,1.86,2.39,2.24,3.78.48,1.74,14.63,5.34,12.89,5.98-2.03.74-4.16,1.26-6.28,1.7-3.34.7-6.71,1.26-10.06,1.88-.79.07-1.58.15-2.37.22l-.11-.07s-.11.06-.11.07c-.77.17-1.54.33-2.31.5l-.13-.02s-.11.06-.11.06c-.65.11-1.3.23-1.94.34-.21.04-.43.08-.64.11-.62.13-1.23.26-1.85.38h-.15s-.14.05-.14.05c-2.31.29-4.62.59-6.92.88Z"/><path class="cls-9" d="m81.35,89.86c-.44.1-.87.2-1.31.3-4.34.8-8.68,1.58-13.02,2.4-10.28,1.94-20.55,3.92-30.83,5.83-5.71,1.06-11.43,2.03-17.16,2.98-.51.08-1.11-.31-1.66-.49.46-.41.87-1.08,1.39-1.19,5.98-1.2,11.97-2.3,17.95-3.45,6.3-1.22,12.59-2.49,18.9-3.72,2.13-.41,4.28-.75,6.43-1.12.3-.1.61-.2.91-.3.27-.03.53-.06.8-.08.45-.12.9-.23,1.34-.35.27-.03.53-.05.8-.08.52-.14,1.04-.29,1.56-.43.27,0,.53,0,.8,0,1.64-.29,3.29-.58,4.93-.88.86-.15,1.73-.29,2.59-.44.57-.14,1.13-.28,1.7-.42.72-.14,1.44-.28,2.16-.42,10.2-1.85,20.41-3.66,30.61-5.56,4.81-.9,9.59-1.97,14.39-2.93,1.31-.26,2.65-.35,3.98-.52.57-.02,1.15-.03,1.72-.05,3.44-.54,6.88-1.12,10.33-1.58.38-.05.85.63,1.27.97-.4.38-.76,1.03-1.22,1.11-5.53.95-11.07,1.8-16.61,2.72-5.69.94-11.37,1.9-17.05,2.92-6.73,1.22-13.43,2.52-20.15,3.79-.42.05-.85.1-1.27.15-.3.09-.59.18-.89.26-1.14.19-2.27.39-3.41.58Z"/><path class="cls-7" d="m177.6,53.39c1.03-.02,2.08.07,3.1-.08,2.51-.36,3.93.64,4.36,3.2.03.2.03.5.16.59,2.59,1.91.68,2.23-.92,2.78-.57.2-1.02.74-1.52,1.13,0,0,0-.01,0-.01-1.43.3-2.87.59-4.3.89l-1.83.75h-.18s-.17.06-.16.06c-1.19.26-2.38.51-3.58.77-.24.03-.47.07-.71.1-.43.06-.86.12-1.29.19-.16.04-.31.09-.47.13-4.14.61-8.28,1.22-12.42,1.83-.09-.07-.2-.11-.32-.11-.32-.12-.64-.23-.96-.35-3.07-2.72-2.94-4.86.46-8.06,1.46-.4,2.92-.81,4.38-1.21.87-.16,1.74-.32,2.6-.48.24-.04.48-.09.72-.13,1.2-.24,2.41-.48,3.61-.72.23-.04.46-.07.69-.11,1.58-.27,3.15-.54,4.73-.81.28-.04.56-.09.83-.13.58-.1,1.17-.2,1.75-.31.28-.04.56-.07.84-.11.14.06.28.12.42.18Z"/><path class="cls-7" d="m149.47,24.94c-1.11-.05-2.22-.05-3.32-.17-.2-.02-.52-.56-.48-.82.15-.9.3-1.84.67-2.67,1.59-3.54.24-7.21.54-10.81.01-.15-.71-.38-1.11-.53-.57-.22-1.16-.41-1.74-.61,0,0,.03.08.03.08.15-.14.31-.28.46-.41h0c.28-.15.57-.3.85-.45.72-.43,1.44-.87,2.16-1.29,3.17-1.84,6.34-3.68,9.51-5.51.14,0,.26-.05.37-.13.16-.1.31-.2.47-.31,0,0,0,0,0,0,1.4-.43,2.79-.87,4.19-1.3,0,.1-.01.19-.04.28-2.39,5.85-4.69,11.73-7.2,17.52-.88,2.04-2.3,3.84-3.47,5.75-.63.46-1.26.92-1.89,1.38Z"/><path class="cls-3" d="m181.03,72.09c-.28.04-.55.08-.83.12-1.74.4-3.48.8-5.23,1.21-.84.18-1.68.36-2.52.53-.16-.05-.32-.1-.47-.15,1.97-.96,3.95-1.92,5.39-2.62-.08-.52-.15-1-.22-1.47.44-.06.89-.12,1.33-.17.7-.16,1.4-.32,2.09-.48,1.96-.49,3.91-.97,5.87-1.46.2-.04.41-.08.61-.11.74-.15,1.48-.3,2.21-.44.13,0,.25-.01.36-.06,1.3-.27,2.61-.54,3.91-.81.14.02.27,0,.39-.07,1.17-.26,2.34-.52,3.51-.77,9.01-1.88,18.03-3.76,27.04-5.64.57-.13,1.13-.25,1.7-.38.16.02.31.05.47.07,1.94,1.19,1.91,2.58-.08,3.72-.99.57-1.98,1.14-2.97,1.71-3.44.48-6.89.96-10.33,1.43-1.46.24-2.92.48-4.38.72-.26.03-.51.07-.77.1-3.44.57-6.9,1.07-10.33,1.72-5.59,1.06-11.17,2.21-16.75,3.32Z"/><path class="cls-6" d="m223.6,64.79c.99-.57,1.98-1.14,2.97-1.71,1.99-1.14,2.02-2.53.08-3.72,0,0-.04-.12-.04-.12,2.5-.53,4.99-1.06,7.49-1.59,2.1-.48,4.2-.97,6.3-1.45.43-.11.86-.21,1.29-.32,0,0,0,0,0,0,.55-.09,1.1-.15,1.65-.27,3.7-.76,7.4-1.53,11.11-2.29,0,0,.06.03.06.03.14.07.28.14.41.21.15.07.3.14.45.21.13.11.25.23.38.34,0,0,.07.08.07.08.12.26.24.51.36.77,0,0,.08.1.08.1.09.3.18.61.27.91.08,3.14-1.88,4.63-5.7,5.06-7.02.8-14.01,1.88-21.01,2.85-2.08.29-4.15.6-6.22.9Z"/><path class="cls-6" d="m227.4,52.68c-.41-.42-1.05-.77-1.18-1.27-.47-1.76-.8-3.56-1.1-5.36-.05-.3.29-.89.55-.97,1.77-.49,3.58-.82,5.35-1.33.57-.16,1.03-.71,1.54-1.08,2.71-.49,5.41-1.09,8.14-1.42,2.36-.29,3.95,1.03,4.39,3.25.46,2.36-.85,4.85-3.09,5.33-4.85,1.04-9.74,1.91-14.61,2.84Z"/><path class="cls-6" d="m267.96,210.07c.12.03.23,0,.33-.08.26-.02.52-.05.78-.07.41-.04.85-.18,1.24-.1.75.16,1.48.45,2.22.68-.52.64-.92,1.68-1.56,1.84-2.42.64-4.91.98-7.37,1.46-4.91.98-9.82,1.98-14.73,2.97,0,0,0,0,0,0-.59.14-1.18.28-1.77.42-.59.13-1.19.26-1.78.39-.12-.03-.22,0-.31.09-.59.12-1.17.23-1.76.35,0,0,0,0,0,0-3.7.63-7.41,1.26-11.11,1.89,1.86-.84,3.72-1.67,5.8-2.61-1.05-.3-1.9-.55-2.75-.79,8.97-1.76,17.94-3.52,26.92-5.29.49-.1.96-.26,1.44-.39,1.47-.25,2.94-.5,4.41-.76Z"/><path class="cls-7" d="m177.15,69.7c.07.47.14.95.22,1.47-1.44.7-3.42,1.66-5.39,2.62-6.64,1.26-13.28,2.51-19.92,3.77l-.15-.03s-.12.08-.12.08c-1,.18-1.99.35-2.99.52-.31-.13-.61-.27-.92-.4,0-.72,0-1.45,0-2.17,0,0,.04-.03.04-.03,3.49-.69,6.99-1.35,10.47-2.08,5.98-1.26,11.95-2.57,17.92-3.86.14-.02.29-.04.43-.06.13.06.26.12.39.16Z"/><path class="cls-13" d="m80.53,76.55c.11.25.22.49.32.74-4.26.85-8.53,1.7-12.79,2.56,4.16-1.1,8.31-2.2,12.47-3.3Z"/><path class="cls-6" d="m46.9,58.79c-.44,1.4-.63,2.52,1.55,1.89.67-.19,1.49.13,2.24.22-2.82.46-5.62.96-8.45,1.35-.67.09-1.4-.23-2.11-.36,2.01-1,4.02-2.01,6.03-3.01.25-.03.5-.06.75-.09Z"/><path class="cls-3" d="m210.38,240.05c-.48.26-.97.52-1.45.78-1.71.26-3.43.52-5.14.77,2.2-.52,4.39-1.03,6.59-1.55Z"/><path class="cls-13" d="m151.65,264.75c-.1-1.26.68-1.44,1.67-1.36.25.66.51,1.32.76,1.99-.81-.21-1.62-.42-2.43-.62Z"/><path class="cls-5" d="m173.76,53.75c-1.58.27-3.15.54-4.73.81,1.58-.27,3.15-.54,4.73-.81Z"/><path class="cls-5" d="m202.1,57.55c1.57-.3,3.14-.59,4.71-.89-1.57.3-3.14.59-4.71.89Z"/><path class="cls-5" d="m116.48,48.89c1.33-.54,2.66-1.07,4-1.61-1.33.54-2.66,1.07-4,1.61Z"/><path class="cls-5" d="m135.09,38.23c.86-.7,1.73-1.4,2.59-2.1-.86.7-1.73,1.4-2.59,2.1Z"/><path class="cls-11" d="m186.15,21.11c-.85-.73-1.71-1.47-2.56-2.2,1.52-.04,2.33.74,2.56,2.2Z"/><path class="cls-5" d="m208.88,66.94c1.46-.24,2.92-.48,4.38-.72-1.46.24-2.92.48-4.38.72Z"/><path class="cls-5" d="m96.38,32.62c-.85.4-1.69.8-2.54,1.21.85-.4,1.69-.8,2.54-1.21Z"/><path class="cls-8" d="m123.54,248.21c.03,1.78.05,3.56.08,5.34l-.08-5.34Z"/><path class="cls-5" d="m193.55,66.16c-1.3.27-2.61.54-3.91.81,1.3-.27,2.61-.54,3.91-.81Z"/><path class="cls-5" d="m197.44,65.32c-1.17.26-2.34.52-3.51.77,1.17-.26,2.34-.52,3.51-.77Z"/><path class="cls-5" d="m172.74,63.48c1.19-.26,2.38-.51,3.58-.77-1.19.26-2.38.51-3.58.77Z"/><path class="cls-11" d="m222.72,44.61c-.99.13-1.99.26-2.98.39.99-.13,1.99-.26,2.98-.39Z"/><path class="cls-11" d="m183.16,18.51c-.73-.59-1.45-1.18-2.18-1.77.73.59,1.45,1.18,2.18,1.77Z"/><path class="cls-5" d="m207.5,254.97c.91-.25,1.81-.5,2.72-.76-.91.25-1.81.5-2.72.76Z"/><path class="cls-5" d="m127.74,43.36c.71-.45,1.41-.89,2.12-1.34-.71.45-1.41.89-2.12,1.34Z"/><path class="cls-5" d="m143.27,31.37c.53-.47,1.05-.95,1.58-1.42-.53.47-1.05.95-1.58,1.42Z"/><path class="cls-13" d="m148.73,265.94c-.13-.36-.25-.73-.38-1.09.64.08,1.29.16,1.93.25-.52.28-1.03.56-1.55.85Z"/><path class="cls-5" d="m176.34,53.31c-.58.1-1.17.2-1.75.31.58-.1,1.17-.2,1.75-.31Z"/><path class="cls-5" d="m113.87,49.73c.76-.24,1.52-.49,2.28-.73-.76.24-1.52.49-2.28.73Z"/><path class="cls-5" d="m250.69,239.23c-1.02.18-2.03.36-3.05.54,1.02-.18,2.03-.36,3.05-.54Z"/><path class="cls-11" d="m176.75,12.95c-.42-.34-.84-.67-1.27-1.01.42.34.84.67,1.27,1.01Z"/><path class="cls-5" d="m132.15,40.42c.56-.41,1.12-.83,1.69-1.24-.56.41-1.12.83-1.69,1.24Z"/><path class="cls-11" d="m252.77,238.74c-.57.13-1.14.26-1.71.39.57-.13,1.14-.26,1.71-.39Z"/><path class="cls-5" d="m169.73,259.39c.18.57.37,1.13.55,1.7-.18-.57-.37-1.13-.55-1.7Z"/><path class="cls-5" d="m199.87,58.34c.6-.24,1.19-.48,1.79-.72-.6.24-1.19.48-1.79.72Z"/><path class="cls-5" d="m189.27,67.03c-.74.15-1.48.3-2.21.44.74-.15,1.48-.3,2.21-.44Z"/><path class="cls-5" d="m222.51,238.22c.77-.17,1.54-.33,2.31-.5-.77.17-1.54.33-2.31.5Z"/><path class="cls-5" d="m133.9,39.14c.39-.3.79-.6,1.18-.9-.39.3-.79.6-1.18.9Z"/><path class="cls-5" d="m126.4,44.15c.45-.27.9-.53,1.35-.8-.45.27-.9.53-1.35.8Z"/><path class="cls-5" d="m225.04,237.73c.79-.07,1.58-.15,2.37-.22-.79.07-1.58.15-2.37.22Z"/><path class="cls-11" d="m224.07,44.33c-.3.09-.6.18-.91.26.3-.09.6-.18.91-.26Z"/><path class="cls-5" d="m223.38,53.54c.64-.1,1.27-.19,1.91-.29-.64.1-1.27.19-1.91.29Z"/><path class="cls-5" d="m220.32,238.61c.65-.11,1.3-.23,1.94-.34-.65.11-1.3.23-1.94.34Z"/><path class="cls-5" d="m217.83,239.1c.62-.13,1.23-.26,1.85-.38-.62.13-1.23.26-1.85.38Z"/><path class="cls-5" d="m226.18,59.3c-.57.13-1.13.25-1.7.38.57-.13,1.13-.25,1.7-.38Z"/><path class="cls-5" d="m175.36,247.18c.45-.1.9-.2,1.34-.3-.45.1-.9.2-1.34.3Z"/><path class="cls-5" d="m241.68,55.89c-.43.11-.86.21-1.29.32.43-.11.86-.21,1.29-.32Z"/><path class="cls-5" d="m205.86,255.46c.45-.13.89-.26,1.34-.39-.45.13-.89.26-1.34.39Z"/><path class="cls-5" d="m112.24,50.19c.44-.12.88-.24,1.33-.36-.44.12-.88.24-1.33.36Z"/><path class="cls-5" d="m247.41,239.77c-.5.09-1,.17-1.5.26.5-.09,1-.17,1.5-.26Z"/><path class="cls-10" d="m47.7,58.42c-.26.12-.52.23-.78.35.26-.12.52-.23.78-.35Z"/><path class="cls-10" d="m48.68,57.98c-.28.1-.56.2-.84.3.28-.1.56-.2.84-.3Z"/><path class="cls-10" d="m49.42,57.55c-.23.14-.47.28-.7.42.23-.14.47-.28.7-.42Z"/><path class="cls-5" d="m130.9,41.29c.25-.16.49-.32.74-.48-.25.16-.49.32-.74.48Z"/><path class="cls-5" d="m169.87,256.37c-.05.28-.11.57-.16.85.05-.28.11-.57.16-.85Z"/><path class="cls-5" d="m256.17,54.98c-.12-.26-.24-.51-.36-.77.12.26.24.51.36.77Z"/><path class="cls-5" d="m256.52,55.98c-.09-.3-.18-.61-.27-.91.09.3.18.61.27.91Z"/><path class="cls-5" d="m138.39,35.58c.19-.11.37-.23.56-.34-.19.11-.37.23-.56.34Z"/><path class="cls-5" d="m138.99,35.24c.12-.08.24-.16.36-.24-.12.08-.24.16-.36.24Z"/><path class="cls-5" d="m137.72,36.1c.13-.11.25-.22.38-.33-.13.11-.25.22-.38.33Z"/><path class="cls-5" d="m142.82,31.78c.15-.13.29-.27.44-.4-.15.13-.29.27-.44.4Z"/><path class="cls-11" d="m81.01,76.07c-.17.12-.35.24-.52.35.17-.12.35-.24.52-.35Z"/><path class="cls-5" d="m255.73,54.13c-.13-.11-.25-.23-.38-.34.13.11.25.23.38.34Z"/><path class="cls-11" d="m186.61,21.52c-.16-.14-.33-.29-.49-.43.16.14.33.29.49.43Z"/><path class="cls-5" d="m254.9,53.58c-.14-.07-.28-.14-.41-.21.14.07.28.14.41.21Z"/><path class="cls-11" d="m183.6,18.93c-.15-.15-.31-.29-.46-.44.15.15.31.29.46.44Z"/><path class="cls-5" d="m131.65,40.81c.15-.12.3-.24.45-.36-.15.12-.3.24-.45.36Z"/><path class="cls-11" d="m170.71,7.78c-.16-.15-.32-.3-.48-.45.16.15.32.3.48.45Z"/><path class="cls-5" d="m157.88,1.3c-.16.1-.31.2-.47.31.16-.1.31-.2.47-.31Z"/><path class="cls-5" d="m130.37,41.67c.15-.11.29-.22.44-.33-.15.11-.29.22-.44.33Z"/><path class="cls-13" d="m153.79,261.53c.04-.14.12-.23.26-.27-.02.15-.11.24-.26.27Z"/><path class="cls-8" d="m123.61,254.31c-.08.17-.17.35-.25.52.08-.17.17-.35.25-.52Z"/><path class="cls-5" d="m170.33,255.54c-.13.2-.26.4-.38.61.13-.2.26-.4.38-.61Z"/><path class="cls-5" d="m129.85,42.04c.17-.12.34-.24.5-.36-.17.12-.34.24-.5.36Z"/><path class="cls-5" d="m171.15,254.66c-.15.14-.3.28-.45.43.15-.14.3-.28.45-.43Z"/><path class="cls-5" d="m174.98,73.41c1.74-.4,3.48-.8,5.23-1.21-1.74.4-3.48.8-5.23,1.21Z"/><path class="cls-5" d="m148.8,78.15c1-.17,1.99-.35,2.99-.52-1,.17-1.99.35-2.99.52Z"/><path class="cls-5" d="m147.89,75.57c0,.72,0,1.45,0,2.17,0-.72,0-1.45,0-2.17Z"/><path class="cls-12" d="m173.32,69.59c-.43.14-.86.28-1.28.43.43-.14.86-.28,1.28-.43Z"/><path class="cls-5" d="m156.57,65.28c.32.12.64.23.96.35-.32-.12-.64-.23-.96-.35Z"/><path class="cls-12" d="m170.75,64.08c.14-.03.28-.03.41,0-.14,0-.28,0-.41,0Z"/><path class="cls-12" d="m168.54,48.93c.16-.1.32-.19.48-.29-.16.1-.32.19-.48.29Z"/><path class="cls-3" d="m235.19,216.51c.85.24,1.7.49,2.75.79-2.09.94-3.94,1.78-5.8,2.61-.33.12-.64.29-.98.36-5.43,1.14-10.85,2.27-16.28,3.4-.12-.02-.24,0-.35.07-5.76,1.12-11.51,2.25-17.27,3.37,0,0-.18,0-.18,0,0,0-.17.06-.17.06-1.29.14-2.59.27-3.88.41,1.35-.58,2.72-1.14,4.05-1.76.6-.28,1.15-.68,1.72-1.03-.56-.24-1.11-.48-1.67-.72,4.72-.99,8.44-1.99,13.17-2.96,6.95-1.43,14.91-2.83,21.86-4.24,1.01-.12,2.01-.24,3.02-.36Zm-34.61,7.95c-.11-.05-.25-.16-.33-.13-.08.03-.1.21-.15.32.11.05.25.16.33.13.08-.03.1-.21.15-.32Z"/><path class="cls-7" d="m197.15,224.06c.56.24,1.11.48,1.67.72-.57.35-1.12.75-1.72,1.03-1.34.62-2.7,1.17-4.05,1.76-.46.14-.92.33-1.4.42-4.12.85-8.24,1.68-12.37,2.52-.29.04-.57.08-.86.11-.34.06-.69.12-1.03.18-.38.07-.75.14-1.13.2-.6.11-1.19.23-1.79.34-.53.16-1.06.31-1.59.47-.17-.11-.34-.23-.53-.32-.71-.34-1.92-.54-2.06-1.03-.41-1.52,1.02-1.63,2.02-1.84,3-.63,6.01-1.21,9.03-1.76,5.26-.96,10.53-1.87,15.8-2.8Z"/><path class="cls-5" d="m197.27,227.1c5.76-1.12,11.51-2.25,17.27-3.37-1.94.56-3.84,1.29-5.81,1.65-3.8.69-7.63,1.16-11.45,1.72Z"/><path class="cls-5" d="m188.34,235.77c-4.16.83-8.32,1.65-12.48,2.48,1.65-.46,3.29-1.02,4.97-1.34,2.49-.47,5.01-.77,7.52-1.14Z"/><path class="cls-5" d="m267.96,210.07c-1.47.25-2.94.5-4.41.76,1.47-.25,2.94-.5,4.41-.76Z"/><path class="cls-5" d="m170.4,240.57c-.32.54-.65,1.08-.97,1.62.32-.54.65-1.08.97-1.62Z"/><path class="cls-5" d="m175.01,238.37c-.43.11-.86.23-1.29.34.43-.11.86-.23,1.29-.34Z"/><path class="cls-5" d="m174.47,231.35c.6-.11,1.19-.23,1.79-.34-.6.11-1.19.23-1.79.34Z"/><path class="cls-5" d="m243.26,218.02c.59-.12,1.17-.23,1.76-.35-.59.12-1.17.23-1.76.35Z"/><path class="cls-5" d="m198.37,233.76c-.34.07-.69.15-1.03.22.34-.07.69-.15,1.03-.22Z"/><path class="cls-5" d="m177.39,230.8c.34-.06.69-.12,1.03-.18-.34.06-.69.12-1.03.18Z"/><path class="cls-5" d="m172.02,247.29c.15-.05.28-.03.39.07-.13-.02-.26-.05-.39-.07Z"/><path class="cls-5" d="m173.02,238.92c-.2.08-.39.16-.59.24.2-.08.39-.16.59-.24Z"/><path class="cls-5" d="m172.07,239.26c-.17.1-.34.19-.5.29.17-.1.34-.19.5-.29Z"/><path class="cls-5" d="m171.15,246.88c.19.1.39.21.58.31-.19-.11-.39-.21-.58-.31Z"/><path class="cls-3" d="m107.17,51.18c-3.29.68-6.59,1.37-9.88,2.05,3.29-.68,6.59-1.37,9.88-2.05Z"/><path class="cls-13" d="m146.41,244c.08-.41.16-.82.25-1.23-.08.41-.16.82-.25,1.23Z"/><path class="cls-12" d="m122.05,243.69c.13-.31.27-.62.4-.93-.13.31-.27.62-.4.93Z"/><path class="cls-3" d="m182.78,61c-1.43.3-2.87.59-4.3.89,1.43-.3,2.87-.59,4.3-.89Z"/><path class="cls-3" d="m144.53,8.99c.28-.15.57-.3.85-.45-.28.15-.57.3-.85.45Z"/><path class="cls-3" d="m144.06,9.41c.15-.14.31-.28.46-.41-.15.14-.31.28-.46.41Z"/><path class="cls-7" d="m178.48,69.53c.7-.16,1.4-.32,2.09-.48-.7.16-1.4.32-2.09.48Z"/><path class="cls-7" d="m200.58,224.46c-.05.11-.07.29-.15.32-.08.03-.22-.08-.33-.13.05-.11.07-.29.15-.32.08-.03.22.08.33.13Z"/><text class="cls-2" transform="translate(10.63 173.73) rotate(-11) scale(.61 .98) skewX(-17.46)"><tspan class="cls-1"><tspan x="0" y="0">MADRID</tspan></tspan><tspan class="cls-4"><tspan x="-17.85" y="64.87">MARKETING</tspan></tspan></text></g></svg>