<?xml version="1.0" encoding="UTF-8"?><svg id="Layer_2" xmlns="http://www.w3.org/2000/svg" viewBox="0 0 248.19 272.08"><defs><style>.cls-1{fill:#5d5d5d;}</style></defs><g id="Layer_1-2"><path class="cls-1" d="m123.92,74.81c8.2.6,16.2,1,24.17,1.83,5.93.62,6.75,2.07,6.27,8.01-1.16,14.5-3.6,28.73-9.94,41.93-2.36,4.91-5.86,9.3-9.05,13.78-4.14,5.81-17.49,5.52-22.4.08-5.5-6.1-9.07-13.15-11.82-20.74-4.34-11.98-6.35-24.42-7.19-37.08-.25-3.71,1.22-5.42,5.79-5.89,8.08-.84,16.19-1.3,24.16-1.92Z"/><path class="cls-1" d="m126.16,69.8c-9.31-.56-16.75-.98-24.18-1.49-1.56-.11-3.12-.5-4.64-.91-2.38-.64-3.63-2.24-3.44-4.74,1.34-17.68,4.26-34.97,13.27-50.63,1.12-1.94,2.62-3.66,3.87-5.53,5.56-8.33,19.4-8.62,25.67-.92,5.69,6.99,9.79,14.79,11.82,23.37,2.56,10.83,4.06,21.92,5.97,32.91.57,3.29-1.02,5.39-4.22,5.73-8.63.92-17.28,1.61-24.13,2.23Z"/><path class="cls-1" d="m108.4,140.46c-6.38-1.08-12.13-3.3-17.51-6.32-20.73-11.66-32.85-29.3-36.23-52.89-.73-5.05-.3-5.77,4.88-5.94,7.32-.24,14.66-.44,21.97-.14,5.4.22,7.01,2.35,7.39,7.66,1.12,15.63,3.76,30.93,11.21,44.94,2.3,4.32,5.36,8.24,8.29,12.68Z"/><path class="cls-1" d="m139.63,140.34c14.58-17,18.29-37.03,19.95-57.75.4-4.98,1.9-7.19,6.94-7.36,8.1-.27,16.23.06,24.34.25,2.2.05,3.45,1.12,3.21,3.7-2.78,29.89-24.22,54.09-52.21,61.05-.52.13-1.09.06-2.23.11Z"/><path class="cls-1" d="m139.4,4c10.49,2.15,19.2,6.22,26.98,12.15,15.69,11.94,24.78,27.8,27.45,47.34.66,4.81.44,5.57-4.37,5.83-7.77.41-15.59.46-23.37.19-4.48-.15-6.17-2.65-6.51-7.49-1.09-15.54-3.74-30.73-11.01-44.72-1.86-3.58-4.43-6.79-6.71-10.15-.6-.88-1.31-1.68-2.46-3.15Z"/><path class="cls-1" d="m108.19,4.2c-8.07,9.71-12.8,20.76-15.43,32.62-1.85,8.34-2.78,16.89-3.84,25.38-.59,4.72-2.14,7.21-6.7,7.31-8.22.18-16.44-.21-24.67-.37-2.7-.05-3.41-1.57-3.1-4.05,3.37-26.22,16.78-45.2,40.76-56.52,3.14-1.48,6.49-2.51,9.77-3.68,1.02-.36,2.14-.47,3.21-.7Z"/><path class="cls-1" d="m197.79,188.09c0,5.03,0,10.06,0,15.09,0,2.94-.11,5.88.03,8.81.11,2.36-.77,3.28-3.13,3.08-1.78-.15-3.58-.03-5.65-.03v-46.94c3.12,0,6.16-.22,9.13.12.99.11,2.13,1.48,2.68,2.54,4.17,8.12,8.22,16.31,12.77,25.4v-18.66c-.43-.1-.95-.28-1.49-.36-1.63-.25-4.47-.09-4.67-.75-.67-2.18-.47-4.65-.38-7,.02-.45,1.03-1.22,1.59-1.24,4.29-.1,8.59-.11,12.88.03.55.02,1.52,1.09,1.52,1.68.08,14.89.07,29.78.07,45.14-3.32,0-6.36.25-9.32-.13-1.09-.14-2.34-1.59-2.93-2.74-3.63-7-7.09-14.09-10.62-21.14-.52-1.05-1.16-2.04-1.74-3.06-.24.05-.49.1-.73.15Z"/><path class="cls-1" d="m56.11,251.79c0-3.34,0-6.67,0-10.01,0-4.74.06-9.49-.02-14.23-.04-2.17.73-3.09,2.98-2.89,1.87.16,3.78.03,5.87.03.11,1.35.26,2.33.26,3.32.01,13.44-.07,26.89.07,40.33.03,2.9-1.03,3.34-3.68,3.63-5.22.56-8.1-1.14-10.18-6.16-3.01-7.27-6.98-14.14-11.23-21.11v27.12c-2.94,0-5.41.22-7.8-.14-.68-.1-1.55-1.91-1.56-2.95-.13-8.58-.07-17.17-.07-25.76,0-3.39,0-6.78-.02-10.17-.03-8.29-.03-8.19,8.13-8.17,2.36,0,3.4,1.06,4.31,2.95,3.49,7.21,7.07,14.37,10.64,21.55.47.95,1.04,1.85,1.57,2.78.24-.04.49-.08.73-.12Z"/><path class="cls-1" d="m134.26,255.33c2.65,5.3,5.25,10.51,8.23,16.48-3.67,0-6.65.16-9.59-.11-.8-.07-1.68-1.35-2.17-2.27-1.96-3.69-3.65-7.53-5.71-11.16-.66-1.17-2.15-1.87-3.26-2.79-.4.25-.8.49-1.2.74,0,3.79-.23,7.6.07,11.37.28,3.45-.83,4.82-4.32,4.29-1.42-.22-2.9-.04-4.66-.04-.11-1.18-.28-2.15-.28-3.12-.02-13.57.06-27.14-.07-40.7-.03-2.74.87-3.52,3.5-3.39,4.17.2,8.36.01,12.55.06,8.09.1,14.5,4.76,16.3,11.81,1.89,7.4-1.15,13.78-8.57,18.04-.19.11-.33.3-.82.77Zm-13.68-21.35c0,2.13,0,3.81,0,5.49,0,8.12.42,8.49,8.44,7.35,3.43-.49,5.98-3.1,6.05-6.21.08-3.3-2.42-6.23-6-6.57-2.65-.25-5.35-.05-8.49-.05Z"/><path class="cls-1" d="m157.12,198.47c2.67,5.42,5.24,10.64,8.14,16.52-3.52,0-6.5.16-9.45-.11-.8-.07-1.71-1.31-2.19-2.21-1.98-3.68-3.9-7.39-5.66-11.17-.94-2.02-2.18-2.73-4.58-1.79v15.29c-2.73,0-5.16.16-7.55-.11-.59-.07-1.46-1.55-1.46-2.39-.09-14-.05-28.01-.08-42.01,0-1.71.59-2.45,2.36-2.42,5.19.09,10.39-.08,15.58.15,6.99.31,12.62,5.1,14.34,11.84,1.61,6.31-1.12,13.01-6.8,16.72-.75.49-1.5.97-2.65,1.7Zm-13.83-8.52c3.33,0,6.25.21,9.12-.06,3.1-.29,5.27-2.94,5.41-5.98.14-3.08-1.76-5.82-4.9-6.35-2.53-.43-5.15-.42-7.73-.32-.66.03-1.79,1.11-1.82,1.75-.18,3.56-.09,7.14-.09,10.96Z"/><path class="cls-1" d="m37.25,191.56c0-6.79.07-13.57-.04-20.36-.04-2.29.6-3.26,3.04-3.16,4.63.19,9.28-.05,13.9.2,8.71.49,15.43,7.38,15.73,16.07.17,4.86.19,9.73,0,14.59-.33,8.65-7.22,15.62-15.82,16.02-4.74.22-9.5.04-14.25.19-2.18.07-2.69-.91-2.63-2.85.1-3.5.04-7.01.05-10.52,0-3.39,0-6.79,0-10.18Zm9.06-.05c0,3.95-.07,7.91.05,11.86.03.83.54,2.14,1.17,2.39,6.41,2.6,13.3-2.01,13.45-8.93.08-3.5.04-7,0-10.5-.1-6.9-6.85-11.52-13.36-9.01-.68.26-1.22,1.74-1.25,2.68-.14,3.83-.06,7.68-.06,11.52Z"/><path class="cls-1" d="m70.31,248.01c1.02-4.77,1.35-9.84,3.23-14.25,2.94-6.86,10.6-10.02,18.13-8.59,7.25,1.38,12.97,7.23,13.48,14.56.4,5.73.43,11.53,0,17.25-.64,8.38-8.39,14.89-16.99,14.85-8.44-.04-16.05-6.84-16.77-15.17-.24-2.8-.04-5.64-.04-8.47-.35-.06-.69-.12-1.04-.18Zm26.12.55s.1,0,.15,0c-.15-2.69-.04-5.42-.51-8.06-.74-4.18-4.11-6.71-8.13-6.54-3.99.17-7.44,3.4-7.64,7.62-.21,4.38-.21,8.79.03,13.17.25,4.66,3.79,7.92,8.05,7.87,4.48-.05,7.8-3.46,8.03-8.32.09-1.91.01-3.83.01-5.74Z"/><path class="cls-1" d="m189.71,271.85c-.09-1.17-.19-1.94-.19-2.71-.01-13.8.04-27.6-.05-41.4-.02-2.37.71-3.13,3.08-3.09,7.46.12,14.93.1,22.39.01,2.04-.02,2.75.66,2.82,2.72.24,6.52.32,6.52-6.08,6.52-4.16,0-8.33,0-12.73,0v9.74c3,0,6.02.15,9.01-.05,2.55-.17,3.51.75,3.29,3.27-.16,1.88-.03,3.78-.03,6.03h-12.32v9.71h18.8c0,2.69.17,5.04-.1,7.34-.08.7-1.35,1.8-2.09,1.81-8.47.13-16.95.08-25.81.08Z"/><path class="cls-1" d="m171.66,235.67c-3.09-1.82-6.82-3.02-9.95.09-1.67,1.66-2.81,4.37-3.13,6.74-.51,3.77-.24,7.67-.11,11.51.17,5.25,3.48,8.68,8.07,8.6,4.64-.08,7.87-3.82,7.86-9.54-1.81-.1-3.66-.21-5.78-.32v-8.89h14.85c.3,5.83.96,11.69-1.23,17.31-2.92,7.46-10.66,11.64-18.6,10.29-7.9-1.34-13.88-7.84-14.19-15.82-.21-5.19-.39-10.43.1-15.58.67-7.01,4.74-11.89,11.35-14.27,6.39-2.31,12.14-.76,17.7,3.89-2.35,2.03-4.46,3.85-6.94,5.99Z"/><path class="cls-1" d="m104.79,199.29v15.43h-8.84c-.08-.97-.24-1.94-.24-2.92-.03-13.34.06-26.69-.11-40.03-.04-3.05.93-3.93,3.86-3.78,4.51.23,9.05-.03,13.57.17,9.06.41,15.4,7.19,15.24,16.11-.15,8.34-6.85,14.77-15.7,15.02-2.47.07-4.94.01-7.78.01Zm-.09-9.36c3.3,0,6.22.23,9.09-.06,3.1-.31,5.28-2.98,5.28-6.07,0-3.19-1.56-5.55-4.68-6.17-2.61-.52-5.38-.4-8.07-.33-.56.01-1.53,1.05-1.55,1.65-.15,3.57-.07,7.15-.07,10.98Z"/><path class="cls-1" d="m.11,168.34c5.88,0,11.35-.57,16.65.13,8.8,1.16,13.72,10.87,10.13,19.14-.69,1.58-.68,2.52.54,3.84,3.96,4.27,5.02,9.36,2.82,14.73-2.36,5.74-6.9,8.77-13.19,8.85-5.5.07-11.01.01-16.29.01-.33-.59-.51-.77-.53-.97q-.61-8.11,7.36-8.12c3.05,0,6.1.04,9.15-.06,2.93-.1,5.01-1.4,5.29-4.57.25-2.84-1.58-4.81-5.06-5.14-2.69-.26-5.42-.19-8.12-.11-1.91.05-2.73-.71-2.53-2.6.02-.22,0-.45,0-.68.07-6.47-.75-5.75,5.75-5.87,1.44-.03,3.3.07,4.21-.74,1.27-1.14,2.64-3.17,2.46-4.64-.17-1.45-2.05-3.56-3.47-3.83-3.5-.67-7.17-.51-10.77-.57-4.39-.08-4.39-.03-4.39-4.44,0-1.34,0-2.68,0-4.35Z"/><path class="cls-1" d="m248.19,168.07v8.99h-9.18v37.15c-.59.42-.76.64-.95.66q-8.36.9-8.36-7.38c0-11.85.12-23.7-.08-35.54-.05-3.24,1.03-4.07,4.06-3.93,4.71.22,9.44.06,14.51.06Z"/><path class="cls-1" d="m181.69,214.88h-8.48c-.09-1.3-.23-2.5-.23-3.69-.02-13.01.1-26.02-.08-39.02-.05-3.26.84-4.59,4.15-4.13,1.43.2,2.91.03,4.65.03v46.81Z"/></g></svg>