<?xml version="1.0" encoding="UTF-8"?><svg id="Layer_2" xmlns="http://www.w3.org/2000/svg" viewBox="0 0 449.03 428.56"><defs><style>.cls-1{fill:#f2bf5d;}.cls-1,.cls-2,.cls-3,.cls-4{stroke-width:0px;}.cls-2{fill:#51a1cd;}.cls-3{fill:#f25d5d;}.cls-4{fill:#34363c;}</style></defs><g id="Layer_1-2"><path class="cls-3" d="m293.05,93.34c-.04,20.65-.1,41.31-.11,61.96-.01,19.27.03,38.54.05,57.82,0,1.2,0,2.41,0,3.92h-8.25v95.26h-36.12v-12.71h-15.03v-11.26c4.92,0,9.81,0,14.7,0,4.38.05,8.77.12,13.15.14,4.32.02,4.28,0,4.26-4.19-.04-8.26-.04-16.52-.06-24.78.07-14.13.14-28.27.21-42.4,1.59-.09,3.19-.17,4.82-.26v-29.02c.24-.25.44-.54.72-.74,14.35-10.49,13-32.26-2.49-40.96-6.53-3.67-13.28-3.73-20.25-1.69v-6.79c-8.52,0-16.52,0-24.53,0-20.03,0-40.06,0-60.32,0,0,1.16,0,2.09,0,3.03.03,6.83.09,13.66.07,20.49,0,.85-.39,1.7-.6,2.55,0,0-.13-.13-.13-.12-.06-.42-.16-.85-.17-1.28-.18-12.89-4.38-24.54-11.15-35.33-5.93-9.45-13.83-16.94-23.29-22.81.59-.1,1.18-.28,1.77-.28,11.14.03,22.28.08,33.42.13.06,3.18.15,6.35.17,9.53.03,5.36.01,5.39,5.46,5.35,7.39-.05,14.77-.13,22.16-.2.67.1,1.35.3,2.02.3,14.6.05,29.2.08,43.79.11,1.5.04,2.99.08,4.49.12.63-.02,1.26-.04,1.88-.06,8.85,0,17.71,0,26.62,0,.08-.76.16-1.18.16-1.6-.02-38.5-.05-77.01-.09-115.51,0-.66-.24-1.33-.37-1.99h22.56c.1.18.32.39.32.61-.01,16.13-.04,32.27-.07,48.4-9.96.62-17.07,5.57-20.47,14.83-2.84,7.75-1.32,15.19,4.31,21.48,4.35,4.85,9.94,7.29,16.36,7.97Z"/><path class="cls-4" d="m84.38,163.79v-65.73h-9.17c-.04-3.35-.08-6.7-.13-10.05v-25.25c-6.55.54-12.7,1.53-18.63,3.66-3.49,1.28-6.97,2.57-10.46,3.85-5.14,2.79-10.51,5.24-15.33,8.5-3.11,2.1-6.09,2.96-9.64,2.58-.6-.06-1.2-.06-1.8-.08-1.51-5.73-.74-11.38,1.28-16.76,6.72-17.91,19.95-28.26,38.59-31.18,17.69-2.77,32.59,3.09,44.39,16.64.33.38.77.67,1.16,1.01,2.31,4.83,4.63,9.67,6.94,14.5.05.42.09.85.16,1.27,1.69,9.11,1.35,18.2-4,25.9-3.15,4.53-3.77,8.92-3.54,13.94.13,2.93.02,5.87.02,8.81,0,5.74,0,11.48,0,17.22.16.04.31.08.47.12.44-.96.89-1.91,1.34-2.89,3.89,2.04,7.77,4.08,11.93,6.27-3.74,1.41-7.16,2.77-10.64,3.94-.89.3-2-.03-3.1-.07v23.46c-1.02.11-2.04.3-3.06.31-5.6.04-11.2.03-16.79.04Zm-.3-85.01h22.09v-4.38h-22.09v4.38Z"/><path class="cls-4" d="m341.82,36.92c19.7-2.14,38.13,1.81,55.01,12.11,18.4,11.23,31.53,26.81,37.73,47.77.12.41.13.84.19,1.27-9.71.02-19.41.05-29.12.07h-31.62c0,7.45.04,14.44-.03,21.44-.01,1.33.24,2.12,1.51,2.87,2.59,1.52,3.14,5.18,1.36,7.46-1.87,2.4-5.34,2.78-7.58.84-2.35-2.05-2.68-6-.16-7.72,2.14-1.46,2.22-3.2,2.2-5.3-.04-4.49-.01-8.98-.01-13.48,0-1.96,0-3.92,0-5.99-5.04,0-9.77,0-14.5,0-3.19.03-6.38.06-9.57.08-1.8-.09-3.6-.18-5.39-.26-.01-20.39-.02-40.77-.03-61.16Z"/><path class="cls-2" d="m406.27,129.8c5.69,0,11.39.06,17.08-.03,2.07-.03,3.09.56,3.88,2.69,1.15,3.12,2.93,6.03,4.63,8.91,4.48,7.58,9,15.16,10.37,24.03.42,2.75.4,5.71-.11,8.44-1.07,5.75-4.61,8.78-10.38,9.53-1.19.16-2.41.17-3.61.25-7.27,0-14.53,0-22.12,0v8.56c-6.54-.03-13.08-.07-19.62-.1-.41-.04-.82-.07-1.24-.11-3.34-1.89-6.92-3.46-9.97-5.74-3.91-2.93-4.93-7.5-3.19-11.57.57-1.34,1.37-2.59,2.2-3.8.9-1.31,1.01-2.32-.15-3.65-2.67-3.07-2.55-3.82.31-6.7,3.19-3.21,2.9-5.41-.99-7.54-3.86-2.11-5.18-5.26-3.54-9.31.79-1.96,1.92-3.89,3.3-5.49,4.47-5.2,10.45-7.52,17.13-7.97,5.33-.36,10.68-.28,16.02-.4Z"/><path class="cls-4" d="m200.11,389.74c1.84-1.73,2.31-3.89,2.3-6.34-.05-19.62-.04-39.24-.05-58.86,0-.95,0-1.89,0-3.04h21.83v15.85c7.7-.04,10.84,5.27,13.46,10.97,7.47,16.23,9.43,32.96,3.55,50.08-6.09,17.73-23.06,30.3-41.26,29.84-1.81-.05-3.63-.03-5.44-.04.25-.22.46-.5.75-.65,4.84-2.42,7.34-6.15,7.2-11.73-.18-7.31-.15-14.64,0-21.95.04-2.05-.4-3.41-2.35-4.13Z"/><path class="cls-4" d="m104.37,217.14c-1.26.16-2.52.47-3.78.47-21.86,0-43.73-.03-65.59-.05-10.88,0-21.76,0-33.14,0-.62-7.9-1.22-15.51-1.86-23.6,1.54,0,2.86,0,4.18,0,3.89,0,7.78,0,11.67.01,6.74.01,11.82,3.45,14.4,9.74.32.78.64,1.55,1.2,2.9v-12.81h11.88c0-3.4,0-6.57,0-9.73.71-.32,1.42-.92,2.13-.92,19.59-.02,39.18.02,58.77.05.03,3.96.07,7.92.1,11.88.01,7.35.02,14.71.03,22.06Z"/><path class="cls-1" d="m191.54,118.67c-7.39.07-14.77.16-22.16.2-5.45.03-5.43.01-5.46-5.35-.02-3.18-.11-6.35-.17-9.53.01-6.22.02-12.45.04-18.67,2.33-.06,4.66-.25,6.98-.15,5.34.24,10.5-.45,15.36-2.73,7.62-3.57,13.53-8.79,16.12-17.12.35-1.86.97-3.72,1-5.58.11-8.99.07-17.98.08-26.97.04-10.93.07-21.85.11-32.78h22.73c0,1.08,0,2,0,2.93,0,15.89-.15,31.78.08,47.66.19,12.82-5.17,22.47-15.76,29.3-10.28,6.63-16.2,16.04-18.19,27.95-.59,3.55-.51,7.21-.74,10.82Z"/><path class="cls-3" d="m417.67,262.59c2.45,2.29,5.1,4.41,7.33,6.9,16.87,18.75,11.15,48.64-11.29,58.52-3.31,1.46-7.11,2.22-10.74,2.47-5.5.37-11.05.01-16.58-.04-.04-3.96-.08-7.93-.12-11.89-.01-2.05-.03-4.1-.04-6.15.05-.95.14-1.89.14-2.84.01-14.01.01-28.01.01-42.02,0-1,0-2,0-3.31,3.65,0,6.92.08,10.19-.02,4.96-.15,8.13-2.85,9.33-7.77.08-.08.18-.14.29-.18,3.83,2.11,7.65,4.22,11.48,6.33Z"/><path class="cls-4" d="m385.15,191.98c.41.04.82.07,1.24.11,0,15.6,0,31.19,0,47.21h19.68c-.07,3.2-.14,6.4-.21,9.6-13.33-2.79-26.71-3.37-40.05-.36-21.49,4.86-34.26,21.15-33.98,42.81.09,6.9.62,13.79.96,21.03h-9.05c0-14.2,0-28.4,0-42.6.27-.79.63-1.57.81-2.38,1.66-7.51,4.8-14.15,11.09-18.94,2.33-.11,4.67-.23,7.33-.35-1.31-1.91-2.51-3.65-3.71-5.39-.33-2.99-3.14-1.59-4.74-2.5.76-4.15,3.23-7.24,5.49-10.45,5.62-6.37,12.5-10.68,20.79-12.67,1.72-.41,3.43-.85,5.14-1.28.25-.21.7-.42.71-.63.06-3.48.09-6.97.05-10.45,0-.29-.53-.57-.82-.85h-.11c0-1.56-.01-3.12-.02-4.67.04-2.34.08-4.68.12-7.02,6.43-.07,12.85-.15,19.28-.22Z"/><path class="cls-2" d="m405.9,256.43c-1.2,4.92-4.36,7.62-9.33,7.77-3.27.1-6.54.02-10.19.02,0,1.31,0,2.31,0,3.31,0,14.01,0,28.01-.01,42.02,0,.95-.09,1.89-.14,2.84-15.1,0-30.21,0-45.83,0-.45-7.64-1.19-15.19-1.23-22.75-.02-3.72.8-7.6,2.02-11.13,4.04-11.68,12.63-18.84,24.26-22.08,13.4-3.74,26.97-3.32,40.45,0Z"/><path class="cls-2" d="m270.05.05c.13.66.37,1.33.37,1.99.04,38.5.07,77.01.09,115.51,0,.42-.08.84-.16,1.6-8.91,0-17.77,0-26.62,0,4.75-1.01,5.06-4.26,5.03-8.46-.19-36.44-.14-72.88-.16-109.33,0-.34.04-.68.08-1.31h21.36Z"/><path class="cls-2" d="m104.23,183.2c-19.59-.03-39.18-.07-58.77-.05-.71,0-1.42.6-2.13.92-.78-.3-1.54-.78-2.34-.86-1.44-.14-2.9-.04-4.76-.04,2.81-5.53,6.74-9.64,11.5-12.96,6.1-4.25,12.86-6.48,20.35-6.4,5.43.06,10.86,0,16.29-.02,5.6-.01,11.2,0,16.79-.04,1.02,0,2.04-.2,3.06-.31.83.12,1.67.35,2.5.35,18.04.01,36.08,0,54.12-.01.77,0,1.54-.14,2.3-.21,0,0,.13.13.13.13,1.1.41,2.2.82,3.3,1.23,7.3,5.1,14.6,10.2,21.9,15.3-.18,2.29-1.3,3.01-3.68,3-26.86-.08-53.72-.03-80.58-.02Z"/><path class="cls-3" d="m385.15,191.98c-6.43.07-12.85.15-19.28.22-2.9,0-5.81,0-8.94,0,0-1.47,0-2.48,0-3.5-.04-30.15-.08-60.29-.12-90.44h14.5c0,2.07,0,4.03,0,5.99,0,4.49-.02,8.98.01,13.48.02,2.1-.06,3.83-2.2,5.3-2.52,1.72-2.19,5.67.16,7.72,2.23,1.95,5.7,1.56,7.58-.84,1.78-2.28,1.23-5.94-1.36-7.46-1.27-.74-1.52-1.53-1.51-2.87.07-6.99.03-13.98.03-21.44,10.63,0,21.13,0,31.62,0,.17.89.46,1.78.5,2.68.12,3.24.15,6.49.22,9.73-.03,6.42-.05,12.83-.08,19.25-5.34.12-10.7.04-16.02.4-6.67.45-12.65,2.77-17.13,7.97-1.38,1.6-2.5,3.53-3.3,5.49-1.64,4.06-.32,7.2,3.54,9.31,3.9,2.13,4.19,4.33.99,7.54-2.86,2.88-2.98,3.63-.31,6.7,1.16,1.33,1.06,2.34.15,3.65-.83,1.2-1.63,2.46-2.2,3.8-1.74,4.07-.72,8.63,3.19,11.57,3.04,2.29,6.63,3.86,9.97,5.74Z"/><path class="cls-3" d="m203.42,0c-.04,10.93-.07,21.85-.11,32.78-7.65-.02-15.3,0-22.96-.11-1.82-.03-2.36.56-2.32,2.37.1,4.29,0,8.59-.03,12.89h-62.78c5.38-3.63,4.4-8.99,4.44-14.07.03-3.98.06-7.95.09-11.93,1.3-.02,2.59-.07,3.89-.07,16.07-.04,32.15-.08,48.22-.11h6.01V0h25.55Z"/><path class="cls-1" d="m123.92,337.87v52.32H57.04c20.71-12.58,31.64-31.12,35.45-54.27,3.33.46,6.64,1.18,9.98,1.34,7.14.35,14.3.42,21.45.6Z"/><path class="cls-1" d="m405.86,248.89c.07-3.2.14-6.4.21-9.6,0-4.04,0-8.09-.01-12.13,1.51-2.64,1.07-5.18-.38-7.66,0-2.22.01-4.44.02-6.66,1.89-2.74,1.48-5.47-.04-8.19.12-4.16.24-8.31.36-12.47v-8.56c7.58,0,14.85,0,22.12,0,0,3.25,0,6.49,0,9.96h20.91c-1.85,27.15-11.72,50.27-31.36,68.99-3.83-2.11-7.65-4.22-11.48-6.33-.11-2.45-.22-4.91-.34-7.36Zm13.33-8.64c2.6.12,4.59-1.64,4.64-4.09.04-2.35-1.74-4.18-4.2-4.31-2.52-.14-4.41,1.45-4.57,3.84-.17,2.55,1.54,4.45,4.14,4.56Zm.17-14.48c2.43.04,4.38-1.78,4.36-4.07-.02-2.2-2.11-4.17-4.41-4.14-2.23.02-4.15,1.87-4.21,4.03-.06,2.3,1.81,4.14,4.26,4.18Zm0-22.44c-2.34,0-4.19,1.77-4.17,4,.02,2.32,2,4.17,4.41,4.12,2.2-.04,3.97-1.76,4.02-3.91.06-2.35-1.82-4.2-4.26-4.21Z"/><path class="cls-4" d="m323.74,269.78c0,14.2,0,28.4,0,42.6h-20.04v-102.57c8.39-.79,15.04-4.74,19.94-11.64-.03,14.85-.07,29.69-.1,44.54h-4.92v5.93h5.06c.02,7.05.04,14.1.06,21.15Z"/><path class="cls-3" d="m323.54,242.71c.03-14.85.07-29.69.1-44.54,1.26-4.32,3.12-8.36,7.05-10.82,3.92-2.46,5.1-5.84,4.47-10.16,5.32-2.85,9.09-6.9,10.44-12.99,2.03-9.15-3.17-20.22-15.34-22.85.06-1.1.12-2.2.2-3.61-3.75-.42-7.32-.86-10.9-1.2-2.21-.21-4.13-.89-4.96-3.1-.81-2.16-.05-4.16,1.48-5.71,3.82-3.86,7.76-7.61,11.66-11.39.8-.78,1.59-1.59,2.45-2.31,3.73-3.13,4.9-6.95,3.16-11.57,1.68-3.7,4.81-4.61,8.51-4.41,1.8.09,3.6.18,5.39.26-.03,1.04-.09,2.07-.09,3.11,0,29.38,0,58.75,0,88.13,0,.75,0,1.49,0,2.51h-7.24v5.67c-1.42,2.51-1.71,5.03-.1,7.58.07,8.15.14,16.29.21,24.44-2.26,3.2-4.74,6.3-5.49,10.45,1.6.91,4.41-.49,4.74,2.5-5.24,0-10.48-.01-15.72-.02Z"/><path class="cls-1" d="m224.13,137.63h24.52c0,2.38,0,4.58,0,6.79-.37.21-.73.44-1.12.63-8.69,4.32-13.75,11.18-14.14,20.97-.4,10.05,4.01,17.62,12.66,22.73.88.52,1.72,1.1,2.58,1.65-.01,8.83-.03,17.66-.04,26.49-.93.1-1.87.26-2.8.28-4.13.09-8.25.13-12.38.19-8.28-.06-16.56-.13-24.84-.16-9.66-.04-19.33-.03-28.99-.04,2.68-8.81.22-16.03-6.8-21.82,4.23-.09,8.46-.11,12.68-.29,1.75-.08,2.67.37,3.49,2.13,4.87,10.47,15.73,14.7,26.18,10.39,9.93-4.1,15.19-15.56,11.11-25.76-1.69-4.22-1.95-8.28-1.95-12.57.01-7.17.04-14.34.02-21.51,0-3.36-.12-6.73-.18-10.09Z"/><path class="cls-2" d="m148.74,367.42v22.92h-20v-68.68c.22-.13.36-.3.51-.3,12.88,0,25.75.02,38.63.03.01,8.36.21,16.73-.02,25.09-.15,5.27-2.65,7.5-7.54,8.05-1.54.17-3.1.16-4.65.18-2.29.03-4.58,0-6.92,0v12.69Zm-10.04-42.73c-.9,5.21.41,9.35,4.91,11.98,3.94,2.31,7.98,1.97,11.67-.64,3.92-2.77,4.44-6.82,3.82-11.46-1.04.05-1.91.09-2.76.13.11,6.77-2.39,10.12-7.39,10.26-4.89.14-7.14-2.89-7.61-10.45-.89.06-1.79.12-2.63.17Z"/><path class="cls-2" d="m323.73,355.56h54.08c.07.73.19,1.46.19,2.2.02,10.1.05,20.19-.03,30.29,0,.88-.77,1.76-1.18,2.65-2.65-.12-5.3-.35-7.94-.35-15.07-.03-30.14,0-45.21,0,.03-11.59.06-23.18.1-34.77Z"/><path class="cls-1" d="m85.16,288.44c-.88,0-1.77,0-2.65-.01-10-.02-20-.07-29.99-.06-8.62,0-17.23.08-25.85.12-5.49-7.71-9.96-15.95-13.21-24.85,18.14-.02,36.28-.06,54.42-.07,8.72,0,17.45.07,26.17.11-.02,8.18-.03,16.36-.05,24.54-2.95.07-5.89.14-8.83.21Z"/><path class="cls-4" d="m94.04,263.69c-8.72-.04-17.45-.11-26.17-.11-18.14,0-36.28.04-54.42.07-2.44-6.28-4.88-12.56-7.48-19.26,1.51,0,2.19,0,2.87,0,30.98,0,61.96.01,92.94,0,1.29,0,2.67-.27,2.63,1.71-.06,5.76-.11,11.53-.17,17.29-3.4.1-6.8.2-10.2.3Z"/><path class="cls-3" d="m148.74,367.42v-12.69c2.34,0,4.63.02,6.92,0,1.55-.02,3.11,0,4.65-.18,4.89-.55,7.4-2.78,7.54-8.05.23-8.36.04-16.72.02-25.09,6.8,0,13.61,0,20.58,0v68.78h-20.33v-22.76h-19.39Z"/><path class="cls-4" d="m202.27,245.98c.2-1.84.41-3.67.61-5.51,1.18-1.85,2.01-4.14,3.63-5.45,2.93-2.36,6.34-4.13,9.54-6.14,2.65-.15,5.31-.31,8.19-.47v75.59h-21.88v-40.49c-.02-4.85-.03-9.7-.05-14.55-.01-.99-.03-1.99-.04-2.98Z"/><path class="cls-2" d="m293.05,93.34c-6.41-.68-12.01-3.12-16.36-7.97-5.63-6.29-7.15-13.73-4.31-21.48,3.4-9.27,10.51-14.21,20.47-14.83,8.61-.12,15.68,3.09,20.39,10.36,1.77,2.73,2.49,6.13,3.69,9.22-.02,1.6-.03,3.19-.05,4.79-1.65,8.49-6,14.96-14.3,18.05-3,1.11-6.35,1.27-9.54,1.86Z"/><path class="cls-4" d="m51.49,104.38c.06.43.18.85.18,1.28.01,18.16.01,36.32.01,54.48,0,.33-.08.67-.14,1.18-2.88,0-5.76.39-8.49-.1-3.49-.62-5.61-3.22-6.68-6.56-.5-1.56-.74-3.19-1.17-4.77-.57-2.09-1.67-3.72-3.82-4.56-3.23-1.26-3.64-2.9-1.53-5.65.57-.74,1.21-1.41,2.08-2.42-1.31-.11-2.28-.17-3.25-.29-3.6-.44-4.93-2.78-3.17-5.82,2.28-3.96.13-8.14-4.41-7.83-1.54.11-3.11-.05-4.66-.16-4.09-.29-5.54-2.57-3.8-6.33,1.66-3.59,3.58-7.07,5.43-10.57,1.37-2.58,2.82-5.12,4.23-7.68,3.1-.16,6.2-.32,9.3-.48v6.27h19.91Z"/><path class="cls-2" d="m64.37,361c-.07,12.19-10.34,21.99-22.91,21.86-12.1-.13-21.95-10.23-21.83-22.37.12-12.16,10.24-21.84,22.71-21.73,12.05.11,22.09,10.25,22.03,22.24Z"/><path class="cls-3" d="m202.24,65.33c-2.59,8.33-8.5,13.55-16.12,17.12-4.86,2.28-10.02,2.97-15.36,2.73-2.32-.11-4.65.09-6.98.15-.43-.04-.86-.12-1.29-.12-14.85,0-29.71.01-44.56.04-.77,0-1.54.18-2.3.27-.02-6.66-.04-13.31-.06-19.97,7.62-.04,15.24-.08,22.86-.13,11-.05,21.99-.09,32.99-.14,10.28.02,20.55.03,30.83.05Z"/><path class="cls-1" d="m316.89,73.43c.02-1.6.03-3.19.05-4.79.06-3.8.18-7.6.18-11.39,0-9.59,4.11-15.49,13.3-18.26,3.67-1.11,7.59-1.41,11.4-2.07.01,20.39.02,40.77.03,61.16-3.7-.21-6.83.71-8.51,4.41-1.7-.24-3.38-.59-5.09-.71-7.2-.5-10.97-4.34-11.14-11.56-.13-5.59-.16-11.18-.23-16.77Z"/><path class="cls-2" d="m233.41,217.36c4.13-.06,8.25-.11,12.38-.19.94-.02,1.87-.18,2.8-.28,5.75.07,11.5.13,17.25.2-.07,14.13-.14,28.27-.21,42.4l-17.26.1h-14.97v-42.23Z"/><path class="cls-4" d="m202.31,248.96c.02,4.85.03,9.7.05,14.55-30.15,0-60.3,0-90.45,0-1.12,0-2.24-.04-3.36-.06.41-.94.66-1.98,1.24-2.8,5.24-7.45,12.24-11.67,21.55-11.66,23.66,0,47.32-.01,70.97-.02Z"/><path class="cls-3" d="m216.05,228.88c-3.21,2.02-6.61,3.78-9.54,6.14-1.62,1.31-2.45,3.6-3.63,5.45-6.39.05-12.77.13-19.16.14-25.64.03-51.29.04-76.93.05-.76,0-1.51,0-2.62,0,0-2.9,0-5.55,0-8.2.02-.83.04-1.65.07-2.48.09-1.89,1.53-1.23,2.49-1.23,13.65-.05,27.3-.04,40.96-.09,1.69,0,3.39-.22,5.08-.34,5.53,2.45,11.09,2.76,16.66.13,1.01.11,2.02.31,3.03.31,13.68,0,27.36-.05,41.04-.07.85,0,1.71.12,2.56.18Z"/><path class="cls-4" d="m169.43,228.46c-5.58,2.63-11.13,2.31-16.66-.13-4.65-2.6-7.89-6.44-9.98-11.3-2.13-8.76.11-16.08,7.15-21.84,7.65-4.53,15.27-4.76,22.86.16,7.02,5.79,9.48,13,6.8,21.82-1.92,5.09-5.35,8.82-10.16,11.31Z"/><path class="cls-4" d="m266.06,355.53h18.47v58.96c-6.24,0-12.35,0-18.46,0,0-19.65,0-39.31-.01-58.96Z"/><path class="cls-4" d="m330.26,141.36c12.17,2.63,17.37,13.69,15.34,22.85-1.35,6.09-5.12,10.14-10.44,12.99-8.12,2.73-15.47,1.8-21.53-4.71-5.18-5.57-6.5-13.42-3.19-20.14,3.54-7.18,9.38-11.01,17.5-11.13.77-.01,1.55.1,2.32.15Z"/><path class="cls-3" d="m266.06,355.53c0,19.65,0,39.31.01,58.96-5.77,0-11.54,0-17.48,0v-58.96h17.46Z"/><path class="cls-2" d="m171.87,21.75c-16.07.04-32.15.07-48.22.11-1.3,0-2.59.05-3.89.07-1.28,0-2.56,0-3.99,0V3.82h56.09v17.93Z"/><path class="cls-2" d="m323.75,333.79c4.49-.04,8.97-.11,13.46-.11,15.46-.02,30.92-.02,46.38-.03,1.1,0,2.19,0,2.82,0-1.99,2.26-4.57,4.4-6.09,7.12-1.53,2.76-2.02,6.1-3.05,9.49-.19.02-.86.11-1.53.11-16.84.02-33.68.03-50.53.03-.51,0-1.02-.11-1.54-.17.02-5.48.05-10.96.07-16.45Z"/><path class="cls-1" d="m323.63,390.33c15.07,0,30.14-.03,45.21,0,2.65,0,5.29.23,7.94.35-13.64,4.33-27.28,8.68-40.93,12.99-9.63,3.04-19.26,6.04-28.9,9.05-.97.3-1.95.57-3.23.95,0-7.89,0-15.52,0-23.16,6.63-.06,13.27-.12,19.9-.19Z"/><path class="cls-3" d="m19.23,81.27c.6.03,1.2.02,1.8.08,3.55.39,6.53-.47,9.64-2.58,4.82-3.27,10.19-5.71,15.33-8.5,1.67,1.42,3.34,2.83,5.51,4.67,0,1.61.07,4.12-.02,6.61-.07,1.88.74,2.21,2.52,1.65,0-2.77-.06-5.52.03-8.26.03-.88.19-1.99.74-2.57,1.64-1.75,2.14-3.68,1.68-5.95,5.94-2.13,12.08-3.12,18.63-3.66,0,8.58,0,16.92,0,25.25-.69.05-1.37.14-2.06.14-15.21,0-30.42,0-45.63.01-.91,0-1.82.25-2.73.39-1.81-2.43-3.63-4.85-5.44-7.28Z"/><path class="cls-1" d="m149.92,195.18c-7.03,5.76-9.28,13.09-7.15,21.84-12.8.04-25.61.08-38.41.12-.01-7.35-.02-14.71-.03-22.06,1.12-.02,2.24-.07,3.37-.06,14.07.05,28.15.11,42.22.16Z"/><path class="cls-2" d="m202.24,65.33c-10.28-.02-20.55-.03-30.83-.05,4.86-2.38,7.11-6.23,6.68-11.67-.15-1.88-.06-3.78-.08-5.68.02-4.3.13-8.6.03-12.89-.04-1.8.5-2.39,2.32-2.37,7.65.11,15.3.08,22.96.11,0,8.99.04,17.98-.08,26.97-.02,1.86-.65,3.72-1,5.58Z"/><path class="cls-4" d="m26.66,288.49c8.62-.04,17.23-.12,25.85-.12,10,0,20,.04,29.99.06,0,5.16,0,10.31,0,15.71-1.21,0-2.31,0-3.4,0-12.61,0-25.21-.03-37.81.05-1.82.01-3.04-.49-4.13-1.96-3.43-4.63-6.99-9.17-10.5-13.74Z"/><path class="cls-2" d="m386.28,318.54c.04,3.96.08,7.93.12,11.89-6.31.04-12.61.12-18.92.12-14.6-.01-29.21-.07-43.81-.11.01-3.93.03-7.86.04-11.8,10.25-.04,20.51-.11,30.76-.12,10.6-.02,21.2,0,31.8.02Z"/><path class="cls-4" d="m323.63,390.33c-6.63.06-13.27.12-19.9.19,0-11.56,0-23.11,0-34.96,6.63,0,13.31,0,20,0-.03,11.59-.06,23.18-.1,34.77Z"/><path class="cls-4" d="m123.92,337.87c-7.15-.18-14.3-.25-21.45-.6-3.34-.16-6.66-.88-9.98-1.34-2.39-.63-4.79-1.26-7.2-1.9v-12.64h40.59v16.28c-.64.07-1.3.13-1.96.2Z"/><path class="cls-2" d="m167.83,303.96c-7.42.07-14.85.16-22.27.21-5.6.03-11.19,0-16.91,0-.07-1.34-.13-2.43-.2-3.74-.74-.14-1.47-.28-2.21-.41-.05-3.84-.09-7.68-.14-11.51,13.94-.02,27.88-.04,41.83-.06-.03,5.17-.06,10.34-.09,15.52Z"/><path class="cls-4" d="m126.09,288.5c.05,3.84.09,7.68.14,11.51,0,1.28,0,2.57,0,4.02h-41.08c0-5.28,0-10.43,0-15.58,2.94-.07,5.89-.14,8.83-.21,9.24.05,18.47.09,27.71.15,1.47,0,2.93.08,4.4.12Z"/><path class="cls-3" d="m167.83,303.96c.03-5.17.06-10.34.09-15.52,0-4.56,0-9.11,0-13.81h20.49v29.33h-20.59Z"/><path class="cls-4" d="m54.12,107.55c6.11.84,11.12,5.48,11.19,11.06.18,14.14.06,28.29.06,42.61h-11.25v-53.67Z"/><path class="cls-4" d="m24.67,88.54c.91-.14,1.82-.39,2.73-.39,15.21-.02,30.42,0,45.63-.01.69,0,1.37-.09,2.06-.14.04,3.35.08,6.7.13,10.05-7.83.06-15.65.12-23.48.18-6.72-.04-13.43-.08-20.15-.12-3.1.16-6.2.32-9.3.48.77-1.6,1.83-3.13,2.23-4.82.4-1.66.13-3.47.16-5.22Z"/><path class="cls-1" d="m248.38,259.59l17.26-.1c.02,8.26.02,16.52.06,24.78.02,4.19.05,4.21-4.26,4.19-4.38-.02-8.77-.09-13.15-.14.03-9.58.06-19.15.09-28.73Z"/><path class="cls-3" d="m202.31,248.96c-23.66,0-47.32.03-70.97.02-9.31,0-16.31,4.22-21.55,11.66-.58.82-.83,1.86-1.24,2.8-1.44-.02-2.88-.04-4.31-.06.06-5.76.11-11.53.17-17.29,32.62-.04,65.24-.08,97.86-.12.01.99.02,1.99.04,2.98Z"/><path class="cls-2" d="m138.42,65.42c-7.62.04-15.24.08-22.86.13-1.32-.03-2.64-.05-3.96-.08-2.31-4.83-4.63-9.66-6.94-14.5,7.14-.04,14.27-.1,21.41-.13,4.03-.02,8.06,0,12.35,0v14.58Z"/><path class="cls-2" d="m200.11,389.74c1.95.72,2.39,2.08,2.35,4.13-.15,7.31-.18,14.64,0,21.95.14,5.59-2.37,9.31-7.2,11.73-.29.14-.5.43-.75.65-.92.1-1.85.2-3.08.33v-37.47c2.85-.43,5.76-.88,8.68-1.33Z"/><path class="cls-4" d="m406.35,110.55c-.06-3.24-.1-6.49-.22-9.73-.03-.9-.32-1.79-.5-2.68,9.71-.02,19.41-.05,29.12-.07,1.12,3.45,1.39,6.88,0,10.34-.62,1.53-1.54,2.19-3.31,2.17-8.36-.09-16.73-.03-25.09-.03Z"/><path class="cls-2" d="m167.77,318.16c-1.28.08-2.57.22-3.85.23-10.7.01-21.41,0-32.11-.01-.94,0-1.88,0-3.01,0v-8.22c.4-.08.87-.27,1.35-.27,12,0,24,.02,36,.05.59,0,1.18.17,1.77.27-.05,2.65-.1,5.3-.15,7.95Z"/><path class="cls-3" d="m266.08,330.46h-17.46v-11.75h35.79c0,2.44,0,4.83,0,7.21-6.06,0-12.13,0-18.33,0v4.54Z"/><path class="cls-4" d="m323.75,333.79c-.02,5.48-.05,10.96-.07,16.45-6.62,0-13.25,0-19.99,0v-16.45h20.06Z"/><path class="cls-4" d="m85.63,318.21c-.23-2.71-.46-5.41-.7-8.28h41.06c0,2.55,0,5.09,0,7.63-.17.22-.35.44-.52.66-.63,0-1.26,0-1.89,0-.75,0-1.51-.01-2.26-.02-1.33,0-2.66-.02-3.99-.02-.62-.21-1.24-.6-1.86-.6-8.63-.04-17.25-.05-25.88,0-.69,0-1.38.46-2.08.71-.24,0-.48,0-.72,0-.38-.03-.77-.07-1.15-.1Z"/><path class="cls-4" d="m266.1,333.72h18.34v16.47c-6.09,0-12.26,0-18.42,0,.02-5.49.05-10.98.07-16.47Z"/><path class="cls-3" d="m82.48,310.05v8.29c-1.59,0-3.11,0-4.63,0-6.91.03-13.82.15-20.72.04-1.43-.02-3.05-.6-4.21-1.44-2.78-1.99-5.34-4.29-8.52-6.89h38.08Z"/><path class="cls-3" d="m266.1,333.72c-.02,5.49-.05,10.98-.07,16.47-5.76,0-11.51,0-17.41,0v-16.47h17.48Z"/><path class="cls-4" d="m104.24,229.99c-.02.83-.04,1.65-.07,2.48-33.33,0-66.66,0-100.15,0-.16-.79-.3-1.52-.49-2.48h100.7Z"/><path class="cls-4" d="m323.71,318.65c-.01,3.93-.03,7.86-.04,11.8-6.62,0-13.24,0-19.98,0v-11.8h20.02Z"/><path class="cls-2" d="m163.68,428.38h-13.06c-.07-.19-.15-.37-.22-.56.83-.43,1.61-.98,2.49-1.25,1.92-.59,2.79-1.73,2.77-3.79-.06-6.74-.05-13.49.04-20.23.02-1.5-.69-2.19-1.74-3.12-1.25-1.12-2.45-2.72-2.82-4.32-.6-2.61,1.22-4.4,3.92-4.47,1.12-.03,2.25.04,3.37-.03,1.95-.13,3.6.15,4.38,2.29.81,2.22.48,4.42-1.42,5.57-2.59,1.56-2.59,3.7-2.54,6.18.13,5.7.21,11.41.1,17.12-.05,2.56.48,4.37,3.25,5,.64.15,1.19.7,1.78,1.07-.1.18-.2.37-.3.55Z"/><path class="cls-4" d="m202.51,318.25v-8.33h21.68v8.33h-21.68Z"/><path class="cls-3" d="m167.77,318.16c.05-2.65.1-5.3.15-7.95,3.78-.1,7.55-.23,11.33-.3,3-.05,6.01,0,9.19,0v8.26h-20.67Z"/><path class="cls-3" d="m59.71,321.33h22.78v12.3c-8.01-3.94-15.59-7.67-23.17-11.4.13-.3.26-.6.38-.9Z"/><path class="cls-2" d="m104.5,280.69v-4.71h30.11v4.71h-30.11Z"/><path class="cls-3" d="m31.58,98.11c6.72.04,13.43.08,20.15.12-.08,2.05-.16,4.1-.24,6.14-6.54,0-13.08,0-19.91,0v-6.27Z"/><path class="cls-4" d="m234.07,115.29c-.68-2.23-1.36-4.46-1.97-6.49-1.66.15-3.4.3-5.35.48-.06-.72-.1-1.34-.17-2.14h5.08c-.66-2.6-1.26-4.95-1.89-7.44h11.33c-1,2.75-1.93,5.29-2.85,7.83l-.18.14.04.23c-.6,2.43-1.2,4.86-1.8,7.29-.75.04-1.49.07-2.24.11Z"/><path class="cls-4" d="m266.08,330.46v-4.54c6.2,0,12.27,0,18.33,0,0,1.46,0,2.92,0,4.54h-18.33Z"/><path class="cls-2" d="m122.73,415.23c-2.04.02-3.69-1.52-3.74-3.47-.05-1.93,1.58-3.51,3.64-3.52,2.08-.01,3.82,1.45,3.91,3.3.1,1.94-1.69,3.68-3.81,3.69Z"/><path class="cls-2" d="m174.48,415.27c-2.06.03-3.71-1.47-3.76-3.41-.05-1.9,1.57-3.49,3.62-3.55,2.16-.06,3.98,1.56,3.94,3.51-.03,1.82-1.8,3.42-3.8,3.45Z"/><path class="cls-2" d="m143.2,411.78c-.05,2.03-1.59,3.44-3.75,3.44-2.14,0-3.61-1.45-3.6-3.54,0-2.05,1.54-3.48,3.69-3.43,2.12.05,3.71,1.58,3.66,3.53Z"/><path class="cls-2" d="m122.83,428.52c-2.01.06-3.63-1.5-3.63-3.5,0-1.88,1.5-3.44,3.37-3.52,1.91-.07,3.82,1.59,3.87,3.38.05,1.86-1.65,3.58-3.61,3.64Z"/><path class="cls-2" d="m174.45,428.56c-1.91,0-3.55-1.54-3.6-3.37-.05-1.97,1.61-3.58,3.66-3.56,1.99.02,3.52,1.46,3.56,3.36.04,2.01-1.54,3.57-3.62,3.57Z"/><path class="cls-2" d="m139.55,428.48c-1.87.06-3.5-1.41-3.63-3.29-.13-1.9,1.29-3.47,3.24-3.59,2-.11,3.86,1.39,3.98,3.23.12,1.84-1.6,3.58-3.59,3.64Z"/><path class="cls-2" d="m139.4,394.9c2-.02,3.77,1.65,3.74,3.53-.03,1.81-1.65,3.22-3.69,3.22-2.09,0-3.51-1.33-3.52-3.31-.02-1.88,1.54-3.42,3.47-3.45Z"/><path class="cls-2" d="m178.09,398.32c0,1.94-1.4,3.29-3.47,3.32-2.05.04-3.81-1.55-3.77-3.4.04-1.74,1.77-3.41,3.55-3.41,2.03-.01,3.68,1.55,3.68,3.49Z"/><path class="cls-2" d="m122.73,401.64c-2.07.03-3.52-1.26-3.58-3.19-.07-2.02,1.46-3.59,3.51-3.6,2.02-.01,3.66,1.58,3.65,3.53,0,1.84-1.54,3.23-3.58,3.26Z"/><path class="cls-4" d="m87.5,318.31c.69-.25,1.38-.7,2.08-.71,8.63-.05,17.25-.04,25.88,0,.62,0,1.24.39,1.86.6-9.94.04-19.88.07-29.82.11Z"/><path class="cls-2" d="m234.07,115.29c.75-.04,1.5-.08,2.24-.11,1.84,1.34,3.69,2.69,5.53,4.03-1.5-.04-3-.08-4.5-.12-1.44-.86-2.88-1.73-4.3-2.59.3-.35.66-.78,1.03-1.21Z"/><path class="cls-4" d="m238.11,107.89l-.04-.23s.18-.14.18-.14c1.95-.1,3.9-.2,6.36-.33-.39.93-.67,2.02-.88,2-1.93-.13-4.22,1.05-5.63-1.31Z"/><path class="cls-4" d="m85.63,318.21c.38.03.77.07,1.15.1-.38-.03-.77-.07-1.15-.1Z"/><path class="cls-4" d="m121.31,318.22c.75,0,1.51.01,2.26.02-.75,0-1.51-.01-2.26-.02Z"/><path class="cls-4" d="m125.46,318.23c.17-.22.35-.44.52-.66-.17.22-.35.44-.52.66Z"/><path class="cls-4" d="m248.64,190.4c-.86-.55-1.7-1.13-2.58-1.65-8.65-5.11-13.06-12.68-12.66-22.73.39-9.8,5.45-16.66,14.14-20.97.38-.19.74-.42,1.12-.63,6.97-2.04,13.72-1.98,20.25,1.69,15.49,8.71,16.84,30.47,2.49,40.96-.27.2-.48.49-.72.73-4.57,2.54-9.38,4.21-14.71,3.66-2.45-.26-4.88-.7-7.33-1.06Z"/><path class="cls-2" d="m128.55,104.15c-2.25-1.1-4.5-2.2-6.74-3.3-4.2-2.08-6.38-5.41-6.28-10.15.04-1.73.06-3.45.09-5.18.77-.09,1.54-.27,2.3-.27,14.85-.03,29.71-.04,44.56-.04.43,0,.86.08,1.29.12-.01,6.22-.02,12.45-.03,18.67-11.14-.05-22.28-.1-33.42-.13-.59,0-1.18.18-1.77.28Z"/><path class="cls-4" d="m248.64,190.4c2.44.36,4.87.8,7.33,1.06,5.33.56,10.13-1.12,14.71-3.66,0,9.57,0,19.14,0,29.02-1.63.09-3.23.18-4.82.26-5.75-.07-11.5-.13-17.25-.2.01-8.83.03-17.66.04-26.49Z"/><path class="cls-3" d="m406.01,192.19c-.12,4.16-.24,8.31-.36,12.46-.54-.27-1.06-.57-1.61-.8-4.17-1.75-8.01.97-7.7,5.46.31,4.41,4.99,6.18,9.36,3.53,0,2.22-.01,4.44-.01,6.66-4.12-2.32-8.15-1.36-9.24,2.21-.78,2.54,0,4.93,2.1,6.41,2.32,1.63,4.61,1.34,7.52-.95,0,4.04,0,8.09.01,12.13-6.45,0-12.9,0-19.68,0,0-16.01,0-31.61,0-47.21,6.54.03,13.08.07,19.62.1Z"/><path class="cls-3" d="m323.68,248.63c3.99-.05,7.98-.11,11.96-.16-6.3,4.79-9.43,11.43-11.09,18.94-.18.81-.53,1.59-.81,2.38-.02-7.05-.04-14.1-.06-21.15Z"/><path class="cls-4" d="m365.78,203.88c-1.42,1-2.72,2.44-4.3,2.91-2.45.74-4.91-.87-5.82-3.17-.87-2.21-.12-4.83,1.79-6.24,1.88-1.39,4.93-1.33,6.75.18.58.48,1.05,1.1,1.56,1.65,0,1.55.01,3.11.02,4.66Z"/><path class="cls-4" d="m365.95,215.82c-.02-3.98-.04-7.96-.06-11.93.29.28.81.57.82.85.04,3.48.02,6.97-.05,10.45,0,.21-.46.42-.71.63Z"/><path class="cls-3" d="m166.59,164.92c3.77-12.61,15.31-21.04,27.46-20.05,13.2,1.07,23.72,11.3,25.31,24.65.09.76.01,1.54.01,2.25-2.53-1.04-4.97-2.41-7.58-3.06-9.17-2.25-17.99,1.85-22.48,10.2-.24.45-.54.88-.81,1.31-7.3-5.1-14.6-10.2-21.9-15.3Z"/><path class="cls-4" d="m406.06,227.17c-2.91,2.29-5.21,2.59-7.52.95-2.09-1.48-2.88-3.87-2.1-6.41,1.09-3.57,5.12-4.53,9.24-2.21,1.45,2.49,1.89,5.03.38,7.66Z"/><path class="cls-4" d="m405.69,212.85c-4.37,2.65-9.05.88-9.36-3.53-.31-4.49,3.53-7.21,7.7-5.46.55.23,1.08.53,1.61.8,1.53,2.72,1.93,5.45.04,8.19Z"/><path class="cls-4" d="m419.19,240.25c-2.6-.12-4.32-2.01-4.14-4.56.16-2.39,2.05-3.98,4.57-3.84,2.46.13,4.25,1.96,4.2,4.31-.04,2.46-2.03,4.21-4.64,4.09Z"/><path class="cls-4" d="m419.36,225.77c-2.45-.04-4.32-1.88-4.26-4.18.05-2.16,1.98-4.01,4.21-4.03,2.3-.02,4.39,1.94,4.41,4.14.02,2.29-1.93,4.11-4.36,4.07Z"/><path class="cls-4" d="m419.36,203.33c2.44,0,4.32,1.86,4.26,4.21-.05,2.15-1.82,3.87-4.02,3.91-2.41.05-4.39-1.81-4.41-4.12-.02-2.24,1.82-4.01,4.17-4Z"/><path class="cls-4" d="m339.91,197.76c4.37-2.53,8.68-1.13,9.27,3.03.3,2.1-.19,3.96-2.04,5.2-1.85,1.23-3.83,1.42-5.83.34-.52-.28-1-.66-1.5-.99-1.61-2.55-1.32-5.07.1-7.58Z"/><path class="cls-4" d="m118.01,152c-4.42-.62-7.63-2.67-10.2-6.23,3.72-2.47,7.38-4.91,11.32-7.53-.39,4.78-.74,9.13-1.11,13.76Z"/><path class="cls-4" d="m123.11,136.15c3.99-2.28,7.9-4.52,12.03-6.88,1.7,3.75,1.93,7.41.58,11.41-4.26-1.53-8.39-3.02-12.61-4.53Z"/><path class="cls-4" d="m133.11,125.81c-3.65,2.69-7,5.18-10.83,8,.26-4.75.5-8.96.74-13.41,4.11.33,7.29,2.1,10.08,5.41Z"/><path class="cls-4" d="m122.31,138.42c4.04,2.73,7.5,5.08,11.64,7.88-3.51,2.21-6.56,4.12-10.14,6.37-.54-5.14-.99-9.38-1.5-14.25Z"/><path class="cls-4" d="m107.92,125.25c3.66-2.02,6.66-3.67,10.2-5.62.28,5.03.51,9.23.76,13.74-3.59-2.66-6.94-5.14-10.96-8.13Z"/></g></svg>