<svg width="17" height="14" viewBox="0 0 17 14" fill="none" xmlns="http://www.w3.org/2000/svg">
<path d="M16.9305 6.66732C15.2472 2.75898 12.0805 0.333984 8.66387 0.333984C5.24721 0.333984 2.08054 2.75898 0.397207 6.66732C0.351321 6.77246 0.327637 6.88594 0.327637 7.00065C0.327637 7.11537 0.351321 7.22885 0.397207 7.33398C2.08054 11.2423 5.24721 13.6673 8.66387 13.6673C12.0805 13.6673 15.2472 11.2423 16.9305 7.33398C16.9764 7.22885 17.0001 7.11537 17.0001 7.00065C17.0001 6.88594 16.9764 6.77246 16.9305 6.66732ZM8.66387 12.0007C6.02221 12.0007 3.52221 10.0923 2.08054 7.00065C3.52221 3.90898 6.02221 2.00065 8.66387 2.00065C11.3055 2.00065 13.8055 3.90898 15.2472 7.00065C13.8055 10.0923 11.3055 12.0007 8.66387 12.0007ZM8.66387 3.66732C8.0046 3.66732 7.36014 3.86281 6.81197 4.22909C6.26381 4.59536 5.83657 5.11595 5.58428 5.72504C5.33198 6.33413 5.26597 7.00435 5.39459 7.65095C5.52321 8.29755 5.84068 8.8915 6.30685 9.35767C6.77303 9.82385 7.36697 10.1413 8.01357 10.2699C8.66018 10.3986 9.3304 10.3325 9.93949 10.0802C10.5486 9.82796 11.0692 9.40071 11.4354 8.85255C11.8017 8.30439 11.9972 7.65992 11.9972 7.00065C11.9972 6.1166 11.646 5.26875 11.0209 4.64363C10.3958 4.01851 9.54793 3.66732 8.66387 3.66732ZM8.66387 8.66732C8.33424 8.66732 8.01201 8.56957 7.73792 8.38643C7.46384 8.2033 7.25022 7.943 7.12407 7.63846C6.99793 7.33391 6.96492 6.9988 7.02923 6.6755C7.09354 6.3522 7.25228 6.05523 7.48536 5.82214C7.71845 5.58905 8.01542 5.43032 8.33872 5.36601C8.66203 5.3017 8.99714 5.33471 9.30168 5.46085C9.60622 5.587 9.86652 5.80062 10.0497 6.0747C10.2328 6.34878 10.3305 6.67102 10.3305 7.00065C10.3305 7.44268 10.1549 7.8666 9.84238 8.17916C9.52982 8.49172 9.1059 8.66732 8.66387 8.66732Z" fill="#5E5F67"/>
</svg>
