<?xml version="1.0" encoding="UTF-8"?><svg id="Layer_2" xmlns="http://www.w3.org/2000/svg" viewBox="0 0 312.64 428.11"><defs><style>.cls-1{fill:#346130;}.cls-2{fill:#1d1d1b;}</style></defs><g id="Layer_1-2"><path class="cls-1" d="m257.8,262.42c-5.03,0-10.06.11-15.09-.03-5.7-.15-11.4-.31-17.07-.84-7.15-.67-14.31-1.48-21.4-2.67-13.36-2.24-24.12-8.65-30.27-21.12-5.67-11.5-5.37-23.16,2.01-33.77,4.75-6.83,10.53-9.93,19.05-7.7,4.16,1.09,7.89,3.96,11.7,6.23,4.1,2.44,7.84,5.56,12.11,7.59,7.54,3.58,15.5,5.34,23.71,2.06,4.42-1.76,7.68-4.93,10.24-8.94,4.49-7.05,4.87-14.4,2.08-22.12-.13-.36.34-1.32.71-1.42,6.84-2.02,11.94-6.03,15.63-12.23,3.15-5.29,4.05-10.73,2.64-16.57-2.05-8.48-7.76-13.9-15.32-17.66-1.22-.61-2.58-.95-3.75-1.62-.36-.21-.63-1.37-.4-1.66,4.04-5.05,6.21-10.7,5.53-17.23-.17-1.63-.58-3.35-1.33-4.79-.81-1.55-.66-2.78-.15-4.36,1.98-6.03.15-11.28-3.7-15.99-4.15-5.08-9.84-6.87-16.1-7.13-2.4-.1-4.83.48-7.25.58-.27.01-.94-1.14-.84-1.62,1.62-7.48.18-14.47-3.91-20.74-5.51-8.43-15.72-12.97-26.37-9.82-6.02,1.78-11.2,4.66-15.46,9.19-1.22,1.3-1.45.63-2.2-.48-2.48-3.66-4.8-7.56-7.87-10.68-4.76-4.86-11.05-6.86-17.71-5.78-8.97,1.46-15.34,6.88-19.17,15.08-.89,1.91-1.42,1.72-2.87.64-2.99-2.2-6.52-2.34-10.07-1.97-3.87.4-6.77,2.65-9.45,5.21-1.48,1.41-2.63-.11-3.58-.56-9.02-4.23-17.36-3.06-24.94,3.1-3.29,2.67-5.5,6.35-6.61,10.51-.62,2.32-.86,4.73-1.42,7.07-.13.56-.76,1.32-1.28,1.42-6.65,1.35-13.15,2.96-18.71,7.22-4.65,3.56-7.62,8.01-8.86,13.78-1.76,8.23.9,15.42,4.89,22.3.86,1.48.65,2.12-.56,2.99-6.78,4.86-9.99,12.56-6.57,21.04.2.5-.26,1.58-.75,2-4.65,3.97-8.57,8.52-9.86,14.63-2.27,10.8,1.12,18.79,10.68,24.06,3.24,1.79,7.59,1.61,11.45,2.19,1.43.22,2.65-.65,1.71,2.19-3.54,10.71.41,20.97,12.81,23.88,5.84,1.37,11.06-.63,15.7-3.82,6.26-4.29,12.2-9.05,18.29-13.61,3.63-2.71,7.41-5.02,12.21-4.79,7.08.35,12.3,3.86,15.26,10.04,1.81,3.76,3.25,8.08,3.37,12.19.17,6.35.42,12.81-1.64,19.11-3.09,9.46-8.67,16.56-18.3,19.55-5.54,1.72-11.35,2.83-17.13,3.41-9.97,1.01-20,1.47-30.01,2.01-9,.48-18.02.77-27.03,1.05-.81.02-1.84-.49-2.42-1.09-11.07-11.48-20.25-24.3-26.74-38.89-3.48-7.81-6.85-15.72-9.44-23.85-3.36-10.51-5.36-21.4-5.72-32.48-.23-6.93-.52-13.91.09-20.8.68-7.75,1.98-15.49,3.68-23.09,1.66-7.43,3.61-14.9,6.44-21.94,3.32-8.26,7.45-16.23,11.74-24.05,5.41-9.87,12.35-18.73,20.03-26.93,8.63-9.2,18.23-17.31,28.77-24.27,8.01-5.29,16.32-10.08,25.29-13.47,7.56-2.85,15.36-5.08,23.07-7.54,7.64-2.44,15.52-3.5,23.5-3.87,6.9-.33,13.81-.9,20.7-.73,8.91.22,17.74,1.43,26.48,3.45,12.78,2.95,25.07,7.21,36.66,13.26,10.03,5.23,19.66,11.24,28.24,18.65,5.79,5,11.04,10.65,16.43,16.11,2.25,2.28,4.49,4.64,6.32,7.25,4.55,6.46,9.13,12.91,13.19,19.68,3.48,5.81,6.52,11.93,9.24,18.13,2.21,5.05,3.79,10.4,5.4,15.69,1.7,5.59,3.38,11.21,4.58,16.91.98,4.68,1.48,9.49,1.77,14.27.46,7.46.84,14.94.72,22.41-.07,4.65-.94,9.32-1.77,13.91-1.14,6.26-2.29,12.54-3.97,18.67-3.68,13.36-9.29,25.9-16.39,37.84-4.87,8.19-10.8,15.52-16.71,22.93-2.4,3.01-4.88,4.14-8.5,3.85-2.47-.2-4.97-.04-7.46-.04,0-.19,0-.39,0-.58Z"/><path class="cls-1" d="m48.11,267.98c55.06,0,109.49,0,163.93,0,15.25,0,30.51,0,45.76.01,1.78,0,3.57.05,5.35.1.41.01.81.15,1.22.22-.2.37-.31.85-.61,1.11-2.73,2.3-5.48,4.58-8.25,6.84-2.8,2.28-5.45,4.81-8.47,6.75-6.22,4.01-12.48,8.02-19.03,11.44-6.3,3.3-12.89,6.12-19.54,8.67-4.63,1.78-9.56,2.77-14.36,4.07-9.97,2.71-20.11,4.22-30.46,4.23-4,0-8.03.58-12,.31-7.13-.49-14.23-1.36-21.34-2.19-3.39-.4-6.79-.91-10.12-1.64-3.3-.72-6.54-1.73-9.77-2.72-10.2-3.13-19.88-7.44-29.2-12.62-9.6-5.33-18.5-11.65-26.88-18.72-2.02-1.71-3.86-3.63-6.22-5.88Z"/><path class="cls-1" d="m163.72,170.32c.27-9.02,1.67-17.4,4.79-25.48,1.93-5,4.28-9.63,8.29-13.37,2.73-2.54,5.87-3.31,9.37-3.28,3.15.02,6.29.46,9.26-1.27,3.96-2.31,6.61-5.67,8.68-9.64,1.1-2.1,2.35-4.12,3.61-6.13.25-.4.9-.56,1.36-.83.04.51.22,1.05.11,1.51-1.8,7.31-5.54,13.66-9.82,19.75-3.37,4.79-5.18,10-3.84,15.99.91,4.11-1.41,7.08-3.97,9.82-7.42,7.98-15.4,15.34-24.28,21.68-.68.49-1.58.66-2.38.98-.24-.79-.61-1.58-.68-2.39-.24-2.58-.36-5.17-.5-7.37Z"/><path class="cls-1" d="m104.55,100.75c-.03.43-.02.86-.08,1.28-1.15,7.88-.68,15.37,5.58,21.26,3.03,2.85,6.58,4.76,10.79,5.43,7.01,1.12,11.93,5.11,15.43,11.22,3.36,5.87,6.89,11.73,7.74,18.52.73,5.85.09,11.65-4.25,16.35-1.12,1.21-2,1.28-3.13.05-5.98-6.52-12.09-12.93-17.96-19.54-2.99-3.37-5.88-6.9-8.2-10.74-1.09-1.8-1.39-4.66-.86-6.72,1.57-6.03.26-11.18-3.31-16.04-3.03-4.13-4.23-8.96-4.88-13.95-.16-1.25-.68-2.63-.31-3.71.47-1.4,1.66-2.55,2.53-3.81.31.13.62.27.94.4Z"/><path class="cls-1" d="m159.29,65.84c9.56-.82,15.36,7.51,15.59,14.26.28,8.14-7.08,14.97-13.69,15.26-9.02.39-15.31-6.64-15.89-13.83-.71-8.72,7.33-16.64,13.99-15.69Z"/><path class="cls-1" d="m110.15,109.52c-.44-8.94,6.48-14.51,13.74-14.6,7.78-.1,13.9,6.33,13.94,13.49.06,9.01-6.23,14.25-13.83,14.49-7.75.24-13.85-5.86-13.86-13.38Z"/><path class="cls-1" d="m214.88,159.72c-6.97.76-14.01-6.91-13.11-13.59,1-7.34,5.63-13.06,13.52-13.05,7.74,0,12.84,5.54,13.09,12.91.28,7.91-5.81,14.17-13.51,13.73Z"/><path class="cls-1" d="m116.82,187.46c-1.97-.41-4.61-.51-6.84-1.52-3.54-1.58-5.12-4.94-6.36-8.51-1.2-3.46-2.27-7.13-4.31-10.07-1.54-2.2-4.4-3.64-6.91-4.97-5.9-3.13-11.54-6.52-15.32-12.26-.27-.42-.34-.97-.5-1.45.48.21,1.09.29,1.41.64,4.09,4.46,9.16,6.01,15.09,5.44,2.13-.21,4.34-.08,6.47.19,3.06.39,5.08,2.61,6.8,4.84,5.51,7.13,10.8,14.41,16.23,21.6.94,1.25,2.15,2.29,3.15,3.51.19.23.02,1.18-.1,1.2-2.72.47-5.46.86-8.79,1.36Z"/><path class="cls-1" d="m196.2,188.77c-3.8-.75-7.61-1.48-11.4-2.29-.22-.05-.55-.93-.42-1.08,4.24-4.83,8.47-9.66,12.82-14.39,3.71-4.04,8.32-4.98,13.7-4.14,6.63,1.04,12.82-.24,17.8-5.22,1.44-1.44,2.87-2.88,4.32-4.3.26-.25.62-.39.94-.58.1.39.32.8.28,1.17-.38,3.09-1.84,5.72-4.25,7.57-2.72,2.09-5.59,4.06-8.62,5.64-5.06,2.65-9.28,6.1-11.82,11.25-2.25,4.58-6.29,5.62-10.78,5.97-.82.06-1.66,0-2.49,0-.02.12-.05.25-.07.37Z"/><path class="cls-1" d="m78.36,134.84c.03-6.98,5.3-11.71,12.6-11.99,7.21-.28,13,7.04,12.72,13.03-.27,5.91-5.89,12.24-13.35,12.06-6.54-.15-12.8-6.61-11.97-13.09Z"/><path class="cls-1" d="m153.88,111.97c.04,8.25-1.98,16.18-3.88,24.12-.07.31-1.14.74-1.24.64-2.99-3.17-6.69-5.93-7.49-10.54-.31-1.77.18-3.74.54-5.57.73-3.64,2.03-7.21,2.34-10.87.38-4.47-1.77-8.34-4.14-12.09-1.49-2.35-2.4-5.07-3.54-7.64-.17-.39-.3-.89-.2-1.28.37-1.48.83-2.93,1.26-4.39.49,1.17.83,2.42,1.49,3.48,1.6,2.54,3.17,5.14,5.08,7.43,2.42,2.91,5.57,5.29,7.66,8.39,1.54,2.28,1.89,5.36,2.77,8.08-.21.08-.43.15-.64.23Z"/><path class="cls-1" d="m66.49,200.96c-.6-5.82,5.7-11.36,10.99-11,6.19.42,11.02,5.31,10.87,11.38-.18,6.91-4.85,10.67-11.74,10.78-5.08.08-10.55-5.04-10.12-11.16Z"/><path class="cls-1" d="m214.74,188.38c.02-5.97,4.56-10.18,10.76-10.32,5.48-.12,10.54,5.6,10.34,10.74-.22,5.75-4.77,10.2-10.58,10.45-5.23.22-11.13-5.14-10.52-10.87Z"/><path class="cls-1" d="m162.45,124.56c.04-6.52,1.45-12.73,4.59-18.37,1.26-2.26,3.44-4.19,5.58-5.74,5.56-4.03,9.41-9.01,10.37-15.97.04-.31.33-.58.5-.87.21.3.49.56.62.89,2.24,5.86-.47,10.34-4.18,14.46-4.09,4.55-6.05,9.69-4.64,15.81,1.19,5.17-2.03,8.52-4.93,11.96-1.47,1.75-3.15,3.32-4.8,4.92-.41.4-1.15.92-1.52.78-.45-.17-.88-.93-.96-1.49-.29-2.12-.44-4.26-.64-6.39Z"/><path class="cls-1" d="m79.91,91.46c-.45-5.16,4.55-9.45,9.64-9.52,5.61-.08,9.82,4.27,9.86,9.37.04,5.36-4.12,9.57-9.84,9.82-4.3.19-10.48-4.8-9.66-9.67Z"/><path class="cls-1" d="m189.72,101.86c5.35,0,9.7,4.22,9.7,9.4,0,5.31-4.44,9.84-9.79,9.71-5.06-.12-9.44-4.27-9.46-9.28-.02-5.2,4.26-10.18,9.55-9.83Z"/><path class="cls-1" d="m70.05,128.32c-5.18.49-8.76-3.74-8.96-8.84-.19-5.03,4.23-8.88,8.97-8.91,5.46-.04,8.97,4.45,9.12,8.92.13,4.08-3.79,9.35-9.13,8.84Z"/><path class="cls-1" d="m125.76,68.55c4.92-.32,9.17,4.04,8.99,9.09-.14,4.08-4.02,8.47-8.89,8.66-4.61.18-9.36-4.68-9.2-8.92.18-4.67,3.77-9.33,9.1-8.83Z"/><path class="cls-1" d="m251.49,98.69c-.11,5.49-3.74,8.88-9.81,8.93-4.37.04-8.2-4.73-8.18-8.81.02-4.76,4.17-8.92,8.99-8.97,4.23-.05,9.45,3.51,9,8.85Z"/><path class="cls-1" d="m220.98,90.44c4.48.05,8.15,3.75,8.05,8.2-.11,4.67-3.93,8.64-8.78,8.48-4.29-.15-8.09-3.86-7.83-9.04.22-4.29,3.86-7.69,8.55-7.64Z"/><path class="cls-1" d="m254.96,148.83c-.08,5.33-3.45,8.29-8.67,8.36-4.06.05-7.73-3.95-7.75-8.16-.01-4.9,3.49-8.47,8.31-8.44,3.73.03,8.53,3.45,8.11,8.25Z"/><path class="cls-1" d="m226.6,120.67c.05,4.47-3.3,8-7.64,8.04-4.33.04-8.05-3.63-8.07-7.97-.02-4.5,3.05-7.15,7.8-7.53,4.85-.38,7.79,3.24,7.9,7.45Z"/><path class="cls-1" d="m202.11,80.84c.05,4.62-3,7.96-7.32,8.01-4.53.05-7.99-3.13-8.05-7.41-.06-3.7,2.76-7.93,5.23-7.84,7.24.24,10.09,2.27,10.14,7.24Z"/><path class="cls-1" d="m73.71,171.6c-4.18,0-7.21-2.93-7.21-6.97,0-4.36,3.15-7.5,7.33-7.66,4.77-.18,8.07,3.54,8.03,7.46-.05,4.08-3.54,7.16-8.15,7.16Z"/><path class="cls-1" d="m65,154.36c-3.63-.02-6.63-3.28-6.58-7.14.04-3,3.06-6.54,5.66-6.53,6.09.01,8.27,2.78,8.24,7.01-.03,4.03-2.94,6.69-7.31,6.66Z"/><path class="cls-1" d="m232.76,172.61c-.57-3.12,3.55-6.93,7.07-6.77,3.56.16,6.57,3.21,6.55,6.92-.02,3.67-3.19,6.9-6.72,6.83-3.54-.07-6.91-3.48-6.9-6.97Z"/><path class="cls-1" d="m91.15,169.25c3.32-.56,6.72,3.59,6.48,6.79-.25,3.36-3.22,6.82-6.74,6.68-3.84-.15-6.78-2.98-6.77-6.72.01-4.16,2.74-6.77,7.03-6.75Z"/><path class="cls-1" d="m91.01,118.74c-3.01.32-6.7-3.33-6.52-7.01.17-3.59,3.16-6.44,7.04-6.42,3.8.02,6.46,2.89,6.44,6.93-.02,3.75-2.98,6.52-6.95,6.5Z"/><path class="cls-1" d="m89.93,186.9c4.64.1,9.21.34,12.79,4.02.98,1.01.97,1.43.09,2.48-3.01,3.57-5.5,2.7-8.72.15-2.23-1.76-4.4-3.6-6.58-5.43-.33-.27-.57-.64-.86-.96.4-.08.79-.22,1.2-.24.7-.04,1.4-.01,2.1-.01Z"/><path class="cls-2" d="m31.32,358.38c0-19.9,15.5-34.5,34.7-34.5s34.7,14.6,34.7,34.5-15.4,34.5-34.7,34.5-34.7-14.7-34.7-34.5Zm7.6,0c0,15.3,12.1,27.5,27.1,27.5s27.1-12.2,27.1-27.5-12.1-27.5-27.1-27.5-27.1,12.2-27.1,27.5Z"/><path class="cls-2" d="m179.12,372.88h-28.4l-8,18.8h-8.2l30.7-69.9,29.9,69.9h-8.2l-7.8-18.8Zm-2.9-7l-11.2-26.7-11.4,26.7h22.6Z"/><path class="cls-2" d="m241.92,353.58l28.4-28.6h10l-31.2,31.1,32.2,35.6h-10.2l-27.3-30.6-1.9,1.9v28.7h-7.4v-66.7h7.4v28.6Z"/><path class="cls-2" d="m40.5,411.61c-.63-.63-1.59-1.38-2.61-1.86-1.05-.48-2.28-.78-3.45-.78-4.62,0-8.04,3.72-8.04,8.34,0,5.43,4.41,8.16,8.07,8.16,1.35,0,2.67-.39,3.72-.93,1.14-.57,1.95-1.32,2.31-1.68v2.76c-2.22,1.59-4.53,1.95-6.03,1.95-5.94,0-10.35-4.5-10.35-10.29s4.47-10.41,10.47-10.41c1.2,0,3.51.15,5.91,1.98v2.76Z"/><path class="cls-2" d="m70.82,421.57h-8.52l-2.4,5.64h-2.46l9.21-20.97,8.97,20.97h-2.46l-2.34-5.64Zm-.87-2.1l-3.36-8.01-3.42,8.01h6.78Z"/><path class="cls-2" d="m96.55,407.2c1.35,0,3.36.09,4.86,1.11,1.17.78,2.19,2.31,2.19,4.44,0,3.06-2.01,5.31-5.04,5.52l6.36,8.94h-2.7l-6.09-8.76h-.57v8.76h-2.22v-20.01h3.21Zm-.99,9.27h1.41c2.76,0,4.41-1.32,4.41-3.66,0-1.11-.33-2.22-1.59-2.94-.9-.51-1.92-.57-2.88-.57h-1.35v7.17Z"/><path class="cls-2" d="m126.75,407.2c2.01,0,3.69.24,5.04,1.41,1.47,1.26,1.83,3.03,1.83,4.29,0,2.82-1.77,5.61-6.33,5.61h-1.95v8.7h-2.22v-20.01h3.63Zm-1.41,9.21h1.83c2.64,0,4.23-1.32,4.23-3.63,0-3.18-2.97-3.48-4.41-3.48h-1.65v7.11Z"/><path class="cls-2" d="m161.96,409.3h-8.16v5.94h7.92v2.1h-7.92v7.77h8.16v2.1h-10.38v-20.01h10.38v2.1Z"/><path class="cls-2" d="m180.96,427.21v-20.85l15.6,16.35v-15.51h2.22v20.91l-15.6-16.35v15.45h-2.22Z"/><path class="cls-2" d="m223.67,409.3v17.91h-2.22v-17.91h-4.86v-2.1h11.94v2.1h-4.86Z"/><path class="cls-2" d="m249.52,407.2c1.35,0,3.36.09,4.86,1.11,1.17.78,2.19,2.31,2.19,4.44,0,3.06-2.01,5.31-5.04,5.52l6.36,8.94h-2.7l-6.09-8.76h-.57v8.76h-2.22v-20.01h3.21Zm-.99,9.27h1.41c2.76,0,4.41-1.32,4.41-3.66,0-1.11-.33-2.22-1.59-2.94-.9-.51-1.92-.57-2.88-.57h-1.35v7.17Z"/><path class="cls-2" d="m279.67,418.6l-6.57-11.4h2.58l5.1,8.94,5.16-8.94h2.58l-6.63,11.4v8.61h-2.22v-8.61Z"/></g></svg>