<svg width="12" height="14" viewBox="0 0 12 14" fill="none" xmlns="http://www.w3.org/2000/svg">
<path d="M0.0749955 7.38177C0.12259 7.50452 0.193956 7.61666 0.284996 7.71177L5.285 12.7118C5.37823 12.805 5.48892 12.879 5.61075 12.9294C5.73257 12.9799 5.86314 13.0059 5.995 13.0059C6.2613 13.0059 6.51669 12.9001 6.705 12.7118C6.79823 12.6185 6.87219 12.5078 6.92266 12.386C6.97312 12.2642 6.99909 12.1336 6.99909 12.0018C6.99909 11.7355 6.8933 11.4801 6.705 11.2918L3.405 8.00177L10.995 8.00177C11.2602 8.00177 11.5146 7.89641 11.7021 7.70887C11.8896 7.52134 11.995 7.26698 11.995 7.00177C11.995 6.73655 11.8896 6.4822 11.7021 6.29466C11.5146 6.10712 11.2602 6.00177 10.995 6.00177L3.405 6.00177L6.705 2.71177C6.79872 2.6188 6.87312 2.5082 6.92389 2.38634C6.97466 2.26449 7.00079 2.13378 7.00079 2.00177C7.00079 1.86976 6.97466 1.73905 6.92389 1.61719C6.87312 1.49533 6.79872 1.38473 6.705 1.29177C6.61203 1.19804 6.50143 1.12364 6.37957 1.07288C6.25771 1.02211 6.12701 0.995969 5.995 0.995969C5.86298 0.995969 5.73228 1.02211 5.61042 1.07288C5.48856 1.12364 5.37796 1.19804 5.285 1.29177L0.284997 6.29177C0.193956 6.38687 0.12259 6.49902 0.0749956 6.62177C-0.0250224 6.86523 -0.0250225 7.13831 0.0749955 7.38177Z" fill="#B1B2BE"/>
</svg>
