<?xml version="1.0" encoding="UTF-8"?><svg id="Layer_2" xmlns="http://www.w3.org/2000/svg" viewBox="0 0 425.54 474.04"><defs><style>.cls-1{fill:#f2bf5d;}.cls-1,.cls-2,.cls-3,.cls-4{stroke-width:0px;}.cls-2{fill:#51a1cd;}.cls-3{fill:#f25d5d;}.cls-4{fill:#34363c;}</style></defs><g id="Layer_1-2"><path class="cls-4" d="m360.75,272.03c2.18-4.66,4.16-9.43,6.58-13.96,3.11-5.8,6.57-11.41,9.91-17.15h-12.78v-7.11c-3.87-2.89-8.34-2.3-12.73-2.29-5.92.02-11.85.07-17.77.02-.61,0-1.21-.59-1.82-.9.62-.32,1.23-.9,1.85-.91,7.2-.07,14.4-.04,21.6-.04.98,0,1.97,0,2.3,0,.99-3.58,1.93-6.77,2.72-9.99.26-1.04.42-2.28.11-3.26-.87-2.74-.39-4.2,2.23-5.56,5.25-2.74,11.63-1.68,15.82,2.63,3.94,4.04,4.42,9.28,1.35,14.79-.21.37-.42.74-.78,1.39,5.39,0,10.45,0,15.52,0,9.3,0,18.59-.02,27.89.05.93,0,1.86.52,2.78.8-.88.33-1.77.96-2.65.96-13.31.06-26.62.03-39.92.03-1.45,0-2.9,0-4.76,0,.15,3,.28,5.86.42,8.65,11.1,5.29,17.93,13.12,18.38,26.04.81,23.22-3.16,45.64-9.81,67.74-.79,2.62-2.53,1.25-3.85,1.46,1.75,42.16,3.5,84.3,5.26,126.63-.85.15-1.61.28-2.48.43v10.21h-38.91c.6-2.66,2.28-4.5,4.41-5.9,2.09-1.38,4.34-2.5,7.26-4.14h-7.06c0-1.48,0-2.71,0-3.94-.28-48.67-.48-97.35-.91-146.02-.07-7.94-1.1-15.87-1.69-23.83-2.6,3.1-6.09,5.13-10.51,5.18-4.25.05-8.25-1.23-11.48-3.77-5.92-4.65-11.51-9.73-17.12-14.75-.61-.55-.73-1.92-.66-2.87.08-1.05.63-2.06,1.15-3.59-4.21,1.36-5.39-1.38-5.99-4.29-.24-1.17.67-2.58,1.05-3.88.31.01.63.02.94.04-.97-1.69-1.93-3.38-2.89-5.07-1.05-2.43-2.11-4.87-3.16-7.3.24-.13.49-.26.73-.39,1.39,1.95,2.79,3.9,4.18,5.85.72,1.54,1.35,3.12,2.17,4.6,1.57,2.83,3.22,5.6,4.88,8.38.26.44.66.89,1.11,1.13,4.98,2.6,9.86,5.43,15,7.67,6.39,2.79,10.77,1.57,15.33-3.65,4.5-5.15,7.04-11.38,9.61-17.59.16-.39.37-.77.82-1.69-.62,13.6-1.21,26.61-1.81,39.62.24.02.47.05.71.07.14-.41.29-.81.43-1.21,2.14-6.08,4.28-12.15,6.42-18.23l.61-1.15v.07Zm15.87,190.46h-6.48v3.92c2.08-1.26,3.97-2.4,6.48-3.92Z"/><path class="cls-4" d="m194.06,172.26h42.43c0-9.86,0-19.63,0-29.39.36-.53.72-1.07,1.08-1.6.39.58.78,1.16,1.17,1.74v29.14h22.06c0-1.15,0-2.3,0-3.46.02-29.63.04-59.25.06-88.88,0-.36-.04-.73-.06-1.08.06-8.69.15-17.39.16-26.09,0-4.71-.12-9.42-.19-14.12.02-1.74.03-3.48.05-5.22-.01-.03-.02-.09-.02-.18.38-.67.77-1.33,1.15-2,.27.11.53.21.8.32,0,1.79-.08,3.58.04,5.35.04.63.56,1.22.87,1.83-.28.74-.81,1.47-.82,2.21-.03,11.7,0,23.4.06,35.1,0,.79.27,1.57.42,2.36-.16.95-.47,1.89-.47,2.84-.03,29.99-.04,59.98-.05,89.96,0,.91,0,1.81,0,2.93h-23.95v12.33h7.55v19.93h-34.69v74.62h93.01v93.58c-1.12,0-2.09,0-3.07,0-15.49.04-30.99.07-46.48.12-.82,0-1.64.09-2.45.14-6.89-.12-13.78-.29-20.67-.33-3.34-.02-6.69.18-10.03.28-9.21-.06-18.41-.16-27.62-.17-23.43-.02-46.85,0-70.68,0,2.68,33.04,5.35,65.93,8.03,99.02h-5.83c-3.16-38.86-6.32-77.79-9.49-116.81h-16.72c.48,39.1.95,78.15,1.43,117.32h-5.54c-.43-33.19-.85-66.24-1.28-99.46h-20.68c-.93,33.09-1.86,66.03-2.79,99.12h-5.87c1.02-32.97,2.05-65.97,3.08-99.13H15.07v-67.67H.24c-1.15-14.76,1.65-27.88,13.78-37.6.47-.38.88-1.16.88-1.76.05-11.56.04-23.12.04-34.96H4.41v-24.24h10.69V23.9h101.33v22.5c3.92,0,7.53,0,11.14,0,12.52,0,25.04,0,37.75,0,0,1.16,0,1.78,0,2.4-.01,25.23-.04,50.46-.03,75.69,0,14.48.05,28.96.08,43.44v4.33h28.7Zm-30.92-4.31c.04-.54.11-1.09.11-1.63,0-38.69.01-77.39,0-116.08,0-.59-.14-1.19-.22-1.82h-48.64v-22.54H17.2v46.98h51.91v85.88H17.27v49.56h10.65v24.35h-10.67v33.68c4.68-1.39,9.33-2.83,14.01-4.11.65-.18,1.5.4,2.26.63-.66.42-1.27,1-2,1.24-4.1,1.37-8.25,2.63-12.35,4-1.63.54-2.22,1.64-2.19,3.52.15,7.93.07,15.86.08,23.79,0,3.07,0,6.14,0,9.41,1.44,0,2.61,0,3.77,0,7.75,0,15.49,0,23.24,0,1.2,0,2.58-.22,1.83,2.08h-28.69v65.51h50.94v-15.64c-.87-.1-1.82-.2-2.91-.32v-23.33h-12.77v-7.91c4.42,0,8.68,0,12.94,0,10.94,0,21.87.02,32.81.03h21.13c1.41,15.93,2.79,31.57,4.17,47.3,1.18,0,2.08,0,2.99,0,23.5,0,47.01.01,70.51,0,7.1,0,14.21-.04,21.31-.06,12.75,0,25.49-.01,38.24-.02h46.02v-89.68h-92.86v-96.5h26.76v-12h-71.28c0,2.32,0,4.3,0,6.28,0,14.65.01,29.31,0,43.96,0,1.1.6,2.81-1.98,2.33,0-1.24,0-2.5,0-3.75-.02-18.38-.04-36.77-.07-55.15Zm-96.08-11.19v-81.75H17.27v81.75h49.79ZM14.92,304.76v-33.39c-8.58,4.75-14.71,21.07-12.65,33.39h12.65Zm59.07,67.65h20.11v-15.62h-20.11v15.62Z"/><path class="cls-1" d="m165.37,167.93c-.03-14.48-.08-28.96-.08-43.44,0-25.23.02-50.46.03-75.69,0-.62,0-1.25,0-2.4-12.71,0-25.23,0-37.75,0,0-15.3,0-30.59,0-46.09h66.46c0,1.15,0,2.29,0,3.43.01,50.86.03,101.72.03,152.58,0,3.81-.11,7.63-.17,11.44-9.5.05-19.01.11-28.52.16Z"/><path class="cls-1" d="m361.77,132.39c-3.23.14-6.47.27-9.7.41-.02-12.46-.05-24.92-.07-37.38,0-1,.07-2.01-.06-3-.05-.4-.52-.75-.8-1.12-.3.36-.81.7-.86,1.08-.13,1.08-.06,2.18-.07,3.27-.06,12.28-.12,24.55-.17,36.83-6.09-.67-12.18-1.34-18.27-2.01-4.73-7.33-11.22-12.27-19.73-14.4-5.7-1.43-11.36-.65-16.99.51-13.82-9.51-23.04-22.51-28.85-38.1,1.09-.04,2.18-.11,3.27-.11,32.95-.03,65.9-.06,98.85-.09.04,11.92.04,23.84.18,35.75.01,1.17-1.16,2.98,1.06,3.6.29-1.19.82-2.38.83-3.57.1-11.92.11-23.83.14-35.75,4.84,0,9.69,0,14.53,0,.08,1.81.21,3.62.22,5.43.03,15.17.03,30.34.04,45.51,0,.98,0,1.95,0,3.14-3.21.21-6.18.41-9.14.6-1.16-1.85-1.92-4.25-3.56-5.46-4.06-2.99-8.49-.84-10.85,4.83Z"/><path class="cls-2" d="m368.32,78.3c-32.95.03-65.9.05-98.85.09-1.09,0-2.18.07-3.27.11-.96-.07-1.92-.14-2.88-.21-.14-.79-.41-1.57-.42-2.36-.05-11.7-.09-23.4-.06-35.1,0-.74.53-1.47.82-2.21,26.99-.03,53.97-.07,80.95-.09,13.49-.01,26.98.01,40.47.02,0,13.27-.01,26.53-.02,39.8-4.84,0-9.69,0-14.53,0-.04-7.45-.09-14.9-.13-22.36-.01-2.27.06-4.55-.07-6.81-.03-.51-.7-.98-1.08-1.47-.29.48-.72.92-.83,1.44-.15.7-.04,1.45-.04,2.17-.03,9-.05,18-.07,26.99Zm-17.42-22.95c.14.32.28.63.42.95,4.62,0,9.25.03,13.87-.04.45,0,.88-.6,1.33-.92-.49-.36-.97-1.02-1.46-1.03-4.1-.08-8.19-.07-12.29.03-.63.02-1.25.66-1.88,1.02Z"/><path class="cls-2" d="m305.47,254.01c-1.39-1.95-2.79-3.9-4.18-5.85-.24.13-.49.26-.73.39,1.05,2.43,2.11,4.87,3.16,7.3-11.56,6.22-23.16,6.42-34.09-1.03-11.11-7.57-15.87-18.51-13.25-31.78,2.56-13.01,10.96-21.23,23.74-24.37,19.24-4.73,37.22,8.28,38.68,28.05.81,11.01-3.81,19.99-12.33,26.94-.26.21-.66.23-1,.34Z"/><path class="cls-3" d="m295.05,116.59c5.63-1.16,11.29-1.94,16.99-.51,8.51,2.13,15,7.07,19.73,14.4.31.74.6,1.5.93,2.24,2.44,5.51,3.52,11.21,2.55,17.22-1.73.04-3.45.12-5.18.12-12.83.01-25.67,0-38.5.02-1.1,0-2.76-.53-2.3,1.95,2.84,0,5.65,0,8.45,0,12.47.05,24.93.1,37.4.15-3.51,13.08-13.43,21.97-26.13,23.41-13.34,1.52-25.09-4.71-31.21-16.54-7.93-15.31-.86-34.8,15.03-41.47.75-.32,1.49-.66,2.24-.99Z"/><path class="cls-3" d="m385.09,38.54c-13.49,0-26.98-.03-40.47-.02-26.98.02-53.97.06-80.95.09-.31-.61-.83-1.2-.87-1.83-.12-1.78-.04-3.57-.04-5.35-.27-.11-.53-.21-.8-.32-.38.67-.77,1.33-1.15,2,0-.15-.01-.3-.02-.45.08.03.22.08.22.09-.05.18-.11.36-.18.55-.02,1.74-.03,3.48-.05,5.22-.76.1-1.52.2-2.28.3-.67-3.35-1.35-6.7-2.07-10.29h128.66v10.01Z"/><path class="cls-3" d="m219.39,54.27c.73-12.48,11.25-18.28,19.76-17.21,8.48,1.07,15.26,8.25,15.52,16.43.29,9.17-5.53,16.61-14.48,18.52-8.06,1.72-16.52-3.11-19.58-11.26-.54-1.43-.81-2.97-1.21-4.46,0-.67,0-1.35-.01-2.02Z"/><path class="cls-3" d="m238.75,143.01c-.39-.58-.78-1.16-1.17-1.74-.36.53-.72,1.07-1.08,1.6-3.9,0-7.81,0-11.89,0v-27.15h26.52v27.29h-12.37Z"/><path class="cls-4" d="m215.54,24.69V0h24.81v24.69h-24.81Z"/><path class="cls-4" d="m335.12,152.18c-12.47-.05-24.93-.11-37.4-.15-2.8-.01-5.61,0-8.45,0-.46-2.47,1.2-1.94,2.3-1.95,12.83-.02,25.67-.01,38.5-.02,1.73,0,3.45-.08,5.18-.12,4.86,0,9.72,0,14.79,0v-17.44c.06-12.28.11-24.55.17-36.83,0-1.09-.06-2.19.07-3.27.05-.39.56-.72.86-1.08.28.37.75.72.8,1.12.12.99.05,2,.06,3,.02,12.46.05,24.92.07,37.38,0,6.34,0,12.69,0,19.38h-16.95Z"/><path class="cls-4" d="m384.03,172.37v-19.55h-10.42c-.15-.28-.31-.56-.46-.84.55-.39,1.09-1.11,1.66-1.12,3.63-.1,7.27-.05,11.28-.05v23.24c-.53.15-.77.29-1.02.29-13.31.02-26.61.05-39.92,0-.76,0-1.51-.68-2.26-1.04.74-.3,1.49-.87,2.23-.87,11.94-.06,23.88-.05,35.82-.05.99,0,1.98,0,3.1,0Z"/><path class="cls-3" d="m361.77,132.39c2.37-5.67,6.8-7.82,10.85-4.83,1.64,1.21,2.4,3.6,3.56,5.46-.41,4.33-3.13,7.05-7.05,7.07-4.29.01-6.88-2.7-7.37-7.7Z"/><path class="cls-3" d="m360.14,273.11c-2.14,6.08-4.28,12.16-6.42,18.23,2.8-13.88,5.6-27.77,8.4-41.65.11-.53.46-1.21.26-1.58-1.42-2.63.91-3.67,2.11-5.61.87,1.42,1.55,2.55,1.84,3.03-.57,2.38-1.01,4.15-1.41,5.92-1.4,6.2-2.8,12.4-4.16,18.61-.14.63-.02,1.31-.01,1.97,0,0,0-.07,0-.07-.2.38-.41.77-.61,1.15Z"/><path class="cls-3" d="m165.37,167.93c9.51-.05,19.01-.11,28.52-.16.06,1.5.12,2.99.18,4.49-9.51,0-19.02,0-28.7,0v-4.33Z"/><path class="cls-4" d="m236.98,94.98c0-5.72-.03-11.45.04-17.17,0-.72.58-1.43.89-2.15.37.74,1.06,1.48,1.07,2.23.06,11.36.05,22.72-.01,34.07,0,.73-.56,1.47-.86,2.2-.36-.76-1.02-1.51-1.03-2.28-.09-5.63-.05-11.27-.05-16.9h-.04Z"/><path class="cls-1" d="m222.02,374.68c3.34-.1,6.69-.3,10.03-.28,6.89.05,13.78.22,20.67.33-7.24,4-14.95,4.76-22.89,2.93-2.69-.62-5.21-1.97-7.81-2.99Z"/><path class="cls-2" d="m258.5,38.82c.76-.1,1.52-.2,2.28-.3.07,4.71.2,9.42.19,14.12-.01,8.7-.1,17.4-.16,26.09-1.73-.04-1.85-1.07-1.85-2.52.04-9.74.03-19.48-.04-29.22-.02-2.72-.28-5.45-.42-8.17Z"/><path class="cls-4" d="m219.39,54.27c0,.67,0,1.35.01,2.02-3.71,0-7.42,0-11.14,0l-.49-.65c.6-.45,1.18-1.25,1.8-1.28,3.27-.14,6.55-.08,9.82-.1Z"/><path class="cls-4" d="m349.91,190.63c-1.47.96-2.41,2.07-3.21,1.98-.84-.1-1.54-1.35-2.3-2.1.79-.75,1.54-2.03,2.39-2.11.79-.07,1.7,1.14,3.12,2.23Z"/><path class="cls-4" d="m377.82,190.6c-1.59.98-2.48,1.96-3.33,1.93-.75-.03-1.46-1.18-2.19-1.84.74-.78,1.4-2.06,2.23-2.19.76-.11,1.71,1.03,3.29,2.1Z"/><path class="cls-3" d="m194.32,174.28c-.12.97-.33,1.93-.33,2.9-.02,42.71-.03,85.42-.03,128.13,0,.88,0,1.77,0,2.93-1.59,0-2.94,0-4.28,0-19.85,0-39.7.02-59.56.01-1.15,0-2.79.54-2.49-1.68,8.56-.03,17.12-.07,25.68-.1.73,0,1.46,0,2.17-.12.24-.04.56-.51.56-.78,0-.26-.33-.71-.57-.75-.71-.12-1.45-.11-2.18-.11-8.56-.07-17.12-.14-25.68-.2,0-38.72.03-77.45,0-116.17,0-5.86-.27-11.71-.37-17.57-.01-.89.26-1.78.4-2.68,3.93.03,7.86.07,11.79.1-1.19.78-2.49,1.64-.88,3.06.37.33,1.51-.23,2.3-.37-.48-.89-.96-1.79-1.43-2.68.99-.1,1.98-.29,2.97-.29,6.91,0,13.83.04,20.74.07.02,18.38.04,36.77.07,55.15,0,1.25,0,2.51,0,3.75,2.58.47,1.98-1.24,1.98-2.33.02-14.65.01-29.31,0-43.96,0-1.98,0-3.96,0-6.28h29.13Zm-54.87,7.61c-.73.93-1.5,1.47-1.51,2.04-.01.52.9,1.55,1.2,1.48.67-.16,1.52-.77,1.7-1.37.13-.43-.71-1.15-1.39-2.15Zm14.38,2.32c-1.04-.71-1.65-1.45-2.18-1.4-.55.05-1.03.87-1.54,1.36.49.5.94,1.36,1.47,1.41.55.05,1.18-.67,2.25-1.37Z"/><path class="cls-1" d="m163.14,167.95c-6.91-.03-13.83-.07-20.74-.07-.99,0-1.98.19-2.97.29,0,0,.01,0,.01,0-3.93-.03-7.86-.07-11.79-.1,0-6.78,0-13.56,0-20.34,1.92-1.18,2.2-2.33-.06-3.43.03-3.35.05-6.7.08-10.05,2.32-1.25,1.96-2.35-.18-3.36-.09-7.32-.23-14.63-.24-21.95,0-4.07.21-8.14.32-12.21,2.21-1.12,2.03-2.24-.01-3.35,0-5.73.02-11.46.03-17.19,2.28-1.18,2.14-2.35-.03-3.49.04-8.1.08-16.2.12-24.3,11.73,0,23.47,0,35.37,0,.08.63.22,1.23.22,1.82,0,38.69,0,77.39,0,116.08,0,.54-.07,1.09-.11,1.63Zm-11.42-24.2c-.77.98-1.66,1.66-1.55,2.08.17.67,1.01,1.16,1.57,1.73.5-.54,1.34-1.04,1.41-1.62.06-.54-.72-1.17-1.42-2.19Zm2.23-69.49c-1.08-.66-1.75-1.39-2.3-1.31-.55.08-.99.97-1.48,1.5.56.48,1.09,1.31,1.67,1.35.53.04,1.12-.78,2.11-1.54Zm-12.08,58.46c-.94-.8-1.48-1.61-2.04-1.63-.58-.02-1.18.74-1.77,1.16.51.6.92,1.48,1.55,1.69.46.15,1.21-.61,2.27-1.22Zm9.79-2.32c-.71,1.03-1.5,1.67-1.43,2.21.07.56.97,1.4,1.51,1.4.51,0,1.36-.92,1.4-1.48.04-.55-.76-1.15-1.49-2.13Zm-12.19,17.62c.76-.9,1.71-1.59,1.6-1.98-.18-.64-.98-1.35-1.65-1.52-.35-.09-1.34.88-1.38,1.42-.03.55.75,1.15,1.43,2.08Zm-.02-71.58c.79-.93,1.67-1.5,1.65-2.05-.02-.53-.92-1.38-1.5-1.43-.48-.05-1.41.81-1.48,1.35-.07.53.69,1.17,1.33,2.13Zm2.48,31.7c-1.11-.77-1.7-1.52-2.27-1.49-.54.02-1.05.84-1.58,1.31.5.5.95,1.32,1.51,1.41.54.09,1.2-.59,2.33-1.23Zm-2.28-11.06c.72-1.02,1.52-1.68,1.43-2.15-.11-.55-.99-1.28-1.56-1.31-.47-.02-1.34.86-1.37,1.38-.03.52.75,1.1,1.51,2.09Zm14.22,10.99c-1.05-.75-1.66-1.52-2.19-1.47-.55.05-1.02.91-1.53,1.41.51.49.98,1.3,1.55,1.37.52.07,1.15-.65,2.18-1.31Zm-4.51-13.2c1.11.75,1.72,1.49,2.27,1.44.58-.05,1.09-.84,1.63-1.31-.5-.52-.95-1.38-1.51-1.47-.55-.08-1.21.64-2.39,1.34Z"/><path class="cls-1" d="m218.33,372.48c-15.88-12.29-19.68-33.05-8.93-48.8,8.22-12.04,22.82-17.58,36.89-13.99,13.63,3.47,24.06,15.69,25.36,29.97,1.2,13.19-3.42,23.89-14.06,31.91-.36.27-.69.6-1.03.9-12.75,0-25.49.01-38.24.02Z"/><path class="cls-1" d="m97.81,254.91c.08.99.21,1.98.22,2.97.02,21.73.03,43.45.04,65.18,0,.72.1,1.45.15,2.17-10.94,0-21.87-.02-32.81-.03.02-23.43.03-46.87.05-70.3,10.78,0,21.57,0,32.35.01Z"/><path class="cls-2" d="m260.82,33.3c.06-.18.13-.36.18-.55,0-.01-.14-.06-.22-.09,0,.15.02.3.02.45,0,.09,0,.15.02.19Z"/><path class="cls-4" d="m368.32,78.3c.02-9,.05-18,.07-26.99,0-.73-.1-1.48.04-2.17.11-.52.54-.96.83-1.44.38.49,1.05.96,1.08,1.47.12,2.27.05,4.54.07,6.81.04,7.45.08,14.9.13,22.36-.03,11.92-.04,23.83-.14,35.75,0,1.19-.54,2.38-.83,3.57-2.23-.62-1.05-2.43-1.06-3.6-.14-11.92-.14-23.83-.18-35.75Z"/><path class="cls-4" d="m350.9,55.34c.62-.36,1.24-1,1.88-1.02,4.09-.1,8.19-.1,12.29-.03.49,0,.97.67,1.46,1.03-.44.32-.88.91-1.33.92-4.62.07-9.25.04-13.87.04-.14-.32-.28-.63-.42-.95Z"/><path class="cls-1" d="m76.13,191.02h-39.17v-22.5h39.17v22.5Z"/><path class="cls-4" d="m97.81,254.91c-10.78,0-21.57,0-32.35-.01-.04-12.93-.24-25.87-.03-38.8.09-5.93,5.15-10.89,11.27-11.46,3.77-.35,7.59-.06,11.32-.06,1.03,4.6.13,7.06-3.33,9.42-.9.61-1.85,1.15-2.76,1.75-5.49,3.69-7.23,8.13-5.7,14.57.19.8.31,1.62.6,2.38,2.52,6.56.43,11.52-5.8,15.56h26.78v6.66Z"/><path class="cls-4" d="m46.22,283.1c-.05,5.2-4.21,9.23-9.44,9.16-5.18-.07-9.28-4.12-9.23-9.1.06-5.29,4.28-9.36,9.67-9.32,5.13.04,9.04,4.07,8.99,9.26Zm-9.49,6.99c3.93.02,7.23-3.08,7.31-6.88.08-4.16-2.99-7.37-7.05-7.37-3.77,0-7.18,3.35-7.21,7.08-.04,3.98,3.04,7.15,6.95,7.17Z"/><path class="cls-4" d="m53.37,255.04c-.05,5.05-4.15,9.12-9.2,9.13-5,.02-9.18-4.21-9.1-9.2.08-4.94,4.4-9.27,9.23-9.22,4.94.05,9.13,4.34,9.08,9.29Zm-9.06-7.19c-3.68,0-7.04,3.27-7.09,6.88-.05,3.9,3.14,7.28,6.91,7.3,3.86.03,7.04-3.24,7-7.17-.04-3.92-3.06-7.02-6.83-7.01Z"/><path class="cls-4" d="m127.61,304.49c8.56.07,17.12.13,25.68.2.73,0,1.47-.01,2.18.11.24.04.57.49.57.75,0,.27-.32.73-.56.78-.71.13-1.44.12-2.17.12-8.56.04-17.12.07-25.68.1-4.73-.02-9.45,0-14.18-.08-.57,0-1.14-.47-1.71-.72.57-.36,1.13-1,1.7-1.02,4.72-.15,9.45-.18,14.17-.25Z"/><path class="cls-4" d="m105.6,222.76c1.34.48,2.68.96,4.03,1.44-1.37.28-2.72.65-4.1.81-1.16.13-2.36.12-3.51-.02-.43-.05-.79-.64-1.19-.99.37-.27.72-.73,1.11-.76,1.16-.1,2.34-.04,3.52-.04.05-.15.1-.29.14-.44Z"/><path class="cls-4" d="m79.38,148.23c-.74-.99-1.52-1.61-1.6-2.31-.05-.43,1.08-1.47,1.49-1.37.68.15,1.51.92,1.67,1.58.11.45-.81,1.15-1.56,2.1Z"/><path class="cls-4" d="m105.57,107.89c-.96.81-1.56,1.71-2.05,1.65-.67-.08-1.25-.89-1.87-1.38.53-.51,1-1.34,1.59-1.44.55-.09,1.24.59,2.33,1.17Z"/><path class="cls-4" d="m117.7,170.01c-1.02.63-1.75,1.42-2.24,1.3-.61-.16-1.03-1.07-1.53-1.66.57-.43,1.15-1.23,1.7-1.2.59.03,1.14.82,2.07,1.57Z"/><path class="cls-4" d="m105.75,94.83c-1.16.77-1.81,1.52-2.51,1.56-.47.03-1-.94-1.5-1.47.54-.49,1.04-1.3,1.62-1.37.57-.07,1.24.62,2.39,1.28Z"/><path class="cls-4" d="m118,60.95c-1.04.77-1.66,1.58-2.32,1.61-.52.02-1.6-1.09-1.5-1.4.23-.71.94-1.52,1.63-1.73.42-.13,1.16.77,2.2,1.53Z"/><path class="cls-4" d="m91.29,97.05c-.78-.87-1.74-1.58-1.63-1.91.23-.67.98-1.37,1.66-1.57.33-.1,1.36.86,1.4,1.39.04.55-.74,1.15-1.42,2.09Z"/><path class="cls-4" d="m91.35,181.95c.69,1.08,1.43,1.74,1.34,2.24-.1.59-.93,1.44-1.46,1.45-.54,0-1.57-.89-1.54-1.34.04-.66.83-1.26,1.66-2.35Z"/><path class="cls-4" d="m81.6,132.6c-.87.68-1.49,1.52-1.99,1.46-.64-.08-1.19-.89-1.79-1.39.57-.57,1.06-1.44,1.72-1.6.45-.1,1.13.8,2.06,1.53Z"/><path class="cls-4" d="m117.58,184.26c-.9.73-1.48,1.55-2.06,1.55-.54,0-1.08-.88-1.62-1.37.53-.57.99-1.45,1.63-1.62.44-.11,1.14.76,2.05,1.44Z"/><path class="cls-4" d="m93.33,145.96c-.92.79-1.56,1.72-2,1.63-.7-.14-1.27-.95-1.89-1.48.58-.55,1.1-1.38,1.78-1.55.46-.11,1.15.72,2.12,1.4Z"/><path class="cls-4" d="m105.65,145.92c-.97.8-1.61,1.72-2.09,1.64-.66-.1-1.43-.87-1.7-1.54-.12-.3.86-1.48,1.33-1.48.68,0,1.37.72,2.45,1.37Z"/><path class="cls-4" d="m118,146.02c-1.1.76-1.74,1.54-2.38,1.54-.52,0-1.04-.94-1.56-1.46.58-.55,1.09-1.38,1.76-1.55.45-.11,1.14.72,2.19,1.47Z"/><path class="cls-4" d="m117.85,74.52c-1.06.71-1.7,1.45-2.38,1.48-.47.02-1.48-1.11-1.37-1.42.23-.68.96-1.47,1.62-1.63.44-.11,1.13.8,2.12,1.57Z"/><path class="cls-4" d="m81.67,74.49c-.97.72-1.67,1.59-2.15,1.49-.64-.14-1.11-1.04-1.66-1.62.55-.49,1.09-1.35,1.66-1.37.58-.02,1.18.79,2.14,1.51Z"/><path class="cls-4" d="m79.52,105.97c.73.96,1.63,1.71,1.5,2.07-.25.68-1.11,1.14-1.71,1.69-.48-.57-1.3-1.11-1.35-1.72-.04-.52.8-1.11,1.56-2.05Z"/><path class="cls-4" d="m127.56,72.72c2.17,1.15,2.31,2.31.03,3.49-2.26-1.14-1.93-2.31-.03-3.49Z"/><path class="cls-4" d="m91.72,106.4c.37.59,1.11,1.26,1,1.74-.13.57-1.14,1.46-1.51,1.35-.64-.19-1.4-.98-1.53-1.64-.14-.7.39-1.53.63-2.3.47.28.94.57,1.4.85Z"/><path class="cls-4" d="m127.56,93.4c2.04,1.11,2.23,2.22.01,3.35-1.75-1.11-2.04-2.23-.01-3.35Z"/><path class="cls-4" d="m115.64,110.3c-.71-.86-1.53-1.41-1.54-1.98,0-.54.95-1.62,1.27-1.54.7.17,1.55.81,1.76,1.46.13.4-.79,1.14-1.49,2.07Z"/><path class="cls-4" d="m103.28,130.51c.67.9,1.44,1.5,1.42,2.06-.02.54-1.04,1.54-1.33,1.45-.67-.21-1.47-.9-1.63-1.54-.11-.41.82-1.09,1.55-1.97Z"/><path class="cls-4" d="m105.42,169.83c-1.06.74-1.74,1.56-2.22,1.46-.66-.15-1.16-1-1.72-1.54.57-.48,1.11-1.27,1.73-1.33.54-.06,1.16.71,2.21,1.42Z"/><path class="cls-4" d="m91.34,167.71c.62.96,1.43,1.7,1.29,2.12-.21.62-1.1,1.01-1.71,1.5-.43-.56-1.22-1.14-1.19-1.67.03-.57.85-1.09,1.61-1.95Z"/><path class="cls-4" d="m115.45,134.72c-.66-.9-1.5-1.58-1.38-2,.19-.68.99-1.18,1.54-1.76.54.61,1.34,1.16,1.52,1.86.1.38-.87,1.03-1.67,1.9Z"/><path class="cls-4" d="m93.41,132.42c-.98.79-1.62,1.67-2.06,1.58-.69-.14-1.24-.93-1.85-1.44.53-.52,1.02-1.36,1.62-1.45.54-.09,1.2.65,2.29,1.32Z"/><path class="cls-4" d="m89.01,74.44c.92-.7,1.63-1.6,2.09-1.49.64.16,1.09,1.08,1.62,1.67-.55.47-1.11,1.32-1.67,1.32-.57,0-1.16-.81-2.04-1.5Z"/><path class="cls-4" d="m105.48,184.07c-1.05.8-1.73,1.67-2.17,1.57-.68-.16-1.2-.99-1.78-1.54.56-.47,1.08-1.24,1.69-1.32.54-.07,1.18.63,2.27,1.29Z"/><path class="cls-4" d="m105.49,74.39c-.93.74-1.51,1.57-2.06,1.55-.57-.02-1.12-.85-1.68-1.32.53-.6.98-1.48,1.64-1.69.41-.13,1.14.76,2.1,1.46Z"/><path class="cls-4" d="m127.49,130.9c2.15,1,2.5,2.11.18,3.36-2.07-1.01-2.03-2.13-.18-3.36Z"/><path class="cls-4" d="m127.59,144.3c2.26,1.1,1.98,2.25.06,3.43-1.69-1.11-2.39-2.24-.06-3.43Z"/><path class="cls-4" d="m81.85,94.94c-1.1.73-1.79,1.53-2.3,1.44-.65-.13-1.16-.98-1.73-1.53.57-.45,1.12-1.21,1.72-1.25.58-.04,1.21.66,2.32,1.34Z"/><path class="cls-4" d="m115.71,92.92c.71.92,1.61,1.69,1.47,1.98-.3.65-1.06,1.31-1.74,1.46-.35.08-1.3-.93-1.32-1.46-.01-.53.81-1.08,1.59-1.98Z"/><path class="cls-4" d="m139.44,168.17s-.01,0-.01,0c.48.89.96,1.79,1.43,2.68-.79.15-1.93.7-2.3.37-1.62-1.42-.31-2.28.88-3.06Z"/><path class="cls-4" d="m139.45,181.89c.68.99,1.52,1.72,1.39,2.15-.18.61-1.03,1.22-1.7,1.37-.3.07-1.22-.97-1.2-1.48.02-.57.78-1.11,1.51-2.04Z"/><path class="cls-4" d="m153.83,184.21c-1.08.7-1.7,1.42-2.25,1.37-.53-.05-.98-.91-1.47-1.41.51-.48.99-1.31,1.54-1.36.54-.05,1.14.69,2.18,1.4Z"/><path class="cls-4" d="m151.73,143.75c.71,1.02,1.48,1.65,1.42,2.19-.07.59-.91,1.08-1.41,1.62-.56-.57-1.4-1.06-1.57-1.73-.11-.42.78-1.1,1.55-2.08Z"/><path class="cls-4" d="m153.96,74.26c-.98.77-1.58,1.58-2.11,1.54-.59-.04-1.12-.87-1.67-1.35.49-.53.92-1.42,1.48-1.5.55-.08,1.22.65,2.3,1.31Z"/><path class="cls-4" d="m141.88,132.72c-1.06.61-1.81,1.37-2.27,1.22-.63-.2-1.04-1.09-1.55-1.69.59-.42,1.19-1.18,1.77-1.16.56.02,1.1.83,2.04,1.63Z"/><path class="cls-4" d="m151.67,130.39c.72.97,1.53,1.58,1.49,2.13-.04.56-.9,1.48-1.4,1.48-.53,0-1.44-.84-1.51-1.4-.07-.54.72-1.19,1.43-2.21Z"/><path class="cls-4" d="m139.48,148.01c-.68-.93-1.46-1.53-1.43-2.08.03-.53,1.03-1.51,1.38-1.42.67.17,1.47.88,1.65,1.52.11.39-.84,1.08-1.6,1.98Z"/><path class="cls-4" d="m139.45,76.44c-.64-.96-1.4-1.6-1.33-2.13.07-.54,1-1.4,1.48-1.35.58.05,1.48.9,1.5,1.43.02.55-.86,1.13-1.65,2.05Z"/><path class="cls-4" d="m141.93,108.13c-1.13.64-1.79,1.32-2.33,1.23-.57-.09-1.01-.91-1.51-1.41.52-.47,1.03-1.28,1.58-1.31.56-.03,1.16.72,2.27,1.49Z"/><path class="cls-4" d="m139.66,97.07c-.76-.99-1.54-1.56-1.51-2.09.03-.52.9-1.4,1.37-1.38.57.03,1.45.76,1.56,1.31.09.48-.71,1.13-1.43,2.15Z"/><path class="cls-4" d="m153.87,108.06c-1.03.66-1.66,1.38-2.18,1.31-.57-.08-1.04-.88-1.55-1.37.51-.5.98-1.36,1.53-1.41.53-.05,1.15.72,2.19,1.47Z"/><path class="cls-4" d="m149.37,94.86c1.18-.7,1.84-1.42,2.39-1.34.56.08,1.01.95,1.51,1.47-.54.47-1.06,1.26-1.63,1.31-.55.05-1.16-.69-2.27-1.44Z"/><path class="cls-3" d="m53.01,116.37v26.21h-21.25v-26.21h21.25Z"/><path class="cls-4" d="m30.52,108.95v-21.54h20.79v21.54h-20.79Z"/><path class="cls-3" d="m36.73,290.09c-3.92-.02-6.99-3.19-6.95-7.17.03-3.73,3.44-7.08,7.21-7.08,4.06,0,7.13,3.21,7.05,7.37-.08,3.8-3.37,6.9-7.31,6.88Z"/><path class="cls-3" d="m44.32,247.85c3.76,0,6.78,3.09,6.83,7.01.04,3.93-3.15,7.2-7,7.17-3.77-.02-6.97-3.4-6.91-7.3.05-3.61,3.41-6.87,7.09-6.88Z"/></g></svg>