<?xml version="1.0" encoding="UTF-8"?><svg id="Layer_2" xmlns="http://www.w3.org/2000/svg" viewBox="0 0 263.44 262.95"><g id="Layer_1-2"><path d="m263.43,132.67c.83,68.66-55.5,130.63-133.02,130.28C58.44,262.63-.73,203.73,0,130.71.69,63.49,54.89.41,130.91,0c74.92-.4,133.64,60.68,132.52,132.67Zm-132.37,123.02c68.78-.2,122.87-53.66,124.97-120.23,2.12-67.31-51.4-127.97-124.15-128.04-72.44-.07-122.78,59.23-124.25,121.25-1.7,71.46,56.17,127.15,123.43,127.02Z"/><path d="m130.91,12.29c72.76-.87,121.51,60.4,120.55,120.82-1.08,68.13-57.32,118.93-121.88,117.97-63.16-.94-117.6-52.96-117.31-120,.27-62.96,51.67-119.39,118.64-118.8Zm90.46,60.22c1.58,4.72.89,8.97.86,13.21,0,1.23.43,2.49.78,3.7.92,3.2,2.27,6.33,2.75,9.59.48,3.2.1,6.53.1,10.33,2.63-6.76,2.32-13.4,2.93-19.92,3.67,4.49,5.02,9.27,3.14,14.83-1.07,3.17-1.69,6.49-2.51,9.74.23.12.46.23.69.35,1.69-2.37,3.39-4.73,5.08-7.1,3.3-4.62,3.7-9.42,1.58-14.75-9.71-24.36-25.09-44.04-47.81-57.44-23.89-14.09-49.77-17.97-76.97-13.63-21.46,3.42-39.91,13.1-55.91,27.66-13.28,12.08-22.29,27-28.97,43.44-.93,2.29-1.67,4.88-1.59,7.31.19,5.78,3.6,10.19,7.23,14.37.05.06.25-.01.8-.06-.74-3.16-1.35-6.3-2.21-9.37-1.6-5.72.19-10.52,3.72-14.98-.09,7-.23,13.96,2.14,20.67-.57-5.08-1-10.31,1.08-15.01,2.54-5.73,3.54-11.5,3.24-17.68-.08-1.59.82-3.23,1.4-5.29,1.23,4.17,2.27,7.68,3.44,11.65,1.38-8.68,3.32-16.74,11.19-21.54l.75.29c-1.69,5.24-3.38,10.48-5.19,16.08.81-1.12,1.51-1.88,1.99-2.77,2.26-4.2,4.5-8.41,6.68-12.65,1.23-2.4,2.61-4.64,5.19-6.53-.46,3.5-.84,6.47-1.23,9.44.3.13.59.26.89.38,2.03-3.03,4.34-5.91,6.02-9.12,1.97-3.78,4.39-6.89,8.53-8.93-.78,4.42-3.12,7.84-5.03,11.52,3.11-2.88,5.93-6,8.92-8.95,3.06-3.02,6.76-5.03,10.82-6.29-1.3,8.46-7.04,12.99-14.63,15.89.15.18.3.36.45.54,2.48.2,4.95.4,7.43.61-1.28,1.21-2.67,2.26-4.22,2.67-3.36.89-6.81,1.42-10.21,2.15-1.37.29-2.71.73-4.32,1.17,6.46,2.62,12.12,1.13,17.59-1.66,10.42-5.32,21.4-8.75,33.1-9.65,3.11-.24,6.25-.04,9.44-.04v18.44c-4.92.4-8.85,2.7-12.17,6.19-3.49,3.68-4.23,8.2-4.3,13.07,8.75-1.83,22.79-2.47,34.72-.1-.25-4.24-.83-8.37-3.38-11.86-3.33-4.55-7.97-6.94-13.44-7.4v-18.47c8.9-.17,17.44,1.05,25.71,3.64,7.17,2.24,14.18,4.98,21.22,7.61,4.63,1.73,9.26,1.98,14.57.46-1.72-.59-2.91-1.13-4.15-1.39-3.54-.76-7.13-1.28-10.64-2.15-1.66-.41-3.18-1.42-4.76-2.16.08-.17.15-.35.23-.52,2.31-.19,4.63-.38,6.99-.58-3.39-2.14-6.82-3.9-9.75-6.26-3.07-2.47-3.76-6.46-4.88-10.26,3.09,1.5,6.22,2.98,8.8,5.11,3.22,2.66,5.97,5.88,8.95,8.83.58.57,1.3,1.01,1.95,1.51-2.17-3.64-4.3-7.1-5.12-11.59,4.35,2.18,7.19,5.3,8.82,9.34,1.42,3.52,4.59,5.24,7.13,8.28-.19-3.49-.34-6.42-.5-9.35.3-.11.61-.21.91-.32,1.22,2.01,2.94,3.87,3.54,6.05,1.42,5.12,4.05,9.55,6.87,13.93.44.69,1.05,1.27,1.58,1.9-1.92-5.34-4.05-10.53-4.5-16.46,8.18,5.15,11.02,12.93,12.21,21.75,1.35-3.62,2.69-7.23,4.25-11.41Zm-51.71,87.92c-1.81,0-3.76.56-4.85-.16-1.02-.68-1.84-.97-2.93-.97-19.86,0-39.72,0-59.58.02-.66,0-1.32,0-2.11,0,.12,1.11.22,1.97.34,3.03h96.25v-33.11h-35.62v26.8h8.5v4.41Zm-102.82-31.2v33.16h33.11c0-.52.06-1.12,0-1.14-1.61-.36-3.22-.65-4.76-.94v-4.39h7.99v-26.69h-36.33Zm84.96-15.87c0-3.68-.02-7.31.03-10.94,0-.35.47-.7.74-1.03.47-.57.95-1.12,1.42-1.67-.59-.5-1.12-1.09-1.78-1.46-.51-.29-1.17-.33-1.77-.47-10.42-2.47-20.93-2.59-31.48-1.18-2.84.38-5.65,1.04-8.44,1.73-.66.17-1.38.91-1.64,1.56-.14.36.65,1.06.97,1.64.2.37.43.8.43,1.2.03,3.5.02,7,.02,10.5-.14-.08-.29-.16-.43-.24l-1.53,1.82c.12.17.24.33.36.5h45.82c-.06-.62-.11-1.19-.16-1.74-.91-.08-1.65-.14-2.56-.21Zm-67.83,80.84c.63,7.63,4.78,13.1,12.6,16.56,4.05,1.79,8.26,3.24,12.4,4.83,10.36,3.98,21.01,6,31.99,3.48,6.16-1.42,12.14-3.66,18.15-5.67,4.54-1.52,8.99-3.3,12.78-6.36,3.96-3.2,6.04-7.35,6.59-12.81-6.6,6.77-13.26,12.69-21.98,16.35.13-1.33.23-2.35.35-3.64-7.87,5.17-16.37,7.33-25.36,7.42-8.98.09-17.41-2.21-25.31-7.16.15,1.34.26,2.35.41,3.68-8.88-3.86-16.03-9.58-22.64-16.68Zm-14.85-25.22h125.22v-3.39h-125.22v3.39Zm-13.88-12.72c-2.27,4.74-3.99,9.03-3.4,13.86.56,4.6,2.01,8.92,4.21,13,4.05,7.51,9.96,13.41,16.29,18.94,3.74,3.27,7.88,5.86,13.04,7.14-3.67-4.35-6.85-8.66-7.26-14.35-.26-3.55-.54-7.1-.81-10.65-.99,2.36-1.64,4.79-2.52,7.13-1.03,2.73-2.76,3.2-5.12,1.54-.56-.39-1.08-.86-1.53-1.37-8.64-9.96-13.54-21.31-12.9-35.23Zm122.97,52.79c1.36-.61,3.12-1.31,4.79-2.19,6.64-3.52,12.01-8.59,17.03-14.09,6.04-6.62,9.95-14.17,10.83-23.19.39-4.06-.83-9-3.17-11.92-.06.32-.15.58-.14.84.21,5.21-.81,10.23-2.33,15.17-2.25,7.26-5.83,13.77-11.56,18.86-3.16,2.81-5.26,2.11-6.73-1.9-.65-1.78-1.12-3.62-1.8-5.83-.57,4.68-.58,9.03-1.74,13.06-1.14,3.95-3.44,7.57-5.17,11.19Zm-8.96,28.48c-2-3.16-4.68-3.02-8.03-2.01-9.56,2.88-19.43,4.02-29.4,4.17-10.48.15-20.79-1.33-30.8-4.34-3.15-.95-4.86.12-6.56,2.45,25.08,8.49,50.02,7.95,74.79-.27Zm-37.65-116.21h0c-9.21,0-18.42-.03-27.63.04-.62,0-1.23.7-1.85,1.08.61.58,1.14,1.3,1.86,1.7.48.26,1.21.07,1.83.07,17.46,0,34.91.02,52.37.02.48,0,1.05.15,1.42-.06.55-.31,1.37-.92,1.33-1.33-.06-.54-.76-1.12-1.31-1.47-.35-.22-.94-.05-1.42-.05-8.87,0-17.73,0-26.6,0Zm12.27,113.32c.1-.17.2-.35.3-.52-3.68-3.04-7.34-6.1-11.05-9.1-.33-.27-1.13-.41-1.41-.2-4.13,3.09-8.21,6.24-12.31,9.38.1.15.2.3.3.44h24.17Zm91.68-61.33c-4.79,1.75-9.51,3.35-14.12,5.2-2.39.96-4.72,2.18-6.86,3.6-2.08,1.38-3.63,3.34-4.66,6.34,5.36-3.84,10.2-7.35,16.52-7.41.15.17.3.34.45.51-2.31,2.16-4.63,4.31-6.91,6.45,8.34-1.5,13.78-6.13,15.6-14.7Zm-182.28,15.19c.18-.19.36-.37.53-.56-1.87-2.08-3.5-4.47-5.66-6.19-5.9-4.69-13.84-4.68-20.26-8.74.71,7.31,7.31,13.59,15.78,15.05-2.68-2.28-5.64-3.91-6.88-7.29,6.53.52,11.54,4.05,16.48,7.72Zm155.28-48.29c.85,11.31,6.21,20.75,8.17,31.47,3.1-5.06,3.43-9.96,1.08-14.72-2.73-5.53-5.95-10.82-9.25-16.75Zm-92.44-12.18c-.08.67-.21,1.21-.21,1.75-.03,8.37-.07,16.75-.03,25.12.01,2.29.92,2.64,3.45,1.55v-28.42h-3.21Zm29.67.07c-.09.44-.26.9-.27,1.36-.05,8.66-.1,17.32-.06,25.98,0,.47.73,1.23,1.25,1.35,1.82.45,2.36-.51,2.34-2.26-.05-7.97-.01-15.95,0-23.92,0-2.79-.17-2.93-3.26-2.52Zm-34.62,106.34c.17.2.34.39.51.59,4.5-3.52,9.01-7.05,13.58-10.63-9.85-3.28-16.48,2.75-23.59,7.35,4.57,1.37,8.45-1.66,12.93-2.21-1.24,1.78-2.33,3.33-3.42,4.89Zm27.25-10.11c4.97,3.56,8.86,7.84,14.4,10.55-1.22-1.93-2.21-3.48-3.28-5.16,4.34.18,8.06,3.7,13.07,1.7-7.79-3.89-14.32-9.96-24.2-7.09Zm-3.21-96.23c0,1.64,0,3.2,0,4.77,0,7.34-.03,14.68-.02,22.02,0,1.84.81,2.57,2.34,1.86.58-.27,1.02-1.48,1.03-2.27.1-7.96.12-15.92.12-23.87,0-2.73-.18-2.84-3.47-2.51Zm-81.07,13.46c-1.41,2.3-2.97,4.52-4.2,6.91-2.04,3.98-4.18,7.95-5.7,12.13-1.26,3.47-.46,7.04,1.7,10.67,2.26-10.34,7.25-19.47,8.2-29.72Zm-32.32,2.18c-.36,4.42.06,8.43,3.16,11.46,3.64,3.55,7.58,6.79,11.39,10.16-.69-6.08-8.24-16.93-14.55-21.63Zm11.29-1.09c-1.05-9.9-5.68-17.45-11.67-24.72-.6,4.9-.53,9.37,2.39,13.21,2.88,3.79,5.98,7.43,9.28,11.5Zm197.35-.43c2.27-2.63,4.29-4.93,6.26-7.26,4.26-5.03,7.27-10.43,4.92-17.26-4.79,5.07-9.46,15.15-11.18,24.52Zm11.26,1.38c-4.65,3.13-13.51,15.97-14.87,21.82,3.63-3.03,7.05-5.67,10.2-8.58,3.77-3.48,5.73-7.78,4.67-13.23Zm-54.98-70.02c.27.3.38.49.54.58,6.3,3.69,12.59,7.38,18.92,11.01.42.24,1.11,0,1.67-.02-.02-.57.16-1.25-.09-1.68-5.58-9.48-10.91-11.79-21.04-9.89Zm-29.49,83.15c.07-.39.15-.65.15-.91,0-8.71-.02-17.42.02-26.13,0-1.43-.67-1.71-1.89-1.74-1.44-.03-1.47.82-1.46,1.87.02,8.51,0,17.01.02,25.52,0,.45.13.91.21,1.39h2.96Zm-31.1-14.16h-.1c0,4.18.03,8.37-.02,12.55-.01,1.19.34,1.77,1.61,1.79,1.29.02,1.84-.46,1.83-1.79-.02-8.44-.01-16.87,0-25.31,0-1.17-.2-1.92-1.68-1.93-1.53-.02-1.66.78-1.65,1.93.01,4.25,0,8.5,0,12.76Zm-19.21-14.46c0,9.2,0,18.27,0,27.33,0,1.18.55,1.5,1.65,1.5,1.82,0,1.67-1.24,1.67-2.41.01-7.97.02-15.95.02-23.92,0-2.6-.24-2.79-3.33-2.5Zm-51.79-42.5c6.9-3.91,13.57-7.69,20.68-11.71-9.76-2.64-21.67,4.22-20.68,11.71Zm98.17,133.88c10.51,1.75,19.85-1.39,29.79-4.42-10.77-2.35-20.23.07-29.79,4.42Zm-72.97-4.02c9.4,2.16,18.62,5.81,28.56,4.17-6.7-4.47-22.61-7.61-28.56-4.17Zm24.91-97.26c.12.19.24.37.36.56.47,0,.94,0,1.41,0,16.29,0,32.58.02,48.87.02.34,0,.73.08,1.02-.05.31-.13.74-.48.74-.72,0-.27-.41-.7-.7-.77-.59-.13-1.23-.06-1.85-.06-14.64,0-29.28,0-43.92,0-1.58,0-3.17-.06-4.74.06-.42.03-.8.63-1.2.96Zm93.89,84.56c7.05,4.34,18.75,3.83,21.49-.77-7.14-1.35-14.27-1.43-21.49.77Zm-3.62,21.95c-6.66-2.97-13.48-4.3-20.8-2.09,4.82,4.55,14.99,5.5,20.8,2.09Zm-126.9.21c7.4,2.56,17.14,1.6,20.25-1.96-7.01-2.22-13.69-1.91-20.25,1.96ZM219.38,96.59c.08-1.09.37-2,.16-2.78-.72-2.66-2.78-4.04-5.29-4.59-1.92-.42-3.94-.35-5.91-.52-1.97-.17-3.93-.36-6.42-.59,5.41,4.19,10.99,6.73,17.46,8.48Zm4.94,40.89c.82-7.55-4.02-13.71-10.29-17.74,1.41,7.08,4.32,13.25,10.29,17.74ZM42.78,201.81c5.55,5.29,11.33,5.21,20.76,1.09-6.91-2.47-13.75-2.15-20.76-1.09Zm6.16-82.08c-6.89,3.63-11.44,11.76-10.08,17.82,5.46-4.73,8.06-11,10.08-17.82Zm11.82-30.66c-.11-.29-.22-.58-.33-.87-3.28.21-6.57.33-9.84.64-2.3.22-4.55.98-5.73,3.11-.55,1-.28,2.44-.38,3.68.92,0,1.97.28,2.73-.07,4.55-2.08,9.04-4.31,13.55-6.49Zm126.91,128.61c7.88,4.61,15.49,3.07,19.54-4.04-6.58,1.36-12.99,2.68-19.54,4.04Zm-131.87-4.18c5.23,7.43,12.49,8.94,19.28,4.19-6.42-1.4-12.67-2.75-19.28-4.19Zm64.6-15.77c-.44,1.53-.89,3.09-1.45,5.02,1.61-1.04,2.85-1.85,4.04-2.62,1.31.85,2.52,1.64,3.72,2.42.19-.03.39-.07.58-.1-2.8-3.77-1.28-6.28,2.5-8.16-2,0-3.71.48-4.78-.14-1.07-.62-1.5-2.34-2.18-3.53q-1.91,3.74-6.26,3.61c1.39,1.27,2.58,2.36,3.82,3.49Zm39.87-13.71c-.52,1.22-1.04,2.45-1.54,3.62h-4.94c1.47,1.36,2.7,2.5,3.88,3.59-.49,1.61-.95,3.13-1.55,5.12,1.75-1.17,3.07-2.06,4.32-2.9,1.25.85,2.43,1.65,3.62,2.46.26-.01.51-.03.77-.04-3.12-3.64-1.47-6.04,1.71-8.16-3.37.61-5.83.21-6.26-3.69Zm-57.7-.61c-.86,1.84-1.14,3.51-2.09,4.13-.92.6-2.55.13-3.86.13-.13.15-.26.3-.39.45,3.87,1.72,4.04,4.5,2.17,7.86.19,0,.38,0,.57.01,1.23-.84,2.46-1.68,3.65-2.49,1.25.77,2.49,1.53,4.07,2.5-.64-1.87-1.77-3.49-1.46-4.74.35-1.37,2.03-2.4,3.13-3.59-3.39.85-5.42-.19-5.79-4.27Zm104.11-75c-.11.18-.21.37-.32.55,6.58,4.25,13.16,8.5,20.12,12.99-1.14-2.05-1.83-4.31-3.31-5.78-4.55-4.49-10.48-6.3-16.5-7.76Zm-60.55,85.74h-4.72c-.41-1.19-.81-2.34-1.2-3.5l-.54-.46c-.05,4.67-2.77,4.56-5.97,4.14,1.3,1.19,2.59,2.39,3.82,3.52-.56,1.62-1.06,3.08-1.77,5.13,1.69-1.19,2.89-2.04,4.11-2.9,1.21.8,2.44,1.62,3.97,2.64-.51-1.9-1.55-3.63-1.17-4.97.38-1.35,2.16-2.31,3.48-3.6ZM37.46,121.26c6.21-3.96,12.71-8.11,19.22-12.26-.1-.17-.19-.34-.29-.5-5.49.74-10.34,3.03-14.85,6.22-2.53,1.79-3.74,4.21-4.08,6.54Zm43.15,110.76c6.18,2.86,12.22,1.03,17.9-5.38-6.7-.5-12.06,2.98-17.9,5.38Zm146.31-42.19c-5.69,2.46-11.37,4.93-17.24,7.47,6.91,2.49,15.32-1.2,17.24-7.47Zm-44.41,42.28c-5.62-3.87-13.29-6.21-16.99-5.13,1.98,1.42,3.91,2.71,5.73,4.13,3.54,2.75,7.28,2.42,11.26,1Zm-146.22-42.3c1.89,5.45,9.79,10.32,17.25,7.41-5.7-2.45-11.22-4.82-17.25-7.41Zm171.51-61.22c.28,5.62,9.89,12.49,14.63,12.44-3.71-5.74-9.88-8.13-14.63-12.44Zm-152.75.03c-1.96,1.41-3.73,2.58-5.38,3.9-2.5,2.01-4.96,4.09-7.35,6.23-.57.51-.83,1.36-1.39,2.32,6.04-.84,12.94-6.99,14.12-12.45Zm-17.82,44.14c-4.01-3.75-7.95-7.44-11.86-11.09-.35,5.8,4.79,10.69,11.86,11.09Zm201.2-11.22c-4.05,3.7-8.09,7.4-12.28,11.22,7.07-.47,12.9-5.9,12.28-11.22Zm-29.36-63.58c1.71,3.98,4.06,7.48,7.52,10.11.38.29,1.4.21,1.77-.1.3-.26.33-1.28.06-1.71-2.25-3.68-5.46-6.34-9.35-8.3Zm-18.69,110.66c5.7,1.78,10.91,2.58,16.18.3-5.21-.48-10.34-3.94-16.18-.3ZM54.32,98.14c-.23-.22-.46-.44-.69-.67-4.04,1.98-7.01,5.13-9.26,9.01-.23.39.06,1.09.12,1.65.75-.07,1.85.15,2.19-.25,2.63-3.18,5.12-6.47,7.65-9.73Zm17.77,110.58c-4.42-2.71-9.35-2.53-15.69.45,5.28,1.78,10.37,1.25,15.69-.45Zm160.48-84.26c2.55-4.77,6.93-8.38,5.44-14.35-2.39,1.92-5.45,9.83-5.44,14.35Zm-11.23,32.36c1.36-6.38-.17-11.77-3.44-12.37-.87,4.69,2.45,8.2,3.44,12.37ZM30.52,124.64c-1.42-4.69-1.68-9.83-5.15-14.21-1.75,6.35,2.52,9.97,5.15,14.21Zm166.96,53.51c-4.91,5.66-6.48,8.82-6.07,12.13,2.67-3.68,6.79-6.37,6.07-12.13Zm-152.73-33.8c-2.83,1.1-4.47,9.81-2.64,12.96.59-4.34,4.03-8.05,2.64-12.96Zm185.06,5.42c.2.15.39.3.59.45,4.32-3.48,8.22-7.29,9.81-12.85-.19-.14-.38-.29-.57-.43-3.28,4.28-6.55,8.56-9.83,12.84Zm-158.6,40.3c-.57-4.93-2.56-8.55-5.59-12.01-1.4,5.53,2.64,8.15,5.59,12.01Zm-46.75-51.99l-.64.46c1.43,5.32,5.3,8.57,9.55,11.5l.43-.36c-3.11-3.86-6.23-7.73-9.34-11.59Z"/><path d="m132.71,43.28c4.73-.16,9.55,1.95,14.34-.84-.55,1.01-1.11,2.03-1.75,3.2.53.13,1.07.25,1.87.44-3.86,4.81-9.07,4.55-14.48,4.29v5.42c-.78.14-1.36.25-2.13.39v-15.81h1.94c.07.95.13,1.88.2,2.92Z"/><path d="m136.11,84.13c2.27,2.27,1.02,4.66,1.49,6.76-1.72-.2-2.03-1.58-1.49-6.76Z"/><path d="m127.59,90.8c.28-2.3-.45-4.53,1.09-6.81,1.2,3.2.66,6.52-1.09,6.81Z"/><path d="m133.28,90.64c-1.51-.13-1.77-1.64-1.06-6.17,1.36.13,1.69,2.06,1.06,6.17Z"/><path d="m121.38,85.08c.57,3.81.02,5.87-1.65,6.09.74-2.07-.14-4.4,1.65-6.09Z"/><path d="m143.94,85.21c1.7,1.92,1.78,4.23,1.57,6.61-1.89-1.85-.99-4.43-1.57-6.61Z"/><path d="m118.2,85.41c-.19,2.23-.23,4.49-.97,6.6-.36-.08-.72-.15-1.08-.23.44-2.15.87-4.31,1.31-6.46.25.03.49.06.74.09Z"/><path d="m140.98,85.01c.32,1.95.64,3.91.97,5.91-1.58,0-2.15-2.22-1.78-5.77l.81-.14Z"/><path d="m124.36,85c1.42,1.73,1.01,5.37-.5,6.26.18-2.26.34-4.26.5-6.26Z"/><path d="m186.49,144.34v8.19h-4.93v-8.19h4.93Z"/><path d="m164.44,140.98v-7.87h5.19v7.87h-5.19Z"/><path d="m169.57,152.67h-5.04v-8.28h5.04v8.28Z"/><path d="m186.48,140.99h-4.87v-7.93h4.87v7.93Z"/><path d="m173.2,144.24h4.68v8.28h-4.68v-8.28Z"/><path d="m189.75,144.28h4.41v8.25h-4.41v-8.25Z"/><path d="m173.15,140.99v-7.92h4.75v7.92h-4.75Z"/><path d="m194.2,141.01h-4.46v-7.95h4.46v7.95Z"/><path d="m181.44,155.79h5.09v4.54h-5.09v-4.54Z"/><path d="m194.32,160.37h-4.63v-4.65h4.63v4.65Z"/><path d="m173.09,160.32v-4.55h4.78v4.55h-4.78Z"/><path d="m74.97,152.61h-5.17v-8.16h5.17v8.16Z"/><path d="m69.78,133.06h5.23v7.93h-5.23v-7.93Z"/><path d="m91.68,144.23v8.31h-5.02v-8.31h5.02Z"/><path d="m100.11,152.67h-4.9v-8.35h4.9v8.35Z"/><path d="m91.63,141h-4.91v-7.89h4.91v7.89Z"/><path d="m95.2,133.11h4.91v7.88h-4.91v-7.88Z"/><path d="m83.06,152.61h-4.47v-8.43h4.47v8.43Z"/><path d="m83.13,140.99h-4.45v-7.94h4.45v7.94Z"/><path d="m69.64,160.3v-4.46h5.3v4.46h-5.3Z"/><path d="m86.52,155.74h5.11v4.63h-5.11v-4.63Z"/><path d="m78.41,160.38c-.51-5.21-.62-5.11,4.66-4.5v4.5h-4.66Z"/><path d="m129.28,113.33h-2.61c0-3.68-.03-7.3.05-10.91,0-.35.88-1.04,1.12-.95.55.2,1.36.78,1.37,1.22.11,3.49.06,6.98.06,10.64Z"/><path d="m139.04,113.36h-2.21v-11.74h2.21v11.74Z"/><path d="m119.25,113.34h-2.26c0-3.64-.03-7.19.05-10.74,0-.38.68-.75,1.05-1.13.39.42,1.1.84,1.11,1.28.09,3.48.05,6.97.05,10.59Z"/><path d="m134.22,113.39h-2.33v-11.73c1.45-.47,2.37-.32,2.35,1.53-.04,3.34-.01,6.68-.01,10.2Z"/><path d="m149.16,113.43h-1.96v-11.83h1.96v11.83Z"/><path d="m142.06,101.53h2.03v11.74h-2.03v-11.74Z"/><path d="m122.01,101.59h1.88v11.76h-1.88v-11.76Z"/><path d="m113.27,101.33c.43.43,1.21.85,1.22,1.28.1,3.53.06,7.07.06,10.67-1.41.39-2.11.21-2.07-1.42.08-3.34.03-6.68.03-10.02.26-.17.51-.34.77-.52Z"/></g></svg>