<?xml version="1.0" encoding="UTF-8"?><svg id="Layer_2" xmlns="http://www.w3.org/2000/svg" viewBox="0 0 328.91 346.42"><defs><style>.cls-1{fill:#698470;}</style></defs><g id="Layer_1-2"><path class="cls-1" d="m164.67,163.88c3.71-3.83,7.84-8.1,12.29-12.7-5.93-5.93-12.15-12.15-18.37-18.38-6.22-6.22-12.43-12.44-19-19.02,2.47-2.52,4.53-4.61,6.96-7.07,1.74,1.53,3.13,2.63,4.37,3.87,9.9,9.89,19.78,19.82,29.67,29.72,1.27,1.27,2.62,2.46,4.37,4.09,4.58-4.53,8.9-8.8,13.38-13.23-6.98-6.95-13.64-13.59-19.94-19.87,8.26-8.25,16.11-16.11,24.33-24.33,2.16,1.1,4.15,3.39,6.17,6.46-5.37,5.48-10.69,10.9-16.29,16.63,3.92,4.93,8.35,8.85,12.52,12.88,3.56-1.85,30.46-28.32,34.24-33.68-5.31-5.32-10.69-10.72-16.18-16.22,1.55-3.33,4.11-5.32,6.45-7.21,7.94,8.1,15.68,16.01,23.9,24.38-29.39,29.54-59.5,59.12-89.25,89.98-30.45-30.47-60.19-60.24-89.8-89.87,2.11-3.81,17.79-19.93,24.04-24.84,2.09,2.06,4.25,4.18,6.88,6.78-3.05,3.09-5.7,5.78-8.36,8.46-2.68,2.71-5.37,5.4-8.38,8.43,4.07,5.05,8.67,9.05,13.41,13.83,13.86-13.72,27.36-27.4,41.46-41.36,8.32,8.15,16.15,16.02,24,23.98-1.46,3.29-3.87,5.18-6.83,7.34-5.74-5.42-11.4-10.77-17.01-16.07-3.67,2.24-30.9,29.44-33.15,32.86,18.07,18.07,36.06,36.06,54.14,54.14Z"/><path class="cls-1" d="m98.61,266.91c5.87,2.45,7.86,7.69,9.29,13.3.94,3.71,1.94,7.41,2.84,11.13,1.12,4.65,3.8,7.99,7.89,10.44,1.86,1.11,4.38,2.03,3.99,4.95-.33.36-.55.81-.77.81-5.62.09-11.33.77-16.84.01-5.87-.8-8.92-5.51-10.26-11.02-.7-2.89-.51-5.99-1.17-8.89-.95-4.18-1.92-8.44-3.59-12.36-2.13-5.01-6.81-6.62-11.89-6.78-1.46-.04-2.95,1.04-4.68,1.71-1.24-3.74-.92-7.43-.19-11.49,6.55,2.64,12.2.7,17.4-2.9,6.56-4.53,6.59-15.65.2-20.41-4.84-3.6-15.57-5.71-22.43-4.2-.13,1.45-.41,3.06-.41,4.67-.03,17.5-.06,34.99,0,52.49.01,2.82.55,5.63.72,8.45.24,3.87,1.99,6.6,5.59,8.15,1.03.44,1.97,1.1,3.48,1.95-4.26,2.18-8.25.98-12.06,1.18-3.82.21-7.67.15-11.49.01-3.91-.14-7.9.6-12.58-.79,1.47-.96,2.27-1.69,3.22-2.06,3.63-1.4,5.6-4.08,6.17-7.82.28-1.8.48-3.63.49-5.45.03-17.83.01-35.66-.01-53.49,0-1.49-.07-3-.27-4.48-.55-4.06-2.28-7.28-6.42-8.74-.75-.26-1.41-.77-2.95-1.64,1.83-.35,2.83-.72,3.83-.72,13.16.02,26.33-.07,39.49.21,5.66.12,11.25,1.17,16.41,3.83,6.49,3.35,10.01,8.57,10.31,15.91.03.67,0,1.34.06,2,.84,9.8-3.13,16.77-12.18,20.77-.3.13-.57.35-.82.56-.12.1-.16.29-.38.69Z"/><path class="cls-1" d="m170.6,308c-.06-9.15-.2-17.59.15-26.03.04-.85.86-1.68,1.24-2.37,2.23-.3,2.8,1.27,3.62,2.46,2.18,3.15,4.2,6.41,6.52,9.45,1.6,2.11,3.46,4.06,5.42,5.85,7.86,7.15,17.03,7.5,26.7,1.62,7.72-4.7,8.8-14.75,2.28-21-2.8-2.68-6.47-4.69-10.08-6.21-3.8-1.6-8-2.23-12.01-3.32-6-1.64-11.6-4.08-16.42-8.14-6.34-5.35-9.36-12.03-8-20.34,1.47-8.99,6.53-15.17,15.2-18.13,6.61-2.26,13.38-2.48,20.19-1,1.79.39,3.56.89,5.31,1.42,4.28,1.31,8.53,3.08,12.76,0,1.61,3.72,1.81,15.35.35,20.77-1.01-.49-2.23-.7-2.77-1.42-.97-1.31-1.66-2.88-2.23-4.43-1.05-2.82-2.96-4.84-5.6-6.1-6.99-3.33-14.35-4.37-21.85-2.43-4.35,1.12-7.91,3.64-8.57,8.68-.68,5.19,1.05,9.18,6.2,11.34,6.25,2.63,12.83,4.54,19.35,6.5,5.75,1.73,11.54,3.23,16.62,6.62,6.25,4.16,9.79,9.81,9.96,17.43.11,4.87-.3,9.64-2.33,14.16-4.05,9-11.6,13.49-20.7,15.71-9.45,2.31-18.85,1.37-28.11-1.33-1.12-.33-2.24-.67-3.32-1.11-2.42-.98-4.74-1.51-6.95.55-.41.39-1.21.35-2.93.8Z"/><path class="cls-1" d="m164.56,13.87c-1.52,1.21-2.48,1.86-3.29,2.66-3.43,3.37-6.81,6.79-10.65,10.64,6.39,6.77,12.82,12.96,19.11,19.3,6.19,6.24,12.4,12.46,18.99,19.06-2.56,2.5-4.75,4.63-7.28,7.11-4.53-4.52-8.64-8.62-12.74-12.72-4.24-4.24-8.47-8.49-12.72-12.71-4.1-4.07-8.23-8.11-12.69-12.5-5.89,5.75-11.32,11.07-16.84,16.47-3.26-1.37-5.24-3.65-6.74-6.38,2.01-3.37,38.44-40.25,44.17-44.79,3.54,1.98,42.35,40.76,44.74,44.8-.92,1.03-1.85,2.17-2.89,3.22-1.04,1.04-2.18,1.98-3.65,3.3-12.5-12.48-24.84-24.79-37.51-37.45Z"/><path class="cls-1" d="m164.49,307.31c-5.59,1.32-31.6,1.12-35.7-.31,1.37-.82,2.36-1.56,3.46-2.05,3.61-1.61,5.24-4.45,5.4-8.28.06-1.5.13-3,.13-4.5,0-17.83,0-35.66,0-53.48,0-1.33-.05-2.67-.11-4-.22-4.56-2-8.02-6.66-9.48-.75-.24-1.44-.68-2.97-1.42,4.61-1.38,8.51-.65,12.33-.77,3.83-.12,7.66-.03,11.5-.03,3.95,0,7.9,0,12,.83-.49.37-.93.92-1.48,1.08-5.34,1.6-6.93,5.82-7.45,10.72-.19,1.81-.1,3.66-.1,5.49,0,16,0,31.99,0,47.99,0,1.5.02,3,.04,4.5.07,5.83,2.02,10.42,8.05,12.4.42.14.73.59,1.57,1.31Z"/><path class="cls-1" d="m233.61,306.97c1.69-.86,2.51-1.43,3.42-1.71,4.51-1.38,6.13-4.8,6.51-9.09.14-1.66.12-3.33.12-5,0-17.33,0-34.66,0-51.98,0-1.5,0-3-.12-4.5-.37-4.52-2.31-7.93-6.79-9.55-.72-.26-1.38-.72-2.36-1.25,3.87-1.11,28.23-1.37,35.92-.38-1.64.89-2.61,1.56-3.67,1.96-3.52,1.35-5.09,4.13-5.67,7.61-.22,1.3-.2,2.66-.2,3.99-.01,18.66-.01,37.32,0,55.98,0,1.33,0,2.68.18,3.99.53,3.67,2.1,6.63,5.8,8.08,1.14.45,2.19,1.13,3.61,1.89-4.26,1.52-31.73,1.57-36.74-.05Z"/><path class="cls-1" d="m35.59,307.97c-11.67.3-23.33.23-35,.09-.1-.34-.19-.68-.29-1.01.84-.59,1.61-1.44,2.55-1.71,4.32-1.27,5.95-4.55,6.54-8.56.27-1.8.23-3.65.23-5.48.01-17.48,0-34.95,0-52.43,0-1.16,0-2.33-.06-3.49-.3-4.87-2.18-8.67-7.14-10.35-.6-.2-1.13-.6-2.42-1.3,4.47-1.33,8.34-.6,12.13-.73,3.82-.13,7.65-.03,11.48-.03h11.86c.06.3.12.59.19.89-.77.44-1.49,1.02-2.31,1.29-4.4,1.47-6.17,4.78-6.51,9.11-.13,1.66-.14,3.33-.14,4.99,0,17.31,0,34.62,0,51.93,0,1.5.04,3,.07,4.49.1,4.57,1.85,8.04,6.38,9.71.9.33,1.73.88,2.59,1.33-.05.42-.1.84-.15,1.26Z"/><path class="cls-1" d="m328.91,306.96c-4.54,1.42-30.51,1.66-37.04.47,1.53-1.01,2.42-1.9,3.48-2.24,4.31-1.38,6.16-4.64,6.19-8.74.12-20.83.1-41.66,0-62.49-.02-4.01-2.21-6.88-5.94-8.5-1-.43-1.96-.95-2.75-2.14h35.79c-1.77,1.02-2.6,1.65-3.53,2.01-3.88,1.48-5.68,4.47-6.15,8.38-.22,1.81-.21,3.66-.21,5.49-.01,17.5-.01,35,0,52.5,0,1.5-.02,3.01.11,4.5.38,4.3,2.12,7.66,6.5,9.17.91.31,1.77.79,3.55,1.61Z"/><path class="cls-1" d="m265.34,267.66c-.72-4.6-1.18-8.47.38-12.4,4.97,3.4,10.39,1.83,15.51,1.83,5.1,0,10.54,1.61,15.61-1.93,1.42,3.99.98,7.96.27,12.49-5.12-3.82-10.67-2.25-15.93-2.22-5.12.03-10.57-1.69-15.83,2.23Z"/><path class="cls-1" d="m224.98,335.36c.47-2.2.99-4.38,1.38-6.59.38-2.13,1.77-2.73,3.62-2.36,1.97.4,1.96,1.93,1.65,3.52-.85,4.38-1.77,8.76-2.51,13.16-.34,2.01-1.43,2.87-3.31,3.02-1.89.16-3.19-.58-3.81-2.44-.79-2.35-1.63-4.68-2.84-8.11-.54,3.02-.88,4.99-1.26,6.96-.63,3.26-1.22,3.6-5.64,2.99.25-2.06.43-4.16.76-6.23.53-3.43,1.08-6.87,1.76-10.28.32-1.59,1.38-2.6,3.12-2.72,1.85-.13,3.28.45,3.95,2.29.82,2.28,1.6,4.58,2.39,6.87.24-.02.48-.05.72-.07Z"/><path class="cls-1" d="m175.69,344.93c.91-5.26,1.86-10.6,2.76-15.96.3-1.79,1.46-2.65,3.08-2.68,2.14-.04,4.29.29,6.43.31,4.61.05,6.63,6.09,3.55,9.34-.56.6-1.28,1.05-1.67,1.37.74,2.77,1.38,5.12,1.99,7.39-3.86,1.88-4.22,1.82-5.56-1.08-1.09-2.35-1.07-2.36-3.42-3.75q-3.26,6.51-7.16,5.06Zm11.83-12.61q-3.71-.8-3.99,2.19c1.8.53,3.04,0,3.99-2.19Z"/><path class="cls-1" d="m114.15,344.82c-4.37,1.66-4.57,1.62-5.86-1.33-.71-1.62-.98-3.61-3.37-3.66-1.04,2-1.83,4.14-3.19,5.83-.48.59-2.31.09-4.02.09,1-5.94,1.92-11.28,2.8-16.63.33-2,1.59-2.91,3.44-2.87,2.3.06,4.65.11,6.88.63,3.71.87,5.28,4.26,3.67,7.66-.55,1.15-1.58,2.07-2.55,3.29.65,2.08,1.38,4.38,2.2,6.99Zm-9.27-10.64c2.58.88,4.01.6,4.36-2.06q-2.8-.41-4.36,2.06Z"/><path class="cls-1" d="m292.29,337.9c.11-5.84,2.72-9.74,7.42-11.24,5.5-1.74,10.08,1.41,10.33,7.13.18,4.04-1.12,7.48-4.17,10.18-2.76,2.45-6.74,3.14-9.69,1.65-3.26-1.64-4.14-4.5-3.89-7.73Zm12.2-3.81c-.25-.4-.67-1.84-1.6-2.37-1.44-.82-2.84.02-3.82,1.35-1.3,1.77-1.91,5.92-.69,7,.69.62,2.22.95,3.07.63,2.5-.97,2.97-3.29,3.04-6.61Z"/><path class="cls-1" d="m121.26,345.11c.49-3.38.97-6.77,1.48-10.16.17-1.14.49-2.26.66-3.4.74-4.86,1.19-5.33,5.92-5.39,2.77-.03,5.54.13,8.3.21-.07,4.15-.45,4.61-3.49,5.02-1.68.23-3.63-.55-5.46,1.62,2.08.49,3.72.89,5.37,1.28.62,3.23.42,3.66-2.04,4.13-1.28.24-2.57.4-3.83.68-.22.05-.34.53-.67,1.09,1.48,1.39,3.37.66,5.02.86,1.58.19,3.15.42,3.05,2.44-.09,1.76-1.34,2.65-3.04,2.63-3.58-.04-7.25.78-11.27-1.01Z"/><path class="cls-1" d="m47.73,327.59c-.9,4.23-1.64,8.61-2.79,12.89-.97,3.61-3.85,5.33-7.39,5.81-4.48.62-8.02-2.41-7.72-6.92.24-3.62,1.08-7.22,1.79-10.79.35-1.74,1.7-2.45,3.39-2.14,2,.36,2.07,1.91,1.78,3.48-.45,2.45-1.01,4.87-1.49,7.32-.3,1.55-.4,3.18,1.59,3.58,1.78.36,2.89-.85,3.28-2.39.78-3.05,1.22-6.19,2.01-9.24.82-3.15,1.27-3.25,5.55-1.6Z"/><path class="cls-1" d="m82.63,327.28c-.62,4.54-1.19,8.73-1.76,12.9,3.73.58,4.44.31,5.17-2.42.68-2.55.95-5.21,1.5-7.8.65-3.08,1.2-3.4,5.31-2.99.02,5.42-.5,10.79-3.3,15.57-1.59,2.72-4.61,3.78-7.73,3.77-3.57,0-6.45-2.68-6.24-6.35.22-3.94,1.07-7.86,1.95-11.73.47-2.07,1.3-2.12,5.11-.95Z"/><path class="cls-1" d="m159.84,340.73q-1.84,5.46-6.38,4.48c.61-6.11,1.63-12.17,3.15-18.03,2.78-1.52,5.4-1.14,7.99-.63,3.86.75,5.36,2.18,5.62,5.19.31,3.65-1.48,6.53-4.93,7.66-1.72.56-3.51.87-5.46,1.34Zm3.12-9.81c-.84,1.02-1.62,1.59-1.78,2.3-.09.42,1.04,1.58,1.24,1.5.74-.31,1.54-.9,1.88-1.59.16-.33-.66-1.14-1.34-2.2Z"/><path class="cls-1" d="m15.08,333.43c2.2.63,4.15,1.19,6.07,1.73q-.58,3.8-6.41,4.7c-1.87,1.64-.59,5.21-3.59,6.04-.93.26-2.08-.28-3.53-.52.98-5.6,1.92-10.77,2.76-15.96.27-1.68,1-2.89,2.73-3.03,3.75-.31,7.52-.58,11.24.37-.67,4.24-.75,4.25-3.93,4.65-1.75.22-4-.81-5.33,2.03Z"/><path class="cls-1" d="m286.49,327.66c-.12,2.46-1.06,3.63-3.6,3.79-6,.37-7.55,2.7-6.02,9.27,1.47.08,3.13-.05,4.66.35.89.23,2.12,1.23,2.2,1.99.09.84-.75,2.16-1.56,2.64-2.9,1.73-9.79.47-11.09-4.46-1.28-4.86-.11-8.95,3.38-12.32,3.55-3.43,7.65-3.45,12.04-1.25Z"/><path class="cls-1" d="m56.92,345.48c.73-4.69,1.4-9.06,2.11-13.63-1.46-.28-2.73-.53-4.36-.84-.07-1.17-.14-2.4-.23-4.04,5.43-1.35,10.57-.99,15.77-.36.65,2.75.26,4.57-2.46,4.71-2.84.14-3.58,1.73-3.82,4.2-.24,2.47-.71,4.94-1.3,7.35-.72,2.96-1.25,3.16-5.71,2.62Z"/><path class="cls-1" d="m254.49,326.65q.1,4.16-5.31,5.37c-.69,3.46-1.42,7.15-2.18,10.84-.62,3.03-1.02,3.22-5.55,2.4.6-4.28,1.21-8.6,1.85-13.15-1.5-.47-2.86-.9-4.21-1.33-.19-.6-.44-1.05-.45-1.51-.06-1.54.74-2.71,2.21-2.84,4.57-.42,9.16-.66,13.65.21Z"/><path class="cls-1" d="m206.78,327.23c0,1.42.18,2.91-.03,4.35-.53,3.59-1.2,7.16-1.89,10.72-.64,3.31-1.4,3.74-5.71,3.01.36-2.52.71-5.07,1.1-7.61.42-2.78.76-5.57,1.36-8.31.64-2.92,1.47-3.2,5.18-2.15Z"/><path class="cls-1" d="m321.42,343.23c-1.73,1.32-2.68,2.46-3.86,2.83-1.36.43-2.74-1.28-2.51-2.8.25-1.65,1.23-2.85,2.94-2.48,1.02.22,1.85,1.28,3.43,2.45Z"/></g></svg>