<?xml version="1.0" encoding="UTF-8"?><svg id="Layer_2" xmlns="http://www.w3.org/2000/svg" viewBox="0 0 256.22 284.39"><defs><style>.cls-1{fill:#1d1d1b;}</style></defs><g id="Layer_1-2"><path d="m93.36,70.23c7.99-7.63,15.94-15.31,24-22.87,4.71-4.42,9.36-8.97,14.48-12.88,8.58-6.57,18.43-9,29.03-6.36,8.61,2.15,14.22,8.14,17.42,16.18,4.56,11.47,4.56,23.33,1.18,35-6.74,23.26-22.56,37.48-46.09,41.55-25.86,4.48-50.52-8.96-60.36-35.53-.69-1.87-1.31-3.76-1.59-5.84,2,2.41,3.89,4.93,6.03,7.22,9.25,9.92,19.14,18.95,32.55,23,27.07,8.19,54.09-8.18,60.63-33.84,1.88-7.37,2.17-14.97-.29-22.34-4.57-13.66-18.74-19.35-30.65-12.11-3.43,2.08-6.67,4.56-9.71,7.19-6.42,5.56-12.54,11.46-18.99,16.98-4.74,4.06-10.47,5.77-16.66,5.85l-.97-1.19Z"/><path d="m177.71,37.27c-7.91-8.76-17.08-15.26-27.01-20.68-21.55-11.77-47.2-6.79-62.71,12.22-6.43,7.88-9.77,17.12-9.69,27.33.05,6.59,2.03,12.71,6.62,17.7,7.06,7.68,15.7,8.31,25.05,5.4,5.58-1.74,9.82-5.54,14.05-9.36,5.67-5.11,11.34-10.23,17.13-15.2,4.13-3.54,9.05-5.55,14.68-6.27-2.17,2.87-4.3,5.77-6.51,8.6-8.34,10.69-17.93,20.21-28.95,28.01-8.98,6.36-19.33,8.69-30.36,6.18-7.03-1.6-11.75-6.37-15.76-11.98-3.77-5.28-5.35-11.39-5.86-17.69-2.25-27.89,18.39-54.19,44.27-59.94,18.41-4.09,35.25-.35,49.69,12.06,7.2,6.19,11.99,14.19,15.34,23.62Z"/><path d="m39.57,82.31c-7.09,0-14.18.02-21.27-.04-.71,0-1.41-.51-2.11-.78.72-.33,1.43-.96,2.15-.96,14.18-.07,28.35-.06,42.53-.06.62,0,1.28-.05,1.85.13.32.1.63.6.72.97.04.16-.45.6-.75.67-.52.12-1.08.06-1.63.06-7.17,0-14.33,0-21.5,0h0Z"/><path d="m188.27,81.7c1.16-.57,1.81-1.17,2.46-1.18,6.23-.08,12.45-.06,18.68-.05,7.32,0,14.63,0,21.95.03.97,0,1.94.16,2.92.24l.23.65c-.52.3-1.05.87-1.57.87-14.48.04-28.95.02-43.43,0-.14,0-.28-.12-1.24-.55Z"/><path class="cls-1" d="m2.96,172.64l5.22-33.09,12.03,26.46,12.27-26.51,4.89,33.13h-3.57l-2.96-21.81-10.67,23.12-10.53-23.12-3.1,21.81h-3.57Z"/><path class="cls-1" d="m61.9,163.81h-13.35l-3.76,8.83h-3.85l14.43-32.85,14.05,32.85h-3.85l-3.67-8.83Zm-1.36-3.29l-5.26-12.55-5.36,12.55h10.62Z"/><path class="cls-1" d="m78.86,141.3c2.12,0,5.26.14,7.61,1.74,1.83,1.22,3.43,3.62,3.43,6.96,0,4.79-3.15,8.32-7.9,8.65l9.96,14h-4.23l-9.54-13.72h-.89v13.72h-3.48v-31.35h5.03Zm-1.55,14.52h2.21c4.32,0,6.91-2.07,6.91-5.73,0-1.74-.52-3.48-2.49-4.61-1.41-.8-3.01-.89-4.51-.89h-2.11v11.23Z"/><path class="cls-1" d="m100.91,154.74l13.35-13.44h4.7l-14.66,14.62,15.13,16.73h-4.79l-12.83-14.38-.89.89v13.49h-3.48v-31.35h3.48v13.44Z"/><path class="cls-1" d="m140.39,144.59h-12.78v9.31h12.41v3.29h-12.41v12.17h12.78v3.29h-16.26v-31.35h16.26v3.29Z"/><path class="cls-1" d="m154.49,144.59v28.06h-3.48v-28.06h-7.61v-3.29h18.7v3.29h-7.61Z"/><path class="cls-1" d="m170.28,141.3v31.35h-3.48v-31.35h3.48Z"/><path class="cls-1" d="m178.36,172.64v-32.66l24.44,25.61v-24.3h3.48v32.76l-24.44-25.61v24.2h-3.48Z"/><path class="cls-1" d="m230.53,156.9h13.06v.75c0,3.48-1.03,7.24-3.01,9.92-.94,1.27-4.46,5.64-11.65,5.64-9.31,0-16.26-7.1-16.26-16.21s7-16.21,16.36-16.21c3.01,0,6.53.75,9.59,3.1,1.41,1.08,2.73,2.49,3.62,3.71l-2.58,2.35c-.89-1.27-1.93-2.4-2.96-3.24-1.5-1.22-3.85-2.63-7.61-2.63-7.57,0-12.83,5.69-12.83,12.97,0,8.55,6.81,12.88,12.74,12.88,4.18,0,7.8-2.12,9.59-5.26.56-.99,1.17-2.49,1.27-4.46h-9.3v-3.29Z"/><path class="cls-1" d="m3.22,222.64l5.22-33.09,12.03,26.46,12.27-26.51,4.89,33.13h-3.57l-2.96-21.81-10.67,23.12-10.53-23.12-3.1,21.81h-3.57Z"/><path class="cls-1" d="m72.68,213.81h-13.35l-3.76,8.83h-3.85l14.43-32.85,14.05,32.85h-3.85l-3.67-8.83Zm-1.36-3.29l-5.26-12.55-5.36,12.55h10.62Z"/><path class="cls-1" d="m108.64,197.5c-.42-.85-1.13-1.79-1.83-2.35-.61-.47-1.74-1.08-3.52-1.08-3.1,0-5.26,1.93-5.26,4.84,0,1.22.33,1.93,1.18,2.73.94.94,2.11,1.46,3.29,1.97l3.01,1.32c1.83.8,3.52,1.64,4.84,2.96,1.6,1.6,2.26,3.43,2.26,5.69,0,5.78-4.28,9.63-9.92,9.63-2.07,0-4.65-.42-6.81-2.54-1.55-1.5-2.49-3.67-2.91-5.55l3.38-.94c.23,1.65.99,3.06,1.88,4,1.36,1.36,2.91,1.74,4.51,1.74,4.28,0,6.3-3.05,6.3-6.2,0-1.41-.42-2.63-1.55-3.67-.89-.85-2.11-1.41-3.76-2.16l-2.82-1.32c-1.22-.56-2.77-1.22-4.18-2.58-1.36-1.32-2.16-2.77-2.16-5.12,0-4.84,3.71-8.08,8.79-8.08,1.93,0,3.48.38,5.03,1.41,1.27.85,2.35,2.12,3.05,3.48l-2.77,1.83Z"/><path class="cls-1" d="m135.24,194.59v28.06h-3.48v-28.06h-7.61v-3.29h18.7v3.29h-7.61Z"/><path class="cls-1" d="m174.34,194.59h-12.78v9.31h12.41v3.29h-12.41v12.17h12.78v3.29h-16.26v-31.35h16.26v3.29Z"/><path class="cls-1" d="m196.29,191.3c2.12,0,5.26.14,7.61,1.74,1.83,1.22,3.43,3.62,3.43,6.96,0,4.79-3.15,8.32-7.9,8.65l9.96,14h-4.23l-9.54-13.72h-.89v13.72h-3.48v-31.35h5.03Zm-1.55,14.52h2.21c4.32,0,6.91-2.07,6.91-5.73,0-1.74-.52-3.48-2.49-4.61-1.41-.8-3.01-.89-4.51-.89h-2.12v11.23Z"/><path class="cls-1" d="m239.39,197.5c-.42-.85-1.13-1.79-1.83-2.35-.61-.47-1.74-1.08-3.52-1.08-3.1,0-5.26,1.93-5.26,4.84,0,1.22.33,1.93,1.17,2.73.94.94,2.12,1.46,3.29,1.97l3.01,1.32c1.83.8,3.52,1.64,4.84,2.96,1.6,1.6,2.26,3.43,2.26,5.69,0,5.78-4.28,9.63-9.92,9.63-2.07,0-4.65-.42-6.81-2.54-1.55-1.5-2.49-3.67-2.91-5.55l3.38-.94c.24,1.65.99,3.06,1.88,4,1.36,1.36,2.91,1.74,4.51,1.74,4.28,0,6.3-3.05,6.3-6.2,0-1.41-.42-2.63-1.55-3.67-.89-.85-2.12-1.41-3.76-2.16l-2.82-1.32c-1.22-.56-2.77-1.22-4.18-2.58-1.36-1.32-2.16-2.77-2.16-5.12,0-4.84,3.71-8.08,8.79-8.08,1.93,0,3.48.38,5.03,1.41,1.27.85,2.35,2.12,3.05,3.48l-2.77,1.83Z"/><path class="cls-1" d="m4.58,272.64l5.22-33.09,12.03,26.46,12.27-26.51,4.89,33.13h-3.57l-2.96-21.81-10.67,23.12-10.53-23.12-3.1,21.81h-3.57Z"/><path class="cls-1" d="m51.11,256.99c0-9.35,7.28-16.21,16.31-16.21s16.31,6.86,16.31,16.21-7.24,16.21-16.31,16.21-16.31-6.91-16.31-16.21Zm3.57,0c0,7.19,5.69,12.92,12.74,12.92s12.74-5.73,12.74-12.92-5.69-12.92-12.74-12.92-12.74,5.73-12.74,12.92Z"/><path class="cls-1" d="m96.7,272.64v-32.66l24.44,25.61v-24.3h3.48v32.76l-24.44-25.61v24.2h-3.48Z"/><path class="cls-1" d="m156.58,263.81h-13.35l-3.76,8.83h-3.85l14.43-32.85,14.05,32.85h-3.85l-3.67-8.83Zm-1.36-3.29l-5.26-12.55-5.36,12.55h10.62Z"/><path class="cls-1" d="m198.08,248.21c-.99-.99-2.49-2.16-4.09-2.91-1.65-.75-3.57-1.22-5.41-1.22-7.24,0-12.59,5.83-12.59,13.07,0,8.51,6.91,12.78,12.64,12.78,2.12,0,4.18-.61,5.83-1.46,1.79-.89,3.05-2.07,3.62-2.63v4.32c-3.48,2.49-7.1,3.05-9.45,3.05-9.3,0-16.21-7.05-16.21-16.12s7-16.31,16.4-16.31c1.88,0,5.5.24,9.26,3.1v4.32Z"/><path class="cls-1" d="m209.36,256.99c0-9.35,7.29-16.21,16.31-16.21s16.31,6.86,16.31,16.21-7.24,16.21-16.31,16.21-16.31-6.91-16.31-16.21Zm3.57,0c0,7.19,5.69,12.92,12.74,12.92s12.74-5.73,12.74-12.92-5.69-12.92-12.74-12.92-12.74,5.73-12.74,12.92Z"/></g></svg>