<?xml version="1.0" encoding="UTF-8"?><svg id="Layer_2" xmlns="http://www.w3.org/2000/svg" viewBox="0 0 449.2 473.11"><defs><style>.cls-1{fill:#f2bf5d;}.cls-1,.cls-2,.cls-3,.cls-4{stroke-width:0px;}.cls-2{fill:#51a1cd;}.cls-3{fill:#f25d5d;}.cls-4{fill:#34363c;}</style></defs><g id="Layer_1-2"><path class="cls-4" d="m121.04,472.99c-3.85.03-7.7.1-11.55.1-35.33.01-70.67.02-106,.02-1.11,0-2.22,0-3.49,0v-40.96h90.41v-15.24H0v-13.21h90.35v-15.1H.01v-13.52h38.99c1.79-13.7,3.54-27.16,5.3-40.62,2.67-.09,5.34-.17,8.01-.26,8.8.03,17.61.06,26.42.09l.12.03c1.04,3.83-.39,7.03-2.2,10.34-5.1,9.35-9.96,18.82-15.3,28.98,2.62.53,4.81,1.3,7.02,1.35,7.31.16,14.63.06,22.21.06v8.15c9.98,0,19.69,0,29.41,0,.36.95,1.02,1.91,1.02,2.86.05,28.99.04,57.97.04,86.96Z"/><path class="cls-3" d="m90.64,190.78V44.58c19.78,0,39.46,0,59.14,0,.03,1.03.1,2.06.1,3.09,0,43.73.02,87.46.01,131.19,0,4.13-.07,8.25-.1,12.38-9.58.01-19.17.03-28.75.04-1.21-.08-2.42-.22-3.63-.23-8.89-.06-17.77-.1-26.66-.14l-.11-.13Z"/><path class="cls-1" d="m290.79,472.97h-54.71c0-1,0-1.99,0-2.97,0-33.32-.01-66.65-.03-99.97,0-1.03-.1-2.06-.15-3.08,0-4.44,0-8.89,0-13.47,18.68,0,36.75,0,54.82,0,.02,39.83.04,79.66.06,119.49Z"/><path class="cls-1" d="m376.58,205.23c0-5.08.02-10.16.02-15.24.1-.18.09-.36-.03-.53l-.03.03c2.51,0,5.03-.02,7.54-.02,16.18,0,32.37,0,48.55.02.92,0,1.85.15,2.77.23-.02,27.42-.04,54.84-.07,82.25,0,5.43,0,10.86,0,16.24-.51.18-.76.36-1.02.36-19.25,0-38.49,0-57.74-.01-.01-18.2-.02-36.39-.03-54.59.01-5.25.03-10.5.04-15.74v-13Z"/><path class="cls-1" d="m90.64,190.78s.11.13.11.13c-.06.46-.18.92-.18,1.38.01,16.62.01,33.24.06,49.86.03,10.7.15,21.4.23,32.1.01,5.01.03,10.03.04,15.04-.07.16-.09.33-.04.5,0,4.37,0,8.74-.01,13.11v31.39c-4.21,0-8.1,0-12,0,0,0-.12-.03-.12-.03-.5-5.37-1.27-10.74-1.41-16.12-.08-3.21-1.43-3.68-4.11-3.56-3.88.17-7.78.04-12.67.04,1.05-2.08,1.51-3.54,2.41-4.64,2.39-2.93,4.97-5.71,7.48-8.54,3.22-2.11,6.49-4.16,9.62-6.4.44-.31.22-1.53.31-2.33,2.26-2.23,4.74-4.29,6.67-6.78.7-.91.64-3.16-.02-4.19-.82-1.29-4.23-.36-5.03,1.14-1.32,2.47-2.55,4.99-3.82,7.49-.67.43-1.34.85-2,1.28-.32-.55-.68-1.07-.96-1.64-2.56-5.37-5.11-10.75-7.66-16.12.69-1.19,1.39-2.39,2.15-3.7,2.59.99,4.82,1.04,5.52-2.22.31-1.45.78-2.97.61-4.4-.69-5.7-3.49-9.07-9.14-8.76-4.44.24-6.15,3.15-5.87,8.95.16,3.21-.46,6.46-.73,9.69-3.51,1.76-6.14,4.31-7.02,8.25-.42,1.9-.67,3.88-.68,5.82-.07,15.54-.06,31.09-.07,46.63-2.67.09-5.34.17-8.01.26-3.18,0-6.36,0-9.31,0,0-5.11-.15-9.94.03-14.75.41-10.69,1-21.38,1.51-32.06.19-3.94.33-7.88.55-11.81.18-3.23,1.58-5.9,4.54-7.26,1.82-.83,2.12-1.94,2.12-3.71-.05-23.01-.03-46.02-.03-69.02,0-1.58,0-3.16,0-5.04h46.93Z"/><path class="cls-4" d="m149.79,191.25c.04-4.13.1-8.25.1-12.38,0-43.73,0-87.46-.01-131.19,0-1.03-.07-2.06-.1-3.09,0-12.09,0-24.19,0-36.47h27.09c0,.85,0,1.75,0,2.64,0,67.25-.02,134.51-.03,201.76,0,.75-.1,1.49-.15,2.24-8.89,0-17.79.02-26.68.02-.07-7.84-.15-15.69-.22-23.53Z"/><path class="cls-4" d="m176.94,367.09c-.03,24.78-.06,49.55-.08,74.33,0,10.41,0,20.82,0,31.57h-26.96c0-27.05.01-54.09,0-81.14,0-8.26-.05-16.52-.07-24.79v-49.23c8.97,0,17.68,0,26.39,0,19.26.02,38.52.05,57.78.06.73,0,1.46-.21,2.19-.31,6.36.06,12.71.12,19.07.17,9.64.08,19.27.16,28.91.23v13.09h-107.23v36.02Z"/><path class="cls-4" d="m375.92,189.79c-13.88.03-27.77.06-41.65.09.33-2.09-1.48-1.55-2.47-2.02.06-1.68.18-3.36.18-5.05.03-12.66.04-25.33.05-37.99h61.85c-.13-1.08-.23-1.96-.33-2.81-3.95.66-7.7,1.29-11.45,1.92-.08-.18-.16-.36-.24-.53,2.04-1.51,4.08-3.02,6.36-4.7-3.07-5.47-6.08-10.83-9.1-16.17-2.95-5.21-6-10.36-8.81-15.64-.62-1.17-.87-2.87-.57-4.16,1.41-6.09,3.07-12.13,4.64-18.19,8.84.07,17.68.14,26.52.2.06,2.06.16,4.12.16,6.17.03,15.1.04,30.21.04,45.31,0,1.47-.13,2.95-.2,4.6-2.03.11-3.78.21-5.72.31-.07,1.19-.13,2.28-.23,3.8,15,0,29.87,0,44.74,0,0,11.22,0,22.43,0,33.84-1.79,0-3.1,0-4.4,0-18.59,0-37.19.04-55.78-.02-2.16,0-3.08.54-2.94,2.84.16,2.62-.01,5.26-.04,7.89,0,0,.03-.03.03-.03-.22.11-.43.22-.65.33Z"/><path class="cls-2" d="m292.5,233.99c-.03-5.22-.05-10.44-.08-15.66,13.22,0,26.44-.01,39.66-.02-.02,5.21-.03,10.42-.05,15.64-.01,18.24-.03,36.49-.04,54.73-.04,17.56-.09,35.11-.11,52.67,0,3.09.09,6.19.14,9.28-7.48.02-14.96.11-22.44,0-2.04-.03-3,.56-2.85,2.64-4.69.1-9.37.21-14.06.32-.04-1.87-.11-3.74-.12-5.62-.05-12.46-.08-24.92-.12-37.38,0-2.6-.01-5.2-.02-7.8.03-4.53.06-9.05.08-13.58,0-18.41,0-36.81,0-55.22Z"/><path class="cls-2" d="m176.94,367.09v-36.02h107.23c0-4.57,0-8.83,0-13.09,2.09,0,4.19-.02,6.28-.03-.03,2.7-.12,5.4-.09,8.1.1,9.14.24,18.28.37,27.43h-54.82c0,4.58,0,9.02,0,13.47-19.65.05-39.31.1-58.96.15Z"/><path class="cls-2" d="m149.82,367.06c.03,8.26.07,16.52.07,24.79,0,27.05,0,54.09,0,81.14-9.62,0-19.23,0-28.85,0,0-28.99.01-57.97-.04-86.96,0-.95-.67-1.91-1.02-2.86.32-.87.91-1.73.93-2.6.1-4.37.04-8.75.04-13.51h28.87Z"/><path class="cls-1" d="m292.5,233.99c0,18.41,0,36.81,0,55.22-1.59-.02-3.18-.05-4.78-.06-17.23-.02-34.47-.04-51.7-.05,0-4.89,0-9.78,0-14.67,0-4.05.02-8.09.03-12.14h20.13c-2.58-9.82-5.01-19.04-7.43-28.25,14.59-.02,29.17-.03,43.76-.05Z"/><path class="cls-3" d="m331.99,288.68c.01-18.24.03-36.49.04-54.73,14.84,0,29.68.01,44.52.02.01,18.2.02,36.39.03,54.59-14.86.04-29.73.08-44.59.12Z"/><path class="cls-4" d="m236.02,289.11c17.23.02,34.47.03,51.7.05,1.59,0,3.18.04,4.78.06-.03,4.53-.06,9.05-.08,13.58-18.74.02-37.49.05-56.23.07-1.49-.07-2.99-.21-4.48-.21-16.91,0-33.82.02-50.73.03-1.21,0-2.42,0-3.84,0v-13.27h47.43v-15.04h-47.52v-13.17h26.98c1.22.33,2.43.92,3.65.93,9.46.12,18.91.12,28.37.16,0,4.05-.02,8.09-.03,12.14h-5.61c-.36,2.35-.7,4.37-.97,6.4-.46,3.46,2.88,7.63,6.58,8.27Z"/><path class="cls-4" d="m328.04,189.87h-49.75v-12.99h17.09c-.47-1.69-.9-3.07-1.23-4.48-.21-.88-.38-1.78-.39-2.68-.03-8.06-.02-16.13-.02-24.71-2.51,0-5.11-.02-7.71.02-.42,0-.92.17-1.24.44-2.12,1.79-6.39,1.52-8-.59-.15-.2.07-.7.12-1.05,2.4-1.32,3.55-2.89,2.76-5.99-1.49-5.91-2.44-11.96-3.62-18.01,1.14-.31,2.01-.54,2.89-.78,1.8,5.58,3.6,11.15,5.66,17.54,3.12-4.05,5.87-7.63,8.63-11.21,5.83,1.11,11.67,2.19,17.49,3.36,3.1.62,6.16,1.48,9.27,2.08,2.41.46,3.49,1.46,2.51,4.01-1.23,3.19-2.33,6.42-3.64,10.05,3.5,0,6.9,0,10.3,0,.24.94.67,1.88.68,2.83.05,6.28,0,12.55,0,18.83.02,7.11.08,14.23.12,21.34-.65.67-1.3,1.34-1.95,2.01Zm-9.84-13.01v-31.04c-4.89,8.38-9.82,16.84-14.91,25.57,2.18,1.12,4.6,2.35,7.01,3.58-.05.19-.11.37-.16.56-4.56-.43-9.13-.87-13.66-1.3v2.5c.49.05.85.12,1.22.12,6.66,0,13.33,0,20.5,0Z"/><path class="cls-2" d="m90.86,274.26c-.08-10.7-.19-21.4-.23-32.1-.05-16.62-.05-33.24-.06-49.86,0-.46.12-.92.18-1.38,8.89.04,17.77.08,26.66.14,1.21,0,2.42.15,3.63.23-.02,23.27-.05,46.55-.07,69.82-7.15,0-14.3,0-21.88,0v12.9c-2.75.09-5.49.17-8.24.26Z"/><path class="cls-2" d="m236.04,262.3c-9.46-.04-18.92-.05-28.37-.16-1.22-.02-2.44-.61-3.65-.93.54-.75,1.32-1.43,1.57-2.27,2.09-6.78,4.08-13.59,6.1-20.39,4.16-13.73,8.31-27.47,12.47-41.2,2.88-2.26,5.76-4.52,8.64-6.79,1.48,1.31,2.96,2.61,4.44,3.92.21.19.42.39.63.58l-.06-.07c.43,1.92.75,3.88,1.29,5.77,3.18,11.1,6.42,22.19,9.64,33.29,2.43,9.22,4.85,18.44,7.43,28.25h-20.13Z"/><path class="cls-1" d="m331.94,392.63c-.03,5.01-.05,10.01-.08,15.02-4.94,0-9.89,0-14.84,0v13.08h5.85v30.48c2.77,0,5.28-.07,7.78.04.77.04,1.52.6,2.27.93-.79.4-1.57,1.13-2.37,1.14-11.56.09-23.11.08-34.67.11-1.02,0-2.03.15-3.05.24-.09-1.01-.28-2.02-.26-3.03.11-9.33.31-18.65.38-27.98.07-9.81.02-19.62.02-29.51,1.12-.16,2.2-.31,3.28-.47,11.89-.02,23.79-.04,35.68-.05Zm-24.54,59.04c4.61-.02,8.51-3.81,8.52-8.29,0-4.81-3.98-8.68-8.88-8.6-4.54.07-8.06,3.71-8.1,8.37-.05,4.9,3.57,8.53,8.46,8.52Z"/><path class="cls-3" d="m400.91,84.75c-8.84-.07-17.68-.14-26.52-.2.68-8.9,1.37-17.8,2.05-26.7,2.59-2.54,5.41-4.9,7.7-7.69,1.91-2.33,4.08-5.02,4.56-7.81.86-5.02.64-10.24.62-15.37,0-.9-1.22-1.79-1.88-2.69-.79.78-2.1,1.45-2.29,2.36-.82,3.93-1.82,7.92-1.81,11.89.01,5.43-2.08,9.31-6.5,12.16.33-5.95.65-11.91,1-17.86.09-1.59.27-3.17.35-4.75.29-6.13,2.38-8.88,8.26-10.8,2.39-.09,4.79-.19,7.18-.28,7.11,3.21,9.78,9.26,10.63,16.5,0,16.98-.01,33.97-.02,50.95-1.12.1-2.23.21-3.35.31Z"/><path class="cls-4" d="m331.94,392.63c-11.89.02-23.79.04-35.68.05-1.17-.11-2.34-.22-3.56-.34v-12.87h122.01v13.02c-1.07,0-2.07,0-3.07,0-25.63,0-51.26,0-76.89.02-.94,0-1.87.08-2.81.12Z"/><path class="cls-4" d="m306.73,353.28c-.15-2.07.8-2.67,2.85-2.64,7.48.1,14.96.01,22.44,0,27.48,0,54.97,0,82.64,0v13.53c-.72,0-1.35,0-1.99,0-33.41-.05-66.83-.09-100.24-.15-1.78,0-3.55-.15-5.33-.23-.12-3.5-.24-7-.37-10.5Z"/><path class="cls-4" d="m332.07,218.32c-13.22,0-26.44.01-39.66.02-7.96,0-15.93,0-24.02,0v-13.1c36.1,0,72.14,0,108.19,0,0,4.33,0,8.66,0,13-14.84.03-29.67.06-44.51.09Z"/><path class="cls-2" d="m376.54,189.49c.03-2.63.2-5.27.04-7.89-.14-2.31.78-2.85,2.94-2.84,18.59.06,37.19.03,55.78.02,1.31,0,2.61,0,4.4,0,0-11.4,0-22.62,0-33.84,3.09,0,6.19,0,9.49,0v44.78c-4.5,0-9.15,0-13.8,0-.92-.08-1.85-.23-2.77-.24-16.18-.02-32.37-.02-48.55-.02-2.51,0-5.03.01-7.54.02Z"/><path class="cls-4" d="m322.88,420.73h-5.85v-13.08c4.95,0,9.89,0,14.84,0,21.51.02,43.01.04,64.52.06.92,0,1.83,0,2.94,0v12.92c-1.03,0-2.11,0-3.19,0-23.1,0-46.21,0-69.31,0-1.31,0-2.63.07-3.94.1Z"/><path class="cls-1" d="m278.95,119.04c-.87.24-1.75.47-2.89.78,1.18,6.05,2.13,12.1,3.62,18.01.78,3.11-.36,4.68-2.76,5.99-3.63-3.33-7.32-6.6-10.87-10.01-4.18-4-5.44-8.9-2.95-14.12,3.22-6.76,6.65-13.45,10.54-19.84,2.85-4.68,6.6-8.82,9.94-13.2,2.2.07,4.4.15,6.6.22,2.63,4.54,5.28,9.08,7.88,13.64.5.88.8,1.88,1.2,2.82-4.17,2.17-8.33,4.35-12.49,6.52-.96.71-2.12,1.25-2.83,2.15-1.77,2.26-3.34,4.68-4.99,7.03Z"/><path class="cls-1" d="m236.18,302.86c18.75-.02,37.49-.05,56.23-.07,0,2.6.01,5.2.02,7.8-1.53-.75-1.65.15-1.68,1.35-.05,2-.2,4-.31,6.01-2.09,0-4.19.02-6.28.03-9.64-.08-19.27-.15-28.91-.23-6.36-.05-12.72-.11-19.07-.17,0-4.9,0-9.81,0-14.71Z"/><path class="cls-2" d="m150.02,214.78c8.89,0,17.79-.02,26.68-.02,0,5.9,0,11.79,0,17.86h-26.68v-17.84Z"/><path class="cls-4" d="m404.26,84.44c0-16.98,0-33.97.02-50.95.43.01.86.03,1.29.04,0,0,0,.11,0,.11l.04-.11c2.85.34,3.85,2.33,4.23,4.83,1.5,9.8,3,19.61,4.47,29.42.82,5.45,1.58,10.92,2.4,16.66h-12.45Z"/><path class="cls-3" d="m232.8,190.55c-2.88,2.26-5.76,4.52-8.64,6.79-1.26.17-2.53.34-3.79.51,0-3.62.02-7.24-.02-10.86-.01-1-.2-2-.32-3,.27-1.07.56-2.13.83-3.2.75-2.98.98-6.25,2.39-8.88,1.86-3.49,3.57-8.03,9.2-6.6,2.56,5.27,5.05,10.59,7.74,15.79.96,1.85.4,2.84-1.05,3.93-.94.7-1.66,1.68-2.48,2.54-1.28,1-2.57,1.99-3.85,2.99Z"/><path class="cls-4" d="m286.77,109.86c4.16-2.17,8.33-4.35,12.49-6.52.23.4.46.81.93,1.63,4.34-6.11,10.68-10.4,13.43-17.66.74-1.94,2.57-3.47,4.06-5.39,2.01,3.52,2.07,5.62-.69,7.56-4.19,2.96-5.13,6.33-3.13,10.88,1.48,3.39.65,6.03-2.41,8.39-2.72,2.11-4.91,4.88-7.37,7.32-4.93,4.88-8.52,4.89-13.44.09-.54-.52-1.04-1.08-1.55-1.62-.77-1.56-1.55-3.12-2.32-4.68Z"/><path class="cls-4" d="m90.84,302.91c0-4.37,0-8.74.01-13.11.5-.04,1-.09,1.5-.13h28.59v13.24h-30.11Z"/><path class="cls-4" d="m232.45,165.3c-5.63-1.42-7.34,3.12-9.2,6.6-1.41,2.63-1.63,5.9-2.39,8.88-.27,1.07-.55,2.13-.83,3.2-.11-.61-.36-1.23-.33-1.84.35-7.67.72-15.34,1.15-23.01.19-3.33,1.68-4.47,6.18-4.8-.07-.78-.15-1.57-.2-2.35-.23-3.59,1.04-5.96,3.79-7.12,2.91-1.22,6.71-.46,8.84,1.76,2.13,2.22,2.81,6.29,1.68,9.16-.65,1.66-.97,3.47-1.66,5.11-.25.6-1.35,1.42-1.74,1.28-3.14-1.14-4.13,1.07-5.28,3.13Z"/><path class="cls-3" d="m290.45,317.95c.11-2,.26-4,.31-6.01.03-1.2.15-2.1,1.68-1.35.04,12.46.07,24.92.12,37.38,0,1.87.08,3.74.11,5.62,0,6.04,0,12.09,0,18.13.01,2.58.02,5.16.04,7.74,0,4.25,0,8.49,0,12.87,1.21.12,2.39.23,3.56.34-1.08.15-2.17.31-3.29.47,0,9.89.05,19.7-.02,29.51-.06,9.33-.27,18.65-.38,27.98-.01,1.01.17,2.02.26,3.03-.03.74-.06,1.48-.08,2.22,0,0,0,.13,0,.13-.01,1.28-.02,2.56-.03,3.83-.01,3.73-.02,7.46-.04,11.2.31,1.59-.21,2.34-1.92,1.93-.02-39.83-.04-79.66-.06-119.49-.13-9.14-.27-18.28-.37-27.43-.03-2.7.06-5.4.09-8.1Z"/><path class="cls-1" d="m195.92,170.54c0-27.33,0-54.65,0-81.98,0-1.69-.06-3.39.08-5.07.05-.57.62-1.1.95-1.64.3.58.84,1.15.86,1.74.09,4.51.08,9.01.08,13.52.04,52.4.08,104.8.12,157.2,0,1.31.07,2.64-.09,3.94-.06.48-.66.89-1.02,1.33-.31-.47-.88-.94-.9-1.42-.09-3.28-.07-6.57-.07-9.86,0-25.92,0-51.84,0-77.75h0Z"/><path class="cls-4" d="m99.09,274v-12.9c7.58,0,14.73,0,21.88,0,0,4.38,0,8.75,0,12.9h-21.88Z"/><path class="cls-4" d="m376.86,50.68c4.42-2.85,6.51-6.73,6.5-12.16,0-3.97.99-7.96,1.81-11.89.19-.91,1.5-1.58,2.29-2.36.66.9,1.87,1.79,1.88,2.69.02,5.14.24,10.36-.62,15.37-.48,2.8-2.65,5.49-4.56,7.81-2.29,2.79-5.11,5.14-7.7,7.69-2.22,1.68-4.3,3.63-6.72,4.96-1.86,1.03-4.14,1.38-6.27,1.8-.45.09-1.1-.8-1.45-1.51-1.24-1.35-3.49,1.3-5.05-1.59,3.45-.42,6.49-.75,9.51-1.18.88-.13,1.99-.28,2.54-.86,2.7-2.85,5.24-5.84,7.84-8.78Z"/><path class="cls-2" d="m329.99,187.86c-.04-7.11-.1-14.23-.12-21.34-.02-6.28.04-12.55,0-18.83,0-.94-.44-1.89-.68-2.83.21-.58.59-1.15.59-1.73.03-18.2.03-36.4.02-54.61,0-.37-.08-.74-.13-1.1-.75-.31-1.46-.61-2.27-.94,2.05-1.74,5.98-1.69,7.42.09-.95.19-1.81.35-2.78.55,0,19.27,0,38.49,0,57.71-.01,12.66-.02,25.33-.05,37.99,0,1.68-.12,3.36-.18,5.05-.6,0-1.2,0-1.81,0Z"/><path class="cls-4" d="m290.18,86.88c-2.2-.07-4.4-.15-6.6-.22,1.27-2.63,2.41-4.98-.5-7.65-2.12-1.95-1.72-5.86-.04-8.07,1.77-2.33,5.79-3.1,9.31-1.8,2.97,1.1,4.89,3.66,4.69,6.63-.19,2.71-.64,5.41-1.03,8.51-3.14-.96-5.2-.41-5.83,2.6Z"/><path class="cls-2" d="m341.68,50.07c4.67.03,8.29,3.54,8.32,8.07.03,4.6-3.8,8.32-8.49,8.25-4.42-.07-8.16-3.72-8.18-8-.03-4.76,3.58-8.35,8.35-8.32Z"/><path class="cls-1" d="m220.37,197.85c1.26-.17,2.53-.34,3.79-.51-4.16,13.73-8.31,27.47-12.47,41.2-2.21-.24-4.41-.48-6.95-.75,1.86-4.62,3.73-9.17,5.52-13.75,3.4-8.72,6.74-17.46,10.11-26.19Z"/><path class="cls-3" d="m286.77,109.86c.77,1.56,1.55,3.12,2.32,4.68,1.38,3.61,2.76,7.22,4.15,10.82-2.75,3.58-5.51,7.16-8.63,11.21-2.06-6.39-3.86-11.96-5.66-17.54,1.65-2.35,3.22-4.77,4.99-7.03.71-.9,1.87-1.44,2.83-2.15Z"/><path class="cls-4" d="m393.65,16.98c-2.4.1-4.79.19-7.18.28-5.12-2.43-5.03-7.06-4.88-11.68.08-2.39,1.32-4.09,3.49-4.98,2.66-1.09,5.24-.71,7.34,1.24,1.74,1.62,2.52,3.71,1.71,6.13-.15.44-.23.96-.52,1.29-2.28,2.6-1.43,5.15.04,7.72Z"/><path class="cls-1" d="m292.67,371.73c0-6.04,0-12.09,0-18.13,4.69-.11,9.37-.21,14.06-.32.12,3.5.24,7,.37,10.5-4.64,0-9.29,0-14.43,0v7.94Z"/><path class="cls-4" d="m232.8,190.55c1.28-.99,2.57-1.99,3.85-2.99,3.69,3.73,7.31,7.52,11.11,11.14.83.8,2.27.95,3.39,1.46.51.23.95.62,1.42.94-.52.36-1.13,1.11-1.54,1.01-1.83-.44-3.77-.85-5.37-1.78-2.74-1.58-5.25-3.55-7.86-5.35,0,0,.06.07.06.07-.21-.19-.42-.39-.63-.58-1.48-1.31-2.96-2.61-4.44-3.92Z"/><path class="cls-3" d="m329.99,187.86c.6,0,1.21,0,1.81,0,.99.47,2.81-.07,2.47,2.02-2.08,0-4.15,0-6.23,0,.65-.67,1.3-1.34,1.95-2.01Z"/><path class="cls-1" d="m292.7,471.04c.01-3.73.02-7.47.04-11.2-.01,3.74-.02,7.47-.04,11.2Z"/><path class="cls-2" d="m92.35,289.67c-.5.04-1,.09-1.5.13-.04-.17-.03-.34.04-.5.49.12.97.24,1.46.37Z"/><path class="cls-2" d="m375.92,189.79c.22-.11.43-.22.65-.33.12.17.13.34.03.53-.23-.07-.45-.13-.68-.2Z"/><polygon class="cls-3" points="405.61 33.54 405.56 33.64 405.57 33.53 405.61 33.42 405.61 33.54"/><polygon class="cls-1" points="292.77 456.01 292.76 455.88 292.87 455.94 292.77 456.01"/><path class="cls-3" d="m67.53,273.92c2.55,5.37,5.1,10.75,7.66,16.12.27.57.64,1.1.96,1.64-1.2,1.53-2.17,4.04-3.66,4.4-3.27.8-6.8.53-10.56.71v-12.23h-5.07c0,4.17-.1,8.11.03,12.04.13,3.75,2.53,5.81,6.25,5.55,2.43-.17,4.85-.46,7.27-.7-2.5,2.84-5.08,5.61-7.48,8.54-.9,1.1-1.35,2.56-2.41,4.64,4.89,0,8.79.13,12.67-.04,2.68-.12,4.03.34,4.11,3.56.13,5.38.9,10.75,1.41,16.12-8.81-.03-17.61-.06-26.42-.09.02-15.54,0-31.09.08-46.63,0-1.94.25-3.92.68-5.82.88-3.94,3.51-6.49,7.02-8.25,2.49.15,4.97.29,7.46.44Z"/><path class="cls-4" d="m67.53,273.92c-2.49-.15-4.97-.29-7.46-.44.27-3.23.89-6.48.73-9.69-.28-5.8,1.43-8.71,5.87-8.95,5.64-.31,8.45,3.07,9.14,8.76.17,1.42-.3,2.95-.61,4.4-.7,3.26-2.93,3.21-5.52,2.22-.76,1.31-1.45,2.5-2.15,3.7Z"/><path class="cls-4" d="m70.42,301.46c-2.42.24-4.84.53-7.27.7-3.72.26-6.12-1.8-6.25-5.55-.13-3.93-.03-7.87-.03-12.04h5.07v12.23c3.76-.18,7.29.1,10.56-.71,1.49-.37,2.45-2.87,3.66-4.4.67-.43,1.34-.85,2-1.28.73.78,1.47,1.56,2.2,2.33-.09.8.13,2.02-.31,2.33-3.13,2.24-6.4,4.29-9.62,6.4Z"/><path class="cls-3" d="m80.35,292.73c-.73-.78-1.47-1.55-2.2-2.33,1.27-2.5,2.5-5.02,3.82-7.5.8-1.51,4.21-2.43,5.03-1.14.66,1.03.72,3.28.02,4.19-1.93,2.49-4.41,4.55-6.67,6.78Z"/><path class="cls-4" d="m307.4,451.66c-4.89.02-8.5-3.62-8.46-8.52.04-4.66,3.56-8.3,8.1-8.37,4.9-.08,8.89,3.79,8.88,8.6,0,4.48-3.91,8.27-8.52,8.29Z"/></g></svg>