<?xml version="1.0" encoding="UTF-8"?><svg id="Layer_2" xmlns="http://www.w3.org/2000/svg" viewBox="0 0 456.3 451.82"><defs><style>.cls-1{fill:#f2bf5d;}.cls-1,.cls-2,.cls-3,.cls-4{stroke-width:0px;}.cls-2{fill:#51a1cd;}.cls-3{fill:#f25d5d;}.cls-4{fill:#34363c;}</style></defs><g id="Layer_1-2"><path class="cls-4" d="m421.45,420.62c.42.02.85.04,1.27.05.39,0,.78,0,1.18-.01h32.38v31.14c-89.4,0-178.79,0-268.17,0-.22-1.57-.45-3.14-.67-4.71.17-.56.34-1.11.51-1.67.02-3.23.03-6.46.05-9.7-.02-5.3-.04-10.61-.06-15.91v-31.65h-37.36c0-.23,0-.46,0-.68h37.54v-17.16c.19,1.02.54,2.05.54,3.07.04,14.73.06,29.46-.01,44.19-.01,2.08.49,2.81,2.71,2.8,19.07-.1,38.13-.07,57.2-.08.87.14,1.75.39,2.62.39,24.24.02,48.49,0,72.73,0,.77,0,1.54-.1,2.44-.17,0-2.66,0-5.1,0-7.53-.02-14.37-.04-28.75-.06-43.12l.1-27.25v-19.33h41.01c-.23-.4-.32-.64-.48-.81-13.2-13.13-26.39-26.29-39.68-39.33-1-.98-2.79-1.62-4.21-1.64-13.75-.11-27.49-.05-41.24-.05-12.23-.02-24.46-.05-36.69-.07-.09-.69-.18-1.38-.28-2.07.08-3.32.23-6.64.22-9.97-.02-10.44-.11-20.88-.17-31.31,0-.69-.01-1.39-.02-2.08,0,0,0-.16,0-.16.11-.91.22-1.82.33-2.72,4.24.06,8.47.19,12.71.18,7.85-.03,15.69-.15,23.54-.23.98.08,1.96.22,2.94.22,13.56.07,27.11.13,40.67.18v35.91h6.86v8.27h9.1v8.82h9.11v8.72h9.54v8.88h9.25v8.96h9.73v7.37c1.2.17,2.07.3,2.95.42.08.78.15,1.57.25,2.57h74.47v9.09c-11.74,0-23.37,0-35.01,0h-43.38v88.18h43.53Zm-80.28-88.24h-13.47v10.48c.02,9.35.05,18.7.07,28.05v49.85h5.31c7.83-.14,15.67-.37,23.5-.37,2.2,0,2.73-.7,2.72-2.79-.08-13.46-.04-26.91-.04-40.37,0-5.82,0-5.76-5.83-5.84-3.66-.05-7.32-.29-10.98-.44h25.92c0-9.24.03-18.07-.09-26.89,0-.44-1.32-.87-2.02-1.31,1.95-.8,2.45-2.29,2.23-4.28-.14-1.24-.1-2.52,0-3.77.13-1.67-.36-2.42-2.22-2.4-8.36.1-16.72.07-25.08.09Z"/><path class="cls-3" d="m169.05,236.45c.05,3.79.04,7.58.18,11.37.03.9.3,2.04.9,2.64,12.35,12.56,24.77,25.06,37.18,37.56.12.12.3.18.46.28.08,3.81.16,7.62.23,11.43-12.83,0-25.65,0-38.65,0,0,3.31,0,6.27,0,9.23-3.18,2.23-5.86,4.91-6.68,8.84-.42,2.01-1.41,2.28-3.18,2.26-9.66-.08-19.32-.04-28.98-.04v-20.3h-34.57c0-1.21,0-2.1,0-2.99-.05-14.2-.1-28.39-.16-42.59,0-.41.01-.82.02-1.23,0-5.35,0-10.7,0-16.05.54-.03,1.08-.09,1.62-.09,22.74,0,45.48,0,68.22-.01.98,0,1.95-.15,2.93-.24,0,0,.25,0,.25,0,0,0,.24-.09.24-.09Z"/><path class="cls-4" d="m19.86,178.49c9.16-.05,18.32-.11,27.48-.16,2.29,0,4.58.02,6.87.03.42.01.84.03,1.25.04,0,0,.09.1.09.1l.1-.1h15.95V42.8c12.81,0,25.36,0,37.91,0,0,20.99,0,41.98.02,62.98,0,1.79.17,3.58.27,5.38v30.31c4.82,0,9.59,0,14.35,0,5.59,0,6.49.88,6.52,6.38.02,3.6,0,7.2,0,10.78,1.44.22,2.51.39,3.59.56-.01.22-.03.45-.04.67h-4.58c0-4.65.06-9.3-.03-13.95-.04-2.24-1.32-3.47-3.64-3.47-5.32,0-10.64,0-16.25,0v45.24H0v-9.19h19.86Z"/><path class="cls-2" d="m333.23,186.48c.17.22.33.45.5.67-13.9.03-27.8.08-41.69.08-3.51,0-7.03-.12-10.54-.18-.04-11.19-.05-22.39-.11-33.58-.08-14.09-.21-28.18-.32-42.27,11.18-.02,22.36-.07,33.55-.06,6.22,0,12.44.09,18.66.14,0,25.11.01,50.22.02,75.32,0,0-.04-.12-.04-.12Z"/><path class="cls-2" d="m422.31,266.44c-10.26.04-20.53.09-30.79.13-3.24.01-6.48.02-9.73.03,0-3.52,0-7.04,0-10.91h-31.3v-21.75c.06-.17.09-.34.09-.52.18-1.14.51-2.29.5-3.43-.08-12.38-.23-24.76-.32-37.14,0-1.25.22-2.5.34-3.76h30.85v10.14c.01,7.59.03,15.18.04,22.78.5.24,1,.69,1.5.69,12.86.02,25.72-.02,38.58-.04.06.98.18,1.97.18,2.95.03,13.61.04,27.21.05,40.82Z"/><path class="cls-3" d="m421.45,420.62h-43.53v-88.18h43.38c0,28.95,0,57.89,0,86.84,0,.45.1.9.16,1.34Z"/><path class="cls-3" d="m109.79,111.15c-.09-1.79-.27-3.58-.27-5.38-.02-20.99-.02-41.99-.02-62.98,14.93-1.03,29.06,1.01,41.16,10.77,9.27,7.48,15.33,17.03,17.72,28.69.86,4.17.96,8.52,1.11,12.8.18,5.22.04,10.46.04,16.08h-59.74Z"/><path class="cls-4" d="m422.08,222.67c-12.86.02-25.72.06-38.58.04-.5,0-1-.45-1.5-.69,12.58,0,25.16-.03,37.74.07,2.08.02,2.61-.68,2.58-2.66-.11-5.88-.12-11.77,0-17.65.04-2.03-.58-2.63-2.62-2.62-12.58.09-25.16.06-37.74.08v-10.14c-10.54,0-20.7,0-30.85,0-5.63-.02-11.26-.05-16.9-.07-17.74.01-35.48.03-53.22.04-23.4-.01-46.8-.02-70.2-.02-.15,0-.29.19-.4.27v32.89h8.02c0,.28,0,.55,0,.83h-8.5v129.84h-.73c0-.87,0-1.73,0-2.6.01-15.84.05-31.68,0-47.52,0-1.01-.77-2.02-1.18-3.02-.08-3.81-.16-7.62-.24-11.43.07-2.44.19-4.88.19-7.31.01-18.28,0-36.56,0-54.83,0-.9,0-1.8,0-3.12h-6c0-.24,0-.48.01-.73h5.85v-33.27h-78.35c.83-.99,1.11-1.62,1.54-1.76.66-.21,1.43-.08,2.15-.08,23.44,0,46.87,0,70.31.01,1.44,0,2.88,0,4.6,0v-8.74c3.68,0,7.09,0,10.49,0,1.8.07,3.59.15,5.39.22,0,2.07.1,4.15-.01,6.22-.09,1.71.43,2.44,2.27,2.38,3.24-.12,6.49-.09,9.73,0,1.62.04,2.22-.49,2.23-2.16,0-2.01.33-4.03.52-6.04l.08,7.19c.16.32.32.64.48.97,3.19-.01,6.38-.03,9.57-.04,10.89-.05,21.78-.1,32.67-.15,3.51.06,7.03.18,10.54.18,13.9,0,27.8-.05,41.69-.08,15.52,0,31.05,0,46.8,0,0-5.75-.03-11.42.02-17.09.01-1.14.32-2.28.49-3.43l.61.77v19.79h74.65v79.23h-17.71c0-13.71-.06-27.42.02-41.13.01-2.12-.57-2.84-2.74-2.75-4.59.18-9.2.11-13.8.14Z"/><path class="cls-4" d="m333.25,111.28c-6.22-.05-12.44-.14-18.66-.14-11.18,0-22.36.04-33.55.06-21.3-.02-42.6-.03-63.89-.06-2.8,0-5.59-.05-8.39-.08l-.53-.4c-.08-6.6-.23-13.2-.24-19.8-.03-30.04-.01-60.08-.01-90.15,2.19-1.04,2.26.25,2.26,1.77,0,13.84,0,27.69.01,41.53,0,18.1,0,36.2.01,54.29,0,.98,0,1.95,0,3.08h9.54v-34.16c.29,0,.57-.01.86-.02v34.17h8.27c.11-.3.23-.45.23-.61-.01-24.15-.04-48.3-.07-72.44,0-.62-.16-1.24-.24-1.86.18-1.42.49-2.84.51-4.26.06-4.97-.02-9.94.07-14.91.02-.98.59-1.95.91-2.92.13.02.19.09.18.22-.02,7.09-.04,14.17-.06,21.26-.11,1.34-.33,2.67-.33,4.01-.01,21.08,0,42.16.01,63.24,0,2.7,0,5.39,0,8.33h7.94c.37,0,.75,0,1.12,0,2.71.02,5.43.05,8.14.07.36-.04.73-.08,1.09-.12,2.6,0,5.21,0,8.04,0V.44c.35,0,.69-.01,1.04-.02.08,11.03.02,22.06.04,33.08.01,11.31.01,22.63.02,33.94,0,11.22,0,22.44,0,33.87h7.03V.63c.22-.18.43-.37.65-.55.51.54,1.3,1.02,1.46,1.65.25,1.03.09,2.16.09,3.24,0,21.09-.01,42.18-.02,63.27,0,1.17,0,2.33,0,3.73,4.83,0,9.51,0,14.18,0,13.74.03,27.49.07,41.23.07,3.7,0,7.4-.12,11.11-.18,14.56.05,29.13.13,43.69.15,22.71.02,45.42,0,68.13,0,1.04,0,2.07,0,3.11,0,0,.23,0,.46,0,.69h-106.92v26.85c-.27,0-.54,0-.8,0v-26.51c-2.34,0-4.29,0-6.24,0-.19.01-.38.03-.58.04,0,0,.02.12.02.12-17.23-.03-34.46-.06-51.69-.09-.17,0-.34.1-.52.16h-6.77v28.09h6.78c17.39.03,34.78.06,52.17.09,2.32-.23,4.65-.62,6.97-.64,1.71-.02,3.42.66,5.13.66,26.07.04,52.14.02,78.21,0,.62,0,1.24,0,2.11,0v9.63c-.92,0-1.8,0-2.69,0-28.78,0-57.57,0-86.35,0-1.26,0-2.53.1-3.79.16Zm-66.34-9.89h6.73v-28.14h-6.73v28.14Z"/><path class="cls-4" d="m168.56,236.53c-.98.08-1.95.24-2.93.24-22.74.01-45.48,0-68.22.01-.54,0-1.08.06-1.62.09-16.03,0-32.07,0-48.32,0,0,5.56,0,10.79,0,16.01,0,.45,0,.9.01,1.35v166.34c2.09,0,3.97,0,5.85,0,14.21-.05,28.42-.1,42.63-.15,4.66.04,9.32.08,13.98.12.39,0,.78,0,1.17,0,5.76.09,11.52.18,17.28.27.23.16.47.32.7.48,2.53,2.74,5.07,5.46,7.55,8.23.22.25.1.8.14,1.21-1.57-.15-3.14-.42-4.71-.43-27.95-.02-55.9,0-83.85,0-.89,0-1.79,0-2.96,0,0-1.04,0-1.91,0-2.79,0-33.1,0-66.21-.02-99.31,0-.9-.05-1.81-.07-2.71,0-8.53,0-17.06,0-25.68H.13v-9.77h18.34v-61.4c-9.02-3.66-12.58-9.17-10.68-16.6,1.45-5.68,7.67-10.02,13.33-9.31,7.06.88,11.91,6.07,11.95,12.8.04,6.8-5.09,11.92-13.32,13.19v61.13h25.42v-55.1c16.67,0,33.09,0,49.52,0,.18,0,.35,0,.53,0,.23-.07.46-.15.69-.22.13.11.29.19.46.23,3.56.02,7.13.04,10.69.06.34-.1.69-.2,1.03-.3.25.05.51.11.76.16,2.84.14,5.69.4,8.53.38,4.02-.02,8.03-.24,12.04-.38.31-.06.62-.13.93-.19l.79.2c.97.12,1.93.34,2.9.34,10.65.03,21.31.02,31.96.05,1.06,0,2.53-.52,2.56,1.43Z"/><path class="cls-2" d="m280.99,189.07c17.74-.01,35.48-.03,53.22-.04-.31,1.04-.88,2.08-.88,3.13-.09,13.59-.1,27.19-.14,40.78-.64.55-1.83,1.09-1.84,1.65-.14,5.86-.08,11.73-.08,17.15,1.42.76,2.75,1.15,3.65,2,13,12.43,25.93,24.93,38.92,37.38,2.52,2.41,5.19,4.65,7.79,6.97-.01,7.57-.02,15.13-.04,22.7-.88-.13-1.76-.25-2.95-.42v-7.37h-9.73v-8.96h-9.25v-8.88h-9.54v-8.72h-9.11v-8.82h-9.1v-8.27h-6.86v-35.91l-.04.04c.77-.07,1.55-.14,2.57-.24v-26.4c-.12-.13-.25-.26-.37-.38-.53-.02-1.07-.04-1.6-.06-1.1,0-2.2,0-3.3-.01-1.62-.02-3.24-.06-4.86-.06-12.15-.06-24.3-.11-36.44-.16,0-5.69,0-11.39,0-17.08Zm98.06,118.29c-.1-2.58-44.29-45.57-47.68-47.11.19.94.09,1.96.54,2.39,15.68,14.94,31.41,29.82,47.14,44.72Z"/><path class="cls-2" d="m382.76,2.48h44.29v31.4c2.49-3.87,5-6.54,8.74-7.52,3.64-.96,7.18-.6,10.45,1.38,5.29,3.22,7.46,9.82,5.15,15.62-2.23,5.6-8.8,9.11-14.6,7.79-7.06-1.61-10.5-7.4-10-16.89h-22.4v6h-21.64V2.48Z"/><path class="cls-2" d="m333.31,71.85c-3.7.06-7.4.18-11.11.18-13.74,0-27.49-.05-41.23-.07.06-9.59.11-19.18.2-28.77.06-6.04-.84-5.2,5.11-5.22,14.76-.04,29.51.04,44.27-.07,2.38-.02,3.1.62,3.06,3.04-.21,10.3-.22,20.61-.3,30.92Z"/><path class="cls-2" d="m333.67,101.45c-17.39-.03-34.78-.06-52.17-.09,0-9.36,0-18.73,0-28.09.17-.06.34-.16.52-.16,17.23.02,34.46.05,51.69.09-.01,9.42-.02,18.84-.03,28.26Z"/><path class="cls-2" d="m136.79,430.71c-.04-.41.08-.96-.14-1.21-2.49-2.77-5.03-5.49-7.55-8.23-.23-.16-.47-.32-.7-.48-5.76-.09-11.52-.18-17.28-.27.05-3.43-.1-6.87.19-10.27.47-5.48,5.54-11,10.83-11.65,2.74-.34,5.57.02,8.36.06v21.6h4.87c.38,0,.75,0,1.13,0,4,0,8.01,0,12.01,0,.36,0,.73,0,1.09,0,3.79,0,7.58,0,11.37,0,.36,0,.72.01,1.08.02.59.06,1.19.13,1.78.19,1.16,1.62,2.18,3.38,3.51,4.85,6.65,7.3,13.38,14.52,20.09,21.78.22,1.57.45,3.14.67,4.71-10.84,0-21.68,0-32.52.01-.11-.5-.05-1.14-.35-1.47-5.75-6.43-11.54-12.81-17.33-19.21-.33-.14-.66-.28-.99-.43h-.14Z"/><path class="cls-4" d="m350.5,233.94v21.75h31.3c0,3.88,0,7.4,0,10.91-.08,9.59-.17,19.17-.25,28.76-.99-.52-2.15-.86-2.93-1.6-4.61-4.32-9.16-8.71-13.69-13.11-7.71-7.49-15.38-15.02-23.1-22.5-2.14-2.07-4.47-3.94-6.57-6.04-.73-.72-1.43-1.86-1.46-2.82-.16-4.42-.13-8.86-.02-13.29.02-.87.68-1.73,1.04-2.59,5.07,0,10.14,0,15.21,0,.16.17.33.34.49.52Z"/><path class="cls-3" d="m.13,299.8h45.06c0,8.61,0,17.14,0,25.68-12.93-.05-25.86-.09-38.79-.14-1.98,0-3.96,0-6.26,0v-25.54Z"/><path class="cls-3" d="m96.36,234.77c-.17-.04-.32-.12-.46-.23,0-9.12,0-18.23,0-27.58h73.25c0,4.93,0,9.94,0,14.95,0,0,.08.13.08.13,0,0-.1.11-.1.11-9.01,0-18.03,0-26.98,0-2.07-11.71-9.98-15.86-19.2-10.37h-14.87v22.75c-.34.1-.69.2-1.03.3-3.56-.02-7.13-.04-10.69-.05Z"/><path class="cls-3" d="m238.77,186.27c-.03-2.4-.05-4.79-.08-7.19-.37-.17-.74-.49-1.11-.49-4.54,0-9.08.06-13.63.1-1.8-.07-3.59-.15-5.39-.22,0-8.49,0-16.99,0-25.71h29.52c.05.66.15,1.36.15,2.05.02,9.95.02,19.9.07,29.85,0,.84.35,1.69.52,2.53-3.2.01-6.39.03-9.58.04-.16-.32-.32-.64-.48-.97Z"/><path class="cls-4" d="m381.65,167.4l-.61-.77c.8-2.23,2.58-2.8,4.71-2.8,6.15,0,12.29,0,18.39,0,4.24-10.28,10.95-14.39,19.46-11.98,7.43,2.1,11.94,9.07,10.72,16.58-1.24,7.64-7.97,12.76-16.27,12.37-7.6-.35-13.24-6.69-13.86-15.79-6.47,0-12.96-.11-19.44.11-1.06.03-2.07,1.48-3.1,2.28Z"/><path class="cls-4" d="m422.08,222.67c4.6-.03,9.2.04,13.8-.14,2.17-.09,2.75.63,2.74,2.75-.08,13.71-.03,27.42-.02,41.13-5.42,0-10.85.02-16.28.03-.02-13.61-.03-27.21-.05-40.82,0-.98-.12-1.97-.18-2.95Z"/><path class="cls-1" d="m54.21,178.36c-2.29,0-4.58-.02-6.87-.03,0-15.91,0-31.83,0-48.05h-5.27v-15.54h11.97c0,1.38,0,2.63,0,3.87,0,18.92.01,37.84.03,56.76,0,.99.09,1.99.14,2.98Z"/><path class="cls-3" d="m131.14,234.71c-.26-.07-.53-.14-.79-.2-.06-.72-.12-1.43-.19-2.15,4.73-.58,8.88-2.27,10.69-7.04.77-2.03,1.89-2.17,3.63-2.17,8.22,0,16.43-.08,24.65-.13l.03.22c-.04,3.91-.08,7.83-.12,11.74-.34-.1-.69-.29-1.03-.29-12.29,0-24.58.02-36.87.03Z"/><path class="cls-4" d="m239.21,101.41c-.37,0-.75,0-1.12,0V18.19c-1.74,3.49-3.82,6.4-7.62,7.65.02-7.09.04-14.17.06-21.26,3.82.87,5.53,3.94,7.59,6.97V.13c.35,0,.7,0,1.05-.01.03,8.32.08,16.65.09,24.97.02,8.51,0,17.02,0,25.53,0,8.42,0,16.84-.01,25.26,0,8.51-.03,17.02-.04,25.53Z"/><path class="cls-4" d="m230.35,4.37c-.32.97-.89,1.94-.91,2.92-.09,4.97,0,9.94-.07,14.91-.02,1.42-.33,2.84-.51,4.26-2.67.25-5.34.5-8.01.75-.33-.25-.67-.49-1-.74-.34-4.96-2.77-9.54-2.11-14.74.55-4.32,3.44-7.61,7.91-7.73,1.12-.03,2.23-.23,3.34-.35.32,0,.65-.01.97-.02.13.24.26.48.38.73Z"/><path class="cls-4" d="m334.8,233.42c-.36.86-1.02,1.72-1.04,2.59-.11,4.43-.14,8.86.02,13.29.03.97.74,2.1,1.46,2.82,2.1,2.1,4.43,3.97,6.57,6.04,7.72,7.48,15.39,15.01,23.1,22.5,4.53,4.4,9.08,8.79,13.69,13.11.79.74,1.95,1.08,2.93,1.6.03.91.05,1.82.08,2.72-2.6-2.32-5.28-4.56-7.79-6.97-12.98-12.45-25.91-24.95-38.92-37.38-.89-.85-2.22-1.24-3.65-2,0-5.42-.05-11.29.08-17.15.01-.56,1.2-1.1,1.84-1.65.54.16,1.08.32,1.61.49Z"/><path class="cls-4" d="m174.55,207.36c3.48-.02,6.95-.04,10.43-.07-.21.83-.6,1.66-.61,2.5-.07,3.34-.09,6.69-.01,10.03.04,1.58-.41,2.33-2.13,2.25-2.61-.13-5.24-.1-7.85-.14.04-1.05.08-2.1.13-3.15.02-3.81.04-7.61.05-11.42Z"/><path class="cls-4" d="m184.33,235.56c-3.08-.01-6.17-.02-9.25-.03,0-1.9,0-3.8,0-5.7,0-7.04,0-6.99,7.1-6.78,1.63.05,2.26.53,2.21,2.19-.1,3.44-.04,6.87-.05,10.31Z"/><path class="cls-4" d="m448.2,61.92h-81.94c0-.19,0-.38,0-.57h81.98c-.01.19-.02.38-.03.57Z"/><path class="cls-4" d="m248.3,16.66c.05.53.15,1.07.15,1.6,0,27.09-.01,54.17-.02,81.26,0,.45-.05.9-.08,1.35-.25,0-.49-.01-.74-.02-.06-.72-.17-1.44-.17-2.15,0-26.88,0-53.76.02-80.64,0-.45.07-.9.1-1.35.25-.02.49-.03.74-.05Z"/><path class="cls-4" d="m184.33,235.56c0-3.44-.05-6.88.05-10.31.05-1.67-.58-2.15-2.21-2.19-7.11-.21-7.11-.26-7.1,6.78,0,1.9,0,3.8,0,5.7-.2-.66-.56-1.32-.59-1.99-.09-2.67.02-5.35-.15-8.01-.06-1.04-.65-2.06-1.08-3.31.03,0,.57-.15,1.11-.29,2.62.04,5.24,0,7.85.14,1.72.09,2.17-.67,2.13-2.25-.08-3.34-.06-6.69.01-10.03.02-.84.4-1.66.61-2.5.09,2.97.25,5.94.27,8.91.04,5.78.04,11.56-.04,17.33,0,.68-.58,1.35-.89,2.03Z"/><path class="cls-4" d="m19.86,178.49h-1.37c.02-11.18.05-22.37.07-33.56,0-.94,0-1.88,0-2.81.33,0,.67,0,1,0,.1,12.12.2,24.24.29,36.37Z"/><path class="cls-4" d="m137.92,431.14c5.78,6.4,11.57,12.79,17.33,19.21.29.33.24.97.35,1.47-.32-.13-.73-.17-.94-.4-5.98-6.7-11.94-13.43-17.9-20.15.39-.04.78-.08,1.16-.13Z"/><path class="cls-4" d="m219.85,26.48c.33.25.67.49,1,.74-.06,8.8-.12,17.6-.18,26.39-.29,0-.58-.01-.87-.02.02-9.04.03-18.08.05-27.12Z"/><path class="cls-4" d="m131.14,234.71c12.29-.02,24.58-.03,36.87-.03.34,0,.69.19,1.03.29,0,.5,0,.99,0,1.48,0,0-.24.09-.24.09,0,0-.25,0-.25,0-.03-1.94-1.5-1.42-2.56-1.43-10.65-.03-21.31-.02-31.96-.05-.97,0-1.93-.22-2.9-.34Z"/><path class="cls-4" d="m248.3,16.66c-.25.02-.49.03-.74.05V.54c1.07,1.2,1.41,8.49.74,16.11Z"/><path class="cls-4" d="m219.8,53.59c.29,0,.58.01.87.02,0,4.53,0,9.06,0,13.6-.29,0-.57.01-.86.02,0-4.54-.01-9.09-.02-13.63Z"/><path class="cls-4" d="m174.55,207.36c-.02,3.81-.04,7.61-.05,11.42.02-3.81.04-7.61.05-11.42Z"/><path class="cls-4" d="m229.97,3.64c-.32,0-.65.01-.97.02.13-1.1.27-2.19.4-3.29l.22.04.22-.02c.04,1.08.08,2.16.13,3.24Z"/><path class="cls-4" d="m169.65,222.12c.94,0,1.89,0,2.83,0,0,.23-.01.46-.02.68-.46-.05-.92-.1-1.38-.15-.48-.18-.95-.36-1.43-.54Z"/><path class="cls-4" d="m247.61,100.85l.74.02c.1.15.14.31.1.49-.36.04-.73.08-1.09.12.08-.21.17-.42.25-.63Z"/><path class="cls-3" d="m423.9,420.66c-.4,0-.79,0-1.18.01.4,0,.79,0,1.18-.01Z"/><path class="cls-4" d="m169.65,222.12c.48.18.95.36,1.43.54-.64.19-1.28.39-1.91.58,0,0-.03-.22-.03-.22,0-.29,0-.58,0-.87l.1-.11s-.08-.13-.08-.13c.17.06.34.13.5.21Z"/><path class="cls-1" d="m55.65,178.41l-.1.1s-.09-.1-.09-.1c.06,0,.12,0,.18,0Z"/><path class="cls-4" d="m333.68,73.08c.19-.01.38-.03.58-.04-.19.01-.38.03-.58.04Z"/><path class="cls-4" d="m208.24,110.66l.53.4-.53-.4Z"/><path class="cls-4" d="m333.23,186.48s.04.12.04.12c0,0-.04-.12-.04-.12Z"/><path class="cls-4" d="m229.84.39l-.22.02-.22-.04c.08-.12.17-.25.25-.37.06.13.13.26.19.39Z"/><path class="cls-4" d="m95.22,234.76c-.18,0-.35,0-.53,0,.18,0,.35,0,.53,0Z"/><path class="cls-4" d="m137.92,431.14c-.39.04-.78.08-1.16.13.06-.18.12-.37.18-.55.33.14.66.28.99.43Z"/><path class="cls-4" d="m188.1,370.33c.71-.18,1.43-.51,2.14-.51,22.93-.02,45.87-.02,68.8.01.64,0,1.27.32,1.9.49-.19.84-.54,1.69-.55,2.53-.04,6.33,0,12.67,0,19.01-.23.35-.46.71-.69,1.06-1.27,1.38-2.64,2.67-3.78,4.15-5.27,6.84-6.96,14.84-7.41,23.23-19.07.01-38.13-.01-57.2.08-2.22.01-2.72-.72-2.71-2.8.07-14.73.05-29.46.01-44.19,0-1.02-.35-2.05-.54-3.07Z"/><path class="cls-1" d="m244.73,328.96h-26.23c0-1.12,0-2.09,0-3.06,0-33.39,0-66.78,0-100.16,0-.9-.06-1.81-.09-2.71,0-.28,0-.55,0-.83,0-5.09,0-10.19,0-15.41h26.44c.09.18.18.35.27.53-.02.22-.04.44-.05.66,0,4.75-.01,9.51-.02,14.26.05.33.09.65.14.98-.04.18-.08.36-.11.54,0,2.85.02,5.7.03,8.54l.07.77c-.11.91-.22,1.82-.33,2.72,0,0-.11.08-.11.08l.11.08c0,.69.01,1.39.02,2.08-.02,13.76-.03,27.52-.05,41.29.09.69.18,1.38.28,2.07-.13,1.34-.38,2.68-.38,4.02-.02,14.52,0,29.03.02,43.55Z"/><path class="cls-3" d="m248.54,420.29c.44-8.39,2.14-16.39,7.41-23.23,1.14-1.48,2.51-2.77,3.78-4.15,12.35.09,24.71.21,37.07.19.53,0,1.51-1.18,1.52-1.82.08-5.23-.02-10.46-.07-15.69.07-1.56.15-3.12.22-4.68,8.36,0,16.72.02,25.08-.07.92,0,1.83-.64,2.74-.98.02,14.37.04,28.75.06,43.12,0,2.43,0,4.87,0,7.53-.9.06-1.67.17-2.44.17-24.24.01-48.49.02-72.73,0-.87,0-1.75-.25-2.62-.39Z"/><path class="cls-3" d="m244.73,328.96c-.01-14.52-.04-29.03-.02-43.55,0-1.34.25-2.68.38-4.02,12.23.02,24.46.05,36.69.07-.05,14.05-.09,28.11-.17,42.16-.01,1.87-.23,3.73-.36,5.6-4.8.01-9.6.02-14.41.03-6.39-.06-12.77-.12-19.16-.18-.99-.01-1.97-.07-2.96-.11Z"/><path class="cls-1" d="m366.26,342.74c.7.44,2.02.86,2.02,1.31.12,8.83.09,17.65.09,26.89h-25.92c-.4,0-.8-.01-1.19-.02h-13.48c-.02-9.36-.05-18.71-.07-28.06,4.5-.07,9-.15,13.5-.22,7.31.04,14.62.09,21.93.13,1.04-.01,2.08-.02,3.12-.03Z"/><path class="cls-4" d="m341.25,370.92c.4,0,.8.01,1.19.02,3.66.15,7.32.4,10.98.44,5.83.08,5.83.02,5.83,5.84,0,13.46-.04,26.91.04,40.37.01,2.09-.52,2.79-2.72,2.79-7.83,0-15.67.23-23.5.37,2.66-.15,5.31-.3,8.17-.46v-49.37Z"/><path class="cls-1" d="m326.28,369.86c-.91.34-1.82.97-2.74.98-8.36.08-16.72.06-25.08.07-.08-2.23-.16-4.47-.24-6.7.03-7.08.07-14.16.1-21.24.6-.16,1.21-.45,1.81-.45,8.75,0,17.5.05,26.26.08-.03,9.08-.07,18.17-.1,27.25Z"/><path class="cls-3" d="m341.25,370.92v49.37c-2.85.16-5.51.31-8.17.46-1.7,0-3.4,0-5.31,0,0-16.82,0-33.34,0-49.85,4.49,0,8.99,0,13.48,0Z"/><path class="cls-2" d="m325.03,233.42c-13.56-.06-27.11-.11-40.67-.18-.98,0-1.96-.15-2.94-.22.02-3.24.04-6.49.06-9.73,1.08-.05,2.16-.13,3.24-.13,13.47-.03,26.94-.05,40.41-.08-.05,3.46-.1,6.92-.15,10.39l.04-.04Z"/><path class="cls-4" d="m366.26,342.74c-1.04.01-2.08.02-3.12.03-.91-.23-1.81-.66-2.72-.67-6.38-.06-12.76-.03-19.13-.02-.04-3.23-.08-6.46-.12-9.69,8.36-.02,16.72,0,25.08-.09,1.86-.02,2.35.73,2.22,2.4-.1,1.25-.13,2.53,0,3.77.23,1.98-.28,3.48-2.23,4.28Z"/><path class="cls-2" d="m165.05,420.75c3.1-.17,6.21-.34,9.31-.51,4.54,5.16,9.09,10.33,13.63,15.49-.02,3.23-.03,6.46-.05,9.7-.26-.07-.61-.04-.76-.21-7.39-8.15-14.76-16.31-22.13-24.47Z"/><path class="cls-4" d="m188,435.73c-4.54-5.16-9.09-10.33-13.63-15.49,0,0,.17.05.17.05.33.01.66.02.98.03,3.49.02,6.98.08,10.46.04.65,0,1.31-.36,1.96-.55.02,5.3.04,10.61.06,15.91Z"/><path class="cls-4" d="m165.05,420.75c7.37,8.16,14.74,16.33,22.13,24.47.15.16.5.14.76.21-.17.56-.34,1.11-.51,1.67-6.7-7.25-13.44-14.47-20.09-21.78-1.34-1.47-2.35-3.22-3.51-4.85.41.09.81.18,1.22.27Z"/><path class="cls-3" d="m244.82,279.32c.02-13.76.03-27.53.05-41.29.06,10.44.15,20.88.17,31.32,0,3.32-.14,6.64-.22,9.97Z"/><polygon class="cls-3" points="244.85 235.96 244.73 235.87 244.85 235.79 244.85 235.96"/><path class="cls-4" d="m130.53,321.27c0-.42-.01-.83-.02-1.25,9.66,0,19.32-.04,28.98.04,1.78.01,2.77-.25,3.18-2.26.82-3.92,3.5-6.61,6.68-8.84,1.93-.42,3.84-1.1,5.78-1.21,5.94-.34,10.32,2.43,12.93,7.62,2.56,5.07,1.82,10.06-1.82,14.4-3.78,4.51-8.71,5.85-14.39,4.43-.87-.22-1.71-.53-2.57-.8-4.22-2.9-6.92-6.76-7.23-12.13h-31.52Z"/><path class="cls-4" d="m47.48,252.87c13.75.01,27.51.02,41.26.03,2.35,0,4.71,0,7.06,0,0,.41-.01.82-.02,1.23-16.1.02-32.19.05-48.29.07,0-.45,0-.9-.01-1.35Z"/><path class="cls-4" d="m381.95,199.24c12.58-.01,25.16.02,37.74-.08,2.03-.02,2.66.59,2.62,2.62-.12,5.88-.11,11.77,0,17.65.04,1.98-.49,2.68-2.58,2.66-12.58-.1-25.16-.06-37.74-.07-.01-7.59-.03-15.18-.04-22.78Z"/><path class="cls-4" d="m350.01,233.42c.19,0,.38,0,.57,0,0,.18-.03.35-.09.52-.16-.17-.33-.34-.49-.52Z"/><path class="cls-4" d="m223.95,178.7c4.54-.04,9.08-.1,13.63-.1.37,0,.74.32,1.11.49-.19,2.01-.52,4.03-.52,6.04,0,1.67-.61,2.21-2.23,2.16-3.24-.09-6.49-.11-9.73,0-1.83.07-2.36-.67-2.27-2.38.11-2.07.02-4.14.01-6.22Z"/><path class="cls-4" d="m238.77,186.27c.16.32.32.64.48.97-.16-.32-.32-.64-.48-.97Z"/><path class="cls-2" d="m95.96,420.41c0-14.91,0-29.81.01-44.72,11.47.01,22.93.03,34.4.04,0,7.07.02,14.15.03,21.22-1.98.1-3.96.16-5.93.3-8.58.61-14.22,6.54-14.43,15.16-.07,2.7-.07,5.41-.11,8.11-4.66-.04-9.32-.08-13.98-.12Z"/><path class="cls-4" d="m109.94,420.53c.03-2.7.04-5.41.11-8.11.21-8.62,5.86-14.54,14.43-15.16,1.97-.14,3.95-.2,5.93-.3,5.96.12,11.94.1,17.9.4,7.43.37,13.65,7.05,13.77,14.51.04,2.8-.01,5.61-.02,8.41-.36,0-.72-.01-1.08-.02-.01-2.89.04-5.78-.04-8.66-.17-6.23-5.44-12.13-11.33-12.72v21.39c-.36,0-.73,0-1.09,0,0-7.3,0-14.61,0-22.01h-12.01v22.02c-.38,0-.75,0-1.13,0,0-7.19,0-14.37,0-21.6h-4.87c-2.79-.04-5.62-.4-8.36-.06-5.29.65-10.36,6.17-10.83,11.65-.29,3.4-.14,6.85-.19,10.27-.39,0-.78,0-1.17,0Z"/><path class="cls-4" d="m108.85,234.69c6.86,0,13.72,0,20.58,0-4.02.14-8.03.36-12.05.38-2.84.01-5.69-.25-8.53-.38Z"/><path class="cls-4" d="m96.36,234.77c3.57.02,7.13.04,10.69.05-3.57-.02-7.13-.04-10.69-.05Z"/><path class="cls-4" d="m128.39,420.8c.23.16.47.32.7.48-.23-.16-.47-.32-.7-.48Z"/><path class="cls-4" d="m379.05,307.36c-15.73-14.89-31.46-29.78-47.14-44.72-.45-.43-.34-1.45-.54-2.39,3.39,1.54,47.58,44.53,47.68,47.11Z"/><path class="cls-4" d="m244.86,206.79c.92-.19,1.85-.54,2.77-.54,11.12-.06,22.24-.08,33.36-.1,12.15.05,24.3.1,36.44.16,1.62,0,3.24.04,4.86.06,0,.25,0,.49,0,.74-9,.04-18.01.06-27.01.12-4.58.03-9.17.1-13.75.16-12.13-.02-24.26-.04-36.4-.07-.09-.18-.18-.35-.27-.53Z"/><path class="cls-4" d="m324.99,233.46c.05-3.46.1-6.92.15-10.39.01-.34.03-.69.04-1.03.08-4.82.15-9.65.23-14.47.06-.4.12-.8.18-1.19.53.02,1.07.04,1.6.06.12.13.25.26.37.38v26.4c-1.02.1-1.79.17-2.57.24Z"/><path class="cls-4" d="m325.59,206.38c-.06.4-.12.8-.18,1.19-1.04-.16-2.08-.31-3.12-.47,0-.25,0-.49,0-.74,1.1,0,2.2,0,3.3.01Z"/><path class="cls-4" d="m327.56,206.82c-.12-.13-.25-.26-.37-.38.12.13.25.26.37.38Z"/><path class="cls-4" d="m130.16,232.36c-5.3-.35-9.06-2.94-10.8-7.96-1.71-4.94-.4-9.21,3.59-12.62,9.21-5.49,17.13-1.34,19.2,10.37,8.96,0,17.97,0,26.98,0,0,.29,0,.58,0,.87-8.22.05-16.43.14-24.65.13-1.74,0-2.86.14-3.63,2.17-1.81,4.77-5.95,6.46-10.69,7.04Z"/><path class="cls-4" d="m130.38,375.74c-11.47-.01-22.94-.03-34.4-.04,0-15.42,0-30.84,0-46.58,11.6,0,22.95,0,34.3,0,.11,7.82.21,15.64.32,23.45-.07,7.72-.14,15.45-.21,23.17Z"/><path class="cls-3" d="m130.59,352.57c-.11-7.82-.21-15.64-.32-23.45.08-2.61.17-5.23.25-7.84,10.4,0,20.79,0,31.52,0,.31,5.37,3.01,9.23,7.23,12.13,0,4.23,0,8.45,0,12.94h-19.01v6.23h-19.68Z"/><path class="cls-2" d="m298.32,342.98c-.03,7.08-.07,14.16-.1,21.24-10.3,0-20.6,0-31.37,0,0-11.71,0-23.33,0-34.96,4.8-.01,9.6-.02,14.41-.03,0,4.46,0,8.93,0,13.75h17.06Z"/><path class="cls-1" d="m298.24,375.6c.05,5.23.15,10.46.07,15.69,0,.64-.99,1.82-1.52,1.82-12.36.01-24.71-.1-37.07-.19.23-.36.46-.71.69-1.07.24-.91.49-1.82.74-2.73,2.43-2.13,4.72-4.45,7.31-6.35,7.81-5.72,16.68-7.87,26.27-7.31,1.17.07,2.34.1,3.51.14Z"/><path class="cls-4" d="m175.51,420.33c-.33-.01-.66-.02-.98-.03.02-6.33.03-12.66.05-18.99.18,0,.36,0,.53-.01.13,6.35.27,12.69.4,19.04Z"/><path class="cls-4" d="m261.15,389.12c-.25.91-.49,1.82-.74,2.73,0-6.33-.04-12.67,0-19,0-.85.36-1.69.55-2.53.06,6.27.13,12.54.19,18.81Z"/><path class="cls-4" d="m175.11,401.29c-.18,0-.36.01-.53.01.05-.15.09-.29.14-.44.13.14.26.29.39.43Z"/><path class="cls-4" d="m245.15,221.99c11.95,0,23.91,0,35.86,0,14.72.02,29.44.04,44.16.05-.01.34-.03.69-.04,1.03-13.47.02-26.94.05-40.41.08-1.08,0-2.16.08-3.24.13-12.1-.02-24.19-.04-36.29-.07-.05-.33-.09-.65-.14-.98.12-.05.16-.13.1-.26Z"/><path class="cls-3" d="m245.15,221.99c.05.12.02.21-.1.26,0-4.76.01-9.51.02-14.27.03,4.67.05,9.34.08,14.01Z"/><path class="cls-3" d="m245.07,223.76c0,2.85.02,5.7.03,8.54,0-2.85-.02-5.7-.03-8.54Z"/><path class="cls-4" d="m341.2,342.64c.03-.19.06-.38.08-.56,6.38,0,12.76-.03,19.13.02.91,0,1.81.44,2.72.67-7.31-.04-14.62-.09-21.93-.13Z"/><path class="cls-3" d="m62.7,350.07c4.42-.79,8.43-.06,11.76,3.18,4.88,4.75,4.7,12.6-.4,17.07-5.18,4.54-13.14,3.84-17.32-1.52-4.14-5.3-2.89-13.19,2.68-16.93.73-.49,1.44-1.03,2.16-1.55.38-.08.76-.16,1.14-.25Z"/><path class="cls-1" d="m62.64,299.75h20.98v13.38c-6.93,0-13.91,0-20.9,0-.03-4.46-.06-8.92-.09-13.38Z"/><path class="cls-4" d="m62.64,299.75c.03,4.46.06,8.92.09,13.38,0,12.31-.02,24.63-.03,36.94-.38.08-.76.16-1.14.25-.02-16.27-.04-32.55,0-48.83,0-.58.7-1.16,1.08-1.74Z"/><path class="cls-2" d="m325.18,222.04c-14.72-.02-29.44-.04-44.16-.05.05-3.91.07-7.82.15-11.73.02-.96.23-1.92.35-2.87,4.58-.05,9.17-.13,13.75-.16,9-.05,18.01-.08,27.01-.12,1.04.16,2.08.31,3.12.47-.08,4.82-.15,9.65-.23,14.47Z"/></g></svg>