<?xml version="1.0" encoding="UTF-8"?><svg id="Layer_1" xmlns="http://www.w3.org/2000/svg" viewBox="0 0 2000 2000"><defs><style>.cls-1{fill:#02b4e4;}.cls-2{fill:#00afde;}.cls-3{fill:#0168a7;}.cls-4{fill:#86c2dc;}.cls-5{fill:#001227;}.cls-6{fill:#d3e9f4;}.cls-7{fill:#60707e;}</style></defs><rect class="cls-5" width="2000" height="2000" rx="381.29" ry="381.29"/><g id="Layer_1-2"><path class="cls-5" d="m1057.66,311.44c188.43,14.77,353.31,84.94,492.56,212.6,130.22,119.36,213.21,265.93,247.38,439.6-.24.37-.61.85-.49,1.1.24.73.73,1.46,1.1,2.07,3.91,31.12,7.93,62.36,11.84,93.48,0,1.34.24,2.56.37,3.91.85,13.06,2.32,26.12,2.32,39.3.12,153.9,0,307.91,0,461.81,0,74.2-48.08,123.26-122.53,125.22H316.37c-47.72,0-88.11-15.01-112.28-57.97-9.52-16.84-16.35-37.96-16.35-57.12-.73-382.85-.49-765.94-.49-1149.15,0-64.32,46.13-110.45,115.33-116.18,8.54-.61,17.09-.61,25.75-.61h677.7c16.11,0,32.34,1.1,48.45,1.59,1.1,0,2.2.12,3.17.24v.12Zm-370.64,872.97c-.61,1.1-1.22,2.32-1.95,3.42-.12,26.61,0,53.21-.61,79.82-.24,11.11,4.52,15.74,15.38,14.77,4.03-.37,8.05-.49,11.96-.73,1.22-.73,2.44-1.59,3.78-2.32.61-4.88,1.71-9.76,1.83-14.65.37-14.03,0-28.07.37-42.1.37-10.74,6.59-16.23,17.33-16.84,10.74-.49,14.03,7.08,15.01,15.26,1.22,10.37.98,20.99,1.1,31.49.12,9.28,0,18.55,0,28.44,8.54.73,14.52,1.34,20.5,1.83,1.34-.24,2.81-.61,4.15-.85,1.95-2.56,5.49-5,5.49-7.57.37-21.6,1.22-43.33-.49-64.93-1.46-18.67-14.28-28.8-32.95-27.58-8.05.49-15.87,4.52-23.8,6.96h-3.42c-6.96-1.59-13.79-3.17-20.75-4.76-1.22-.49-2.32-.98-3.54-1.46-1.83,0-3.78,0-5.61-.12-1.22.49-2.32.98-3.54,1.46l-.37.24.12.24Zm-289.49-329.39c0,.98.61,1.59,1.59,1.71.98.37,1.95.73,2.93,1.1,9.4,2.32,15.5-2.07,20.01-9.76.98-1.71,1.71-3.66,2.81-5.37,17.94-30.27,35.88-60.41,53.82-90.68,2.93-1.1,5.86-2.32,8.91-3.42.73.73,1.59,1.46,2.32,2.07,6.22,9.52,12.45,19.16,18.79,28.68-9.76,13.55-19.65,27.09-29.41,40.64-1.46,2.2-2.81,4.52-4.27,6.71-1.95,3.3-3.91,6.47-5.86,9.76-2.56,5.49-5.13,11.11-7.57,16.6,1.46.73,3.05,1.46,4.52,2.2,3.3-6.22,6.59-12.57,10.01-18.79.85-2.07,1.71-4.15,2.56-6.22,1.34-2.68,2.68-5.37,4.03-8.18,8.54-14.4,17.21-28.8,25.75-43.2,23.07,10.62,46.13,21.24,69.2,31.85-.12,2.81-.37,5.61-.49,8.42-6.1,10.98-12.08,21.85-18.18,32.83,2.07,1.1,4.27,2.07,6.35,3.17,5.25-12.2,10.62-24.53,15.87-36.73,2.32-1.83,4.76-3.66,7.08-5.49,21.97,5.49,43.94,11.11,65.9,16.6,1.22.12,2.44.37,3.66.49,9.03,2.07,18.06,4.15,27.09,6.22l.61.98,1.1-.49c.61,4.03,1.22,8.05,1.83,12.08-.73.61-.85,1.46-.49,2.32,1.71,1.22,3.42,2.44,5,3.78.98-2.32,1.95-4.76,2.93-7.08,2.93-2.44,5.86-6.83,8.91-6.96,8.42-.24,16.84,1.22,25.14,1.95,1.34.12,2.68.37,4.03.49,13.79,1.95,27.58,3.78,41.49,5.74,5.37.73,10.62,1.46,15.99,2.2,3.66,0,7.32-.12,10.98-.24,7.93.73,15.99,1.46,23.92,2.2,1.22.24,2.44.49,3.66.61,15.13.49,30.27.98,45.4,1.46h3.66c2.81,0,5.61.24,8.3.37h9.15c2.44.12,4.88.24,7.2.49,2.56.12,5.25.24,7.81.37,1.46,0,2.81-.24,4.27-.37,28.19-.37,56.38-.85,84.58-1.22,6.71.37,13.55.61,20.26.98,1.34,0,2.68,0,3.91-.12,2.81,0,5.49-.12,8.3-.24,4.27-.24,8.42-.37,12.69-.61,14.28-.37,28.56-.85,42.84-1.22,3.05-.37,6.1-.73,9.15-.98l27.22-1.71h14.03c1.34-.24,2.68-.61,4.03-.85,4.03-.73,8.05-1.59,12.08-2.32l1.22.37,1.1-.73c20.26-1.46,40.64-3.05,60.9-4.52,2.68,4.15,5.25,8.3,7.93,12.45.98-.37,1.95-.85,3.05-1.22.24-3.78.49-7.57.73-11.35.24-1.1.49-2.07.85-3.17,17.94-4.39,35.88-8.79,53.82-13.18,1.34-.49,2.68-.85,4.03-1.34,8.91-2.68,17.7-6.1,26.73-7.69,6.22-1.1,12.94.37,19.4.73,4.64,9.03,9.28,18.18,13.91,27.22,2.81,3.42,5.49,6.71,8.3,10.13,1.22-.98,2.32-1.83,3.54-2.81-2.44-3.78-4.76-7.57-7.2-11.35-4.52-7.69-8.91-15.5-13.42-23.19-.24-2.2-.61-4.52-.85-6.71.98-.49,1.22-1.22.85-2.2,19.04-8.54,38.08-17.33,57.24-25.63,3.78-1.59,8.42-1.1,12.69-1.59,5.37,8.79,10.74,17.7,16.11,26.48,3.3,5.61,6.47,11.23,9.76,16.72.49.98.98,1.95,1.46,2.81,4.39,10.13,8.91,20.01,18.06,26.24.98-.73,1.83-1.46,2.81-2.2l-16.84-26.24c-.61-.98-1.1-2.07-1.71-3.05-3.42-6.1-6.71-12.08-10.13-18.18-5.37-7.69-10.74-15.26-16.11-22.94l-1.1-9.4c.98-.49,1.34-1.34.98-2.44,4.15-6.1,8.3-12.2,12.57-18.31h1.1l.85-.61c3.17,0,6.47,0,9.64.12,19.04,30.02,37.83,60.17,57.12,90.07,3.3,5.13,8.05,9.15,12.2,13.67,1.22.24,2.44.37,3.66.61,2.81-.24,5.61-.49,8.42-.73.98-.37,2.07-.61,3.05-.98-4.03-10.01-7.2-20.38-12.08-29.78-31.49-61.02-71.64-115.94-121.8-162.8-87.14-81.28-188.8-134.98-306.45-157.68-54.8-10.62-109.84-16.35-165.73-10.98-1.22.12-2.44.24-3.66.37-43.08,8.05-86.16,16.11-129.24,24.04-1.34.24-2.56.61-3.91.85-141.94,45.28-255.8,128.27-337.69,253.24-16.72,25.51-29.41,53.58-43.94,80.43-.24.37-.73.73-.61.98.24.73.85,1.34,1.22,1.95l-.24.73Zm400.18,333.18l-.49.37c-.61,3.05-1.34,6.1-1.95,9.28,5.86,5.74,11.84,11.35,17.7,17.09-.12.49-.49.98-.49,1.34.24.85.73,1.71,1.22,2.56.37,12.45.85,25.02.98,37.47.12,14.77,7.93,23.55,21.6,26.73,6.71,1.46,13.91.61,20.87.85,1.22-.61,2.44-1.1,3.66-1.71,9.03-9.64,7.69-15.62-2.68-21.6-5.25-3.05-11.35-8.91-12.2-14.28-1.83-11.72-.61-23.92-.61-37.22,7.44-1.71,14.16-3.3,21.85-5.13.49-4.27.98-8.67,1.59-12.94-.73-1.1-1.34-2.2-2.07-3.3-11.84-3.91-26.61-5-22.21-23.92-.61-2.2-1.1-4.39-1.71-6.71-9.15,1.1-18.43,2.07-27.46,3.05-.61,6.83-.98,10.74-1.34,14.77-.49,1.34-.98,2.56-1.46,3.91-4.15,2.68-8.3,5.25-12.45,7.93l-2.32,1.34v.12Zm748.12,17.7c.73-4.03,1.34-8.18,2.07-12.2-3.66-15.74-11.47-16.6-26.61-3.05-2.07.24-4.03.61-6.1.85-4.88-2.44-9.76-4.76-14.65-7.2-3.3,0-6.47-.12-9.76-.24-9.28-.61-8.91,5.74-8.91,11.96,0,22.58,0,45.16.12,67.73,0,5.74.85,11.47,1.22,17.21h30.14c0-15.13-.61-28.56.12-41.86,1.22-23.68,4.03-26.36,26.97-30.51,1.83-.37,3.54-1.71,5.25-2.68h.12Zm-379.55-3.05v-5.86c.12-1.1.24-2.07.24-3.17-2.93-3.91-5.74-7.81-8.67-11.72-1.34.49-2.68.85-4.03,1.34-4.64,2.68-9.28,5.25-10.86,6.22-13.06-2.32-23.07-4.15-33.07-5.86-2.81.49-5.74.98-8.54,1.46v95.93h31.73c0-17.21-.37-33.2,0-49.06.37-15.26,5.86-20.87,21.48-23.68,3.91-1.95,7.81-3.78,11.72-5.74v.12Zm546.51,81.28c7.44-1.22,15.26-1.22,22.21-3.78,11.47-4.27,19.65-11.72,20.5-25.38.73-13.55-5.98-21.97-17.21-27.58-7.2-3.66-14.77-6.47-22.21-9.76-1.1-.98-2.07-1.95-3.17-2.81-.12-3.42-.24-6.71-.49-10.13,1.22-.37,2.32-.73,3.54-1.22h34.78c3.3-9.89,1.46-19.89-10.62-20.63-14.16-.85-29.05.73-42.84,4.52-12.57,3.42-18.06,14.52-18.31,28.19-.24,13.06,7.44,18.92,17.57,23.43,5.98,2.68,12.69,3.78,18.06,7.2,4.03,2.56,6.35,7.69,9.4,11.72-4.15,1.95-8.18,5-12.45,5.61-5.37.73-10.98-.73-16.48-1.22l-3.91-1.34c-1.83-.61-3.54-1.1-5.37-1.71l-6.1,1.46c-1.83,11.35-2.44,22.09,13.91,21.85,2.32.37,4.52.73,6.83,1.1,1.95.12,3.91.24,5.86.37h6.22l.24.12Zm-772.53-.61c22.33-2.56,26.48-6.35,23.92-23.8-10.98.98-22.21,2.07-33.32,3.17-1.22-.24-2.56-.49-3.78-.73-8.3-3.66-16.96-6.96-14.52-20.5h61.02c0-6.96.37-12.33,0-17.7-2.07-23.55-15.5-39.18-36.12-42.1-24.16-3.54-46.5,7.69-53.94,29.29-3.66,10.62-2.81,22.58-4.03,34.05.37,1.34.73,2.68,1.22,4.03,4.76,23.8,22.21,31.85,43.69,34.78,5.37-.12,10.74-.37,16.11-.49h-.24Zm108.62-20.38h-3.54c-1.71,0-3.54-.12-5.25-.24-1.22-.12-2.44-.37-3.66-.49-9.15-3.05-16.96-7.32-17.45-18.43,1.22-.73,2.07-1.59,2.93-1.59,2.93-.12,5.86,0,8.79,0,5.13,0,10.13.24,15.26.37,11.96-.73,23.8-1.46,35.76-2.07.61-.24,1.1-.37,1.71-.61-.24-.24-.49-.49-.73-.85-.85-9.03-1.71-17.94-2.68-26.97.12-.37.61-.85.49-1.1-.37-.73-.85-1.22-1.34-1.95-7.93-25.75-41.01-34.05-64.07-22.7-23.92,11.84-35.76,46.01-24.04,69.93,11.96,24.41,52.6,37.1,75.79,23.43,7.69-4.52,9.76-10.98,5.86-19.16-2.07-.49-4.27-.85-6.35-1.34-5.74,1.22-11.47,2.44-17.21,3.78h-.24Zm-394.32,18.79c1.83-2.07,5.13-4.15,5.25-6.35.49-27.58.85-55.16.24-82.74,0-3.17-5.74-7.32-9.64-8.91-3.91-1.59-8.91-.37-13.42-.37-1.59,0-3.3-.12-4.88-.24-1.1,2.2-2.2,4.39-3.3,6.47v4.76c-.49,16.6-.61,33.2-1.34,49.79-.49,9.76-6.59,17.94-15.62,17.09-6.1-.61-12.45-8.67-16.35-14.89-2.56-4.03-1.1-10.74-1.22-16.23v-45.16h-31.12c0,20.26-.24,39.42,0,58.46.49,34.66,22.82,48.69,54.68,34.54,7.08.98,14.16,2.07,21.24,3.05l11.84,1.71c1.22-.37,2.32-.73,3.54-1.1l.12.12Zm752.03,2.2c22.21.49,41.25-5.49,51.14-27.46,9.15-20.63,7.69-40.64-7.69-57.85-16.23-18.06-37.47-20.75-59.8-14.89-25.63,6.71-37.96,27.58-35.51,57.24,1.95,23.68,19.16,38.81,48.57,42.96h3.3Zm-67.25-29.66c-.85-.98-1.71-1.95-2.68-2.81-5.86,1.22-11.72,2.44-17.57,3.78-26.73,5.98-46.62-3.54-53.09-26.12-6.96-24.16,1.95-51.75,28.07-57.97,1.22-.37,2.44-.85,3.66-1.22,5.98-.12,11.84-.24,17.82-.49,2.07.49,4.15,1.1,6.22,1.59,4.76,1.1,9.64,2.2,14.4,3.17,1.1-1.71,2.2-3.3,3.17-5v-22.21c-6.1-1.59-10.37-2.93-14.77-3.78-49.06-9.4-90.43,18.06-94.09,62.24-4.52,53.94,31.24,86.65,85.43,78.23,22.09-3.42,24.41-6.35,23.31-29.53l.12.12Zm-1035.65-13.18c-7.44-25.02-14.77-50.16-22.33-75.18-7.2-23.55-14.16-26.73-39.79-18.18,14.52,42.23,28.68,84.45,43.69,126.44,4.64,13.06,17.33,6.83,26.61,7.81,7.57.85,13.18-1.71,16.11-10.13,13.18-38.44,27.09-76.76,40.27-115.21,1.1-3.3-1.1-7.81-1.83-11.84-1.22,0-2.44-.12-3.78-.24-24.29-.73-24.04-.73-30.63,21.72-7.57,25.38-15.62,50.65-23.43,76.03-1.71-.37-3.3-.85-5-1.22h.12Zm1289.38,40.52c.12-1.22.24-2.32.37-3.54,1.34-.49,2.68-.98,4.03-1.59,1.1.37,2.2.73,3.17,1.1,21.11,11.47,42.1,7.69,55.04-10.01,15.26-20.99,13.67-59.43-3.3-76.03-13.06-12.81-33.93-13.55-49.55-1.1-3.42-1.1-7.2-2.2-10.98-3.42-1.22-.49-2.32-1.1-3.54-1.59-2.93-.37-5.86-.73-8.79-1.1-1.1,0-2.32-.12-3.42-.24h-11.72c-.49.24-.98.61-1.46.85-.61,2.44-1.71,4.76-1.71,7.2,0,41.49,0,83.11.12,124.61,0,3.17,1.59,6.47,2.81,11.11,9.52-.49,18.31-.98,27.22-1.46.73-.85,1.46-1.71,2.2-2.68-.12-14.03-.37-28.07-.49-41.98v-.12Zm-1212.49-48.69c-.61,31.36,19.04,50.65,52.11,51.26,33.32.61,54.55-18.92,55.04-50.53.49-29.9-20.5-51.5-50.65-52.11-36.25-.85-56.02,17.09-56.63,51.38h.12Zm158.17-96.05h-29.66v143.89h29.66v-143.89Z"/><path class="cls-7" d="m1798.21,966.8c-.37-.73-.85-1.34-1.1-2.07,0-.24.37-.73.49-1.1.37.73.85,1.34,1.1,2.2,0,.24-.37.73-.61,1.1l.12-.12Z"/><path class="cls-7" d="m1810.42,1064.19c0-1.34-.24-2.56-.37-3.91,0,1.34.24,2.56.37,3.91Z"/><path class="cls-4" d="m1057.66,311.44c-1.1,0-2.2-.12-3.17-.24,1.1,0,2.2.12,3.17.24Z"/><path class="cls-2" d="m1597.45,1276.79c-1.34.49-2.68.98-4.03,1.59-.37.37-1.1.61-.98.98,0,.85.37,1.71.61,2.56.12,14.03.37,28.07.49,41.98-.73.85-1.46,1.71-2.2,2.68-8.91.49-17.7.98-27.22,1.46-1.22-4.64-2.81-7.93-2.81-11.11-.24-41.49-.24-83.11-.12-124.61,0-2.44,1.1-4.76,1.71-7.2.61,0,1.1-.37,1.46-.85h11.72c1.1,0,2.32.12,3.42.24,2.93.37,5.86.73,8.79,1.1,1.22.49,2.32,1.1,3.54,1.59,3.78,1.22,7.57,2.32,10.98,3.42,15.62-12.45,36.49-11.72,49.55,1.1,16.96,16.6,18.67,55.16,3.3,76.03-12.94,17.7-33.93,21.6-55.04,10.01-1.1-.37-2.2-.73-3.17-1.1v.12Zm-4.52-46.5c.49,4.52-.37,9.76,1.71,13.3,3.91,6.22,8.91,14.89,14.65,15.87,5.86,1.1,14.52-4.39,19.53-9.4,3.66-3.54,4.27-10.98,4.76-16.84,1.34-16.23-4.88-26-16.72-27.46-12.81-1.59-19.53,4.52-23.55,21.24-.37.37-.98.61-.98.98,0,.85.37,1.59.61,2.44v-.12Z"/><path class="cls-2" d="m366.41,1145.11c.73,4.03,2.93,8.54,1.83,11.84-13.18,38.44-27.09,76.76-40.27,115.21-2.93,8.42-8.42,10.98-16.11,10.13-9.28-1.1-21.97,5.25-26.61-7.81-15.01-41.98-29.17-84.33-43.69-126.44,25.63-8.67,32.59-5.37,39.79,18.18,7.69,25.02,14.89,50.04,22.33,75.18.73,1.95,1.46,3.91,2.32,5.86.85-1.59,1.83-3.05,2.68-4.64,7.81-25.38,15.99-50.65,23.43-76.03,6.59-22.33,6.35-22.46,30.63-21.72,1.22,0,2.44.12,3.78.24h-.12Z"/><path class="cls-2" d="m1336.16,1174.52c-4.76-1.1-9.64-2.2-14.4-3.17-2.07-.49-4.15-1.1-6.22-1.59-5.98.12-11.84.24-17.82.49-1.22.37-2.44.85-3.66,1.22-26,6.22-35.03,33.81-28.07,57.97,6.59,22.58,26.36,32.22,53.09,26.12,5.86-1.34,11.72-2.56,17.57-3.78.85.98,1.71,1.95,2.68,2.81,1.1,23.19-1.22,26.12-23.31,29.53-54.19,8.42-89.95-24.41-85.43-78.23,3.66-44.3,45.03-71.64,94.09-62.24,4.39.85,8.67,2.2,14.77,3.78v22.21c-1.1,1.71-2.2,3.3-3.17,5l-.12-.12Z"/><path class="cls-2" d="m380.56,1233.1c.61-34.29,20.38-52.23,56.63-51.38,30.02.61,51.01,22.33,50.65,52.11-.49,31.61-21.72,51.14-55.04,50.53-33.07-.61-52.72-19.89-52.11-51.26h-.12Zm74.69-1.22c-.24-18.06-7.08-26.48-21.36-26.12-14.52.24-22.58,10.98-22.09,29.53.37,14.65,9.64,25.26,22.09,25.26,13.91,0,21.6-10.5,21.36-28.56v-.12Z"/><path class="cls-2" d="m1403.28,1284.12c-29.41-4.03-46.62-19.28-48.57-42.96-2.44-29.66,9.89-50.53,35.51-57.24,22.21-5.86,43.57-3.17,59.8,14.89,15.38,17.21,16.84,37.22,7.69,57.85-9.76,21.97-28.8,27.95-51.14,27.46h-3.3Zm26-62c-.49-1.34-.98-2.68-1.34-4.15-4.39-13.42-15.13-13.42-25.87-11.59-9.89,1.71-16.84,14.52-15.74,27.83.98,11.84,3.42,23.31,17.94,26.24,10.86,2.2,19.77-1.46,22.94-11.96,2.44-8.3,1.59-17.57,2.2-26.48l-.12.12Z"/><path class="cls-2" d="m724.24,1188.92c7.93-2.44,15.74-6.35,23.8-6.96,18.67-1.22,31.49,9.03,32.95,27.58,1.59,21.48.73,43.2.49,64.93,0,2.56-3.66,5.13-5.49,7.57-1.34.24-2.81.61-4.15.85-5.98-.49-11.96-1.1-20.5-1.83v-28.44c-.12-10.5,0-21.11-1.1-31.49-.98-8.18-4.15-15.87-15.01-15.26-10.74.49-16.96,6.1-17.33,16.84-.49,14.03,0,28.07-.37,42.1,0,4.88-1.22,9.76-1.83,14.65-1.22.73-2.44,1.59-3.78,2.32-4.03.24-8.05.37-11.96.73-10.86.98-15.62-3.78-15.38-14.77.49-26.61.37-53.21.61-79.82.61-1.1,1.22-2.32,1.95-3.42l.37-.24c1.22-.49,2.32-.98,3.54-1.46,1.83,0,3.78,0,5.61.12,1.22.49,2.32.98,3.54,1.46,6.96,1.59,13.79,3.17,20.75,4.76h3.42l-.12-.24Z"/><path class="cls-2" d="m628.8,1189.9c1.1-2.2,2.2-4.39,3.3-6.47,1.59,0,3.3.12,4.88.24,4.52,0,9.52-1.1,13.42.37,3.91,1.59,9.52,5.74,9.64,8.91.61,27.58.24,55.16-.24,82.74,0,2.2-3.42,4.27-5.25,6.35-1.22.37-2.32.73-3.54,1.1l-11.84-1.71c-6.1-7.57-12.81-11.72-21.24-3.05-31.85,14.16-54.19.12-54.68-34.54-.24-19.04,0-38.08,0-58.46h31.12v45.16c0,5.49-1.34,12.2,1.22,16.23,3.91,6.22,10.37,14.28,16.35,14.89,9.03.98,15.13-7.32,15.62-17.09.85-16.6.98-33.2,1.34-49.79v-4.76l-.12-.12Z"/><path class="cls-2" d="m1030.44,1242.25h-8.79c-.85,0-1.71.85-2.93,1.59.49,11.11,8.3,15.38,17.45,18.43,1.22.12,2.44.37,3.66.49,1.71,0,3.54.12,5.25.24h3.54c5.74-1.22,11.47-2.44,17.21-3.78,2.07.49,4.27.85,6.35,1.34,4.03,8.18,1.83,14.65-5.86,19.16-23.19,13.67-63.95.98-75.79-23.43-11.72-24.04,0-58.09,24.04-69.93,23.07-11.47,56.14-3.05,64.07,22.7.24.98.61,1.95.85,2.93.85,9.03,1.71,17.94,2.68,26.97-.61.37-.85.85-.85,1.46-11.96.73-23.8,1.46-35.76,2.07-5.13,0-10.13-.24-15.26-.37l.12.12Zm20.5-21.72l1.46-2.56c-1.22-7.81-3.17-14.52-13.3-15.01-11.72-.61-17.45,5.37-20.01,15.87.85,9.64,6.35,5.74,11.23,3.91l20.63-2.07v-.12Z"/><path class="cls-2" d="m879.35,1245.18c1.22-11.35.49-23.43,4.03-34.05,7.44-21.6,29.78-32.83,53.94-29.29,20.63,2.93,34.05,18.55,36.12,42.1.49,5.37,0,10.74,0,17.7h-61.02c-2.44,13.55,6.22,16.84,14.52,20.5,1.22.24,2.56.49,3.78.73,11.11-1.1,22.33-2.07,33.32-3.17,2.56,17.45-1.59,21.24-23.92,23.8-5.37.12-10.74.37-16.11.49-21.48-2.93-38.81-10.98-43.69-34.78-.37-1.34-.73-2.68-1.22-4.03h.24Zm32.34-26.97c1.34,1.71,2.68,3.42,4.15,5.25,7.93-.61,15.87-1.22,23.68-1.83l5.61-3.78c-1.95-9.03-5.98-15.13-16.72-14.89-10.62.24-14.89,6.1-16.72,15.26Z"/><path class="cls-2" d="m1712.54,1204.67c.12,3.42.24,6.71.49,10.13,1.1.98,2.07,1.95,3.17,2.81,7.44,3.17,15.01,6.1,22.21,9.76,11.23,5.61,17.94,14.03,17.21,27.58-.73,13.67-9.03,21.24-20.5,25.38-6.96,2.56-14.77,2.56-22.21,3.78h-6.22c-1.95-.12-3.91-.24-5.86-.37-2.32-.37-4.52-.73-6.83-1.1-16.35.24-15.74-10.37-13.91-21.85,2.07-.49,4.03-.98,6.1-1.46,1.83.61,3.54,1.1,5.37,1.71l3.91,1.34c5.49.49,11.11,1.83,16.48,1.22,4.39-.61,8.3-3.66,12.45-5.61-3.05-4.03-5.37-9.15-9.4-11.72-5.37-3.42-12.2-4.64-18.06-7.2-10.13-4.52-17.94-10.37-17.57-23.43.24-13.67,5.74-24.65,18.31-28.19,13.67-3.78,28.56-5.37,42.84-4.52,12.08.73,13.91,10.74,10.62,20.63h-34.78c-1.22.37-2.32.73-3.54,1.22l-.24-.12Z"/><path class="cls-2" d="m844.57,1163.78c-4.39,18.92,10.37,20.01,22.21,23.92.73,1.1,1.34,2.2,2.07,3.3-.49,4.27-.98,8.67-1.59,12.94-7.81,1.83-14.4,3.42-21.85,5.13,0,13.18-1.22,25.38.61,37.22.85,5.37,6.96,11.23,12.2,14.28,10.37,6.1,11.72,11.96,2.68,21.6-1.22.61-2.44,1.1-3.66,1.71-6.96-.24-14.16.73-20.87-.85-13.79-3.05-21.48-11.96-21.6-26.73,0-12.57-.61-25.02-.98-37.47l-.73-4.03c-5.86-5.74-11.84-11.35-17.7-17.09.61-3.05,1.34-6.1,1.95-9.28l.49-.37c.98,0,1.83-.49,2.32-1.34,4.15-2.68,8.3-5.25,12.45-7.93.49-1.34.98-2.56,1.46-3.91.37-3.91.73-7.93,1.34-14.77,9.03-.98,18.18-2.07,27.46-3.05.61,2.2,1.1,4.39,1.71,6.71h0Z"/><path class="cls-6" d="m1411.83,772.63l1.1,9.4c-1.1,0-2.2.24-3.3.24-4.27.49-8.91,0-12.69,1.59-19.16,8.3-38.2,17.09-57.24,25.63-.49,0-.85,0-1.34.12.12.73.24,1.34.49,2.07.24,2.2.61,4.52.85,6.71h-5.13c-6.47-.37-13.18-1.83-19.4-.73-9.15,1.59-17.82,5-26.73,7.69-1.34.49-2.68.85-4.03,1.34-17.94,4.39-35.88,8.79-53.82,13.18h-3.78c-2.93,1.1-5.74,2.32-8.67,3.42-20.26,1.46-40.64,3.05-60.9,4.52-.73,0-1.59.12-2.32.24-4.03.73-8.05,1.59-12.08,2.32-1.22-.37-2.44-.85-3.54-1.22-4.88.73-9.64,1.34-14.52,2.07-9.03.61-18.18,1.1-27.22,1.71-3.05.37-6.1.73-9.15.98-14.28.37-28.56.85-42.84,1.22-4.27.24-8.42.37-12.69.61-2.81,0-5.49.12-8.3.24-1.34,0-2.68,0-3.91.12-6.71-.37-13.55-.61-20.26-.98,0-1.95-.12-3.91-.24-5.86h8.91c8.91-.37,17.82-.73,26.61-.98,1.34,0,2.81-.12,4.15-.24,7.81-.85,15.62-1.83,23.43-2.32,7.93-.49,10.25-4.52,8.79-11.72,1.95-.98,3.91-2.07,5.86-3.05.12,1.83.24,3.78.37,5.61-.37.37-.98.85-.85.98.37.73.98,1.34,1.46,1.95,8.67,1.46,17.45,2.93,26.12,4.52,1.34,0,2.81-.24,4.15-.37,15.01-1.46,30.14-2.81,45.16-4.27,2.07-.49,4.15-1.1,6.1-1.59,10.37-1.46,20.75-2.93,31-4.52,3.66-.73,7.44-1.46,11.11-2.2,1.95-.37,3.91-.73,5.98-1.1l18.79-2.2c11.23-2.81,22.58-5.49,33.81-8.3l1.1.37.73-.98c11.11-2.56,22.09-5.13,33.2-7.69,1.34-.37,2.68-.85,3.91-1.22,1.1-.37,2.2-.73,3.3-1.1,2.81-.73,5.49-1.46,8.3-2.2,2.68-.61,5.37-1.34,8.05-1.95,6.59-2.56,13.18-5,19.65-7.57,18.55-8.91,36.98-17.94,55.53-26.85,1.71-2.07,3.42-4.03,5.13-6.1,7.93-5.61,15.99-11.35,23.92-16.96l1.1,5c-4.15,6.1-8.3,12.2-12.57,18.31-.49,0-.98,0-1.46.12.12.73.24,1.46.37,2.2l.49-.24Z"/><path class="cls-2" d="m538.73,1137.05v143.89h-29.66v-143.89h29.66Z"/><path class="cls-2" d="m1166.52,1196.98v5.86c-4.03,1.95-7.93,3.78-11.84,5.74-15.5,2.68-20.99,8.3-21.48,23.68-.37,15.87,0,31.85,0,49.06h-31.73v-95.93c2.81-.49,5.74-.98,8.54-1.46,10.01,1.83,20.01,3.54,33.07,5.86,1.71-.98,6.22-3.54,10.86-6.22,1.34-.49,2.68-.85,4.03-1.34,2.93,3.91,5.74,7.81,8.67,11.72-.37.24-.98.73-.98.85.12.73.61,1.46.85,2.2Z"/><path class="cls-2" d="m1500.67,1184.28c4.88,2.44,9.76,4.76,14.65,7.2.85,2.44,1.59,4.88,2.44,7.32.73,0,1.59-.12,2.32-.24.49-2.68.85-5.25,1.34-7.93,15.01-13.55,22.94-12.57,26.61,3.05-.73,4.03-1.34,8.18-2.07,12.2-1.71.85-3.42,2.32-5.25,2.68-22.82,4.15-25.63,6.96-26.97,30.51-.73,13.42-.12,26.85-.12,41.86h-30.14c-.37-5.61-1.22-11.47-1.22-17.21-.12-22.58,0-45.16-.12-67.73,0-6.22-.37-12.69,8.91-11.96l9.76.24h-.12Z"/><path class="cls-6" d="m489.79,750.67c1.22-4.76,2.44-9.4,3.66-14.16,4.15,8.05,8.18,16.11,12.33,24.16,5.37,3.3,10.74,6.59,16.11,9.89,19.89,10.01,39.66,20.01,59.56,30.02l4.15.61c29.41,8.05,58.95,15.87,88.36,24.16,3.78,1.1,7.08,3.66,10.5,5.49,0,1.83.12,3.66.24,5.49-9.03-2.07-18.06-4.15-27.09-6.22l-3.66-.49c-21.97-5.49-43.94-11.11-65.9-16.6-3.54-.73-7.08-1.46-10.62-2.07-23.07-10.62-46.13-21.24-69.2-31.85l.24.24c-6.22-9.52-12.45-19.16-18.79-28.68h.12Z"/><path class="cls-6" d="m729.97,842.93c-8.42-.73-16.84-2.32-25.14-1.95-3.05,0-5.98,4.52-8.91,6.96-.98.37-1.95.73-2.81.98h-4.64c-.61-4.03-1.22-8.05-1.83-12.08,1.46-1.71,2.93-3.3,4.39-5,1.46-1.34,3.05-2.68,4.52-4.15.49-.98,1.1-1.95,1.59-3.05v-.12c.49-1.22,1.1-2.56,1.59-3.78l.24-.61c1.83.37,3.66.85,5.49,1.22,2.56,3.42,4.52,8.3,7.81,9.76,5.37,2.32,11.72,2.44,17.7,3.42,1.1,0,2.32.24,3.42.37,10.98,1.71,22.09,3.3,33.07,5,3.17.73,6.47,1.46,9.64,2.07,9.89.37,19.77.85,29.66,1.22,3.42.61,6.96,1.1,10.37,1.71,5.61-.61,11.23-1.22,16.84-1.83,1.71-.61,3.42-1.1,5.13-1.71,2.44.37,4.88.61,7.32.98,8.05,1.22,15.99,2.44,24.04,3.66h3.42c2.93.24,5.74.37,8.67.49,1.22,0,2.32,0,3.54.12,5.98,0,11.84.24,17.82.37,0,2.32,0,4.52.12,6.83-2.07.61-4.27,1.1-6.35,1.71h-9.15c-2.81,0-5.61-.24-8.3-.37h-3.66c-15.13-.49-30.27-.98-45.4-1.46-1.22-.24-2.44-.49-3.66-.61-7.93-.73-15.99-1.46-23.92-2.2-3.91-.49-7.81-.98-11.59-1.59-5.13,0-10.25-.24-15.38-.37-13.79-1.95-27.58-3.78-41.49-5.74-1.34-.12-2.68-.37-4.03-.49l-.12.24Z"/><path class="cls-4" d="m902.91,853.91c0-2.32,0-4.52-.12-6.83,32.46.61,64.93,1.34,97.39,1.95,0,1.95.12,3.91.24,5.86-28.19.37-56.38.85-84.58,1.22-1.46,0-2.81.24-4.27.37-2.56-.12-5.25-.24-7.81-.37-.24-.73-.49-1.46-.85-2.2Z"/><path class="cls-4" d="m508.59,779.35l-.24-.24c-8.54,14.4-17.21,28.8-25.75,43.2-1.1-.73-2.2-1.46-3.3-2.2,9.76-13.55,19.65-27.09,29.41-40.64l-.12-.12Z"/><path class="cls-4" d="m580.96,818.52c-5.25,12.2-10.62,24.53-15.87,36.73-2.07-1.1-4.27-2.07-6.35-3.17,6.1-10.98,12.08-21.85,18.18-32.83,1.34-.24,2.68-.49,4.03-.73Z"/><path class="cls-4" d="m1334.69,818.4h5.13c4.52,7.69,8.91,15.5,13.42,23.19-1.59,1.34-3.05,2.68-4.64,4.03-4.64-9.03-9.28-18.18-13.91-27.22Z"/><path class="cls-4" d="m1440.99,826.21c5.61,8.79,11.23,17.45,16.84,26.24-.98.73-1.83,1.46-2.81,2.2-9.15-6.22-13.67-16.11-18.06-26.24,1.34-.73,2.68-1.46,3.91-2.2h.12Z"/><path class="cls-4" d="m1409.63,782.4c1.1,0,2.2-.24,3.3-.24,5.37,7.69,10.74,15.26,16.11,22.94-1.1,1.34-2.2,2.56-3.3,3.91-5.37-8.79-10.74-17.7-16.11-26.48v-.12Z"/><path class="cls-4" d="m476,836.58c-3.3,6.22-6.59,12.57-10.01,18.79-1.46-.73-3.05-1.46-4.52-2.2,2.56-5.49,5.13-11.11,7.57-16.6h6.96Z"/><path class="cls-4" d="m1218.27,843.05c2.93-1.1,5.74-2.32,8.67-3.42.98,1.1,1.95,2.2,2.93,3.3-.24,3.78-.49,7.57-.73,11.35-.98.37-1.95.85-3.05,1.22-2.68-4.15-5.25-8.3-7.93-12.45h.12Z"/><path class="cls-3" d="m617.94,1278.26c8.54-8.67,15.13-4.39,21.24,3.05-7.08-.98-14.16-2.07-21.24-3.05Z"/><path class="cls-4" d="m1435.5,825.6c-3.3-5.61-6.47-11.23-9.76-16.72,1.1-1.34,2.2-2.56,3.3-3.91,3.42,6.1,6.71,12.08,10.13,18.18-1.22.85-2.56,1.59-3.78,2.44h.12Z"/><path class="cls-7" d="m1348.61,845.62c1.59-1.34,3.05-2.68,4.64-4.03,2.44,3.78,4.76,7.57,7.2,11.35-1.22.98-2.32,1.83-3.54,2.81-2.81-3.42-5.49-6.71-8.3-10.13Z"/><path class="cls-7" d="m580.96,818.52c-1.34.24-2.68.49-4.03.73.12-2.81.37-5.61.49-8.42,3.54.73,7.08,1.46,10.62,2.07-2.32,1.83-4.76,3.66-7.08,5.49v.12Z"/><path class="cls-7" d="m476,836.58h-6.83c1.95-3.3,3.91-6.47,5.86-9.76,1.22,1.22,2.44,2.44,3.66,3.66-.85,2.07-1.71,4.15-2.56,6.22l-.12-.12Z"/><path class="cls-3" d="m1521.42,1190.63c-.49,2.68-.85,5.25-1.34,7.93-.73,0-1.59.12-2.32.24-.85-2.44-1.59-4.88-2.44-7.32,2.07-.24,4.03-.61,6.1-.85Z"/><path class="cls-7" d="m775.37,849.16c5.13,0,10.25.24,15.38.37.12.61.37,1.22.61,1.83-5.37-.73-10.62-1.46-15.99-2.2Z"/><path class="cls-3" d="m924.14,1283.99c5.37-.12,10.74-.37,16.11-.49-5.37.12-10.74.37-16.11.49Z"/><path class="cls-4" d="m1124.9,851.11c4.88-.73,9.64-1.34,14.52-2.07,0,.73-.24,1.46-.49,2.2h-14.03v-.12Z"/><path class="cls-3" d="m1154.56,1208.57c3.91-1.95,7.81-3.78,11.72-5.74-3.91,1.95-7.81,3.78-11.72,5.74Z"/><path class="cls-3" d="m1030.44,1242.25c5.13,0,10.13.24,15.26.37-5.13,0-10.13-.24-15.26-.37Z"/><path class="cls-4" d="m791.24,851.23s-.37-1.22-.61-1.83c3.91.49,7.81.98,11.59,1.59-3.66,0-7.32.12-10.98.24Z"/><path class="cls-7" d="m692.99,848.79c.98-.37,1.95-.73,2.81-.98-.98,2.32-1.95,4.76-2.93,7.08l-5-3.78c1.71-.73,3.42-1.59,5.13-2.32Z"/><path class="cls-3" d="m308.56,1242.62c-.85,1.59-1.83,3.05-2.68,4.64-.73-1.95-1.46-3.91-2.32-5.86,1.71.37,3.3.85,5,1.22Z"/><path class="cls-6" d="m478.69,752.01c.73-6.96,3.54-8.42,8.91-3.42-2.93,1.1-5.86,2.32-8.91,3.42Z"/><path class="cls-4" d="m1425.37,752.01c-.37-1.71-.73-3.3-1.1-5,.24-2.56.37-5.13.61-7.69.98,2.81,1.83,5.49,2.81,8.3-.12,1.22-.24,2.44-.37,3.66l-.85.61h-1.1v.12Z"/><path class="cls-3" d="m1545.83,1205.89c.73-4.03,1.34-8.18,2.07-12.2-.73,4.03-1.34,8.18-2.07,12.2Z"/><path class="cls-4" d="m478.57,830.36c-1.22-1.22-2.44-2.44-3.66-3.66,1.46-2.2,2.81-4.52,4.27-6.71,1.1.73,2.2,1.46,3.3,2.2l-4.03,8.18h.12Z"/><path class="cls-7" d="m1033,855.62l12.69-.61-12.69.61Z"/><path class="cls-4" d="m690.92,831.83c-1.46,1.71-2.93,3.3-4.39,5l-1.1.49-.61-.98c0-1.83-.12-3.66-.24-5.49,2.07.37,4.27.73,6.35.98Z"/><path class="cls-4" d="m1088.53,853.79c3.05-.37,6.1-.73,9.15-.98-3.05.37-6.1.73-9.15.98Z"/><path class="cls-3" d="m1109.89,1183.8c-2.81.49-5.74.98-8.54,1.46,2.81-.49,5.74-.98,8.54-1.46Z"/><path class="cls-7" d="m1427.2,751.4c.12-1.22.24-2.44.37-3.66,3.05,1.22,6.22,2.56,9.28,3.78-3.17,0-6.47,0-9.64-.12Z"/><path class="cls-3" d="m1500.67,1184.28c-3.3,0-6.47-.12-9.76-.24,3.3,0,6.47.12,9.76.24Z"/><path class="cls-3" d="m797.34,1188.56c-.61,3.05-1.34,6.1-1.95,9.28.61-3.05,1.34-6.1,1.95-9.28Z"/><path class="cls-3" d="m1072.42,1260.68c-2.07-.49-4.27-.85-6.35-1.34,2.07.49,4.27.85,6.35,1.34Z"/><path class="cls-4" d="m692.99,848.79c-1.71.73-3.42,1.59-5.13,2.32-.49-.85-.24-1.71.49-2.32h4.64Z"/><path class="cls-3" d="m1686.18,1259.22c-2.07.49-4.03.98-6.1,1.46,2.07-.49,4.03-.98,6.1-1.46Z"/><path class="cls-3" d="m1336.16,1174.52c1.1-1.71,2.2-3.3,3.17-5-1.1,1.71-2.2,3.3-3.17,5Z"/><path class="cls-3" d="m1693.87,1282.53c2.32.37,4.52.73,6.83,1.1-2.32-.37-4.52-.73-6.83-1.1Z"/><path class="cls-3" d="m1315.41,1169.64c2.07.49,4.15,1.1,6.22,1.59-2.07-.49-4.15-1.1-6.22-1.59Z"/><path class="cls-3" d="m844.57,1163.78c-.61-2.2-1.1-4.39-1.71-6.71.61,2.2,1.1,4.39,1.71,6.71Z"/><path class="cls-7" d="m902.91,853.91c.37.73.61,1.46.85,2.2-2.44-.12-4.88-.24-7.2-.49,2.07-.61,4.27-1.1,6.35-1.71Z"/><path class="cls-7" d="m653.94,829.63c1.22.12,2.44.37,3.66.49-1.22-.12-2.44-.37-3.66-.49Z"/><path class="cls-3" d="m1591.23,1326.46c.73-.85,1.46-1.71,2.2-2.68-.73.85-1.46,1.71-2.2,2.68Z"/><path class="cls-7" d="m911.57,856.48c1.46,0,2.81-.24,4.27-.37-1.46,0-2.81.24-4.27.37Z"/><path class="cls-7" d="m1506.16,855.38c1.22.24,2.44.37,3.66.61-1.22-.24-2.44-.37-3.66-.61Z"/><path class="cls-7" d="m1518.37,855.26c.98-.37,2.07-.61,3.05-.98-.98.37-2.07.61-3.05.98Z"/><path class="cls-3" d="m366.41,1145.11c-1.22,0-2.44-.12-3.78-.24,1.22,0,2.44.12,3.78.24Z"/><path class="cls-3" d="m1293.93,1171.35c1.22-.37,2.44-.85,3.66-1.22-1.22.37-2.44.85-3.66,1.22Z"/><path class="cls-4" d="m399.12,856.72c.98.37,1.95.73,2.93,1.1-.98-.37-1.95-.73-2.93-1.1Z"/><path class="cls-4" d="m826.26,853.18c1.22.24,2.44.49,3.66.61-1.22-.24-2.44-.49-3.66-.61Z"/><path class="cls-3" d="m814.06,1174.89c-.49,1.34-.98,2.56-1.46,3.91.49-1.34.98-2.56,1.46-3.91Z"/><path class="cls-3" d="m636.98,1183.55c-1.59,0-3.3-.12-4.88-.24,1.59,0,3.3.12,4.88.24Z"/><path class="cls-3" d="m690.92,1182.7c-1.22.49-2.32.98-3.54,1.46,1.22-.49,2.32-.98,3.54-1.46Z"/><path class="cls-3" d="m700.07,1184.28c-1.22-.49-2.32-.98-3.54-1.46,1.22.49,2.32.98,3.54,1.46Z"/><path class="cls-4" d="m397.04,852.08c.49.61.98,1.34,1.22,1.95,0,.12-.49.61-.73.98-.37-.61-.98-1.22-1.22-1.95,0-.24.37-.61.61-.98h.12Z"/><path class="cls-7" d="m1138.94,851.11c.24-.73.37-1.46.49-2.2,1.22.37,2.44.85,3.54,1.22-1.34.24-2.68.61-4.03.85v.12Z"/><path class="cls-3" d="m1157.85,1182.09c-1.34.49-2.68.85-4.03,1.34,1.34-.49,2.68-.85,4.03-1.34Z"/><path class="cls-4" d="m1411.83,772.63c-.12-.73-.24-1.46-.37-2.2.49,0,.98,0,1.46-.12.24,1.1,0,1.83-.98,2.44l-.12-.12Z"/><path class="cls-3" d="m1564.26,1184.28s-.73.85-1.46.85c.49-.24.98-.61,1.46-.85Z"/><path class="cls-3" d="m1579.39,1184.53c-1.1,0-2.32-.12-3.42-.24,1.1,0,2.32.12,3.42.24Z"/><path class="cls-4" d="m1155.05,847.93c.73,0,1.59-.12,2.32-.24l-1.1.73-1.22-.37v-.12Z"/><path class="cls-3" d="m687.01,1184.41c-.61,1.1-1.22,2.32-1.95,3.42.61-1.1,1.22-2.32,1.95-3.42Z"/><path class="cls-3" d="m800.15,1186.85c-.49.85-1.34,1.34-2.32,1.34l2.32-1.34Z"/><path class="cls-3" d="m1591.84,1187.34c-1.22-.49-2.32-1.1-3.54-1.59,1.22.49,2.32,1.1,3.54,1.59Z"/><path class="cls-3" d="m868.86,1191c-.73-1.1-1.34-2.2-2.07-3.3.73,1.1,1.34,2.2,2.07,3.3Z"/><path class="cls-3" d="m1166.52,1196.98c-.37-.73-.73-1.46-.85-2.2,0-.24.61-.61.98-.85v3.17l-.12-.12Z"/><path class="cls-4" d="m1338.84,811.81c-.12-.73-.24-1.34-.49-2.07.49,0,.85,0,1.34-.12.37.98,0,1.71-.85,2.2Z"/><path class="cls-3" d="m1712.54,1204.67c1.22-.37,2.32-.73,3.54-1.22-1.22.37-2.32.73-3.54,1.22Z"/><path class="cls-7" d="m729.97,842.93c1.34.12,2.68.37,4.03.49-1.34-.12-2.68-.37-4.03-.49Z"/><path class="cls-3" d="m1079.75,1212.11c-.24-.98-.61-1.95-.85-2.93.49.61.98,1.22,1.34,1.95,0,.24-.37.73-.49,1.1v-.12Z"/><path class="cls-3" d="m813.08,1214.92l.73,4.03c-.37-.85-.85-1.71-1.22-2.56,0-.37.24-.98.49-1.34v-.12Z"/><path class="cls-3" d="m1716.2,1217.6c-1.1-.98-2.07-1.95-3.17-2.81,1.1.98,2.07,1.95,3.17,2.81Z"/><path class="cls-3" d="m1081.46,1240.55c0-.61.37-1.1.85-1.46.24.24.49.49.73.85-.61.24-1.1.37-1.71.61h.12Z"/><path class="cls-3" d="m879.35,1245.18c.37,1.34.73,2.68,1.22,4.03-.37-1.34-.73-2.68-1.22-4.03Z"/><path class="cls-3" d="m1339.21,1254.46l-2.68-2.81,2.68,2.81Z"/><path class="cls-3" d="m930.86,1262.88c-1.22-.24-2.56-.49-3.78-.73,1.22.24,2.56.49,3.78.73Z"/><path class="cls-7" d="m1284.53,826.58c1.34-.49,2.68-.85,4.03-1.34-1.34.49-2.68.85-4.03,1.34Z"/><path class="cls-3" d="m1039.96,1263c-1.22-.12-2.44-.37-3.66-.49,1.22.12,2.44.37,3.66.49Z"/><path class="cls-3" d="m1695.33,1262.27l-3.91-1.34,3.91,1.34Z"/><path class="cls-7" d="m782.57,517.57l-3.91.85,3.91-.85Z"/><path class="cls-3" d="m1597.45,1276.79c1.1.37,2.2.73,3.17,1.1-1.1-.37-2.2-.73-3.17-1.1Z"/><path class="cls-7" d="m915.48,493.03c-1.22.12-2.44.24-3.66.37,1.22-.12,2.44-.24,3.66-.37Z"/><path class="cls-3" d="m712.03,1281.67c1.22-.73,2.44-1.59,3.78-2.32-1.22.73-2.44,1.59-3.78,2.32Z"/><path class="cls-3" d="m1593.06,1281.8c-.24-.85-.61-1.71-.61-2.56,0-.24.61-.61.98-.98-.12,1.22-.24,2.32-.37,3.54Z"/><path class="cls-3" d="m651.01,1283.14c1.22-.37,2.32-.73,3.54-1.1-1.22.37-2.32.73-3.54,1.1Z"/><path class="cls-3" d="m771.71,1283.02c1.34-.24,2.81-.61,4.15-.85-1.34.24-2.81.61-4.15.85Z"/><path class="cls-3" d="m857.26,1283.87c1.22-.61,2.44-1.1,3.66-1.71-1.22.61-2.44,1.1-3.66,1.71Z"/><path class="cls-7" d="m1229.98,842.93c-.98-1.1-1.95-2.2-2.93-3.3h3.78c-.24,1.1-.49,2.07-.85,3.17v.12Z"/><path class="cls-4" d="m1436.97,828.41c-.49-.98-.98-1.95-1.46-2.81,1.22-.85,2.56-1.59,3.78-2.44.61.98,1.1,2.07,1.71,3.05-1.34.73-2.68,1.46-3.91,2.2h-.12Z"/><path class="cls-7" d="m1020.8,855.99c1.34,0,2.68,0,3.91-.12-1.34,0-2.68,0-3.91.12Z"/><path class="cls-6" d="m793.68,539.78c6.47-3.17,12.57-7.81,19.53-9.4,15.13-3.3,29.17-8.67,46.38-7.2,30.63,2.44,61.88-2.44,93-3.42,28.68-.85,57.36-.98,86.04-.73,15.74.12,31.73,0,46.99,3.17,12.57,2.56,24.04,10.01,36,15.26.61,1.22,1.1,2.44,1.71,3.78-.85,1.59-1.71,3.17-2.56,4.76-.85.49-1.71.98-2.56,1.59-8.05,4.64-16.11,9.28-24.16,13.91-2.93.73-5.86,1.59-8.91,2.32-7.08.24-14.03.49-21.11.73-3.17,3.42-6.35,6.83-9.64,10.25-1.95-.85-3.91-1.71-5.74-2.56l-3.3-1.22c-11.96,1.83-24.04,3.66-36,5.49-3.42.37-6.71.73-10.13,1.1-24.9-.24-49.79-.37-74.57-.61l-15.74-.37c-9.03-1.83-17.94-3.66-26.97-5.37-1.1-.24-2.2-.37-3.3-.61h-5.86c-5.86-1.22-11.72-2.56-17.57-3.78-4.27-.98-8.67-2.07-12.94-3.05-6.1-.61-12.08-1.22-18.18-1.95-8.18-4.64-16.23-9.15-24.41-13.79-1.34-.73-2.56-1.34-3.91-2.07-.73-1.95-1.46-3.91-2.07-5.86v-.37Z"/><path class="cls-3" d="m1424.88,739.44c-.24,2.56-.37,5.13-.61,7.69-7.93,5.61-15.99,11.35-23.92,16.96-5-8.54-8.67-18.31-15.26-25.26-32.95-34.42-66.64-68.22-100.07-102.15,2.07-6.47,4.03-12.94,6.1-19.53,4.76,1.46,10.13,1.83,14.03,4.52,43.33,30.14,81.65,65.78,114.6,107.03,2.44,3.05,3.54,7.08,5.25,10.62l-.12.12Z"/><path class="cls-3" d="m505.78,760.67c-4.15-8.05-8.18-16.11-12.33-24.16,33.68-43.45,73.84-79.94,118.14-112.28,6.71-5,12.33-5.98,18.31.37,1.22,2.93,2.44,5.98,3.66,8.91-5.98,6.59-12.08,13.18-18.06,19.65-14.4,15.74-28.68,31.36-43.08,47.11h0c-2.93,1.34-6.71,1.95-8.67,4.15-13.55,14.89-26.48,30.39-40.4,44.91-4.64,4.88-11.72,7.57-17.57,11.23v.12Z"/><path class="cls-1" d="m1120.63,545.88c.85-1.59,1.71-3.17,2.56-4.76,1.59-.85,3.17-1.59,4.76-2.44h4.88c1.22.24,2.44.49,3.66.73,50.16,16.96,98.85,37.35,143.52,66.27.61,3.17,1.34,6.47,1.95,9.64-.37,1.83-.73,3.78-1.1,5.61-.61.98-1.34,1.95-1.95,2.93-1.95.49-4.03.98-5.98,1.46-10.25-5.86-20.87-11.35-30.75-17.82-38.32-25.02-77.13-48.82-121.55-61.75v.12Z"/><path class="cls-6" d="m1280.87,620.94c.37-1.83.73-3.78,1.1-5.61l3.66-3.17c1.71,1.71,3.54,3.3,5.25,5-2.07,6.47-4.03,12.94-6.1,19.53-.98,1.83-1.95,3.78-2.93,5.61-6.59,1.59-13.79,2.2-19.77,5-18.43,8.54-35.39,20.87-56.75,22.21-.85-.24-1.59,0-2.2.61-15.74,3.54-31.36,6.96-47.11,10.5l-11.35,5c-13.79.85-27.7,1.71-41.49,2.56-1.22,0-2.44.24-3.78.24-1.46.37-3.05.73-4.52.98s-2.81.49-4.27.73l-14.28,1.59c-1.34.49-2.68.85-4.03,1.34-3.91.37-7.81.73-11.72,1.22-2.07.12-4.03.37-6.1.49-2.07.73-4.03,1.59-6.1,2.32-1.95,1.95-3.91,3.91-5.86,5.74-2.07-2.07-4.15-4.15-6.22-6.22-2.32-2.81-4.76-5.61-7.08-8.42,2.56-2.07,5.13-4.15,7.69-6.22,2.68,0,5.37,0,8.05-.12,3.17,1.34,6.35,2.68,9.64,3.91,2.07,0,4.15.24,6.1.37,1.95-.12,4.03-.24,5.98-.37,2.07,0,4.15-.24,6.1-.37,7.08-1.22,14.16-2.44,21.11-3.66,4.03-.73,8.05-1.46,12.2-2.2,8.54-2.07,17.09-4.27,25.75-6.35,3.42-1.1,6.71-2.2,10.13-3.17,1.34.98,2.56,1.95,3.91,2.93h11.47c7.2-2.07,14.4-4.15,21.6-6.22l9.28-1.95c3.91-.49,7.93-.85,11.84-1.34,2.07-.73,4.27-1.46,6.35-2.07.73-.49,1.34-.85,2.2-1.1,5.25-2.68,10.62-5.49,15.87-8.18,15.62-2.07,28.8-8.67,38.69-21.11,3.3-1.83,6.59-3.78,9.76-5.61,1.95-.49,4.03-.98,5.98-1.46.61-.98,1.34-1.95,1.95-2.93Z"/><path class="cls-1" d="m793.68,539.78l2.07,5.86c-10.86,3.66-22.58,5.98-32.46,11.35-27.83,15.13-54.8,31.73-82.26,47.47-12.69,7.2-25.75,13.79-38.69,20.75-2.07-1.34-4.27-2.56-6.35-3.78l-1.22-6.47c3.3-3.91,5.86-8.79,10.01-11.47,43.57-28.19,91.29-47.23,139.98-64.32.98-.12,2.07-.37,3.05-.49,1.95.37,3.91.73,5.86,1.1Z"/><path class="cls-6" d="m635.88,621.3c2.07,1.22,4.27,2.56,6.35,3.78,4.76,2.81,9.64,5.61,14.4,8.42,13.18,12.08,26.85,22.21,46.38,15.26l2.56,2.56c2.68,3.17,4.76,8.3,8.18,9.28,12.81,3.91,26,7.44,39.3,9.28,9.4,1.22,19.16-.61,28.68-1.1,2.07,1.22,4.03,2.44,6.1,3.78,3.05,1.34,6.1,2.68,9.15,4.03,3.05.61,5.98,1.34,9.03,1.95,13.3,2.32,26.48,4.64,39.79,6.96,2.93,0,5.98.24,8.91.24s5.86,0,8.79-.12c1.1-.12,2.2-.24,3.42-.37h.24c1.95-.85,3.91-1.83,5.86-2.68.73-.61,1.59-.98,2.44-1.34,2.44.98,4.76,1.83,7.2,2.81.85.24,1.59.49,2.44.85,1.95.61,4.03,1.34,5.98,1.95.49,0,.98,0,1.46.37-1.59,2.07-3.17,4.03-4.76,6.1-2.68.49-5.49.98-8.18,1.34-4.52,0-9.03-.12-13.55-.24-2.56,0-5.25,0-7.81-.12-3.17-.37-6.35-.85-9.64-1.22-3.17-.61-6.22-1.22-9.4-1.83-2.93-.24-5.86-.61-8.79-.85-4.15-.73-8.3-1.46-12.45-2.2-2.93-.24-5.86-.49-8.79-.61-4.03-.85-8.18-1.71-12.2-2.56-.98,0-1.95-.24-2.81-.73-2.07-.49-4.15-.85-6.22-1.34-4.88.98-9.76,1.95-14.65,2.81-7.32-2.2-14.52-4.39-21.85-6.71-5-1.34-10.01-2.56-14.89-3.91-4.03-.85-7.93-1.71-11.96-2.56-1.34,0-2.56-.12-3.91-.24-1.71-.49-3.54-.98-5.25-1.46-6.22-1.34-12.45-2.32-18.55-4.27-4.27-1.34-8.05-4.03-11.96-6.22-1.1-.85-2.32-1.59-3.42-2.44-.98,0-1.83-.24-2.56-.73l-3.78-1.95c-12.94-4.52-25.87-9.03-38.81-13.55-.85-2.81-1.71-5.61-2.56-8.3-1.22-2.93-2.44-5.98-3.66-8.91,1.1-1.1,2.32-2.2,3.42-3.42.85,0,1.71.12,2.56.24h-.24Z"/><path class="cls-4" d="m1285.76,612.15l-3.66,3.17c-.61-3.17-1.34-6.47-1.95-9.64,1.83,2.2,3.78,4.27,5.61,6.47Z"/><path class="cls-4" d="m635.88,621.3c-.85,0-1.71,0-2.56-.24.49-2.07.85-4.15,1.34-6.22.37,2.2.73,4.27,1.22,6.47Z"/><path class="cls-4" d="m1128.08,538.68c-1.59.85-3.17,1.59-4.76,2.44-.61-1.22-1.1-2.44-1.71-3.78,2.2.49,4.39.85,6.47,1.34Z"/><path class="cls-4" d="m1136.62,539.41c-1.22-.24-2.44-.49-3.66-.73,1.22.24,2.44.49,3.66.73Z"/><path class="cls-6" d="m787.82,538.68c-.98.12-2.07.37-3.05.49.98-.12,2.07-.37,3.05-.49Z"/><path class="cls-5" d="m1593.18,1227c4.03-16.72,10.86-22.82,23.55-21.24,11.72,1.46,17.94,11.23,16.72,27.46-.49,5.86-1.1,13.3-4.76,16.84-5,5-13.67,10.5-19.53,9.4-5.74-1.1-10.74-9.64-14.65-15.87-2.2-3.42-1.22-8.79-1.71-13.3,0-1.1.24-2.2.37-3.42v.12Z"/><path class="cls-3" d="m1593.18,1227c0,1.1-.24,2.2-.37,3.42-.24-.85-.49-1.59-.61-2.44,0-.24.61-.61.98-.98Z"/><path class="cls-5" d="m455.26,1232c.24,18.18-7.57,28.44-21.36,28.56-12.45,0-21.72-10.5-22.09-25.26-.49-18.67,7.57-29.29,22.09-29.53,14.28-.24,21.11,8.18,21.36,26.12v.12Z"/><path class="cls-5" d="m1429.28,1222.12c-.61,8.79.37,18.18-2.2,26.48-3.17,10.5-12.08,14.16-22.94,11.96-14.4-2.93-16.84-14.28-17.94-26.24-1.1-13.3,5.86-26.12,15.74-27.83,10.74-1.83,21.6-1.83,25.87,11.59.49,1.34.98,2.68,1.34,4.15l.12-.12Z"/><path class="cls-3" d="m1429.28,1222.12c-.49-1.34-.98-2.68-1.34-4.15.49,1.34.98,2.68,1.34,4.15Z"/><path class="cls-5" d="m1019.21,1218.7c2.44-10.5,8.18-16.48,20.01-15.87,10.01.49,11.96,7.32,13.3,15.01l-1.46,2.56-20.63,2.07c-3.78-1.34-7.44-2.56-11.23-3.91v.12Z"/><path class="cls-3" d="m1019.21,1218.7c3.78,1.34,7.44,2.56,11.23,3.91-4.88,1.83-10.37,5.74-11.23-3.91Z"/><path class="cls-3" d="m1050.95,1220.53l1.46-2.56-1.46,2.56Z"/><path class="cls-5" d="m939.52,1221.63l-23.68,1.83c-1.34-1.71-2.68-3.42-4.15-5.25,1.83-9.15,6.1-15.01,16.72-15.26,10.86-.24,14.89,5.86,16.72,14.89-1.83,1.22-3.78,2.56-5.61,3.78Z"/><path class="cls-3" d="m939.52,1221.63c1.83-1.22,3.78-2.56,5.61-3.78-1.83,1.22-3.78,2.56-5.61,3.78Z"/><path class="cls-3" d="m911.69,1218.21c1.34,1.71,2.68,3.42,4.15,5.25-1.34-1.71-2.68-3.42-4.15-5.25Z"/><path class="cls-3" d="m879.48,694.89c2.68-.49,5.49-.98,8.18-1.34,1.34.49,2.68,1.1,4.03,1.59,3.54.49,7.2,1.1,10.74,1.59,44.67,0,89.34.12,134,.24,2.07,2.07,4.15,4.15,6.22,6.22,8.3,40.52,16.6,81.04,25.14,121.55.73,3.3,2.93,6.22,4.39,9.28,1.46,7.2-.85,11.23-8.79,11.72-7.81.49-15.62,1.46-23.43,2.32-1.34,0-2.81.12-4.15.24-8.91.24-17.82.61-26.61.85h-3.3c-1.83.12-3.78.12-5.61.24-32.46-.61-64.93-1.34-97.39-1.95-5.98,0-11.84-.24-17.82-.37-1.22,0-2.32,0-3.54-.12-2.93,0-5.74-.24-8.67-.37-1.1,0-2.32,0-3.42-.12-8.05-1.22-15.99-2.44-24.04-3.66,6.22-28.44,12.45-56.99,18.67-85.43.73-3.66,1.34-7.2,2.07-10.86,4.39-17.09,8.79-34.17,13.3-51.38v-.24Z"/><path class="cls-3" d="m1156.27,680.74c15.74-3.54,31.36-6.96,47.11-10.5.73-.24,1.46-.49,2.2-.61,21.36-1.34,38.2-13.67,56.75-22.21,6.1-2.81,13.18-3.42,19.77-5,2.32,3.05,4.03,6.71,6.83,9.15,40.52,35.15,77.62,73.1,106.18,118.87-18.55,8.91-36.98,17.94-55.53,26.85-4.15-1.59-10.13-2.07-12.33-5.13-19.89-27.7-38.57-56.38-58.7-83.97-9.4-12.81-20.99-24.04-31.61-36-1.1.98-2.32,1.95-3.42,2.93,2.07,3.05,4.03,6.1,6.22,9.03,20.14,26.97,41.13,53.33,60.29,81.04,8.3,11.96,13.3,26.24,19.77,39.54-2.68.61-5.37,1.34-8.05,1.95-2.81.73-5.49,1.46-8.3,2.2-1.1.37-2.2.73-3.3,1.1-1.34.37-2.68.85-3.91,1.22-11.11,2.56-22.09,5.13-33.2,7.69-.73-.24-1.46,0-1.95.61-11.23,2.81-22.58,5.49-33.81,8.3-3.3-2.32-8.05-3.78-9.64-6.83-19.65-39.91-39.05-80.06-57.85-120.33-2.81-5.86-2.56-13.18-3.78-19.77l.24-.12Z"/><path class="cls-3" d="m1076.57,691.84l14.28-1.59c1.46-.24,2.81-.49,4.27-.73,1.46-.37,3.05-.73,4.52-.98,1.22,0,2.44-.24,3.78-.24,13.79-.85,27.7-1.71,41.49-2.56,14.4,28.56,29.66,56.63,42.84,85.8,8.54,18.79,14.16,38.93,20.99,58.46-1.95.37-3.91.73-5.98,1.1-3.66.73-7.44,1.46-11.11,2.2-10.37,1.46-20.75,2.93-31,4.52-2.07.49-4.15,1.1-6.1,1.59-15.01,1.46-30.14,2.81-45.16,4.27-1.34,0-2.81.24-4.15.37-8.67-1.46-17.45-2.93-26.12-4.52-.12-.98-.37-1.95-.49-2.93-.12-1.83-.24-3.78-.37-5.61-9.89-44.55-19.65-89.09-29.53-133.64,2.07-.73,4.03-1.59,6.1-2.32,2.07-.12,4.03-.37,6.1-.49,3.91-.37,7.81-.73,11.72-1.22,1.34-.49,2.68-.85,4.03-1.34l-.12-.12Z"/><path class="cls-4" d="m1208.87,829.87c-6.96-19.53-12.45-39.66-20.99-58.46-13.18-29.05-28.44-57.24-42.84-85.8l11.35-5c1.22,6.59,1.1,13.91,3.78,19.77,18.92,40.27,38.2,80.43,57.85,120.33,1.59,3.17,6.35,4.64,9.64,6.83-6.22.73-12.45,1.46-18.79,2.2v.12Z"/><path class="cls-4" d="m1395.23,770.19c-28.56-45.77-65.78-83.72-106.18-118.87-2.81-2.44-4.64-6.1-6.83-9.15.98-1.83,1.95-3.78,2.93-5.61,33.44,33.93,67.12,67.73,100.07,102.15,6.59,6.96,10.25,16.84,15.26,25.26-1.71,2.07-3.42,4.03-5.13,6.1l-.12.12Z"/><path class="cls-4" d="m1319.93,804.61c-6.47-13.3-11.47-27.58-19.77-39.54-19.28-27.58-40.15-54.06-60.29-81.04-2.2-2.93-4.15-5.98-6.22-9.03,1.1-.98,2.32-1.95,3.42-2.93,10.62,11.96,22.33,23.07,31.61,36,20.14,27.58,38.81,56.14,58.7,83.97,2.2,3.05,8.18,3.42,12.33,5.13-6.59,2.56-13.18,5-19.65,7.57l-.12-.12Z"/><path class="cls-4" d="m1048.63,697.21c9.89,44.55,19.65,89.09,29.53,133.64-1.95.98-3.91,2.07-5.86,3.05-1.46-3.05-3.66-6.1-4.39-9.28-8.54-40.52-16.84-81.04-25.14-121.55,1.95-1.95,3.91-3.91,5.86-5.74v-.12Z"/><path class="cls-7" d="m1191.78,833.17c3.66-.73,7.44-1.46,11.11-2.2-3.66.73-7.44,1.46-11.11,2.2Z"/><path class="cls-7" d="m1303.7,808.88c2.81-.73,5.49-1.46,8.3-2.2-2.81.73-5.49,1.46-8.3,2.2Z"/><path class="cls-4" d="m1154.56,839.27c2.07-.49,4.15-1.1,6.1-1.59-2.07.49-4.15,1.1-6.1,1.59Z"/><path class="cls-4" d="m1035.93,848.06c1.34,0,2.81-.12,4.15-.24-1.34,0-2.81.12-4.15.24Z"/><path class="cls-4" d="m1296.37,811.08c1.34-.37,2.68-.85,3.91-1.22-1.34.37-2.68.85-3.91,1.22Z"/><path class="cls-4" d="m1105.25,843.79c1.34,0,2.81-.24,4.15-.37-1.34,0-2.81.24-4.15.37Z"/><path class="cls-7" d="m1261.35,819.38c.49-.73,1.1-.85,1.95-.61l-.73.98-1.1-.37h-.12Z"/><path class="cls-4" d="m1078.53,836.34c.12.98.37,1.95.49,2.93-.49-.61-1.1-1.22-1.46-1.95,0-.12.61-.61.85-.98h.12Z"/><path class="cls-3" d="m736.32,675.12c5,1.34,10.01,2.56,14.89,3.91,3.91,1.95,7.81,3.78,13.79,6.71-4.88,8.79-9.64,16.84-13.67,25.14-17.57,36.37-35.03,72.74-52.48,109.23l-.24.61c-.49,1.22-1.1,2.56-1.59,3.78v.12c-.49.98-1.1,1.95-1.59,3.05-1.46,1.34-3.05,2.68-4.52,4.15-2.07-.37-4.27-.73-6.35-.98-3.54-1.83-6.83-4.52-10.5-5.49-29.41-8.18-58.95-16.11-88.36-24.16l-4.15-.61c-19.89-10.01-39.66-20.01-59.56-30.02,3.17-5.49,5.98-11.35,9.64-16.35,13.42-18.18,27.22-36,40.88-54.06h0c2.2-.85,4.88-1.22,6.47-2.68,17.33-15.13,34.66-30.27,51.62-45.77,2.68-2.44,3.66-6.59,5.49-9.89,12.94,4.52,25.87,9.03,38.81,13.55l3.78,1.95c.85.49,1.71.73,2.56.73,1.1.85,2.32,1.59,3.42,2.44,4.03,2.07,7.81,4.76,11.96,6.22,5.98,1.95,12.33,2.93,18.55,4.27,1.71.49,3.54.98,5.25,1.46,1.34,0,2.56.12,3.91.24,4.03.85,7.93,1.71,11.96,2.56v-.12Zm-52.72-.73c-1.34,0-2.56.24-3.91.24-27.34,22.09-90.68,108.74-88.48,124.73,4.15-5.25,7.2-8.79,9.89-12.57,15.74-22.58,31-45.52,47.23-67.86,11.11-15.26,23.55-29.78,35.27-44.55Z"/><path class="cls-4" d="m572.54,700.14c-13.67,17.94-27.46,35.88-40.88,54.06-3.78,5.13-6.47,10.86-9.64,16.35-5.37-3.3-10.74-6.59-16.11-9.89,5.98-3.66,12.94-6.35,17.57-11.23,13.91-14.52,26.85-30.02,40.4-44.91,2.07-2.2,5.74-2.93,8.67-4.27v-.12Z"/><path class="cls-4" d="m581.45,800.58l4.15.61-4.15-.61Z"/><path class="cls-3" d="m773.05,685.74c4.88-.98,9.76-1.95,14.65-2.81,2.07.49,4.15.85,6.22,1.34.85.49,1.83.73,2.81.73,4.03.85,8.18,1.71,12.2,2.56,2.93.24,5.86.49,8.79.61,4.15.73,8.3,1.46,12.45,2.2,2.93.24,5.86.61,8.79.85,3.17.61,6.22,1.22,9.4,1.83,3.17.37,6.35.85,9.64,1.22l8.05,2.56c-.49,6.35-.24,12.81-1.71,18.92-9.89,41.62-23.92,82.26-26.24,125.46-1.71.61-3.42,1.1-5.13,1.71-5.74,0-11.35,0-17.09-.12-3.42,0-6.83.12-10.13.24-9.89-.37-19.77-.85-29.66-1.22-3.17-.73-6.47-1.46-9.64-2.07-10.98-1.71-22.09-3.3-33.07-5-1.1,0-2.32-.24-3.42-.37-5.98-1.1-12.33-1.1-17.7-3.42-3.42-1.46-5.25-6.35-7.81-9.76,1.59-2.44,3.54-4.88,4.76-7.44,21.36-42.71,42.59-85.43,63.95-128.14l-.12.12Z"/><path class="cls-4" d="m838.22,841.47c2.32-43.2,16.35-83.97,26.24-125.46,1.46-6.1,1.22-12.69,1.71-18.92,0-.85,0-1.59-.24-2.32,4.52,0,9.03.12,13.55.24-4.39,17.09-8.79,34.17-13.3,51.38-.73,3.66-1.34,7.2-2.07,10.86-6.22,28.44-12.45,56.99-18.67,85.43-2.44-.37-4.88-.61-7.32-.98l.12-.24Z"/><path class="cls-4" d="m773.05,685.74c-21.36,42.71-42.59,85.43-63.95,128.14-1.34,2.68-3.17,5-4.76,7.44-1.83-.37-3.66-.85-5.49-1.22,17.45-36.37,34.9-72.86,52.48-109.23,4.03-8.3,8.91-16.35,13.67-25.14-5.98-2.93-9.89-4.88-13.79-6.71,7.32,2.2,14.52,4.39,21.85,6.71Z"/><path class="cls-7" d="m816.01,843.05c5.74,0,11.35,0,17.09.12-5.61.61-11.23,1.22-16.84,1.83-.24-.61-.37-1.22-.24-1.95Z"/><path class="cls-4" d="m766.46,839.88c3.17.73,6.47,1.46,9.64,2.07-3.17-.73-6.47-1.46-9.64-2.07Z"/><path class="cls-4" d="m816.01,843.05c0,.61,0,1.34.24,1.95-3.42-.61-6.96-1.1-10.37-1.71,0,0,10.13-.24,10.13-.24Z"/><path class="cls-4" d="m881.55,846.59c1.22,0,2.32,0,3.54.12-1.22,0-2.32,0-3.54-.12Z"/><path class="cls-4" d="m869.47,846.1c1.1,0,2.32,0,3.42.12-1.1,0-2.32,0-3.42-.12Z"/><path class="cls-4" d="m697.02,824.5c.49-1.22,1.1-2.56,1.59-3.78-.49,1.22-1.1,2.56-1.59,3.78Z"/><path class="cls-4" d="m695.43,827.68c.49-.98,1.1-1.95,1.59-3.05-.49.98-1.1,1.95-1.59,3.05Z"/><path class="cls-4" d="m729.97,834.63c1.1,0,2.32.24,3.42.37-1.1,0-2.32-.24-3.42-.37Z"/><path class="cls-1" d="m884.97,685.01c-.73-.37-1.59-.61-2.44-.85,6.83-21.85,12.81-44.06,20.99-65.54,5.49-14.65,13.91-28.07,21.11-42.1,24.9.24,49.79.37,74.57.61,1.22,5.86,1.83,11.96,3.91,17.45,11.11,29.29,22.58,58.34,33.93,87.5-2.56,2.07-5.13,4.15-7.69,6.22l-137.05-.98s-.98-.49-1.46-.37c-1.95-.61-4.03-1.34-5.98-1.95h.12Z"/><path class="cls-1" d="m781.6,669.02c-9.64.49-19.4,2.32-28.68,1.1-13.3-1.83-26.36-5.37-39.3-9.28-3.3-.98-5.49-6.1-8.18-9.28,36.61-27.95,73.23-56.02,109.84-83.97-.61-.98-1.34-1.83-1.95-2.81-42.71,19.77-77.25,51.01-110.33,84.21-19.4,6.96-33.2-3.3-46.38-15.26,1.59-2.93,2.44-7.2,4.88-8.54,33.32-19.4,66.64-38.44,100.2-57.36,12.45-6.96,25.26-13.42,37.83-20.01,8.18,4.64,16.23,9.15,24.41,13.79,6.1.61,12.08,1.22,18.18,1.95,4.27.98,8.67,2.07,12.94,3.05-1.95,3.66-3.42,7.93-6.1,11.11-20.99,25.38-42.35,50.4-62.97,76.03-3.05,3.91-3.17,10.25-4.52,15.38l.12-.12Z"/><path class="cls-1" d="m1263.18,630.94c-9.89,12.57-23.07,19.16-38.69,21.11-3.78-2.32-7.93-4.27-11.47-7.08-31.12-24.77-61.88-49.92-93.12-74.32-5.25-4.15-12.81-5.37-19.28-7.93-.73,1.46-1.46,2.81-2.2,4.27,6.96,4.64,14.16,8.79,20.75,13.79,27.09,20.75,54.31,41.49,80.91,62.97,4.39,3.54,5.86,10.86,8.54,16.35-.73.24-1.46.61-2.2,1.1-2.07.73-4.27,1.46-6.35,2.07-3.91.49-7.93.85-11.84,1.34-3.05.61-6.22,1.34-9.28,1.95-7.2,2.07-14.4,4.15-21.6,6.22h-11.47c-1.34-.98-2.56-1.95-3.91-2.93-25.26-31.12-50.53-62.12-75.42-93.48-2.32-2.93-1.83-8.18-2.56-12.33,7.08-.24,14.03-.49,21.11-.73,2.93-.73,5.86-1.59,8.91-2.32,8.05-4.64,16.11-9.28,24.16-13.91,6.35,4.03,12.33,8.67,18.92,12.08,20.38,10.5,41.49,19.65,61.51,31,22.09,12.57,43.08,26.97,64.56,40.64v.12Z"/><path class="cls-1" d="m845.67,685.74c-13.3-2.32-26.48-4.64-39.79-6.96-3.05-.61-5.98-1.34-9.03-1.95-3.05-1.34-6.1-2.68-9.15-4.03,9.28-14.4,17.09-30.14,28.07-43.08,17.82-20.75,37.83-39.66,56.87-59.31h5.86c1.1.24,2.2.37,3.3.61,9.03,1.83,17.94,3.66,26.97,5.37-1.1,4.76-1.95,9.64-3.42,14.28-9.89,30.39-20.01,60.66-30.02,90.92-.85.24-1.71.73-2.44,1.34-1.95.85-3.91,1.83-5.86,2.68h-.24c-1.1.24-2.2.37-3.42.49-2.93,0-5.86,0-8.79.12-2.93,0-5.98-.24-8.91-.24v-.24Z"/><path class="cls-1" d="m1054.73,685.98c-3.17-1.34-6.35-2.68-9.64-3.91-4.03-12.33-8.05-24.53-12.2-36.86-7.81-23.07-15.74-46.01-23.55-69.08,11.96-1.83,24.04-3.66,36-5.49l3.3,1.22c1.95.85,3.91,1.71,5.74,2.56,11.35,13.18,23.43,25.87,34.05,39.66,15.01,19.28,29.05,39.42,43.45,59.19-8.54,2.07-17.09,4.27-25.75,6.35-4.03.73-8.05,1.46-12.2,2.2-7.08,1.22-14.16,2.44-21.11,3.66-2.07,0-4.15.24-6.1.37s-4.03.24-5.98.37c-2.07,0-4.15-.24-6.1-.37l.12.12Z"/><path class="cls-4" d="m799.66,547.71c-12.57,6.71-25.38,13.06-37.83,20.01-33.56,18.92-67,37.96-100.2,57.36-2.44,1.46-3.3,5.61-4.88,8.54-4.76-2.81-9.64-5.61-14.4-8.42,12.94-6.83,26-13.42,38.69-20.75,27.46-15.74,54.55-32.34,82.26-47.47,10.01-5.37,21.6-7.69,32.46-11.35,1.34.73,2.56,1.34,3.91,2.07Z"/><path class="cls-4" d="m1263.18,630.94c-21.48-13.67-42.47-28.07-64.56-40.64-19.89-11.35-41.01-20.5-61.51-31-6.59-3.42-12.69-7.93-18.92-12.08.85-.49,1.71-.98,2.56-1.59,44.42,12.94,83.23,36.86,121.55,61.75,9.89,6.47,20.5,11.84,30.75,17.82-3.3,1.83-6.59,3.78-9.76,5.61l-.12.12Z"/><path class="cls-4" d="m1131.98,673.29c-14.4-19.77-28.56-39.79-43.45-59.19-10.62-13.79-22.7-26.48-34.05-39.66,3.17-3.42,6.35-6.83,9.64-10.25.73,4.15.24,9.4,2.56,12.33,24.9,31.36,50.28,62.36,75.42,93.48-3.42,1.1-6.71,2.2-10.13,3.17v.12Z"/><path class="cls-4" d="m872.64,570.29c-19.04,19.65-39.05,38.57-56.87,59.31-11.11,12.94-18.79,28.56-28.07,43.08-2.07-1.22-4.03-2.44-6.1-3.78,1.46-5.25,1.46-11.59,4.52-15.38,20.63-25.63,41.98-50.65,62.97-76.03,2.68-3.17,4.03-7.32,6.1-11.11,5.86,1.22,11.72,2.56,17.57,3.78l-.12.12Z"/><path class="cls-4" d="m1009.33,576.15c7.81,23.07,15.74,46.01,23.55,69.08,4.15,12.2,8.18,24.53,12.2,36.86-2.68,0-5.37,0-8.05.12-11.35-29.17-22.82-58.21-33.93-87.5-2.07-5.49-2.68-11.59-3.91-17.45,3.42-.37,6.71-.73,10.13-1.1Z"/><path class="cls-4" d="m875.33,681.47c10.01-30.27,20.14-60.66,30.02-90.92,1.46-4.64,2.32-9.52,3.42-14.28l15.74.37c-7.2,14.03-15.62,27.46-21.11,42.1-8.05,21.36-14.03,43.57-20.99,65.54-2.44-.98-4.76-1.83-7.2-2.81h.12Z"/><path class="cls-4" d="m842.13,563.45c-6.1-.61-12.08-1.22-18.18-1.95,6.1.61,12.08,1.22,18.18,1.95Z"/><path class="cls-4" d="m1094.03,561.26c-2.93.73-5.86,1.59-8.91,2.32,2.93-.73,5.86-1.59,8.91-2.32Z"/><path class="cls-4" d="m1048.63,571.87l-3.3-1.22,3.3,1.22Z"/><path class="cls-4" d="m881.92,570.78c-1.1-.24-2.2-.37-3.3-.61,1.1.24,2.2.37,3.3.61Z"/><path class="cls-4" d="m636.12,641.8c-1.83,3.3-2.81,7.44-5.49,9.89-16.96,15.5-34.29,30.63-51.62,45.77-1.71,1.46-4.27,1.83-6.47,2.81,14.4-15.74,28.68-31.36,43.08-47.11,5.98-6.59,12.08-13.18,18.06-19.65.85,2.81,1.71,5.61,2.56,8.3h-.12Z"/><path class="cls-4" d="m1280.87,620.94c-.61.98-1.34,1.95-1.95,2.93.61-.98,1.34-1.95,1.95-2.93Z"/><path class="cls-4" d="m892.41,687.33c45.64.37,91.29.73,137.05.98,2.32,2.81,4.76,5.61,7.08,8.42-44.67,0-89.34-.12-134-.24-3.54-.49-7.2-1.1-10.74-1.59-1.34-.49-2.68-1.1-4.03-1.59,1.59-2.07,3.17-4.03,4.76-6.1l-.12.12Z"/><path class="cls-4" d="m1208.62,660.36c-2.81-5.61-4.15-12.81-8.54-16.35-26.61-21.48-53.7-42.23-80.91-62.97-6.59-5-13.79-9.28-20.75-13.79.73-1.46,1.46-2.81,2.2-4.27,6.47,2.56,14.03,3.78,19.28,7.93,31.36,24.41,62.12,49.55,93.12,74.32,3.42,2.81,7.57,4.76,11.47,7.08-5.25,2.68-10.62,5.49-15.87,8.18v-.12Z"/><path class="cls-4" d="m1094.15,681.96c4.03-.73,8.05-1.46,12.2-2.2-4.03.73-8.05,1.46-12.2,2.2Z"/><path class="cls-4" d="m1178.97,666.82c3.05-.61,6.22-1.34,9.28-1.95-3.05.61-6.22,1.34-9.28,1.95Z"/><path class="cls-4" d="m1200.08,663.53c2.07-.73,4.27-1.46,6.35-2.07-2.07.73-4.27,1.46-6.35,2.07Z"/><path class="cls-4" d="m1054.73,685.98c2.07,0,4.15.24,6.1.37-2.07,0-4.15-.24-6.1-.37Z"/><path class="cls-4" d="m1060.83,694.41c-2.07.12-4.03.37-6.1.49,2.07-.12,4.03-.37,6.1-.49Z"/><path class="cls-4" d="m1066.81,685.86c2.07,0,4.15-.24,6.1-.37-2.07,0-4.15.24-6.1.37Z"/><path class="cls-4" d="m1076.57,691.84c-1.34.49-2.68.85-4.03,1.34,1.34-.49,2.68-.85,4.03-1.34Z"/><path class="cls-4" d="m1103.42,688.3c-1.22,0-2.44.24-3.78.24,1.22,0,2.44-.24,3.78-.24Z"/><path class="cls-4" d="m1095.12,689.65c-1.46.24-2.81.49-4.27.73,1.46-.24,2.81-.49,4.27-.73Z"/><path class="cls-4" d="m1205.57,669.51c-.73.24-1.46.49-2.2.61.61-.73,1.34-.98,2.2-.61Z"/><path class="cls-4" d="m703,649.01c33.07-33.2,67.61-64.32,110.33-84.21.61.98,1.34,1.83,1.95,2.81-36.61,27.95-73.23,56.02-109.84,83.97l-2.56-2.56h.12Z"/><path class="cls-4" d="m830.29,690.5c-4.15-.73-8.3-1.46-12.45-2.2,4.15.73,8.3,1.46,12.45,2.2Z"/><path class="cls-4" d="m736.32,675.12c-4.03-.85-7.93-1.71-11.96-2.56,4.03.85,7.93,1.71,11.96,2.56Z"/><path class="cls-4" d="m809.06,687.57c-4.03-.85-8.18-1.71-12.2-2.56,4.03.85,8.18,1.71,12.2,2.56Z"/><path class="cls-4" d="m796.85,676.83c3.05.61,5.98,1.34,9.03,1.95-3.05-.61-5.98-1.34-9.03-1.95Z"/><path class="cls-4" d="m848.48,693.18c-3.17-.61-6.22-1.22-9.4-1.83,3.17.61,6.22,1.22,9.4,1.83Z"/><path class="cls-4" d="m845.67,685.74c2.93,0,5.98.24,8.91.24-2.93,0-5.98-.24-8.91-.24Z"/><path class="cls-7" d="m865.93,694.65c.24.73.24,1.59.24,2.32l-8.05-2.56c2.56,0,5.25,0,7.81.12v.12Z"/><path class="cls-7" d="m720.58,672.44c-1.71-.49-3.54-.98-5.25-1.46,1.71.49,3.54.98,5.25,1.46Z"/><path class="cls-4" d="m794.05,684.15c-2.07-.49-4.15-.85-6.22-1.34,2.07.49,4.15.85,6.22,1.34Z"/><path class="cls-4" d="m867.03,685.37c1.95-.85,3.91-1.83,5.86-2.68-1.95.85-3.91,1.83-5.86,2.68Z"/><path class="cls-4" d="m884.97,685.01c1.95.61,4.03,1.34,5.98,1.95-1.95-.61-4.03-1.34-5.98-1.95Z"/><path class="cls-4" d="m863.37,685.86c1.1-.12,2.2-.24,3.42-.37-1.1.12-2.2.24-3.42.37Z"/><path class="cls-4" d="m684.82,660.48c-1.1-.85-2.32-1.59-3.42-2.44,1.1.85,2.32,1.59,3.42,2.44Z"/><path class="cls-4" d="m678.72,657.3l-3.78-1.95,3.78,1.95Z"/><path class="cls-7" d="m864.1,757.01c.73-3.66,1.34-7.2,2.07-10.86-.73,3.66-1.34,7.2-2.07,10.86Z"/><path class="cls-7" d="m891.68,695.02c3.54.49,7.2,1.1,10.74,1.59-3.54-.49-7.2-1.1-10.74-1.59Z"/><path class="cls-4" d="m683.6,674.51c-11.84,14.77-24.16,29.29-35.27,44.55-16.23,22.33-31.49,45.28-47.23,67.86-2.68,3.78-5.61,7.32-9.89,12.57-2.2-16.11,61.14-102.64,88.48-124.73,1.34,0,2.56-.24,3.91-.24Z"/><path class="cls-2" d="m683.6,674.51c-1.34,0-2.56.24-3.91.24,1.34,0,2.56-.24,3.91-.24Z"/></g></svg>